<?xml version="1.0" encoding="UTF-8"?>
<svg id="Layer_1" data-name="Layer 1" xmlns="http://www.w3.org/2000/svg" viewBox="0 0 2278 2000">
  <g id="_12" data-name="12">
    <path d="m382.65,1746.07s-284.74-715.61-79.83-874.96c136.96-106.51,282.14,128.28,455.41,4.07,154.26-110.58-60.81-389.15,196.59-462.03,270.54-76.6,492.19,543.72,719.19,457.95,275.46-104.08,549.46,107.2,312.67,876.32l-1604.03-1.37Z" style="fill: #b0beea;"/>
    <path d="m159.86,1569.91c-4.78-12.95-9.51-26.36-14.06-39.87l11.21-2.95c4.52,13.42,9.22,26.75,13.96,39.61l-11.11,3.21Zm2004.77-16.72l-11.6-1.27c1.93-13.78,3.76-27.66,5.44-41.25l11.62,1.12c-1.69,13.64-3.52,27.57-5.46,41.4Zm-2031.73-63.32c-4.09-13.35-8.06-26.95-11.8-40.42l11.36-2.46c3.71,13.39,7.66,26.91,11.72,40.18l-11.28,2.7Zm2041.97-19.55l-11.64-.97c1.48-13.84,2.85-27.76,4.07-41.37l11.65.82c-1.23,13.67-2.6,27.64-4.09,41.53Zm-2064.45-61.54c-3.38-13.6-6.59-27.36-9.55-40.88l11.48-1.96c2.94,13.44,6.14,27.11,9.49,40.63l-11.42,2.22Zm2071.89-21.57l-11.67-.65c.99-13.83,1.86-27.78,2.58-41.46l11.68.48c-.72,13.74-1.59,27.74-2.59,41.63Zm-2089.82-60.4c-2.6-13.77-5.01-27.66-7.15-41.27l11.58-1.43c2.13,13.52,4.52,27.32,7.11,41l-11.53,1.7Zm2094.2-22.89l-11.69-.3c.46-13.89.77-27.85.93-41.5l11.69.11c-.17,13.71-.48,27.74-.94,41.69Zm-2107.22-59.82c-1.74-13.91-3.26-27.9-4.51-41.58l11.65-.83c1.24,13.58,2.75,27.46,4.48,41.27l-11.62,1.14Zm2096.51-23.49c-.14-13.9-.44-27.86-.89-41.49l11.69-.3c.45,13.7.75,27.73.89,41.7l-11.69.09Zm-2104.09-59.78c-.78-13.99-1.29-28.04-1.53-41.75l11.69-.16c.24,13.6.75,27.53,1.52,41.4l-11.68.51Zm2101.32-23.16c-.8-13.88-1.79-27.81-2.93-41.4l11.66-.77c1.15,13.67,2.14,27.68,2.95,41.64l-11.68.53Zm-2091.05-60.16l-11.69-.21c.33-14.03.95-28.08,1.87-41.76l11.67.61c-.9,13.55-1.53,27.47-1.85,41.36Zm2084.06-22.55c-1.56-13.88-3.33-27.74-5.26-41.2l11.6-1.3c1.94,13.55,3.72,27.5,5.29,41.47l-11.63,1.02ZM87.72,994.9l-11.63-1.03c1.59-13.97,3.52-27.94,5.75-41.52l11.57,1.49c-2.21,13.42-4.12,27.24-5.69,41.06Zm2066.7-22.17c-2.43-13.79-5.1-27.53-7.94-40.84l11.49-1.91c2.86,13.41,5.55,27.26,8,41.16l-11.55,1.59Zm-1382.7-1.46c-16.25-2.26-28-8.8-44.27-20.09l7.39-8.01c14.26,9.86,24.56,15.78,38.13,17.82l-1.25,10.28Zm40.56-24.59l-10.41-4.7c5.35-9.26,10.08-22.12,14.06-38.21l11.42,2.21c-4.25,17.19-9.18,30.51-15.07,40.7Zm-119.15-25.14c-9.31-9.17-19.27-19.72-30.43-32.26l9.19-6.39c11,12.36,20.8,22.74,29.94,31.74l-8.7,6.9Zm-591.91-8.48l-11.48-1.97c3.03-13.79,6.46-27.55,10.19-40.88l11.35,2.48c-3.68,13.16-7.07,26.74-10.06,40.37Zm2035.81-21.74c-3.46-13.65-7.2-27.18-11.1-40.22l11.3-2.64c3.94,13.16,7.71,26.82,11.2,40.6l-11.41,2.26Zm-1301.81-26.94l-11.6-1.32c1.8-12.34,3.41-25.84,4.92-41.3l11.65.89c-1.53,15.6-3.16,29.24-4.97,41.72Zm-201.15-8.4c-9.5-11.34-19.36-23.34-27.85-33.69l9.46-6.07c8.48,10.33,18.31,22.3,27.79,33.6l-9.4,6.15Zm855.94-.85c-9.1,0-18.04-2.4-26.55-7.15l6.23-8.74c12.79,7.14,25.37,7.15,38.95,1.46l5.03,9.33c-8.03,3.38-15.99,5.1-23.67,5.1Zm-1366.3-22.27l-11.18-3.02c4.65-13.43,9.74-26.78,15.15-39.69l10.96,3.59c-5.33,12.72-10.35,25.89-14.93,39.13Zm1428.2-9.85l-8.59-7.01c8.86-8.49,18.37-18.95,29.05-32l9.47,6.06c-10.96,13.38-20.75,24.16-29.93,32.95Zm-121.69-7.11c-7.57-10.32-15.06-22.47-22.92-37.14l10.57-4.42c7.63,14.26,14.88,26.01,22.17,35.94l-9.81,5.62Zm682.8-4.58c-4.71-13.39-9.74-26.57-14.94-39.18l10.98-3.54c5.27,12.76,10.35,26.1,15.12,39.65l-11.16,3.07Zm-1534.51-22.73c-10.7-12.92-19.61-23.53-28.05-33.38l9.32-6.24c8.48,9.9,17.43,20.55,28.17,33.52l-9.44,6.1Zm265.2-7.68l-11.67-.67c.89-12.11,1.79-25.72,2.76-41.6l11.67.56c-.97,15.92-1.87,29.57-2.76,41.71Zm-687.54-25.44l-10.7-4.17c6.42-12.85,13.26-25.47,20.52-37.8l10.37,4.78c-7.15,12.14-13.88,24.55-20.2,37.2Zm1452.46,0l-9.77-5.68c8.31-11.16,16.89-22.99,25.58-34.94l9.84,5.59c-8.71,11.98-17.3,23.82-25.64,35.04Zm-220.15-15.28c-5.3-11.74-10.77-24.55-16.73-39.16l11-3.51c5.92,14.5,11.35,27.21,16.59,38.84l-10.86,3.83Zm692.4-6.45c-6.29-12.94-12.93-25.51-19.76-37.37l10.42-4.69c6.94,12.05,13.7,24.83,20.09,37.98l-10.74,4.08Zm-1559.29-11.28c-10.61-11.64-20.48-22-30.19-31.67l8.75-6.86c9.83,9.79,19.82,20.28,30.55,32.05l-9.1,6.48Zm327.31-24.95l-11.68-.52c.79-13.81,1.57-27.62,2.4-41.68l11.68.54c-.83,14.05-1.62,27.85-2.4,41.65Zm811-11.98l-9.75-5.7c9.77-13.06,18.5-24.37,26.71-34.55l9.52,5.99c-8.12,10.08-16.79,21.29-26.48,34.25Zm-1460.35-2.92l-9.85-5.56c9.19-12.72,18.66-24.2,28.15-34.14l8.93,6.67c-9.16,9.59-18.32,20.7-27.23,33.03Zm1156.59-21.02c-5.36-13.89-10.62-27.78-15.06-39.55l11.09-3.27c4.43,11.74,9.68,25.62,15.04,39.48l-11.07,3.34Zm-896.88-.72c-11.95-10.28-23.7-19.37-34.92-27l7.13-8.19c11.58,7.88,23.68,17.23,35.95,27.79l-8.16,7.4Zm1579.16-.44c-8.38-12.08-17.16-23.51-26.11-33.97l9.32-6.23c9.18,10.72,18.18,22.43,26.75,34.8l-9.97,5.4Zm-1778.84-38.96l-7.09-8.22c13.96-9.41,28.49-16.2,43.19-20.18l3.42,9.88c-13.37,3.62-26.66,9.84-39.52,18.51Zm1455.01-3.16l-9.08-6.51c10.96-11.96,21.35-22.25,31.76-31.46l8.27,7.3c-10.12,8.95-20.24,18.98-30.95,30.66Zm-860.65-4.06l-11.67-.61c1.01-15.02,2.02-28.66,3.07-41.7l11.66.74c-1.05,13-2.05,26.6-3.06,41.58Zm-468.25-2.16c-14.59-6.42-28.94-10.51-42.65-12.17l1.59-10.24c14.97,1.81,30.54,6.24,46.27,13.16l-5.21,9.25Zm1596.55-16.7c-11.25-10.19-22.91-19.19-34.64-26.74l6.88-8.35c12.26,7.89,24.41,17.27,36.12,27.88l-8.37,7.22Zm-656.07-12.87c-5.82-15.38-10.61-27.91-15.08-39.45l11.06-3.35c4.49,11.57,9.29,24.13,15.11,39.53l-11.09,3.28Zm454.35-21.24l-6.7-8.47c14.38-8.89,28.9-15.48,43.17-19.57l3.61,9.83c-13.16,3.78-26.64,9.91-40.08,18.21Zm127.57-12.66c-14.48-5.4-29.14-8.74-43.56-9.93l1.09-10.29c15.62,1.29,31.44,4.89,47.02,10.7l-4.54,9.52Zm-1047.35-17.43l-11.65-.91c1.46-14.5,3.04-28.5,4.71-41.62l11.62,1.16c-1.66,13.04-3.24,26.96-4.68,41.38Zm434.8-27.43c-5.65-13.94-10.97-26.68-16.28-38.95l10.92-3.69c5.33,12.34,10.68,25.15,16.36,39.15l-11.01,3.49Zm-424.16-55.15l-11.57-1.48c2.36-14.47,4.96-28.38,7.73-41.36l11.49,1.91c-2.73,12.83-5.3,26.6-7.64,40.92Zm390.51-22.38c-6.28-13.36-12.61-26.14-18.82-37.98l10.61-4.34c6.27,11.97,12.67,24.88,19.01,38.36l-10.8,3.97Zm-372.94-58.98l-11.34-2.5c4.08-14.43,8.57-28.02,13.36-40.4l11.06,3.34c-4.68,12.1-9.08,25.41-13.08,39.56Zm333.36-16.09c-7.69-12.8-15.54-24.82-23.35-35.72l9.88-5.53c7.96,11.12,15.96,23.37,23.79,36.4l-10.33,4.85Zm-302.72-61.34l-10.48-4.57c7.68-13.75,16.19-25.91,25.3-36.13l9.18,6.39c-8.61,9.66-16.69,21.21-24,34.31Zm252.58-7.9c-10.22-11.32-20.76-21.35-31.34-29.8l7.84-7.67c11.05,8.83,22.03,19.27,32.64,31.02l-9.14,6.44Zm-195.96-53.2l-6.3-8.7c13.85-7.83,29.11-12.93,45.35-15.14l1.78,10.21c-14.62,1.99-28.36,6.58-40.83,13.63Zm127.73,0c-13.62-6.49-27.81-10.93-42.17-13.19l2.05-10.17c15.59,2.45,30.95,7.25,45.66,14.26l-5.55,9.1Z" style="fill: #dce6ff;"/>
    <path d="m2149.85,1471.42c-91.36-14.84-76.46,119.27-206.69,119.27-119.07,0-157.17-510.72-243.8-364.73-444.14,748.45-186.24-318.29-539.46-331.85-159.72-6.13-266.14,180.55-305.39,511.06-56.89,298.8-188.82-227.9-324.6-178.93-86.29,31.12-48.14,398.45-190.36,392.77-130.15-5.2-120.44-162.44-211.81-147.6C29.38,1487.4,0,1724.77,0,1724.77h2277.6s-29.38-237.37-127.75-253.36Z" style="fill: #eef7ff;"/>
    <path d="m2152.8,1635.6c-89.25-6.73-74.69,54.08-201.92,54.08-116.32,0-113.13-136.29-190.97-165.25-143.35-53.34-261.53,216.62-317.11,81.13-105.55-359.51-413.41-539.8-555.43,0-55.58,135.49-185.54-106.27-317.11-81.13-80.98,15.47-74.65,165.25-190.97,165.25-127.23,0-112.66-60.81-201.92-54.08-96.1,7.25-124.8,114.88-124.8,114.88h2225.01s-28.7-107.63-124.8-114.88Z" style="fill: #dce6ff;"/>
    <path d="m1.11,1757.03s-13.37,56.15,52.74,69.37c90.41,18.09,620.24,41.06,491.31,77.17-72.78,20.39,37.15,48.07,391.65,58.26,354.5,10.19,962.79-29.74,758.23-88.84-204.56-59.09,631.11,6.95,580.34-115.96H1.11Z" style="fill: #cfddf9;"/>
  </g>
  <path id="_11" data-name="11" d="m2017.62,883.02l48.05-75.09-43.21-27.52c5.17-15.56,8.12-31.55,8.94-47.55l50.59-11.14-19.25-87-48.69,10.72c-7.99-16.85-18.62-32.59-31.74-46.52l28.37-44.34-75.27-47.94-28.37,44.34c-16.9-5.59-34.3-8.57-51.67-9.08l-10.11-45.7-87.2,19.2,10.11,45.7c-15.54,7.75-30.07,17.76-43.04,29.93l-43.21-27.52-48.05,75.09,43.21,27.52c-6.03,18.15-9.03,36.89-9.17,55.53l-48.69,10.72,19.25,87,50.59-11.14c7.49,14.16,16.91,27.43,28.17,39.37l-28.37,44.34,75.27,47.94,28.37-44.34c16.9,5.59,34.3,8.57,51.67,9.08l11.78,53.26,87.2-19.2-11.78-53.26c15.54-7.75,30.07-17.76,43.04-29.93l43.21,27.52Zm-207.16-88.42c-93.29-51.92-15-193.32,78.63-142.64,93.29,51.91,14.99,193.32-78.63,142.64Z" style="fill: #eb5648;"/>
  <g id="_10" data-name="10">
    <rect x="1019.04" y="1570.43" width="253.05" height="228.66" style="fill: #255084;"/>
    <rect x="1019.04" y="1436.23" width="253.05" height="259.71" style="fill: #1d3f70;"/>
    <path d="m1533.28,1843.88h-775.45c-15.57,0-28.18-12.59-28.18-28.12h0c0-15.53,12.62-28.12,28.18-28.12h775.45c15.57,0,28.18,12.59,28.18,28.12h0c0,15.53-12.62,28.12-28.18,28.12Z" style="fill: #1d3f70;"/>
    <rect x="673.87" y="473.1" width="943.38" height="1427.59" rx="57.14" ry="57.14" transform="translate(2332.46 41.34) rotate(90)" style="fill: #255084;"/>
    <ellipse cx="1145.56" cy="1604.93" rx="29.92" ry="29.85" style="fill: #1d3f70;"/>
    <polygon points="1803.46 770.62 1803.46 998.73 1463.47 1510.67 487.67 1185.26 487.67 770.62 1803.46 770.62" style="fill: #b0beea;"/>
    <path d="m487.67,1185.26s196.33-179.35,395.38-69.96c199.06,109.39,234.96,328.76,501.79,306.78,273.86-22.56,91.37-387.08,418.62-423.36v538.58H487.67v-352.04Z" style="fill: #f92572;"/>
    <path d="m487.67,770.62s49.9,208.23,367.38,158.93c290.52-45.12,275.71,261.83,465.72,272.85,190.01,11.02,245.9-208.93,315.94-286.01,70.04-77.08,166.76-63.92,166.76-63.92v-81.85H487.67Z" style="fill: #d9e4f9;"/>
    <path d="m1089.17,1229.6c-.23,0-.45-.05-.66-.17l-405.18-222.3c-.67-.37-.91-1.21-.55-1.88.37-.67,1.21-.91,1.88-.55l405.18,222.3c.67.37.91,1.21.55,1.88-.25.46-.72.72-1.21.72Z" style="fill: #1d3f70;"/>
    <rect x="871.51" y="1104.67" width="15.07" height="15.04" style="fill: #1d3f70;"/>
    <ellipse cx="683.99" cy="1005.92" rx="6.35" ry="6.34" style="fill: #1d3f70;"/>
    <path d="m1095.52,1228.22c0,3.5-2.84,6.34-6.35,6.34s-6.35-2.84-6.35-6.34,2.84-6.34,6.35-6.34,6.35,2.84,6.35,6.34Z" style="fill: #1d3f70;"/>
    <rect x="1377.3" y="1414.22" width="15.07" height="15.04" style="fill: #1d3f70;"/>
    <path d="m1118.01,1445.45c-.71,0-1.32-.55-1.38-1.27-.06-.76.5-1.43,1.26-1.49l542.15-44.68c.79-.07,1.43.5,1.49,1.26.06.76-.5,1.43-1.26,1.49l-542.15,44.68s-.08,0-.11,0Z" style="fill: #1d3f70;"/>
    <path d="m1124.36,1444.07c0,3.5-2.84,6.34-6.35,6.34s-6.35-2.84-6.35-6.34,2.84-6.34,6.35-6.34,6.35,2.84,6.35,6.34Z" style="fill: #1d3f70;"/>
    <path d="m1666.51,1399.39c0,3.5-2.84,6.34-6.35,6.34s-6.35-2.84-6.35-6.34,2.84-6.34,6.35-6.34,6.35,2.84,6.35,6.34Z" style="fill: #1d3f70;"/>
  </g>
  <g id="_9" data-name="9">
    <rect x="1414.08" y="1040.05" width="294.78" height="186.47" rx="29.22" ry="29.22" transform="translate(3122.94 2266.57) rotate(180)" style="fill: #fff;"/>
    <rect x="1625.47" y="1082.2" width="42.53" height="42.63" transform="translate(2750.25 -543.22) rotate(90)" style="fill: #397caa;"/>
    <rect x="1625.47" y="1141.75" width="42.53" height="42.63" transform="translate(2809.79 -483.67) rotate(90)" style="fill: #ff7b7b;"/>
    <rect x="1582.83" y="1082.2" width="42.53" height="42.63" transform="translate(2707.61 -500.59) rotate(90)" style="fill: #2e6999;"/>
    <rect x="1582.83" y="1141.75" width="42.53" height="42.63" transform="translate(2767.16 -441.04) rotate(90)" style="fill: #f66;"/>
    <rect x="1540.2" y="1082.2" width="42.53" height="42.63" transform="translate(2664.98 -457.96) rotate(90)" style="fill: #285989;"/>
    <rect x="1540.2" y="1141.75" width="42.53" height="42.63" transform="translate(2724.53 -398.41) rotate(90)" style="fill: #f95c58;"/>
    <rect x="1497.57" y="1082.2" width="42.53" height="42.63" transform="translate(2622.35 -415.32) rotate(90)" style="fill: #1f4777;"/>
    <rect x="1497.57" y="1141.75" width="42.53" height="42.63" transform="translate(2681.9 -355.78) rotate(90)" style="fill: #eb5648;"/>
    <rect x="1454.94" y="1082.2" width="42.53" height="42.63" transform="translate(2579.72 -372.69) rotate(90)" style="fill: #103663;"/>
    <rect x="1454.94" y="1141.75" width="42.53" height="42.63" transform="translate(2639.27 -313.14) rotate(90)" style="fill: #ce3932;"/>
  </g>
  <g id="_8" data-name="8">
    <rect x="641.95" y="807.3" width="346.06" height="153.27" rx="22.26" ry="22.26" style="fill: #667ecc;"/>
    <rect x="670.53" y="855.68" width="37.75" height="37.66" style="fill: #1d3f70;"/>
    <rect x="689.4" y="874.52" width="37.75" height="37.66" style="fill: #1d3f70;"/>
    <rect x="747.96" y="855.68" width="37.75" height="37.66" style="fill: #1d3f70;"/>
    <rect x="766.83" y="874.52" width="37.75" height="37.66" style="fill: #a9bff7;"/>
    <polygon points="863.14 855.68 863.14 874.52 844.26 874.52 844.26 893.35 825.38 893.35 825.38 855.68 863.14 855.68" style="fill: #a9bff7;"/>
    <rect x="844.26" y="874.52" width="18.88" height="18.83" style="fill: #1d3f70;"/>
    <polygon points="882.01 874.52 882.01 912.18 844.26 912.18 844.26 893.35 863.14 893.35 863.14 874.52 882.01 874.52" style="fill: #a9bff7;"/>
    <polygon points="940.56 855.68 940.56 874.52 921.69 874.52 921.69 893.35 902.81 893.35 902.81 855.68 940.56 855.68" style="fill: #1d3f70;"/>
    <rect x="921.69" y="874.52" width="18.88" height="18.83" style="fill: #a9bff7;"/>
    <polygon points="959.44 874.52 959.44 912.18 921.69 912.18 921.69 893.35 940.56 893.35 940.56 874.52 959.44 874.52" style="fill: #1d3f70;"/>
  </g>
  <g id="_7" data-name="7">
    <rect x="743.41" y="1311.29" width="156.02" height="155.65" rx="25.58" ry="25.58" style="fill: #a9bff7;"/>
    <path d="m860.06,1383.8v43.85h-44.01v-43.85h44.01Zm11.29-11.29h-66.58v66.43h66.58v-66.43h0Z" style="fill: #fff;"/>
    <rect x="771.48" y="1339.29" width="66.58" height="66.43" style="fill: #f92572;"/>
    <path d="m804.77,1440.67c-.45,0-.89-.17-1.23-.51-.68-.68-.68-1.78,0-2.46l66.58-66.43c.68-.68,1.78-.68,2.46,0,.68.68.68,1.78,0,2.46l-66.58,66.43c-.34.34-.78.51-1.23.51Z" style="fill: #eb5648;"/>
  </g>
  <g id="_6" data-name="6">
    <rect x="272.09" y="699.39" width="383.45" height="212.55" rx="27.23" ry="27.23" transform="translate(1269.47 341.85) rotate(90)" style="fill: #667ecc;"/>
    <path d="m540.8,946.72l-21.05-21c3.27-3.93,5.05-8.82,5.05-13.99,0-5.86-2.29-11.37-6.44-15.51-8.57-8.55-22.51-8.55-31.08,0-4.15,4.14-6.44,9.65-6.44,15.51s2.29,11.37,6.44,15.51c4.28,4.27,9.91,6.41,15.54,6.41,4.98,0,9.96-1.68,14.02-5.04l21.06,21.01,2.9-2.9Zm-50.61-22.38c-3.37-3.37-5.23-7.84-5.23-12.6s1.86-9.24,5.23-12.6c3.48-3.48,8.06-5.21,12.64-5.21s9.16,1.74,12.64,5.21c3.37,3.37,5.23,7.84,5.23,12.6s-1.86,9.24-5.23,12.6c-6.97,6.95-18.31,6.95-25.28,0Z" style="fill: #fff;"/>
    <path d="m511.13,797.19c-6.8,0-13.61-2.58-18.79-7.75-5.02-5.01-7.78-11.67-7.78-18.75s2.76-13.74,7.78-18.75c10.36-10.34,27.22-10.34,37.58,0h0c5.02,5.01,7.79,11.67,7.79,18.75s-2.77,13.74-7.79,18.75c-5.18,5.17-11.98,7.75-18.79,7.75Zm0-48.91c-5.76,0-11.51,2.19-15.89,6.56-4.24,4.23-6.58,9.86-6.58,15.85s2.34,11.61,6.58,15.85c8.76,8.74,23.02,8.74,31.78,0,4.24-4.23,6.58-9.86,6.58-15.85s-2.34-11.61-6.58-15.85h0c-4.38-4.37-10.14-6.56-15.89-6.56Z" style="fill: #fff;"/>
    <rect x="483.45" y="843.3" width="55.36" height="4.1" transform="translate(-447.78 607.93) rotate(-44.93)" style="fill: #fff;"/>
    <path d="m395.03,671.2l34.58,23.05-19.44-1.73c-.12-.01-.24-.02-.36-.02-1.59,0-3.05.92-3.73,2.39l-8.16,17.73-2.89-41.42h0Zm-4.67-8.04l4.58,65.74,14.87-32.29,35.48,3.15-54.93-36.6h0Z" style="fill: #fff;"/>
    <polygon points="483.67 663.15 488.25 728.89 503.11 696.6 538.59 699.75 483.67 663.15" style="fill: #fff;"/>
    <polygon points="395.02 823.42 395.02 833.84 399.12 833.84 399.12 827.52 415.77 827.52 415.77 863.18 409.53 863.18 409.53 867.28 426.1 867.28 426.1 863.18 419.87 863.18 419.87 827.52 436.51 827.52 436.51 833.84 440.61 833.84 440.61 823.42 395.02 823.42" style="fill: #fff;"/>
    <rect x="380.19" y="779.42" width="55.37" height="4.1" transform="translate(-432.83 516.35) rotate(-44.94)" style="fill: #fff;"/>
    <path d="m422.14,753.6c-5.5,0-9.96,4.45-9.96,9.94,0-5.49-4.46-9.94-9.96-9.94,5.5,0,9.96-4.45,9.96-9.94,0,5.49,4.46,9.94,9.96,9.94Z" style="fill: #fff;"/>
    <path d="m441.71,747.84c-4.15,0-7.51,3.36-7.51,7.5,0-4.14-3.36-7.5-7.51-7.5,4.15,0,7.51-3.36,7.51-7.5,0,4.14,3.36,7.5,7.51,7.5Z" style="fill: #fff;"/>
    <path d="m447.36,766.41c-4.15,0-7.51,3.36-7.51,7.5,0-4.14-3.36-7.5-7.51-7.5,4.15,0,7.51-3.36,7.51-7.5,0,4.14,3.36,7.5,7.51,7.5Z" style="fill: #fff;"/>
    <path d="m444,893.92c-1.79-1.79-4.7-1.79-6.49,0l-5.16,5.14-1.91-1.91c-1.79-1.79-4.7-1.79-6.49,0h0c-1.49,1.48-1.72,3.72-.74,5.47l-32.47,32.35c-1.61,1.61-2.5,3.74-2.5,6.02,0,2.27.88,4.41,2.49,6.02,1.66,1.66,3.85,2.49,6.03,2.49s4.36-.83,6.02-2.48l32.48-32.35c1.75.98,3.99.75,5.48-.73,1.79-1.79,1.8-4.68,0-6.47l-1.91-1.91,5.16-5.14c1.79-1.79,1.8-4.68,0-6.47Zm-44.11,50.18c-1.73,1.72-4.53,1.72-6.26,0-.83-.83-1.29-1.94-1.29-3.11,0-1.18.46-2.28,1.3-3.11l32.34-32.22,6.24,6.24-32.33,32.21Z" style="fill: #fff;"/>
  </g>
  <g id="_5" data-name="5">
    <rect x="650.72" y="515.32" width="523.65" height="128.77" rx="25.1" ry="25.1" style="fill: #667ecc;"/>
    <rect x="683.06" y="554.18" width="4.63" height="55.69" style="fill: #fff;"/>
    <rect x="691.19" y="560.63" width="27.37" height="15.79" style="fill: #fff;"/>
    <rect x="691.19" y="581.09" width="37.46" height="15.79" style="fill: #fff;"/>
    <rect x="888.25" y="554.18" width="4.63" height="55.69" style="fill: #fff;"/>
    <rect x="857.38" y="560.63" width="27.37" height="15.79" transform="translate(1742.13 1137.04) rotate(180)" style="fill: #fff;"/>
    <rect x="847.29" y="581.09" width="37.46" height="15.79" transform="translate(1732.04 1177.96) rotate(180)" style="fill: #fff;"/>
    <rect x="785.65" y="554.18" width="4.63" height="55.69" style="fill: #fff;"/>
    <rect x="771.34" y="560.63" width="33.27" height="15.79" style="fill: #fff;"/>
    <rect x="765.2" y="581.09" width="45.54" height="15.79" style="fill: #fff;"/>
    <rect x="1002.93" y="579.71" width="55.82" height="4.63" style="fill: #fff;"/>
    <rect x="1027.78" y="574.11" width="33.19" height="15.83" transform="translate(1626.4 -462.35) rotate(90)" style="fill: #fff;"/>
    <rect x="1001.15" y="574.11" width="45.43" height="15.83" transform="translate(1605.9 -441.84) rotate(90)" style="fill: #fff;"/>
    <rect x="921.97" y="554.15" width="55.82" height="4.63" style="fill: #fff;"/>
    <rect x="943.54" y="570.84" width="33.19" height="15.83" transform="translate(1538.89 -381.39) rotate(90)" style="fill: #fff;"/>
    <rect x="916.91" y="576.96" width="45.43" height="15.83" transform="translate(1524.5 -354.76) rotate(90)" style="fill: #fff;"/>
    <rect x="1083.89" y="605.27" width="55.82" height="4.63" style="fill: #fff;"/>
    <rect x="1105.46" y="577.39" width="33.19" height="15.83" transform="translate(536.75 1707.35) rotate(-90)" style="fill: #fff;"/>
    <rect x="1078.83" y="571.27" width="45.43" height="15.83" transform="translate(522.36 1680.72) rotate(-90)" style="fill: #fff;"/>
  </g>
  <path id="_4" data-name="4" d="m600.01,485.01l6.06-31.12-23.89-4.63c.07-5.04-.26-10.01-1.02-14.88l22.98-7.9-10.35-29.97-23.01,7.91c-2.44-4.34-5.23-8.47-8.36-12.36l15.97-18.33-23.98-20.79-15.95,18.31c-4.24-2.52-8.74-4.7-13.45-6.51l4.64-23.84-31.19-6.04-4.64,23.83c-5.05-.07-10.03.26-14.91,1.02l-7.92-22.93-30.04,10.33,7.93,22.96c-4.35,2.43-8.49,5.22-12.38,8.34l-18.37-15.93-20.84,23.93,18.35,15.91c-2.53,4.23-4.71,8.72-6.53,13.42l-23.89-4.63-6.06,31.12,23.89,4.63c-.07,5.03.26,10.01,1.02,14.88l-22.98,7.9,10.35,29.97,23.01-7.91c2.44,4.34,5.23,8.47,8.36,12.36l-15.97,18.33,23.98,20.79,15.95-18.31c4.24,2.52,8.74,4.7,13.45,6.51l-4.64,23.84,31.19,6.04,4.64-23.83c5.05.07,10.03-.26,14.91-1.02l7.92,22.93,30.04-10.33-7.93-22.96c4.35-2.43,8.49-5.22,12.38-8.34l18.37,15.93,20.84-23.93-18.35-15.91c2.53-4.23,4.71-8.72,6.53-13.42l23.89,4.63Zm-115.95,6.91c-57.61-12.19-40.9-97.97,17.09-87.75,57.61,12.19,40.9,97.97-17.09,87.75Z" style="fill: #f92572;"/>
  <path id="_3" data-name="3" d="m2083.83,1141.13l4.17-21.4-16.43-3.18c.05-3.46-.18-6.88-.7-10.23l15.81-5.43-7.12-20.61-15.83,5.44c-1.68-2.99-3.6-5.83-5.75-8.5l10.98-12.61-16.5-14.3-10.97,12.59c-2.92-1.73-6.01-3.23-9.25-4.48l3.19-16.39-21.45-4.16-3.19,16.39c-3.47-.05-6.9.18-10.26.7l-5.45-15.77-20.66,7.1,5.45,15.79c-2.99,1.67-5.84,3.59-8.52,5.73l-12.64-10.96-14.34,16.46,12.62,10.94c-1.74,2.91-3.24,6-4.49,9.23l-16.43-3.18-4.17,21.4,16.43,3.18c-.05,3.46.18,6.88.7,10.23l-15.81,5.43,7.12,20.61,15.83-5.44c1.68,2.99,3.6,5.83,5.75,8.5l-10.98,12.61,16.5,14.3,10.97-12.59c2.92,1.73,6.01,3.23,9.25,4.48l-3.19,16.39,21.45,4.16,3.19-16.39c3.47.05,6.9-.18,10.26-.7l5.45,15.77,20.66-7.1-5.45-15.79c2.99-1.67,5.84-3.59,8.52-5.73l12.64,10.96,14.34-16.46-12.62-10.94c1.74-2.91,3.24-6,4.49-9.23l16.43,3.18Zm-79.74,4.75c-39.62-8.38-28.13-67.38,11.75-60.35,39.62,8.38,28.13,67.38-11.75,60.35Z" style="fill: #3a67b3;"/>
  <g id="_2" data-name="2">
    <path d="m1429.18,326.8s11.56-21.86,46.22-15.11c34.66,6.75,42.51,50.76,54.13,70.85,24.62,42.56,31.75,87.64,18.61,109.17-14.59,23.91-46.31,14.27-92.71,9.6-49.52-4.98-69.94-48.05-38.65-106.81l12.4-67.7Z" style="fill: #020001;"/>
    <path d="m1442.79,428.93c-13.73,19.75-23.16,116.5-23.5,124.02-15.96-1.3-54.3-4.43-70.65-5.76-4.34-35.48,43.33-107.8,86.36-116.07h0c4.85-1.61,7.79-2.19,7.79-2.19Z" style="fill: #3a72aa;"/>
    <path d="m1237.32,961.12l69.02-.22c-.09-11.01-2.86-33.25-.57-45.79,0,0-29.82,3.6-29.82,3.6.78,6.04,2.51,19.14-7.55,22.19-13.04,3.96-27.18,2.6-35.37,12.52-2.13,3.34.32,7.71,4.29,7.7Z" style="fill: #f99370;"/>
    <path d="m1308.34,954.27c-.27,2.33-.91,4.59-2.08,6.64l-69.7.22c-3.39.01-5.85-3.31-4.74-6.5,2.62-7.46,11.3-18.28,43.42-20.06,0,0,11.75,1.96,29.71-1.34,0,0,4.52,11.6,3.39,21.05Z" style="fill: #1d3f70;"/>
    <path d="m1252.42,952.1c-.55,0-1.07-.33-1.3-.88-2.57-6.28-7.19-8.19-7.38-8.27-3.65-5.64,6.86-1.65,9.99,7.2.4.9-.34,1.97-1.32,1.94Z" style="fill: #e8c0a6;"/>
    <path d="m1263.39,950.75c-.6,0-1.15-.39-1.34-.99-2.28-7.27-8.65-10.62-8.71-10.65-3.32-6.56,8.9.43,11.41,9.81.3.89-.42,1.85-1.36,1.83Z" style="fill: #e8c0a6;"/>
    <path d="m1275.87,949.18c-.58,0-1.12-.37-1.32-.94-2.66-7.55-8.76-11.65-8.82-11.69-2.56-6.88,8.54,1.44,11.49,10.76.34.9-.39,1.9-1.34,1.88Z" style="fill: #e8c0a6;"/>
    <path d="m1231.95,954.51l76.47-.24c-.27,2.33-.91,4.59-2.08,6.64l-69.7.22c-3.44.02-5.91-3.41-4.7-6.62Z" style="fill: #395b96;"/>
    <path d="m1458.03,699.93c-33.96-1.69-92.99-20.82-118.85,22.1-28.31,46.87-22.25,146.83-19.81,195.13-37.39,11.69-57.34-.45-57.34-.45-15.11-98.95-65.68-324.47,109.04-291.87,0,0,117.33.91,117.33.91,19.31,40.06,1.5,73.76-30.37,74.18Z" style="fill: #eb5648;"/>
    <path d="m1320.09,961.76l69.02-.22c-.09-11.01-2.86-33.25-.57-45.79,0,0-29.82,3.61-29.82,3.61.78,6.04,2.74,19.14-7.55,22.19-13.06,3.87-27.18,2.6-35.38,12.52-2.13,3.34.32,7.71,4.29,7.7Z" style="fill: #f99370;"/>
    <path d="m1391.19,954.91c-.27,2.33-.91,4.59-2.08,6.64l-69.7.22c-3.39.01-5.85-3.31-4.74-6.5,2.62-7.46,11.4-18.47,43.52-20.25,0,0,11.57,2.3,29.53-1.01,0,0,4.59,11.45,3.46,20.9Z" style="fill: #1d3f70;"/>
    <path d="m1335.18,952.74c-.55,0-1.07-.33-1.3-.88-2.57-6.28-7.19-8.19-7.38-8.27-3.65-5.64,6.86-1.65,9.99,7.2.4.9-.34,1.97-1.32,1.94Z" style="fill: #e8c0a6;"/>
    <path d="m1346.15,951.39c-.6,0-1.15-.39-1.34-.99-2.28-7.27-8.65-10.62-8.71-10.65-3.32-6.56,8.9.43,11.41,9.81.3.89-.42,1.85-1.36,1.83Z" style="fill: #e8c0a6;"/>
    <path d="m1358.63,949.82c-.58,0-1.12-.37-1.32-.94-2.66-7.55-8.76-11.65-8.82-11.69-2.56-6.88,8.54,1.44,11.49,10.76.34.9-.39,1.9-1.34,1.88Z" style="fill: #e8c0a6;"/>
    <path d="m1314.72,955.15l76.47-.24c-.27,2.33-.91,4.59-2.08,6.64l-69.7.22c-3.44.02-5.91-3.41-4.7-6.62Z" style="fill: #395b96;"/>
    <path d="m1380.62,624.91l-10.61,72.91c-44.01,16.9-47.52,62.93-51.93,114.74-19.69-80.26-17.29-161.21,62.54-187.65Z" style="fill: #ce3932;"/>
    <path d="m1512.8,707.26c-37.46,18.38-81.63-6.14-107.02,44.02-20.52,43.93-9.87,128.28-4.62,166.52-37.39,11.69-57.34-.45-57.34-.45-21.45-85.42-70.47-283.94,72.51-292.16,39.14-.94,90.56-.2,125.16-2.01,0,0,17.65,61.34-28.68,84.07Z" style="fill: #eb5648;"/>
    <path d="m1382.18,522.94c-.68,0-1.23-.6-1.16-1.28,2.49-19.33,23.22-44.24,25.91-42.88,1.82,2.38-22.03,22.97-23.58,43.1-.06.61-.57,1.07-1.18,1.06Z" style="fill: #23659b;"/>
    <path d="m1542.33,603.03c2.86,21.62,1.28,30.73,1.28,30.73-57.69,6.7-94.03,6.75-164.12-3.57,45.35-132.09-55.07-47.71,63.3-201.26.28.03,28.73,2.82,28.98,2.84,32.75,24.97,53.71,57.91,70.56,171.26Z" style="fill: #3a72aa;"/>
    <polygon points="1258.51 631.54 1413.81 632.75 1383.78 518.94 1229.42 517.74 1258.51 631.54" style="fill: #163260;"/>
    <rect x="1332.28" y="557.79" width="7.71" height="155.3" transform="translate(690.26 1966.56) rotate(-89.55)" style="fill: #234270;"/>
    <polygon points="1381.45 518.92 1387 518.96 1416.4 632.21 1490.1 632.78 1490.04 640.49 1411.17 639.88 1411.22 632.98 1381.45 518.92" style="fill: #0b274f;"/>
    <path d="m1522.66,454.16c35.59,27.05,54.33,75.37,44.54,119.11-3.82,24.58-19.56,47.86-43.96,54.64-12.06,4.7-68.19,11.98-65.42-7.86.93-4.76,5.17-6.48,9.29-7.72,6.78-2.33,13.77-4.9,20.23-7.77,11.59-5.89,26.47-11.37,29.09-24.28,5.59-30.15-6.58-59.76-29.04-79.64.04.02-.11-.09.23.15-30.46-23.01,4.4-69.35,35.05-46.63Z" style="fill: #f99370;"/>
    <path d="m1542.8,622.66c-18.29,7.98-35.57,10.34-48.85,10.71,0,0,3.22-19.73-11.03-27.98,81.09-60.49-33.84-87.11-11.03-176.75,86.42,2.21,174.65,133.62,70.9,194.03Z" style="fill: #3a72aa;"/>
    <path d="m1423.51,632.26s7.11-24.07,48.37-20.97l8.48,21.41-56.85-.44Z" style="fill: #f99370;"/>
    <path d="m1503.54,632.78c-5.91.61-9.58.59-9.58.59,0,0,3.22-19.73-11.03-27.98,0,0,3.54-2.26,8.17-6.27,0,0,15.59,11.61,12.44,33.66Z" style="fill: #23659b;"/>
    <path d="m1490.34,602.49c-1.04.02-1.59-1.4-.75-2.06,36.05-31.54,18.77-65.37-2.35-87.35-1.04-1.08.72-2.74,1.74-1.58,22.47,22.76,39.35,60.21,1.36,91Z" style="fill: #23659b;"/>
    <path d="m1502.77,632.9c-6.66-3.94,18.82-1.8,38.28-10.8.6-.24,1.29.05,1.53.65.24.6-.05,1.28-.65,1.52-20.1,8.04-38.89,8.62-39.15,8.62Z" style="fill: #23659b;"/>
    <path d="m1479.61,464.84c-.87,6.17-6.81,8.05-8.28,7.71-20.72-9.03-6.15,19.08-14.73,21.87-7.21,2.34-7.99-7.03-14.26-7.59-9.1-.82-10.99,4.12-14.16,1.09-4.42-4.22,6.42-11.45,5.09-18.95-.93-5.27-11.45-.06-11.23-10.89.25-10.63,12.57-26.47,12.96-26.96h0c11.61-6.04,36.9-2.48,36.9-2.48,0,0,3.35-.71,6.56.53,1.52,8.66,2.86,26.41,1.14,35.67Z" style="fill: #f4d4be;"/>
    <path d="m1443.57,418.65l-.78,10.28s-1.04,9.89-1.19,28.29c-.2,25.86,6.23,22.9,15.25,4.9,4.96-9.89,15.05-33.48,15.05-33.48l1.51-18.08-29.84,8.1Z" style="fill: #f99370;"/>
    <path d="m1478.34,389.47c-.12.49-.26.98-.43,1.45-.62-.51-3.92,16.13-5.3,29.17-12.46,7.15-27.18,6.53-29.63,5.75.81-19.31,2.67-48.19,17.61-53.46,10.02-3.09,20.54,6.83,17.75,17.08Z" style="fill: #e57d61;"/>
    <path d="m1441.26,325.55c-37.42-4.77-43.82,54.16-18.54,76.07l18.54-76.07Z"/>
    <path d="m1485.09,367.46c1.71,12.89,1.71,28-5.59,39.05h-.02c-19.96,32.01-85,10.77-66.84-27.22,2.66-4.85,4.19-10.75,4.42-15.77,1-52.65,63.15-41.11,68.02,3.94Z" style="fill: #f99370;"/>
    <path d="m1435.76,373.94c-1.77-1.8,1.11-4.53,2.82-2.68,1.77,1.8-1.11,4.53-2.82,2.68Z" style="fill: #c16256;"/>
    <path d="m1419.28,375.99c-1.77-1.8,1.11-4.53,2.82-2.68,1.77,1.8-1.11,4.53-2.82,2.68Z" style="fill: #c16256;"/>
    <path d="m1428.97,390.67c-3.3.5-8.06-.39-4.92-4.31,2.95-2.96,3.36-11.02,3.36-11.11.03-.94,1.53-.89,1.47.07-.02.35-.43,8.72-3.79,12.08-.38.38-.78.91-.5,1.24.78.93,4.48,1.11,6.63-.35.33-.23.79-.14,1.02.19.54,1.54-2.13,1.85-3.28,2.19Z" style="fill: #c16256;"/>
    <path d="m1485.09,367.46c1.71,12.89,1.71,28-5.59,39.05h-.02c3.39-8.29,2.27-24.26,2.27-24.26l-4.55-5.89c-46.95-.99-53.57-36.39-53.57-36.39,20.2-28.09,59.25-2.22,61.46,27.49Z" style="fill: #e57d61;"/>
    <path d="m1427.26,335.56s6.71,34.85,49.19,37.29l11.48-11.68c5.53-30.25-30.32-61.55-60.67-25.61Z"/>
    <path d="m1494.79,371.34c1.39,14.75-17.28,16.29-18.34,1.52-1.39-14.74,17.28-16.29,18.34-1.52Z" style="fill: #f99370;"/>
    <path d="m1490.42,367.49s0,0,0,0c-1.85-5.85-13.17.3-8.38.55.02-.26,5.04-3.2,6.57-.6-4.94,2.28-6.65,11.41-3.78,8.48,0-.06.64-5.26,4.52-7.2,1.82,13.32,3.64,4.1,1.06-1.23Z" style="fill: #c16256;"/>
    <path d="m1489,380.09c.65,2.04-2.59,3.01-3.17.95-.65-2.04,2.58-3.01,3.17-.95Z" style="fill: #f4d4be;"/>
    <path d="m1441.26,501.06c.03,4.27-6.69,4.22-6.59-.05-.03-4.27,6.69-4.22,6.59.05Z" style="fill: #23659b;"/>
    <path d="m1434.6,524.17c.03,4.27-6.69,4.22-6.59-.05-.03-4.27,6.69-4.22,6.59.05Z" style="fill: #23659b;"/>
    <path d="m1434.44,545.02c.03,4.27-6.69,4.22-6.59-.05-.03-4.27,6.69-4.22,6.59.05Z" style="fill: #23659b;"/>
    <path d="m1318.53,900.57c.53,10.35.84,16.59.84,16.59-37.39,11.69-57.34-.45-57.34-.45,0,0-.7-5.14-2.23-14.1.44.23,23.69,11.86,58.74-2.04Z" style="fill: #ce3932;"/>
    <path d="m1401.15,917.8c-37.39,11.69-57.34-.45-57.34-.45,0,0-1.21-4.8-3.26-13.08,0,0,20.48,10.83,58.76.46,1.06,8.18,1.85,13.07,1.85,13.07Z" style="fill: #ce3932;"/>
    <path d="m1425.77,632.04c-7.34.17,19.51-17.91,27.45-13.37.06.65-.41,1.22-1.06,1.28-15.04,1.45-25.12,12.06-26.39,12.1Z" style="fill: #e57d61;"/>
    <path d="m1437.08,632.54c-5.55-2.41,11.78-6.34,20.36-8.59.63-.13,1.25.29,1.38.92.13.63-.29,1.25-.92,1.38-9.14,1.8-19.9,6.2-20.82,6.29Z" style="fill: #e57d61;"/>
    <path d="m1441.92,368.01c-.18,0-.36-.06-.51-.18-4.66-3.7-8.93-2.54-9.11-2.49-.44.13-.91-.13-1.03-.57-.13-.44.12-.9.57-1.03.21-.06,5.25-1.47,10.62,2.78.36.29.42.81.13,1.17-.17.21-.41.32-.66.31Z" style="fill: #c16256;"/>
    <path d="m1430.23,396.52c.12-.14.28-.24.47-.28,5.83-1.2,7.68-5.21,7.75-5.38.19-.42.68-.61,1.1-.43.42.18.61.67.43,1.09-.09.2-2.23,4.97-8.94,6.35-.45.09-.89-.2-.99-.65-.05-.26.02-.52.18-.71Z" style="fill: #c16256;"/>
    <path d="m1417.38,369.83c-.16,0-.32-.05-.47-.15-.38-.26-.48-.78-.22-1.16.11-.16,2.74-3.93,7.08-3.73.46.02.82.41.79.87-.02.46-.41.82-.87.79-3.41-.14-5.6,2.97-5.63,3.01-.16.24-.43.36-.7.36Z" style="fill: #c16256;"/>
  </g>
  <g id="_1" data-name="1">
    <path d="m667.08,1286.59s9.37,1.39,15.88-3.54l-8.83-3.5-7.05,7.04Z" style="fill: #f99370;"/>
    <path d="m330.5,1838.67l-1.23-.64c0,.86-1.06,3.83-1.92,3.83l-36.3.75c-.86,0-1.39-1.61-1.39-2.47l-3.1-.88c0-5.42.45-7.39,2.85-11.59,8.82-11.7-1.71-64.03-1.41-77.71-2.18-3.74,38.22-.81,38.79-1.69.91,0,1.62.77,1.55,1.68l-4.75,59.8c-2.13,11.35,6.6,18.22,6.9,28.92Z" style="fill: #f99370;"/>
    <path d="m510.03,1843.88h-72.3c-6.31-.25-6.26-6.68-5.1-11.66,3.98-17.95-3.06-59.17-4.36-77.63-.35-3.38,2.31-6.32,5.72-6.32,53.35-.54,35.18-7.9,32.04,49.58-1.6,29.25,20.59,26.91,34.26,29.12,9,.65,24.05,12.91,9.74,16.9Z" style="fill: #f99370;"/>
    <path d="m429.87,1836.4c.19,3.54,1.95,7.57,6.06,7.48,0,0,74.99,0,74.99,0,17.69-6.55-7.72-29.95-42.35-29.82-15.86,4.34-34.77,1.34-34.77,1.34,0,0-5.11,6.49-3.94,21Z" style="fill: #103663;"/>
    <path d="m292.32,1843.88h32.05c15.62-2.13,4.46-29.78-16.03-30.63-20.59-.85-31.63,28.53-16.03,30.63Z" style="fill: #103663;"/>
    <path d="m493.05,1833.76c.63,0,1.23-.37,1.48-.99,2.88-7.09,8.08-9.27,8.3-9.35,4.05-6.38-7.73-1.84-11.25,8.16-.44,1.01.37,2.21,1.48,2.19Z" style="fill: #e8c0a6;"/>
    <path d="m480.67,1832.27c.68,0,1.31-.44,1.52-1.12,2.55-8.22,9.72-12.01,9.79-12.05,3.68-7.42-10.02.52-12.84,11.11-.33,1,.47,2.08,1.52,2.06Z" style="fill: #e8c0a6;"/>
    <path d="m466.57,1830.54c.66,0,1.28-.41,1.51-1.07,2.98-8.53,9.85-13.18,9.92-13.23,4.07-10.96-18.37,11.36-11.42,14.29Z" style="fill: #e8c0a6;"/>
    <path d="m296.85,1823.52c8.9-5.39,22.56-.53,22.61-.14,9.3-2-12.69-9.83-23.42-2.82-1.4.76-.76,3.02.81,2.96Z" style="fill: #e8c0a6;"/>
    <path d="m516.18,1836.4h-86.3c.32,2.63,1.05,5.18,2.37,7.48h78.69c3.88,0,6.62-3.87,5.25-7.48Z" style="fill: #0f2e54;"/>
    <path d="m292.32,1843.88h32.05c4.08,0,7.36-3.42,7.11-7.48h-46.27c-.25,4.06,3.03,7.49,7.11,7.48Z" style="fill: #0f2e54;"/>
    <path d="m458.43,1289.5c70.58,53.75,158.07,31.73,208.15-5.66l4.66-21.13c-115.49,8.93-143.7-47.91-217.49-73.71l6.43,23.29s-2.53,75.49-1.74,77.21Z" style="fill: #a7e22c;"/>
    <path d="m475.15,1796.02c-27.2,10.18-57.36,2.42-57.36,2.42.38-3.67.73-7.4,1.04-11.18,10.27-127-24.12-306-27.65-319.03,0,0,0-.02,0-.02-.16-.63-.26-.86-.27-.66-22.58,147.19-44.95,269.24-55.44,326.22-26.8,12.5-54-5.39-54-5.39-.16-5.14-.3-10.2-.42-15.21-6.18-98.89,7.96-402.35,59.16-461.6,59.4,29.4,141.07,33.98,141.07,33.98,13.66,258.69,13,382.33-6.12,450.47Z" style="fill: #1d3f70;"/>
    <path d="m445.11,1185.79c3.39-17.86,11.61-49.99-1.86-57.92-9.48-5.18-22.85,1.37-21.66,13.22,1.01-.42-1.52,32.36-5.05,40.98-27.92,3.49,47.59,43.08,28.57,3.72Z" style="fill: #f99370;"/>
    <path d="m421.56,1139.58c-.01.5-.01,1.02.02,1.52.73-.32-.43,17.8-2.6,30.73,11.24,7.57,24.89,7.28,27.46,7.19,3.66-19,9.69-42.41-3.2-51.14-8.82-5.65-21.61,1.08-21.68,11.7Z" style="fill: #e57d61;"/>
    <path d="m456.99,1790.88c33.58-156.29-.58-361.45-5.71-362.95-2.63,1.22,27.21,207.4,5.71,362.95Z" style="fill: #163356;"/>
    <path d="m309.47,1788.36l2.36-1.05c26.21-166.31,54.95-365.39,51.31-368.23-3.94.55-34.77,199.06-53.67,369.28Z" style="fill: #163356;"/>
    <path d="m307.76,1398.1c39.54,29.85,136.43,39.15,175.92,24.89,13.31-5.62,15.17-50.34,13.63-94.27-2.37-58.55-16.48-100.6-43.56-139.72-.33-.14-5.67-2.69-8.62-3.19.13,5.35-1.09,20.81-28.58-3.73-.12.11-10.36.44-10.36.44-41.59,20.73-59.38,64.81-72.36,115.03-19.91,77.05-33.9,88.92-26.05,100.55Z" style="fill: #c9ea78;"/>
    <path d="m429.84,1785.68l-11.01,1.57c10.27-127-24.12-306-27.65-319.03,2.15,5.25,16.18,41.12,26.61,107.78,11.33,72.38,14.86,172.98,12.05,209.68Z" style="fill: #163356;"/>
    <path d="m406.18,1182.52c9.05,15.4,49.21,39.49,47.56,6.48-.34-.16-4.03-2.61-8.62-3.19.06.87,1.64,23.58-28.59-3.73.03.23-4.69-1.39-10.36.45Z" style="fill: #a7e22c;"/>
    <path d="m417.79,1798.43s30.16,7.76,57.36-2.42l3.55-14.27s-34.02,11.79-59.32-1.25c-.48,6.01-1.01,11.99-1.59,17.93Z" style="fill: #163356;"/>
    <path d="m281.03,1773.16c.12,5.01.26,10.07.42,15.21,0,0,27.19,17.9,54,5.39,0,0,.88-4.68,2.45-13.26,0,0-28.87,8.59-56.88-7.34Z" style="fill: #163356;"/>
    <path d="m438.97,1233.15c12.45,0,19.45-2.33,19.88-2.48l-1.55-4.5c-.15.05-15.13,4.97-40.44-.08l-.94,4.66c8.99,1.79,16.73,2.4,23.05,2.4Z" style="fill: #a7e22c;"/>
    <path d="m436.94,1251.45c15.57,0,24.85-3.61,25.38-3.82l-1.77-4.42c-.17.07-17.22,6.63-43.7,1.5l-.91,4.67c7.86,1.52,14.91,2.08,21,2.08Z" style="fill: #a7e22c;"/>
    <path d="m439.93,1269.6c13.95,0,23.49-3.92,24.09-4.17l-1.85-4.38c-.21.08-20.66,8.42-44.99-.05l-1.57,4.49c8.86,3.08,17.17,4.12,24.32,4.12Z" style="fill: #a7e22c;"/>
    <path d="m471.24,1115.71s-1.06-15.19-6.36-25.43l-8.49,4.72,14.85,20.71Z" style="fill: #8e4a35;"/>
    <path d="m473.81,1160.18c-12.9,13.93-34.12,17.03-49.96,9.06h0c-1.18-.65-2.3-1.37-3.38-2.17h-.02c-51.2-46.33,10.7-129.73,44.49-61.51,11.22,19.12,29.51,28.74,8.87,54.62Z" style="fill: #f99370;"/>
    <path d="m450.79,1121.66c.44-.98,0-2.13-.99-2.57s-2.14,0-2.58.99c-.44.98,0,2.13.99,2.57.99.44,2.14,0,2.58-.99Z" style="fill: #c16256;"/>
    <path d="m467.05,1118.07c.44-.98,0-2.13-.99-2.57-.99-.44-2.14,0-2.58.99-.44.98,0,2.13.99,2.57.99.44,2.14,0,2.58-.99Z" style="fill: #c16256;"/>
    <path d="m462.84,1135.18c-1.14.19-2.31.19-3.31-.07-.4-.1-.63-.51-.53-.9.1-.4.52-.62.9-.52,2.51.66,5.96-.75,6.38-1.89.15-.4-.4-.76-.89-1-4.3-2.04-7.52-9.8-7.65-10.12-.15-.38.03-.81.4-.96.39-.16.81.03.96.4.03.07,3.13,7.55,6.92,9.35,2.06.98,1.83,2.31,1.64,2.83-.51,1.37-2.61,2.5-4.84,2.88Z" style="fill: #c16256;"/>
    <path d="m462.43,1100.86c-10.87-5.01-29.79,1.05-39.22,1.46,0,0,2.84,15.97-12.82,28.26-.6,14.85-2.7,21.43,13.46,38.66h0c-1.18-.65-2.3-1.37-3.38-2.17h-.02c-49.28-44.15,7.58-126.84,41.98-66.21Z" style="fill: #e57d61;"/>
    <path d="m468.76,1068.42c-6.7-11.63-25.05-17.18-39.83-1.61-11.38,11.99-24.31,12.57-23.42,24.53-23.45,12.13-10.15,37.9-10.15,37.9l11.96-2.05c13.17-11.82,11.9-28.11,11.9-28.11h0c3.07-.01,6.3-.31,9.12-1.19,8.74-2.72,21.8-4.49,31.98-1.34,10.18,3.15,15.92-15.14,8.44-28.13Z" style="fill: #8e4a35;"/>
    <path d="m394.15,1139.02c1.62,6.1,6.93,9.99,11.86,8.68,4.92-1.3,7.6-7.31,5.98-13.4-1.62-6.1-6.93-9.99-11.86-8.68-4.92,1.3-7.6,7.31-5.98,13.4Z" style="fill: #f99370;"/>
    <path d="m405.54,1130.23c-.2-.06-4.85-1.58-7.3.92-.62.64-1.02,1.47-1.21,2.48,0,0,0,0,0,0-.02.09-.05.18-.06.28,0,0,0,0,0,0,0,0,0,0,0,0-.27,1.88.14,4.34,1.24,7.39.12.34.47.53.82.48.04,0,.08-.02.13-.03.38-.14.58-.56.44-.94-.9-2.47-1.29-4.49-1.22-6.04,4.3.54,6.68,5.18,6.7,5.23.15.3.47.46.79.4.07-.01.13-.03.2-.07.37-.18.52-.62.34-.98-.12-.23-2.71-5.42-7.76-6.08.15-.43.36-.8.64-1.09,1.79-1.84,5.73-.56,5.77-.55.39.13.8-.08.94-.47.13-.38-.08-.8-.47-.93Z" style="fill: #c16256;"/>
    <path d="m440.62,1119.48c-.16.03-.32,0-.48-.05-.44-.18-.65-.69-.47-1.13.11-.27,2.83-6.61,10.75-8.4.46-.11.93.19,1.04.65.11.47-.19.93-.66,1.04-7.02,1.58-9.43,7.14-9.53,7.38-.12.28-.37.47-.66.52Z" style="fill: #c16256;"/>
    <path d="m467.37,1111.93c-.27.04-.55-.04-.75-.24-2.36-2.33-7.09-1.86-7.14-1.85-.48.05-.9-.29-.95-.77-.05-.48.29-.9.77-.95.23-.02,5.59-.57,8.54,2.34.34.34.34.88,0,1.22-.13.13-.3.22-.47.25Z" style="fill: #c16256;"/>
    <path d="m467.34,1143.81l-18.66-8.44s-.63,9.96,6.71,12.31c7.01,2.25,11.95-3.87,11.95-3.87Z" style="fill: #f9f8f3;"/>
    <path d="m467.48,1144.67c-.16.03-.34,0-.5-.07l-18.66-8.44c-.44-.2-.63-.71-.43-1.15.2-.44.71-.63,1.15-.43l18.66,8.44c.44.2.63.71.43,1.15-.12.27-.37.45-.65.5Z" style="fill: #c16256;"/>
    <path d="m882,1124.23l-2.83-4.51-56.32,35.22c.83,3.41-.54,7.12-3.67,9.1-3.84,2.43-9.15,1.28-11.62-2.53-2.57-3.96-1.38-9.23,2.6-11.72,3.16-1.98,7.13-1.6,9.86.64l56.32-35.22-2.83-4.51-73.41,13.89c-6.83,1.29-12.94,5.07-17.13,10.61l-22.12,29.21,11.81,18.79,11.81,18.79,35.99-7.14c6.82-1.35,12.89-5.19,17.04-10.76l44.53-59.87Z" style="fill: #fff;"/>
    <path d="m260.61,1506l-2.33-3.71c-8.67-13.79-4.48-31.98,9.34-40.63l483.06-302.11,33.71,53.66-483.06,302.11c-13.83,8.65-32.06,4.47-40.73-9.32Z" style="fill: #3a72aa;"/>
    <path d="m769.67,1212.29l-24.57-39.1c-3.07-4.89-1.59-11.34,3.31-14.4h0c4.9-3.06,11.36-1.59,14.43,3.3l24.57,39.1c3.07,4.89,1.59,11.34-3.31,14.4h0c-4.9,3.06-11.36,1.59-14.43-3.3Z" style="fill: #255084;"/>
    <path d="m358.96,1404.54l-6.74,4.21s5.76,6,10.73,8.38c4.86,2.33,9.62,4.64,14.9,6.32,7.44,9.46-20.82-.51-24.26-.94-.02.06-.02.06-.04.12,6.69,4.99,13.69,9.6,21.06,13.54,5.43,11.6-22.59-6.52-25.79-8.01-.01.03,0,.03-.02.06,5.44,5.84,11.64,10.97,18.34,15.31,4.44,12.22-22.4-8.4-25.05-10.97-.03.02-.06.03-.09.05,3.57,5.27,7.85,10.05,12.36,14.55,2.6,12.15-18.04-9.34-20.13-11.95-2.07-.95-13.37-9.61-20.22-22.37-2.25-4.18,8.71-14.66,13.44-14.21,0,0,12.48.87,14.58,1.3,4.82.3,11.89,3.12,16.96,4.6Z" style="fill: #f99370;"/>
    <path d="m675.28,1281.38c6.62,6.86,14.43-2.56,4.27-5l.12.12c-3.64-3.66-7.89,1.55-4.39,4.89Z" style="fill: #f99370;"/>
    <path d="m680.93,1278.3c8.91,6.34,13.29-6.22,3.81-5.66.21.04-.85-.33-.66-.28-4.35-2.89-7.02,3.5-3.14,5.94Z" style="fill: #f99370;"/>
    <path d="m686.95,1275.26l3.47,1.13c4.9,1.4,5.15-5.95,1.03-6.99,0,0-3.47-1.13-3.47-1.13-4.9-1.4-5.15,5.95-1.03,6.99Z" style="fill: #f99370;"/>
    <path d="m691.76,1271.81l3.47,1.13c4.9,1.4,5.15-5.95,1.03-6.99,0,0-3.47-1.13-3.47-1.13-4.9-1.4-5.15,5.95-1.03,6.99Z" style="fill: #f99370;"/>
    <path d="m406.18,1182.52s-65.51-6.13-123.87,54.42c-43.33,44.96-70.96,121.46,31.55,176.25,0,0,3.44-11.01,13.56-14.56,0,0-18.47-43.31-13.37-66.57,5.65-25.73,37.4-50.33,61.81-80.61,21.3-26.43,30.32-68.93,30.32-68.93Z" style="fill: #a7e22c;"/>
  </g>
</svg>