<?xml version="1.0" encoding="UTF-8"?>
<svg xmlns="http://www.w3.org/2000/svg" xmlns:xlink="http://www.w3.org/1999/xlink" viewBox="0 0 2278 2000">
  <defs>
    <linearGradient id="linear-gradient" x1="982.06" y1="542.59" x2="1426.43" y2="1890.04" gradientUnits="userSpaceOnUse">
      <stop offset="0" stop-color="#ffdb45"/>
      <stop offset="1" stop-color="#ffa35c"/>
    </linearGradient>
  </defs>
  <g style="isolation: isolate;">
    <g id="Layer_1" data-name="Layer 1">
      <g>
        <path d="m1913.12,1373.36c-56.02-79.99-215.46,40.97-271.25-36.27-70.29-97.31,146.1-340.04,78.2-580.31-40.64-143.81-175.79-250.52-262.67-300.13-64.12-36.62-254.59-115.88-399.58-8.16-138.08,102.59-115.48,328.81-229.71,356.65-69.47,16.93-90.77-63.59-195.5-66.49-108.9-3.02-235.27,79.87-249.26,181.35-14.42,104.59,135.98,231.45,114.82,317.23-22.81,92.49-162.8-74.3-244.34,96.84-15.78,33.12-19.05,95.93,16.02,192.05,38.13,104.53,122.74,171.19,215.45,170.59l1237.78-8.11c103.86-.68,192.48-95.62,205.54-223.07,3.9-38.1-.1-70.17-15.5-92.16Z" style="fill: #b0beea;"/>
        <g>
          <path d="m564.17,1093.49c36.8,20.65,89.46-1.54,128.33,17.63,21.91,11.92,25.81,34.97,33.66,54.57,17.25,33.99,38.59,71.11,74.05,96.41,17.23,10.76,39.07,16.95,53.68,29.83-15.03,8.89-34.62,17.12-55.52,22.63-.56-.15-1.14-.32-1.69-.48-21.9-6.58-42.48-19.05-53.98-39.4-10.48-18.52-13.95-41.9-30.64-56.43-9.13-7.95-20.97-11.48-32.29-15.04-11.68-3.69-22.7-7.93-32.11-15.98-15.72-13.42-27.22-33.68-47.48-40.99-12.37-4.45-25.52-2.23-38.29-1.68-7.14.31-14.35.01-21.19-2.25-5.84-1.93-11.2-4.99-16.18-8.55-9.83-7.02-18.29-15.76-28-22.93-9.85-7.29-21.04-12.2-32.93-15.08-25.97-6.3-52.84-3.48-79.24-3.39-23.89.08-49.64-2.01-70.54-14.71-.71-.43-1.42-.88-2.11-1.34.5-3.64,2.02-7.35,4.74-11.03,26.79-27.95,79.56.99,116.01-4.45,41.05-10.22,66.54-31.64,101.32,5.66,9.35,9.55,17.73,20.12,30.38,27Z" style="fill: #b6d8f0;"/>
          <path d="m384.36,1092.36c26.4-.1,53.28-2.91,79.24,3.39,11.89,2.89,23.08,7.79,32.93,15.08,9.71,7.18,18.17,15.91,28,22.93,4.98,3.56,10.34,6.62,16.18,8.55,6.84,2.26,14.04,2.56,21.19,2.25,12.77-.55,25.92-2.76,38.29,1.68,20.26,7.31,31.75,27.57,47.48,40.99,9.41,8.05,20.43,12.29,32.11,15.98,11.31,3.56,23.16,7.09,32.29,15.04,16.68,14.53,20.16,37.91,30.64,56.43,11.5,20.34,32.08,32.82,53.98,39.4.56.16,1.13.33,1.69.48-1.06.29-2.12.56-3.19.81-48.52,12.08-103.08,9.04-123.51-34.7-4.88-23.41-6.61-43.2-43.53-42.78-60.94-6.07-125.98,8.43-149.85-50.56-12.42-25.48-19.37-69.11-59.05-76.32-16.1-.69-30.87,5.98-46.92,5.73-28.48,1.57-61.76-17.13-60.79-38.53,0-.63.07-1.26.18-1.91.69.46,1.4.91,2.11,1.34,20.9,12.69,46.65,14.78,70.54,14.71Z" style="fill: #9dc5e0;"/>
          <path d="m384.36,1092.36c26.4-.1,53.28-2.91,79.24,3.39,11.89,2.89,23.08,7.79,32.93,15.08,9.71,7.18,18.17,15.91,28,22.93,4.98,3.56,10.34,6.62,16.18,8.55,6.84,2.26,14.04,2.56,21.19,2.25,12.77-.55,25.92-2.76,38.29,1.68,20.26,7.31,31.75,27.57,47.48,40.99,9.41,8.05,20.43,12.29,32.11,15.98,11.31,3.56,23.16,7.09,32.29,15.04,16.68,14.53,20.16,37.91,30.64,56.43,11.5,20.34,32.08,32.82,53.98,39.4.56.16,1.13.33,1.69.48-1.06.29-2.12.56-3.19.81-5.2-1.6-10.35-3.57-15.47-5.92-9.4-4.36-18.22-10.06-25.63-17.31-7.88-7.72-13.52-16.96-17.95-27.02-4.51-10.26-7.98-21.04-13.51-30.83-6.3-11.2-15.3-19.07-27.2-23.98-11.65-4.79-24.19-7.16-35.51-12.84-9.52-4.79-17.21-12.13-24.44-19.82-7.53-8.04-14.68-16.65-23.63-23.19-10.86-7.96-22.93-9.86-36.17-9.14-12.81.71-25.75,2.42-38.03-2.36-10.87-4.24-19.81-12.07-28.51-19.6-9.6-8.32-19.26-16.23-31.07-21.19-12.58-5.27-26.2-7.52-39.73-8.38-40.73-2.63-90.88,7.98-126.81-15.55,0-.63.07-1.26.18-1.91.69.46,1.4.91,2.11,1.34,20.9,12.69,46.65,14.78,70.54,14.71Z" style="fill: #fff;"/>
        </g>
        <g>
          <path d="m1509.75,905.27l-29.74,95.9c10.84-4.17,22.19-7.27,33.24-10.58,10.87-3.26,21.74-6.8,31.93-11.92,10.36-5.21,19.09-12.23,27.25-20.4,7.89-7.9,15.44-16.28,24.87-22.45,7.4-4.86,15.78-7.99,24.36-10.06,17.79-4.33,36.26-4.4,54.13-8.21,9-1.9,17.78-4.81,25.7-9.57,9.55-5.72,17.5-13.69,25.09-21.73,7.58-8.03,14.93-16.35,23.5-23.35,7.3-5.97,15.48-10.82,24.17-14.48,17.41-7.35,36.56-10.01,55.36-9.2,46.03,1.96,87.31,25.13,125.29,49.28,2.24,1.43,4.48,2.86,6.73,4.32,10.09-24.29-21.1-53.91-42.92-64.36-14.93-7.15-32.45-6.08-48.28-10.87-80.23-24.2-125.48-65.95-188.4,16.84-7.04,9.27-13.67,19.4-23.7,25.31-44.08,21.79-128.19-23.79-148.56,45.53Z" style="fill: #b6d8f0;"/>
          <path d="m1519.39,1119.56c59.21,41.48,141.16,2.41,118.38-82.54-19.41-45.84,25.14-59.2,61.65-58.59,18.12.28,39.1,4.98,52.14-7.61,24.84-29.94-8.01-85.74,70-83.52,44.02,1.23,111.23,58.31,138.82,8.13.13-.24.26-.49.37-.73-35.99-23.2-74-46.39-117.09-52.17-18.92-2.54-38.48-1.77-56.86,3.6-8.98,2.62-17.64,6.38-25.6,11.33-8.86,5.51-16.45,12.58-23.65,20.1-7.61,7.96-14.84,16.33-23.21,23.54-7.35,6.35-15.55,11.43-24.72,14.73-16.57,5.95-34.37,6.65-51.67,9.03-8.79,1.23-17.63,2.87-26.01,5.95-9.57,3.55-17.8,9.17-25.24,16.12-8.13,7.6-15.36,16.14-24.07,23.11-8.41,6.74-18.08,11.66-28.09,15.56-18.05,7.07-37.25,10.9-55.27,18.07,0,0-26.47,69.25,40.13,115.91Z" style="fill: #9dc5e0;"/>
          <path d="m1480.01,1001.16l-.76,2.48c18.02-7.16,37.22-11,55.27-18.07,10.01-3.9,19.68-8.82,28.09-15.56,8.72-6.96,15.94-15.5,24.07-23.11,7.44-6.95,15.67-12.57,25.24-16.12,8.37-3.08,17.21-4.72,26.01-5.95,17.3-2.38,35.1-3.08,51.67-9.03,9.17-3.3,17.36-8.38,24.72-14.73,8.36-7.21,15.6-15.58,23.21-23.54,7.2-7.52,14.8-14.59,23.65-20.1,7.96-4.94,16.63-8.71,25.6-11.33,18.38-5.38,37.95-6.14,56.86-3.6,43.08,5.78,81.09,28.98,117.09,52.17.32-.62.62-1.23.88-1.87-2.25-1.46-4.49-2.89-6.73-4.32-37.98-24.15-79.26-47.32-125.29-49.28-18.8-.81-37.95,1.84-55.36,9.2-8.69,3.65-16.86,8.51-24.17,14.48-8.57,7-15.92,15.32-23.5,23.35-7.59,8.04-15.53,16.01-25.09,21.73-7.91,4.75-16.69,7.67-25.7,9.57-17.87,3.81-36.34,3.89-54.13,8.21-8.58,2.07-16.96,5.2-24.36,10.06-9.42,6.17-16.98,14.55-24.87,22.45-8.15,8.17-16.88,15.19-27.25,20.4-10.19,5.12-21.07,8.67-31.93,11.92-11.05,3.31-22.39,6.41-33.24,10.58Z" style="fill: #fff;"/>
        </g>
        <g>
          <g>
            <path d="m762.83,876.46c-.18-.04-.35-.12-.5-.23-.15-.11-3.85-2.86-10-8.19-.57-.5-.63-1.36-.14-1.94.5-.57,1.36-.64,1.94-.14,6.06,5.26,9.79,8.03,9.83,8.06.61.45.74,1.31.29,1.92-.34.46-.9.64-1.42.52Z" style="fill: #3a67b3;"/>
            <path d="m734.36,850.87c-.24-.06-.47-.18-.66-.37-5.94-6.02-11.77-12.36-17.33-18.85-.49-.58-.43-1.44.15-1.94.58-.49,1.44-.43,1.94.15,5.52,6.43,11.31,12.73,17.21,18.71.53.54.53,1.41-.01,1.94-.35.34-.84.46-1.28.36Zm-33.2-38.69c-.3-.07-.59-.25-.79-.52-5.11-6.87-10-13.95-14.54-21.07-.41-.64-.22-1.49.42-1.9.64-.41,1.49-.22,1.9.42,4.5,7.06,9.36,14.09,14.43,20.9.45.61.33,1.47-.28,1.92-.34.25-.76.32-1.14.23Zm-27.37-42.98c-.37-.09-.7-.33-.9-.69-4.05-7.56-7.8-15.31-11.17-23.03-.3-.7.01-1.5.71-1.81.7-.3,1.51.02,1.81.71,3.33,7.66,7.06,15.34,11.07,22.83.36.67.11,1.5-.56,1.86-.31.16-.65.2-.96.13Zm-20.29-46.71c-.45-.11-.83-.43-.99-.9-2.73-8.11-5.12-16.39-7.09-24.6-.18-.74.28-1.48,1.02-1.66.74-.18,1.48.28,1.66,1.02,1.95,8.13,4.31,16.33,7.02,24.36.24.72-.14,1.5-.86,1.74-.25.08-.51.09-.75.04Zm-11.85-49.5c-.53-.13-.96-.57-1.04-1.14-1.21-8.41-2.04-16.98-2.46-25.48-.04-.76.55-1.4,1.3-1.44.76-.04,1.4.55,1.44,1.3.42,8.41,1.24,16.9,2.43,25.23.11.75-.41,1.45-1.16,1.55-.18.03-.35.02-.51-.02Zm-2.52-50.82c-.63-.15-1.08-.73-1.05-1.4.37-8.44,1.13-17.01,2.27-25.49.1-.75.79-1.28,1.54-1.18.76.1,1.28.79,1.18,1.55-1.13,8.4-1.89,16.89-2.25,25.24-.03.76-.67,1.35-1.43,1.31-.09,0-.17-.02-.26-.04Zm6.75-50.43c-.73-.17-1.19-.9-1.03-1.64.27-1.23.56-2.45.85-3.69,1.65-6.98,3.58-14.06,5.74-21.05.23-.73,1.03-1.13,1.72-.91.73.22,1.13.99.91,1.72-2.14,6.92-4.06,13.94-5.69,20.87-.29,1.22-.57,2.44-.84,3.65-.17.74-.9,1.21-1.64,1.04,0,0-.01,0-.02,0Zm14.89-48.7c-.06-.01-.11-.03-.17-.05-.71-.27-1.07-1.06-.8-1.77,3.09-8.22,6.36-16.17,9.7-23.65.31-.69,1.12-1,1.81-.69.69.31,1,1.12.69,1.82-3.32,7.43-6.56,15.33-9.63,23.49-.25.65-.94,1.01-1.6.85Zm20.87-46.44c-.11-.03-.23-.07-.34-.13-.67-.36-.92-1.19-.56-1.86,4.2-7.8,8.63-15.18,13.15-21.96.42-.63,1.28-.8,1.91-.38.63.42.8,1.28.38,1.91-4.48,6.7-8.85,14.02-13.02,21.74-.3.56-.94.82-1.53.68Zm122.13-9.48c-3.47-.82-6.73-2.34-9.71-4.52-.61-.45-.75-1.31-.3-1.92.45-.61,1.31-.74,1.92-.3,6.7,4.91,15.2,5.99,22.86,2.96.71-.28,1.51.07,1.78.77.28.71-.07,1.5-.77,1.78-5.12,2.03-10.58,2.45-15.79,1.22Zm-93.69-32.68c-.21-.05-.41-.15-.58-.3-.57-.5-.64-1.36-.14-1.94,5.86-6.79,12-12.86,18.25-18.05.58-.48,1.45-.41,1.93.18.49.58.41,1.45-.18,1.93-6.13,5.09-12.16,11.06-17.92,17.73-.35.4-.87.55-1.36.44Zm71.26,7.19c-.48-.11-.88-.48-1.01-.99-1.97-7.49-2.62-16.15-1.91-25.75.06-.76.71-1.33,1.47-1.27.76.05,1.33.72,1.27,1.47-.69,9.29-.07,17.65,1.82,24.84.19.73-.24,1.49-.98,1.68-.23.06-.45.06-.66,0Zm54.79,6.58c-.08-.02-.16-.05-.24-.08-.69-.31-1.01-1.12-.7-1.81,1.1-2.48,1.99-5.16,2.66-7.98.25-1.05.47-2.13.66-3.24.68-4,.21-8.19-1.39-12.46-.27-.71.09-1.5.8-1.77.71-.27,1.5.09,1.77.8,1.78,4.73,2.29,9.4,1.53,13.88-.2,1.17-.43,2.31-.69,3.41-.7,2.98-1.65,5.83-2.82,8.46-.27.61-.94.93-1.57.78Zm-86.79-45.73c-.38-.09-.72-.34-.91-.72-.34-.68-.07-1.5.6-1.85,8.03-4.06,16.24-6.83,24.42-8.25.75-.13,1.46.37,1.59,1.12.13.75-.37,1.46-1.12,1.59-7.91,1.37-15.87,4.06-23.65,8-.3.15-.63.18-.94.11Zm72.76,1.64c-.16-.04-.32-.11-.47-.21-6.55-4.56-14.41-7.83-22.86-9.44-.65-.12-1.23-.86-1.09-1.61.14-.75.86-1.24,1.61-1.09.95.18,1.89.38,2.82.6,7.68,1.81,14.97,5.02,21.09,9.29.62.43.78,1.29.34,1.91-.33.48-.91.68-1.44.55Zm-38.22-12.85s-.02,0-.03,0c-.73-.19-1.17-.95-.98-1.68l.31-1.17c2.07-7.61,4.71-15.39,7.85-23.18.28-.7,1.1-1.04,1.79-.76.7.28,1.04,1.09.76,1.79-3.1,7.69-5.71,15.37-7.74,22.83l-.32,1.19c-.19.72-.92,1.16-1.64.99Zm18.95-47.26c-.11-.03-.23-.07-.34-.13-.67-.36-.92-1.19-.56-1.86,4.02-7.49,8.5-14.86,13.31-21.91.43-.63,1.29-.78,1.91-.36.63.43.79,1.28.36,1.91-4.75,6.97-9.18,14.26-13.16,21.66-.3.56-.93.83-1.52.69Zm28.69-42.05c-.21-.05-.4-.14-.57-.29-.58-.49-.65-1.36-.15-1.94,5.53-6.49,11.46-12.75,17.64-18.58.55-.52,1.42-.49,1.94.06.52.55.5,1.42-.05,1.94-6.1,5.77-11.97,11.95-17.44,18.37-.35.41-.88.56-1.36.45Zm36.98-34.93c-.3-.07-.58-.24-.78-.51-.46-.6-.34-1.47.27-1.92,6.77-5.12,13.92-9.94,21.24-14.32.65-.39,1.49-.18,1.88.47.39.65.18,1.49-.47,1.88-7.24,4.33-14.3,9.09-20.99,14.15-.34.26-.76.33-1.15.24Zm43.62-26.12c-.4-.09-.75-.36-.93-.76-.32-.69-.02-1.51.67-1.82,7.64-3.53,15.62-6.75,23.74-9.56.72-.25,1.5.13,1.75.85.25.72-.13,1.5-.85,1.75-8.03,2.78-15.93,5.96-23.48,9.45-.29.13-.6.16-.89.09Zm595.79,113.58c-3.43-.81-6.91-1.66-10.45-2.54-.74-.18-1.18-.93-1-1.67.18-.73.92-1.18,1.65-1,0,0,.01,0,.02,0,3.59.9,7.07,1.75,10.6,2.58,4.78,1.13,9.54,2.2,14.17,3.2.73.17,1.21.89,1.05,1.63-.16.74-.89,1.21-1.63,1.05-4.64-1-9.43-2.08-14.22-3.21-.06-.02-.13-.03-.2-.05Zm-35.05-9.1s-.04,0-.06-.01c-7.99-2.25-16.23-4.69-24.47-7.24-.72-.22-1.13-.99-.9-1.72.23-.73,1.02-1.14,1.72-.91,8.22,2.55,16.44,4.98,24.41,7.22.73.21,1.15.96.95,1.7-.2.71-.92,1.13-1.64.96Zm-512.71-121.15c-.49-.11-.89-.49-1.02-1.01-.18-.74.27-1.48,1.01-1.66,8.12-1.98,16.56-3.65,25.08-4.97.75-.12,1.45.4,1.57,1.15.11.75-.4,1.45-1.15,1.57-8.45,1.31-16.81,2.96-24.85,4.92-.22.05-.44.05-.64,0Zm587.16,138.41c-.7-.17-1.16-.85-1.04-1.57.13-.75.84-1.25,1.59-1.12,8.56,1.5,17.02,2.79,25.13,3.83.75.11,1.29.79,1.19,1.54-.1.75-.79,1.28-1.54,1.19-8.15-1.05-16.65-2.35-25.25-3.85-.03,0-.05-.01-.08-.02Zm-123.15-32.31s-.08-.02-.12-.03c-7.87-2.64-15.98-5.45-24.11-8.36-.71-.25-1.09-1.04-.83-1.76.26-.71,1.06-1.08,1.76-.83,8.11,2.9,16.2,5.71,24.06,8.34.72.24,1.11,1.02.87,1.74-.23.68-.93,1.06-1.62.9Zm173.69,38.73c-.65-.15-1.1-.75-1.05-1.44.05-.76.71-1.33,1.47-1.27,8.74.64,17.27.98,25.37,1.01.75,0,1.37.62,1.37,1.38,0,.76-.62,1.37-1.38,1.37-8.16-.03-16.76-.38-25.55-1.02-.08,0-.15-.02-.22-.03Zm-221.69-55.9c-.06-.01-.12-.03-.17-.05-7.79-2.95-15.79-6.07-23.77-9.25-.71-.28-1.05-1.08-.77-1.79.28-.71,1.09-1.05,1.79-.77,7.97,3.18,15.96,6.29,23.73,9.24.71.27,1.07,1.06.8,1.77-.25.65-.94,1.01-1.6.85Zm-47.35-18.88c-.07-.02-.15-.04-.22-.07-7.67-3.2-15.57-6.56-23.47-9.99-.7-.3-1.02-1.11-.71-1.81.3-.69,1.11-1.01,1.81-.71,7.89,3.43,15.77,6.78,23.43,9.98.7.29,1.03,1.1.74,1.8-.26.63-.94.96-1.58.81Zm319.95,74.82c-.56-.13-1-.61-1.05-1.22-.06-.76.5-1.42,1.25-1.48,8.9-.76,17.33-1.97,25.04-3.59.74-.16,1.47.32,1.63,1.06.16.74-.32,1.47-1.06,1.63-7.82,1.65-16.36,2.88-25.38,3.64-.15.01-.29,0-.43-.03Zm-638.37-152.71c-.57-.13-1.01-.62-1.05-1.23-.06-.76.51-1.42,1.27-1.47,8.31-.63,16.89-.97,25.53-1.01.74,0,1.38.61,1.38,1.37,0,.76-.61,1.38-1.37,1.38-8.57.04-17.1.38-25.34,1-.14.01-.28,0-.42-.03Zm271.6,57.69c-.08-.02-.15-.04-.23-.07-7.88-3.37-15.8-6.64-23.53-9.72-.7-.28-1.05-1.08-.77-1.78.28-.71,1.08-1.06,1.79-.77,7.75,3.08,15.68,6.36,23.59,9.74.7.3,1.02,1.11.72,1.8-.27.62-.94.95-1.58.8Zm-220.72-58.01c-.64-.15-1.09-.74-1.05-1.42.04-.76.69-1.34,1.45-1.29,8.31.48,16.87,1.22,25.44,2.21.76.07,1.3.77,1.21,1.52-.09.75-.77,1.29-1.52,1.21-8.52-.98-17.03-1.72-25.28-2.19-.08,0-.16-.02-.24-.04Zm173.36,39.18c-.05-.01-.11-.03-.16-.05-8.04-2.95-16.13-5.77-24.02-8.4-.72-.24-1.11-1.02-.87-1.74s1.02-1.11,1.74-.87c7.92,2.63,16.03,5.47,24.1,8.42.71.26,1.08,1.05.82,1.76-.24.66-.94,1.02-1.6.86Zm-122.78-33.42c-.7-.16-1.16-.85-1.04-1.56.12-.75.83-1.26,1.58-1.13,8.22,1.37,16.65,2.97,25.08,4.77.01,0,.02,0,.03,0,.73.17,1.18.89,1.03,1.62-.16.74-.89,1.22-1.63,1.06-8.39-1.79-16.79-3.38-24.96-4.74-.03,0-.06-.01-.09-.02Zm74.41,17.37s-.05-.01-.08-.02c-8.23-2.44-16.48-4.71-24.52-6.77-.73-.19-1.18-.94-.99-1.67.19-.73,1-1.17,1.67-.99,8.07,2.07,16.35,4.36,24.62,6.8.73.22,1.14.98.93,1.71-.21.7-.93,1.11-1.63.95Z" style="fill: #3a67b3;"/>
            <path d="m1699.06,357.7c-.4-.1-.76-.37-.94-.78-.31-.69,0-1.51.7-1.81,7.49-3.32,10.76-6.07,10.79-6.09.58-.49,1.44-.42,1.94.15.49.58.43,1.44-.15,1.93-.14.12-3.55,3.01-11.46,6.52-.29.13-.59.15-.87.08Z" style="fill: #3a67b3;"/>
          </g>
          <g>
            <polygon points="1725.47 345.34 1765.75 333.53 1746.38 317.08 1725.47 345.34" style="fill: #3b61a3;"/>
            <polygon points="1765.06 341.19 1810.67 306.89 1745.98 326.97 1765.06 341.19" style="fill: #5c83c7;"/>
            <polygon points="1810.69 306.81 1717.83 297.39 1735.99 312.3 1810.69 306.81" style="fill: #5c83c7;"/>
            <polygon points="1810.67 306.89 1745.9 327.2 1725.47 345.34 1735.88 312 1810.67 306.89" style="fill: #4b71b3;"/>
          </g>
        </g>
        <g>
          <path d="m889.15,775.97h-15.83c-4.51-20.52-12.03-39.93-22.1-57.67l13.12-13.12c19.61-19.61,19.61-51.39,0-71-19.61-19.61-51.39-19.61-71,0l-11.21,11.21c-17.26-11.07-36.19-19.6-56.37-25.16,0,0-.01,0-.02,0v-18.56c0-27.73-22.48-50.2-50.2-50.2s-50.2,22.48-50.2,50.2v15.83c-20.52,4.51-39.93,12.03-57.67,22.1l-13.12-13.12c-19.6-19.61-51.39-19.61-71,0-19.61,19.61-19.61,51.39,0,71l11.2,11.2c-11.07,17.26-19.61,36.2-25.17,56.38,0,0,0,.01,0,.02h-18.55c-27.73,0-50.2,22.48-50.2,50.2s22.48,50.2,50.2,50.2h15.82c4.51,20.52,12.03,39.94,22.1,57.68l-13.11,13.11c-19.61,19.61-19.61,51.39,0,71,19.61,19.61,51.39,19.61,71,0l11.17-11.17s0,0,.01,0c17.26,11.03,36.24,19.56,56.42,25.17v18.51c0,27.73,22.48,50.2,50.2,50.2s50.2-22.48,50.2-50.2v-15.82c20.52-4.51,39.94-12.04,57.68-22.11l13.11,13.11c19.61,19.61,51.39,19.61,71,0,19.61-19.6,19.61-51.39,0-71l-11.17-11.17s0,0,0,0c11.03-17.26,19.56-36.24,25.17-56.43h18.51c27.73,0,50.2-22.48,50.2-50.2s-22.48-50.2-50.2-50.2Zm-69.58,44.76c0,82.53-66.95,149.48-149.48,149.48s-149.48-66.95-149.48-149.48,66.95-149.48,149.48-149.48,149.48,66.9,149.48,149.48Z" style="fill: #3a67b3;"/>
          <path d="m575.61,820.73c0,52.18,42.3,94.48,94.48,94.48s94.52-42.3,94.52-94.48-42.35-94.52-94.52-94.52-94.48,42.35-94.48,94.52Z" style="fill: #3a67b3;"/>
        </g>
        <g>
          <path d="m1650.07,566.9l-9.3,5.04c-9.18-10.62-19.79-19.64-31.36-26.86l3.53-11.89c5.28-17.77-4.84-36.45-22.61-41.73-17.77-5.28-36.45,4.84-41.73,22.61l-3.02,10.16c-13.67-1.01-27.52,0-41.15,3.16,0,0,0,0-.01,0l-5.91-10.91c-8.83-16.3-29.2-22.35-45.49-13.52-16.3,8.83-22.35,29.2-13.52,45.49l5.04,9.3c-10.62,9.18-19.64,19.79-26.86,31.35l-11.89-3.53c-17.77-5.28-36.45,4.84-41.73,22.61-5.28,17.77,4.84,36.45,22.61,41.73l10.15,3.02c-1.01,13.67,0,27.52,3.16,41.15,0,0,0,0,0,.01l-10.9,5.91c-16.3,8.83-22.35,29.2-13.52,45.49,8.83,16.3,29.2,22.35,45.49,13.52l9.3-5.04c9.18,10.63,19.79,19.64,31.36,26.87l-3.53,11.88c-5.28,17.77,4.84,36.45,22.61,41.73,17.77,5.28,36.45-4.84,41.73-22.61l3.01-10.12s0,0,0,0c13.65.99,27.53-.04,41.18-3.17l5.89,10.88c8.83,16.3,29.2,22.35,45.49,13.52,16.3-8.83,22.35-29.2,13.52-45.49l-5.04-9.3c10.63-9.18,19.64-19.79,26.86-31.36l11.88,3.53c17.77,5.28,36.45-4.84,41.73-22.61,5.28-17.77-4.84-36.45-22.61-41.73l-10.12-3.01s0,0,0,0c.99-13.66-.04-27.53-3.17-41.18l10.88-5.9c16.3-8.83,22.35-29.2,13.52-45.49-8.83-16.3-29.2-22.35-45.49-13.52Zm-26.65,48.47c26.28,48.51,8.25,109.18-40.26,135.46-48.51,26.28-109.18,8.25-135.46-40.26-26.3-48.54-8.25-109.18,40.26-135.46,48.51-26.28,109.16-8.28,135.46,40.26Z" style="fill: #3a67b3;"/>
          <path d="m1480.03,693.05c16.61,30.67,54.95,42.06,85.61,25.45,30.67-16.61,42.09-54.96,25.47-85.63-16.61-30.67-54.99-42.07-85.66-25.46-30.67,16.61-42.05,54.97-25.43,85.64Z" style="fill: #3a67b3;"/>
        </g>
        <ellipse cx="1107.79" cy="1913.01" rx="838.8" ry="67.27" style="fill: #dbecff;"/>
        <g>
          <g>
            <path d="m1513.05,1229.6h.12s-.6.83-1.55,2.02c-4.41,6.91-8.93,13.57-13.69,20.12-44.41,66.8-188.37,273.39-188.37,450.68h-365.55c0-167.18-119.9-357.21-173.13-433.18-8.45-10.72-16.55-21.79-24.17-33.22-.36-.6-.71-.95-.71-.95h.12c-47.27-71.92-74.78-157.89-74.78-250.41,0-252.19,204.33-456.52,456.52-456.52,106.57,0,204.68,36.55,282.44,97.88,105.97,83.59,174.08,213.14,174.08,358.64,0,90.14-26.31,174.08-71.32,244.93Z" style="fill: url(#linear-gradient);"/>
            <g style="mix-blend-mode: multiply;">
              <path d="m719.03,1187.97c8.11,16.27,17.16,32,27.08,47.11h-.12s.36.36.71.95c2.41,3.61,4.88,7.18,7.38,10.72-12.02-21.43-23.94-41.2-35.06-58.79Z" style="fill: #f5e0c4;"/>
              <path d="m1584.37,984.67c0-119.99-46.35-229.1-122.02-310.56,23.17,54.67,55.39,121.87,67.22,183.88,38.04,199.49-114.85,383.43-211.95,536.59-83.47,131.66-237.48,201.07-391.3,175.77-1.12-.18-2.24-.37-3.37-.56,12.93,44.15,21.05,89.17,21.05,132.64h365.55c0-177.3,143.96-383.88,188.37-450.68,4.76-6.55,9.29-13.22,13.69-20.12.95-1.19,1.55-2.02,1.55-2.02h-.12c45.01-70.85,71.32-154.79,71.32-244.93Z" style="fill: #f5e0c4;"/>
            </g>
            <ellipse cx="937.25" cy="820.74" rx="237.6" ry="165.59" transform="translate(-291.53 1026.09) rotate(-50.7)" style="fill: #a8a49e; mix-blend-mode: overlay;"/>
          </g>
          <path d="m1225.8,1699.36h-199.1c-2.9,0-5.38-2.09-5.87-4.95l-102.65-601.21c-.5-2.9,1.21-5.73,4.01-6.66,2.81-.94,5.85.34,7.18,2.98l71.57,142.25-15.06-82.09c-.44-2.4.63-4.83,2.7-6.12,2.08-1.3,4.71-1.2,6.69.26l35.17,25.91,14.1-78.57c.47-2.63,2.65-4.63,5.31-4.88,2.75-.21,5.17,1.32,6.12,3.82l33.1,86.99,49.24-173.37c.79-2.77,3.44-4.6,6.31-4.3,2.86.28,5.12,2.57,5.35,5.44l13.23,161.65,20.25-66.99c.76-2.51,3.08-4.23,5.7-4.23h.01c2.63,0,4.94,1.73,5.69,4.26l20.78,69.83,4.25-26.22c.43-2.64,2.57-4.67,5.23-4.97,2.71-.31,5.19,1.23,6.18,3.73,9.29,23.45,20.25,48.98,26.48,61,12.91-28.28,54.88-123.01,83.84-188.67,1.21-2.76,4.29-4.19,7.19-3.29,2.88.88,4.65,3.77,4.12,6.74l-121.26,676.79c-.51,2.84-2.98,4.9-5.86,4.9Zm-194.08-11.91h189.09l111.62-623c-26.05,58.92-65.73,148.42-68.26,152.63-1.17,1.94-3.97,3.37-6.1,3.17-3.55-.29-7.88-.65-29.87-54.14l-4.99,30.81c-.45,2.74-2.73,4.81-5.5,4.99-2.74.09-5.3-1.58-6.09-4.24l-22.55-75.73-23.58,78.01c-.83,2.74-3.53,4.47-6.33,4.2-2.84-.3-5.07-2.58-5.31-5.43l-13.1-160.15-45.17,159.03c-.7,2.47-2.91,4.21-5.47,4.32-2.66.08-4.91-1.43-5.82-3.83l-31.85-83.72-12,66.86c-.37,2.02-1.74,3.71-3.66,4.48-1.91.76-4.09.48-5.73-.74l-30.77-22.67,19.84,108.17c.53,2.91-1.15,5.78-3.96,6.72-2.84.94-5.89-.33-7.22-2.97l-72.36-143.81,95.11,557.04Z" style="fill: #ffefb9;"/>
          <g>
            <path d="m1310.21,1702.43v91.57c0,2.74-.12,5.48-.24,8.1-.24,4.05-.6,8.1-1.07,12.03-1.07,7.86-2.74,15.6-5,22.98-1.31,4.17-2.62,8.1-4.29,12.03-3.1,8.1-7.03,15.72-11.55,22.98-2.5,4.17-5.24,8.22-8.22,12.03-6.31,8.45-13.57,16.07-21.55,22.86-5,4.41-10.48,8.46-16.07,12.03-23.34,15.24-51.2,24.05-81.09,24.05h-66.56c-29.89,0-57.75-8.81-81.09-24.05-5.72-3.57-11.07-7.62-16.07-12.03-7.98-6.79-15.24-14.41-21.55-22.86-2.98-3.81-5.72-7.86-8.22-12.03-4.52-7.26-8.45-14.88-11.55-22.98-1.67-3.93-2.98-7.86-4.29-12.03-2.26-7.38-3.93-15.12-5-22.98-.48-3.93-.83-7.98-1.07-12.03-.12-2.62-.24-5.36-.24-8.1v-91.57h364.72Z" style="fill: #2c3773;"/>
            <path d="m1308.43,1744.21h-357.03c-18.69,0-33.84-15.15-33.84-33.84h0c0-18.69,15.15-33.84,33.84-33.84h357.03c18.69,0,33.84,15.15,33.84,33.84h0c0,18.69-15.15,33.84-33.84,33.84Z" style="fill: #515887;"/>
            <rect x="945.5" y="1767.09" width="364.72" height="12.15" style="fill: #515887;"/>
            <path d="m1309.98,1802.09c-.24,4.05-.6,8.1-1.07,12.03h-362.1c-.48-3.93-.83-7.98-1.07-12.03h364.24Z" style="fill: #515887;"/>
            <path d="m1303.9,1837.1c-1.31,4.17-2.62,8.1-4.29,12.03h-343.52c-1.67-3.93-2.98-7.86-4.29-12.03h352.09Z" style="fill: #515887;"/>
            <path d="m1288.07,1872.11c-2.5,4.17-5.24,8.22-8.22,12.03h-303.99c-2.98-3.81-5.72-7.86-8.22-12.03h320.42Z" style="fill: #515887;"/>
            <path d="m1258.3,1906.99c-5,4.41-10.48,8.46-16.07,12.03h-228.74c-5.72-3.57-11.07-7.62-16.07-12.03h260.88Z" style="fill: #515887;"/>
          </g>
        </g>
        <g>
          <g>
            <path d="m382.25,1897.09h0c2.25.49,4.46-.95,4.92-3.21l35.98-191.7-18.93-4.68-25.17,195c-.3,2.13,1.1,4.14,3.2,4.59Z" style="fill: #c8cbe3;"/>
            <path d="m537.65,1897.09h0c-2.25.49-4.46-.95-4.92-3.21l-35.98-191.7,18.93-4.68,25.17,195c.3,2.13-1.1,4.14-3.2,4.59Z" style="fill: #c8cbe3;"/>
            <path d="m547.49,1720.32s-159.29,20.42-164.2-26.11c-7.98-75.75-19.8-111.26-26.96-132.94-4.67-14.12-7.37-22.38-5.75-32.09,4.11-24.61,28.61-30.2,51.58-18.72,21.61,10.81,145.33,209.85,145.33,209.85Z" style="fill: #52a1fa;"/>
            <path d="m540.65,1718.22c-31.78-1.05-131.08,10.73-148.03-62.12-10.16-43.67-25.35-80.88-36.28-94.83-4.67-14.12-7.37-22.38-5.75-32.09,4.11-24.61,28.61-30.2,51.58-18.72,21.61,10.81,126.73,187.12,138.49,207.75Z" style="fill: #297ad6;"/>
          </g>
          <g>
            <path d="m622.88,1764.42c-.58,4.2-1.19,8.35-1.84,12.42-5.12,32.78-11.66,60.52-12.97,65.94h0c-.15.63-.23.96-.23.96h-18.77c-2.82-14.28-5.16-27.6-6.94-40.12-3.04-21.34-4.45-40.37-3.77-57.9.75-20.4,2.76-39.13,4.41-57.96l-9.23-5.28-109.08-62.45-37.59-21.53h72.04s102.76,33.32,120.19,62.37c11.72,19.54,9.29,63.6,3.79,103.56Z" style="fill: #f0b7aa;"/>
            <path d="m588.78,1842.89l-6.07,19.84,3.8,30.83,6.11.3,5.57-26.99,9.86,17.92c2.65,4.83,6.64,8.77,12.1,9.48,14.4,1.87,42.55,2.35,43.72-7.1,1.2-9.71-26.09-10.13-34.05-20.81-7.72-10.34-16.99-23.87-16.99-23.87l-24.03.4Z" style="fill: #141a1f;"/>
            <path d="m634.36,1844.49l-24.04.4c-.73-.62-1.48-1.33-2.25-2.1h0c-7.59-7.69-16.87-22.42-25.95-39.16-17.08-31.49-33.44-70.1-36.42-82.23-17.83-23.15-101.1-6.43-125.24-42.29-19.38-28.79-17.13-80.6-17.13-80.6,16.34.51,37.11-2.54,52.46,0,2.25.37,4.37.86,6.36,1.51,51.07,16.5,105.41,37.59,128.08,69.63,3.29,4.65,5.91,9.52,7.76,14.65,8.62,23.89,14.56,50.3,20.51,79.59.85,4.21,1.7,8.54,2.53,12.97,4,21.01,7.94,44.27,13.32,67.64Z" style="fill: #ffd3c9;"/>
            <path d="m610.32,1844.89l-6.07,19.84,3.8,30.83,6.1.3,5.57-26.99,9.86,17.92c2.65,4.83,6.64,8.77,12.1,9.48,14.4,1.87,42.55,2.35,43.72-7.1,1.2-9.71-26.09-10.13-34.05-20.81-7.72-10.34-16.99-23.87-16.99-23.87l-24.03.4Z" style="fill: #30334d;"/>
            <path d="m619.08,1660.87c-25.49-3.8-28.22,35.21-53.73,52.83-5.39,3.72-11.79,6.5-19.64,7.7-27.7-17.62-104.23-4.62-132.4-43.98-20.2-28.22-9.97-78.92-9.97-78.92,2.92.09,7.84.15,13.95.19,28.14.15,81.59-.19,81.59-.19,0,0,102.76,33.33,120.19,62.37Z" style="fill: #30334d;"/>
            <path d="m565.35,1713.7c-5.39,3.72-11.79,6.5-19.64,7.7-27.7-17.62-104.23-4.62-132.4-43.98-20.2-28.22-9.97-78.92-9.97-78.92,2.92.09,7.84.15,13.95.19.07,17.87.06,61.26,28.09,77.65,21.96,12.84,99.27,16.84,119.97,37.36Z" style="fill: #23273d;"/>
            <path d="m471.92,1433.92c-1.02-2.81-2.34-5.46-3.92-8-.15-.24-.52-.02-.38.22,5.12,8.94,6.95,19.83,5.11,29.95-.52,2.85-1.42,5.53-2.34,8.27-.2.61.77,1.03,1.04.44,1.08-2.36,1.75-4.99,2.24-7.54.49-2.58.76-5.2.79-7.83.07-5.25-.75-10.58-2.55-15.52Z" style="fill: #30334d;"/>
            <path d="m489.06,1388.33c-2.07-3.74-7.82-6.58-11.86-8.02-.1-.04-.17.13-.07.18,3.43,1.62,8.78,3.87,10.74,7.15,2.1,3.52,2.97,7.62,2.44,11.69-.56,4.31-2.7,8.08-5.77,11.1-3.06,3.01-6.78,5.32-10.43,7.54-2.22,1.35-4.49,2.64-6.78,3.86-2.33,1.24-4.73,2.36-7.04,3.64-.42.23-.14.96.33.79,4.58-1.69,8.92-4.21,13.09-6.72,3.88-2.32,7.81-4.78,11.09-7.91,3.15-3.01,5.46-6.75,6.22-11.07.73-4.16.1-8.51-1.95-12.22Z" style="fill: #30334d;"/>
            <path d="m475.52,1501.31l-20.29,39.05s4.08,21.2,9.25,29.29c3.02,4.69,14.16,7.7,27.8,8.8,14.72,1.21,32.35.21,45.89-3.19,15.89,11.56,30.08,7.13,37.26.45,9.27-8.58-19.33-6.12-20.75-9.93-1.08-2.93,5.83-5.66,3.25-8.87-3.97-4.94-18.78,4.86-18.78,4.86-14.54-2.32-26.12-5.37-37.46-7.81-5.42-1.18-15.06-4.43-20.68-5.17l-5.5-47.49Z" style="fill: #ffd3c9;"/>
            <path d="m473.45,1466.37l-35.62,53.01s17.97,47.16,25.78,52.75c8.27,5.91,25.96,6.78,39.6,7.89l.11-25.7c-3.57-.77-8.52-2.11-12.92-3.26-3.61-.95-6.11-4.22-6.07-7.94.27-29.45-.92-66.73-10.88-76.75Z" style="fill: #f92572;"/>
            <path d="m480.37,1382.36c-5.4-5.45-16.21-5.88-22.73-1.83-4.84,3.01-6.49,4.32-11.37,7.27-7.4,4.47-17.06,1.77-25.33,4.27-4.76,1.44-8.85,4.76-11.49,8.98-3.27,2.07-5.71,5.33-6.88,9.04-.74,2.35-.82,4.73-.63,7.17.22,2.75.67,5.64-.37,8.29-1.82,4.65-7.2,7.11-11.48,8.94-5.04,2.16-10.34,3.64-15.57,5.25-5.04,1.55-10.14,3.19-14.78,5.73-4.31,2.35-8.19,5.68-10.07,10.32-.89,2.2-1.27,4.62-.95,6.98.31,2.27,1.36,4.25,2.61,6.13,2.28,3.41,5.67,7.41,3.07,11.6-1.11,1.79-2.93,3.05-4.67,4.16-1.87,1.19-3.8,2.25-5.55,3.62-3.77,2.93-6.78,6.7-8.8,11.01-.49,1.05-.9,2.14-1.25,3.24-2.15,6.71-.48,16.59,8.62,23.49,7.19,5.46,24.54-9.32,28.8,4.34.97,3.1,11.31,12.46,14.48,13.15,29.96,6.57,59.04-38.89,65.76-58.08,18.72-21.97,21.82-40.52,15.88-62,5.64-5.2,16.37-15.09,17.92-22.6,1.54-7.51.19-13-5.21-18.44Zm-75.01,45.29c-2.09,4.42-6.75,6.98-11.26,8.88-11.03,4.66-23.46,7.55-31.67,16.26-2.45,2.6-4.51,5.96-4.15,9.52.36,3.59,3.11,6.6,3.53,10.19.47,3.99-2.09,7.8-5.29,10.23-3.2,2.43-7.04,3.84-10.58,5.74-.87.47-1.73,1.04-2.58,1.71,1.55-1.35,3.23-2.52,4.99-3.58,1.8-1.09,3.65-2.15,5.22-3.57,1.45-1.31,2.55-2.97,2.81-4.93.27-2.06-.44-4.02-1.45-5.78-1.1-1.92-2.51-3.65-3.6-5.58-1.17-2.07-1.7-4.31-1.49-6.68.45-5.06,3.81-9.21,7.88-11.98,4.34-2.96,9.41-4.75,14.37-6.35,5.15-1.66,10.39-3.07,15.46-4.98,2.47-.93,4.9-1.97,7.22-3.21,2.05-1.1,4.05-2.41,5.62-4.14,1.62-1.79,2.6-3.93,2.82-6.34.25-2.81-.43-5.6-.43-8.41,0-4.56,2.15-9.01,5.57-12,.11-.1.24-.18.35-.28-1.28,2.4-2.1,5.03-2.32,7.75-.48,5.89,1.51,12.19-1.01,17.53Z" style="fill: #30334d;"/>
            <path d="m504.09,1600.24c-28.98-3.86-52.77,8.17-82.29,5.88-3.55-.27-7.21-.75-10.94-1.47-6.87-1.37-11.65-7.66-10.94-14.63l9.74-95.01,8.58-29.22,1.98-6.7,13.06-4.78,21.56-1.19c25.19,10.94,40.19,38.84,24.91,71.55-14.83,31.78,24.33,75.56,24.33,75.56Z" style="fill: #ce2e77;"/>
            <path d="m454.84,1453.13c0,10.03-12.21,11.22-21.56,1.19l5.09-14.64,3.37-8.62,12.03,8.1,1.03,12.37.03,1.6Z" style="fill: #ffd3c9;"/>
            <path d="m430.51,1519.04c-6.73,18.32-13.57,62.03-8.72,87.08-3.55-.27-7.21-.75-10.94-1.47-6.87-1.37-11.65-7.66-10.94-14.63l9.74-95.01,8.58-29.22c7.55,5.95,14.49,11.96,14.49,11.96,0,0,6.05,18.97-2.22,41.28Z" style="fill: #e81f71;"/>
            <path d="m527.15,1579.05c-5.15,7.92-34.67.32-34.67.32,0,0-36.17.27-51.21-.35-18.15-.65-39.99-2.39-48.19-6.6-8.37-4.34,1.91-63.22,8.24-78.88,8.41-20.78,18.9-34.45,18.9-34.45l-10.56,35.92,6.49,56.05c9.77,1.26,65.77,13.43,73.74,14.62,22.53-4.95,41.37,7.04,37.26,13.36Z" style="fill: #ffd3c9;"/>
            <path d="m454.26,1557.56l-2.29,24.6c-18.15-.65-50.88-1.25-59.08-5.45-8.37-4.34-8.74-69.68,1.71-91.17,11.21-23.07,25.63-26.44,25.63-26.44,30.89,21.63-5.1,41.28-4.07,91.97,9.77,1.26,28.02,3.55,38.11,6.49Z" style="fill: #f92572;"/>
            <path d="m454.81,1451.53c-.96.12-2.02.22-3.15.27-6.19.32-10.77-6.85-13.29-12.13l2.85-7.96,15.53,6.48-1.94,13.34Z" style="fill: #f0bbaf;"/>
            <path d="m469.84,1400.97s-6,12.71-26.13,17.42c0,0-6.28-6.85-9-2.57-2.71,4.28,3.86,11.85,3.86,11.85.75,12.45,9.71,22.32,18.99,19.99,21.1-5.3,12.28-46.69,12.28-46.69Z" style="fill: #ffd3c9;"/>
          </g>
          <g>
            <path d="m848.43,1894.84l-78.8-200.92c12.78-6.33,23.6-15.65,30.96-27.26l43.24-68.17c1.19-1.88.41-4.24-1.75-5.28-2.15-1.04-4.87-.36-6.06,1.52l-43.24,68.17c-12.72,20.06-36.97,32.52-63.27,32.52h-120.87c-27.4,0-52.89-13.86-64.93-35.3l-36.63-65.22c-1.08-1.93-3.75-2.73-5.96-1.78-2.21.94-3.13,3.27-2.04,5.2l36.63,65.22c5.75,10.23,14.23,18.92,24.43,25.54-.05.1-.11.2-.15.31l-79.84,205.78c-.72,2.05.61,4.22,2.96,4.85.43.12.87.17,1.31.17,1.91,0,3.67-1.08,4.26-2.75l67.4-170.36h214.76c.37,0,.72-.05,1.06-.12l68,170.16c.59,1.67,2.35,2.75,4.26,2.75.43,0,.87-.06,1.31-.17,2.36-.63,3.68-2.8,2.96-4.85Zm-289.62-175.53l9.06-25.78c12.21,6.19,26.25,9.66,40.78,9.66h120.87c11.2,0,22.06-2.02,32.02-5.75l7.68,21.86h-210.41Z" style="fill: #c8cbe3;"/>
            <rect x="342.39" y="1579.05" width="605.77" height="13.68" rx="4.97" ry="4.97" style="fill: #2363a8;"/>
          </g>
          <polygon points="545.49 1500.01 525.11 1572.52 477.87 1572.52 477.87 1579.05 523.28 1579.05 533.58 1579.05 625.52 1579.05 647.73 1500.01 545.49 1500.01" style="fill: #c8cbe3;"/>
          <g>
            <path d="m869.8,1501.34c-25.85,16.34-59.7,41.06-59.7,41.06,0,0-71.66-4.13-92.99-11.84-11,1.09-36.02-6.61-39.76-17.28-6.77-19.32,21.87-1.24,29.54-.84,8.46.45-11.46-12.16.05-10.95,4.48.47,14.01,5.63,16.46,11.3,2.67,1.83,82.89,6.77,82.89,6.77,0,0,40.24-39.02,70.45-57.43,4.53,14.66-2.24,24.86-6.94,39.22Z" style="fill: #ffd3c9;"/>
            <path d="m864.37,1513.51c-12.92,10.41-31.99,31.43-51.89,37.88-10.95,3.55-72.12-11.66-85.55-14.91-1.29-5.74-.08-15.72,3.05-22.6,16.3,3.66,73.88,5.3,73.88,5.3,16.99-18.65,36.31-68.46,68.91-62.03,21.92,4.32,12.11,39.84-8.39,56.36Z" style="fill: #c9ea78;"/>
            <path d="m816.72,1694.44c25.64,43.21,35.92,110.37,39.1,159.93-6.25,1.16-11.54,4.07-18.19,5.09-12.64-35.59-66.09-132.35-62.51-162.17,5.01-41.73,40.29-62.93,66.41-87.87,15.58-1.37,30.11-3.45,45.33-4.77,13.73,45.77-34.52,68.14-70.15,89.79Z" style="fill: #ffd3c9;"/>
            <path d="m824.79,1699.22c17.88,40.84,25.62,86.48,28.74,130.81-9.16,2.5-21,7.66-30.95,6.06-12.29-33.3-52.8-107.43-58.85-137.9-5.65-28.46,48.89-65.31,75.65-91.1,16.14-.44,30.99-6.76,46.88-7.3,30.14,74.27-25.24,77.12-61.47,99.43Z" style="fill: #141a1f;"/>
            <path d="m836.28,1855.78c7.43,1.37,13.4-1.92,19.46-4.65,7.87,10.13,11.52,19.44,11.12,28.94-25.11,5.95-45.74,9.48-70.91,15.16,3.6-27.93,24.22-20.83,40.32-39.45Z" style="fill: #141a1f;"/>
            <path d="m758.23,1702.31c16.74,47.37,13.76,115.25,7.24,164.48-6.36-.08-12.11,1.75-18.83,1.45-5.47-37.37-27.03-147.65-17.72-176.21,13.03-39.95,39.72-48.91,70.19-68.29,15.55,1.69,30.21,2.48,45.4,4.14,4.57,47.56-47.12,60.12-86.28,74.43Z" style="fill: #ffd3c9;"/>
            <path d="m765.22,1708.57c9.59,43.54,10.59,89.6,5.03,133.69-8.73,2.76-24.38,3.64-33.83.13-5.58-35.06-27.67-123.22-21.16-153.59,6.47-30.19,56.35-50.76,87.61-70.85,15.91,2.7,26.31,2.48,42,5.05,15.11,78.72-39.76,70.74-79.65,85.57Z" style="fill: #30334d;"/>
            <path d="m746.02,1864.38c7.02,2.79,13.52.72,19.99-.77,5.74,11.47,7.49,22.38,5.26,31.63-25.79.95-46.68-.67-72.48,0-7.02-31.63,27.81-15.72,47.23-30.85Z" style="fill: #30334d;"/>
            <path d="m888.9,1612.31c0,.07.2.23.1.35-25.69,3.01-53.52-4.3-79.11-.26,7.63-34.97,7.06-61.96,2.74-97.03-.08.04-.17.07-.26.11-1.47-8.72,24.6-53.79,27.12-54.79,3.36-1.33,3.66-9.85,7.19-11.34,7.27,1.79,8.33-2.87,16.76.18,8.42,3.07,15.9,10.78,21.99,22.54,20.8,40.17.69,94.03,3.46,140.24Z" style="fill: #ffd3c9;"/>
            <path d="m866.53,1451.33c-11.22,7.39-42.63,20.42-23.56.47,3.12-8.83,3.47-15.05,3.54-22.34,5.68-.16,11.34-.3,17.02-.51-.03,3.62.57,16.94,3,22.38Z" style="fill: #f0bbaf;"/>
            <path d="m893.99,1613.25c.2,2.74-1.94,6.08-4.83,6.87-4,1.1-8.94,2.3-12.6,2.79-12.29,1.63-24.69,1.75-36.61,1.32-11.92-.43-30.03-.77-39.83-5.28,3.95-18.87,5.26-100.41,16.15-129.3,6.95-18.43,23.36-33.07,26.7-36.85-13.02,13.54,13.25,5.84,23.56-.9,20.68,7.15,33.74,38.72,34.04,52.91.74,35.37-9.24,72.01-6.58,108.44Z" style="fill: #a7e22c;"/>
            <path d="m859.54,1518.72c-22.65,20.56-51.72,50.74-51.72,50.74,0,0-71.3,8.29-93.64,4.38-10.65,2.97-36.62-.3-42.15-10.17-10-17.86,21.33-5,28.95-5.92,8.41-1.02-13.39-10-1.84-10.79,4.5-.31,14.77,3.13,18.16,8.29,2.95,1.34,82.81-7.63,82.81-7.63,0,0,32.9-45.38,59.49-68.73,6.99,13.65,2.08,24.88-.07,39.83Z" style="fill: #ffd3c9;"/>
            <path d="m856.12,1530.66c-10.93,12.48-26.09,36.48-44.58,46.27-10.17,5.38-73.05.95-86.84.07-2.26-5.43-1.89-16.32,0-23.63,16.68.8,72.79-6.67,72.79-6.67,13.52-21.3,23.95-73.7,57.17-72.99,22.34.48,18.8,37.15,1.45,56.96Z" style="fill: #c9ea78;"/>
            <path d="m828.45,1394.81c-2.92,12.89-7.34,34.96.41,44.48,4.91,6.02,26.77,3.94,34.77-12.43,4.11-4.72,2.01-14.01-1.94-18.33-2.81-3.08-3.35,3.46-8.17,2.5-1.83-.36.62-15.36-5.11-17.73-5.74-2.36-14.16,5-19.96,1.51Z" style="fill: #ffd3c9;"/>
            <path d="m878.46,1410.95c.58-1.29,1.12-2.59,1.57-3.93.83-2.5,1.32-5.12,1.11-7.75-.18-2.3-.83-4.6-2.12-6.53-1.31-1.96-3.2-3.37-5.41-4.17-2.15-.78-4.46-.97-6.74-1-1.3-.38-2.46-.79-3.32-1.44-1.46-1.1-7.02-7.07-12.19-5.58-3.96,1.14-4.53,3.58-6.58,4-.73-.28-1.43-.61-2.12-.97-1.58-.83-3.16-1.8-4.92-2.19-2.58-.58-5.58.17-7.63,1.89-.76.46-1.49,1.09-2.16,1.95-3.19,4.08-5.38,10.45-2.85,14.3,2.53,3.85,11.53,1.74,12.15,4.96.25,1.29.41,3.18,1.03,5.09-.14,2.56,1.05,5.18,3.17,6.65,1.52,1.06,3.34,1.49,5.01,2.24.63.29,1.24.64,1.79,1.07.22,3.46-.74,8.56,4.1,10.53,7.32,2.98,5.81,7.5,11.6,8.31,5.32.74,11.01-2.01,12.5-8.46,1.49-6.45,5.23-3.18,6.33-9.92,1.06-6.52-2.55-6.84-4.32-9.04Zm-46.95-28.34c.72-.4,1.5-.7,2.35-.85,1.66-.29,3.32.08,4.84.76.94.42,1.83.93,2.72,1.44-3.09-1.08-6.72-2.42-9.92-1.35Zm11.81,33.66c-2.41-1.02-4.12-3.09-4.6-5.54,1.08,2.46,3.11,4.72,7.34,5.42,1.19.2,1.74.95,2,2.01-1.48-.86-3.17-1.23-4.74-1.89Zm34.52-6.38c-.39-1-.45-2.35.1-4.41,1.95-7.38,1.23-10.62-2.36-14.09-1.85-1.79-4.27-2.58-6.54-3.22,3.48.42,6.91,1.55,9,4.52,2.76,3.91,2.59,9.02,1.25,13.42-.4,1.29-.9,2.54-1.44,3.78Z" style="fill: #30334d;"/>
            <g>
              <path d="m913.76,1897.75h0c-2.25.49-4.46-.95-4.92-3.21l-35.98-197.42,18.93-4.68,25.17,200.72c.3,2.13-1.1,4.14-3.2,4.59Z" style="fill: #c8cbe3;"/>
              <path d="m758.36,1897.75h0c2.25.49,4.46-.95,4.92-3.21l35.98-197.42-18.93-4.68-25.17,200.72c-.3,2.13,1.1,4.14,3.2,4.59Z" style="fill: #c8cbe3;"/>
              <path d="m763.04,1694.83c-4.81,9.24,1.25,20.42,11.61,21.49,38.47,3.95,134.14,9.97,138.05-27.16,13.18-125.07,36.81-140.42,32.71-165.02-4.1-24.61-44-24.52-67.84-14.96-33.26,13.34,3.03,80.76-30.14,131.45-21.48,32.83-69.88,26.31-84.4,54.2Z" style="fill: #52a1fa;"/>
              <path d="m945.41,1524.14c-2.41-14.46-17.19-20.39-33.8-20.88,4.86,3.32,8.25,7.98,9.3,14.27,4.1,24.61-19.53,39.96-32.71,165.02-3.48,33.03-79.6,31.91-123.44,28.48,2.35,2.85,5.77,4.87,9.88,5.29,38.47,3.95,134.14,9.97,138.05-27.16,13.18-125.07,36.81-140.42,32.71-165.02Z" style="fill: #4592eb;"/>
            </g>
          </g>
        </g>
        <g>
          <path d="m1503.64,1731.47c3.08,16.18,4.79,30.65,5.44,44.06,1.68,34.26-1.54,86.77-8.52,119.73l-15.36-2.4s-17.84-90.72-26.11-137.08c-2.13-11.76-3.73-22.26-4.45-30.15-4.24-45.07,24.44-170.94,26.28-179.09l.08-.31.02-.12,62.55-7.08c29.06,90.46-11.08,111.12-39.94,192.45Z" style="fill: #f1cccd;"/>
          <path d="m1536.17,1659.63c-9.67,20.05-19.26,41.93-29.92,71.97,7.09,19.1,7.42,120.54,1.2,149.55-11.4,1.83-22.34,1.59-32.98,0-2.13-11.76-19.53-138.64-20.26-146.53-4.24-45.07,24.87-179.95,26.71-188.1l.08-.31.02-.12,62.55-7.08c18.35,57.07,9.13,86.34-7.41,120.62Z" style="fill: #242d5e;"/>
          <path d="m1586.35,1907.56l27-43.09s-27.82-49.24-50.33-81.98c-5.34-7.84-10.39-14.69-14.69-19.76-30.82-36.18-46.92-218.54-46.92-218.54h50.96c39.95,41.62,29.89,98.94,31.07,155.56.41,19.62,5.98,38.55,15.33,55.07,1.88,3.33,3.66,6.7,5.33,10.15,11.66,24.11,18.57,52.38,24.95,98.82l12.64,17.37-55.33,26.4Z" style="fill: #f1cccd;"/>
          <path d="m1635.37,1845.82c-10.08,7.24-21.55,11.24-33.74,13.58-5.34-7.83-59.27-105.77-64.64-114.36-25.18-40.32-39.4-201.58-39.4-201.58l52.6.68,2.17.04c38.62,40.23,30.51,95.12,30.99,149.87.19,22.34,9,35.97,18.51,55.14,26.86,54.18,32.15,93.83,33.5,96.63Z" style="fill: #2c3773;"/>
          <path d="m1484.26,1890.53c-23.92,10.02-50.29,8.6-52.27,32.9l74.86-1.94c1.02-10.3-.35-20.53-4.12-30.71l-18.47-.25Z" style="fill: #353d78;"/>
          <path d="m1611.92,1864.3c-18.12,20.05-43.53,32.32-36.41,55.43l69.13-37.47c-2.37-11.76-7.85-19.64-15.8-24.14l-16.92,6.17Z" style="fill: #353d78;"/>
          <path d="m1393.35,1403.38s13.36,75.21,32.87,80.41c8.83,2.35,20.17.38,31-3.29,18.31-6.2,35.15-17.22,35.73-20.23l18.58-56.4c-10.69,4.61-71.62,39.34-76.6,42.67-8.06-12.1-25.54-43.59-26.12-45.9,0,0,3.77-16.97.44-21.74-2.96-4.23-4.05,9.63-5.3,7.95-1.36-1.85-9.43-21.47-14.8-15.74-11.92,12.78,4.2,32.27,4.2,32.27Z" style="fill: #ffcbc7;"/>
          <path d="m1445.21,1438.56c1.4,14.72,9.93,34.62,10.82,43.84,18.31-6.2,40.39-8.27,40.98-11.28l14.52-67.24c-10.69,4.61-45.06,22.07-66.32,34.68Z" style="fill: #c9ea78;"/>
          <path d="m1585.24,1453.17c-.44,32.56-8.46,89.02-11.51,109.33-.44,2.94-2.07,5.48-4.37,7.07-1.25.88-2.74,1.49-4.33,1.73-14.59,2.17-28.87,3.35-42.78,3.32-12.52,0-24.74-.95-36.62-3.01-4.64-.81-8.19-4.54-8.7-9.21-1.66-15.37,3.16-49.08,2.38-81.88-.51-20.75,6-73.86,44.75-82.22l22.7-.21c25.45,6.6,36.12,26.06,37.88,39.67.54,4.03.71,9.31.61,15.4Z" style="fill: #a7e22c;"/>
          <g>
            <path d="m1530.89,1375.6c8.21,2.54,11.53,6.64,22.03,1.89,15.98-7.22,29.46-34.87,8.25-47.38-1.47-4.38-2.94-6.08-8.54-7.3-5.59-1.21-11.32,1.22-19.03,1.09-7.71-.13-18.61-8.07-25.33,3.14-6.72,11.21,9.94,19.92,18.29,25.44,8.35,5.52,5.64,15.04,4.33,23.11Z" style="fill: #2c3773;"/>
            <path d="m1547.07,1398.16c-8.26,8.26-16.05,9.84-23.02.15l1.96-15.93.82-6.71h18.28l.35,4.16,1.61,18.33Z" style="fill: #ffcbc7;"/>
            <path d="m1545.72,1382.79c-4.52,5.43-16.96,7.01-20.33,4.68l1.45-11.8,18.38-7.71.51,14.84Z" style="fill: #f0b4b4;"/>
            <path d="m1515.71,1337.2c-3.74,10.53-7.4,33.82,1.54,42.48,5.66,5.48,26.19,3.36,30.38-11.71,4.95-3.59,8.59-12.33,4.02-16.3-3.25-2.83-7.41,4.64-13.08,3.41-2.15-.47,4.46-14.85-2.26-17.34-6.72-2.49-13.83,2.91-20.6-.53Z" style="fill: #ffcbc7;"/>
          </g>
          <g>
            <g style="mix-blend-mode: screen;">
              <circle cx="1326.89" cy="1169.87" r="98.16" transform="translate(-438.58 1280.9) rotate(-45)" style="fill: #58595b;"/>
            </g>
            <path d="m1292.34,1062.01c-59.94,18.49-93.73,82.07-75.32,141.74,18.4,59.67,82.14,93.18,142.07,74.69,59.94-18.49,93.73-82.07,75.32-141.74-18.4-59.67-82.14-93.18-142.07-74.69Zm61.62,199.79c-50.8,15.67-104.62-12.63-120.22-63.2-15.6-50.57,12.94-104.27,63.73-119.94,50.8-15.67,104.62,12.63,120.22,63.2,15.6,50.57-12.94,104.27-63.73,119.94Z" style="fill: #2c3773;"/>
            <rect x="1347.37" y="1267.57" width="33.97" height="51.8" transform="translate(-320.61 459.55) rotate(-17.14)" style="fill: #2c3773;"/>
            <path d="m1397.61,1310.11c.09.28.18.58.25.87l6.25,22.87,51.51,188.32,8.43,30.82c2.74,10-2.98,20.38-12.93,23.44-9.95,3.07-20.52-2.28-23.91-12.08l-10.4-30.21-63.5-184.62-7.72-22.42c-5.02-14.55,3.07-30.37,17.85-34.93,14.48-4.47,29.76,3.62,34.18,17.94Z" style="fill: #2c3773;"/>
            <path d="m1439.85,1527.03l15.76-4.86,8.42,30.82c2.74,10.01-2.98,20.38-12.93,23.45-2.82.87-5.69,1.06-8.42.67,5.17-4.72,7.56-12.08,5.6-19.25l-8.43-30.82Z" style="fill: #1e285e;"/>
            <path d="m1397.6,1310.1c.09.29.18.59.25.88l6.24,22.87-15.75,4.86-6.25-22.86c-.07-.29-.16-.59-.25-.88-3.58-11.6-14.29-19.1-25.93-19.16,2.25-1.55,4.76-2.79,7.51-3.64,14.48-4.47,29.76,3.63,34.17,17.94Z" style="fill: #1e285e;"/>
            <polygon points="1404.1 1333.85 1455.61 1522.17 1439.85 1527.03 1388.35 1338.7 1404.1 1333.85" style="fill: #485496;"/>
            <polygon points="1388.35 1338.7 1439.85 1527.03 1416.8 1534.14 1353.31 1349.51 1388.35 1338.7" style="fill: #5260ab;"/>
          </g>
          <g>
            <path d="m1570.3,1463.96s-20.3,24.44-38.72,37.89c-4.41,3.19-8.68,5.74-12.55,7.22-26.85,10.19-88.29,6.77-88.29,6.77-19.52,9.96-23.25,1.98-27.63-5.67-10.83-18.89,11.03-5.06,14.12-12.92,0,0-12.47-3.8-8.35-9.64,4.1-5.88,27.04,7.65,27.04,7.65,29.03-5.41,44.58-13.67,67.55-18.24,1.98-2.78,3.96-5.55,6-8.29,14.79-19.64,31.93-37.52,55.26-49.39,11.3,14.78,10.96,29.69,5.59,44.62Z" style="fill: #ffcbc7;"/>
            <path d="m1537.34,1503.49l-32.05-35.81c14.79-19.64,43.11-62.69,62.86-45.51,26.3,22.87-12.39,67.88-30.81,81.32Z" style="fill: #c9ea78;"/>
          </g>
        </g>
        <g>
          <path d="m1763.99,1286.73c.36.01.34.58-.02.56-.36-.01-.34-.58.02-.56Z" style="fill: #30334d;"/>
          <g>
            <path d="m1642.27,1160.22c28.2-19.84,64.29-27.03,98.52-22.86,22.12,2.69,44.02,10.12,61.62,23.79,17.6,13.67,30.56,33.99,32.86,56.15,2.31,22.17-7.04,45.81-25.42,58.4-19.44,13.31-45.14,12.92-68.3,8.6-29.31-5.46-57.43-16.32-86.81-21.45-12.15-2.12-25.03-3.19-36.5,1.35-11.47,4.54-20.65,10.05-24.94,26.35-15.59-71.03,20.75-110.49,48.96-130.33Z" style="fill: #52b4fa;"/>
            <path d="m1804.33,1215.22c.22-5.85-4.34-10.77-10.19-10.98-5.85-.22-10.77,4.34-10.98,10.19-.22,5.85,4.34,10.77,10.19,10.98,5.85.22,10.77-4.34,10.98-10.19Z" style="fill: #fff;"/>
            <path d="m1761.57,1213.62c.22-5.85-4.34-10.77-10.19-10.98-5.85-.22-10.77,4.34-10.98,10.19s4.34,10.77,10.19,10.98c5.85.22,10.77-4.34,10.98-10.19Z" style="fill: #fff;"/>
            <path d="m1718.81,1212.02c.22-5.85-4.34-10.77-10.19-10.98-5.85-.22-10.77,4.34-10.98,10.19-.22,5.85,4.34,10.77,10.19,10.98s10.77-4.34,10.98-10.19Z" style="fill: #fff;"/>
            <path d="m1676.05,1210.41c.22-5.85-4.34-10.77-10.19-10.98-5.85-.22-10.77,4.34-10.98,10.19-.22,5.85,4.34,10.77,10.19,10.98,5.85.22,10.77-4.34,10.98-10.19Z" style="fill: #fff;"/>
          </g>
          <path d="m1687.13,1284.31c2.81.74,5.38,2.21,8.07,3.33,2.7,1.12,5.44,2.15,8.18,3.17,5.5,2.06,10.98,4.12,16.61,5.8,11.2,3.35,22.77,5.53,34.46,6.16,20.56,1.1,41.39-2.73,59.5-12.76,9.81-5.43,18.9-12.8,26.07-21.45.34-.41,1.05,0,.73.46-5.8,8.33-12.88,15.18-21.27,20.88-8.49,5.77-17.91,10.11-27.73,13.09-22.21,6.74-45.67,5.74-67.96-.18-6.59-1.75-13.16-3.85-19.48-6.45-3.12-1.28-6.17-2.75-9.18-4.27-3.1-1.57-6.54-2.93-9.24-5.13-1.26-1.03-.48-3.12,1.24-2.66Z" style="fill: #52b4fa;"/>
          <path d="m1582.59,1207.85c3.16-11.28,8.73-21.77,16.22-30.76,3.77-4.52,8.03-8.62,12.68-12.22,2.17-1.68,4.42-3.27,6.76-4.73,2.34-1.46,5.12-3.13,7.8-3.83.64-.17,1.14.72.61,1.15-2.04,1.71-4.53,3.04-6.72,4.55-2.41,1.67-4.75,3.41-6.99,5.32-4.21,3.59-8.06,7.61-11.48,11.97-6.93,8.82-12.02,18.97-14.83,29.83-.68,2.63-4.78,1.36-4.04-1.28Z" style="fill: #52b4fa;"/>
          <path d="m1660.87,1276.1c1.23-.59,2.91-.31,4.23-.13,1.33.17,2.65.43,3.94.81,1.24.37,2.45.84,3.61,1.43,1.23.63,2.62,1.31,3.37,2.5.63,1-.3,2.65-1.54,2.46-.48-.08-.87-.14-1.3-.36-.27-.14-.52-.3-.79-.44-.46-.25-.76-.39-1.17-.57-1.07-.46-2.15-.88-3.27-1.21-.54-.16-1.09-.3-1.64-.41-.6-.13-.72-.15-1.36-.22-.56-.07-1.12-.12-1.68-.14-.68-.03-1.44.08-2.08-.2-.71-.31-1.24-.83-1.31-1.64-.06-.73.29-1.54.98-1.87Z" style="fill: #52b4fa;"/>
        </g>
        <g>
          <path d="m283.62,1232.58c33.62-58.62,156.02-52.52,167.55,24.77,5.59,28-18.4,51.73-40.31,64.72-33.89,20.08-3.05,39.8,28.96,35.25-70.68,36.21-201.36-46-156.2-124.74Z" style="fill: #f92572;"/>
          <path d="m357.09,1294.83c0-4.75.7-9.93,2.1-15.53,1.4-5.61,3.43-12.42,6.08-20.44l1.1-3.39c2.06-6.77,3.1-12.46,3.1-17.05,0-7.24-2.21-10.86-6.63-10.86-2.8,0-4.2,1.75-4.2,5.26,0,.86.52,2.96,1.55,6.31,0,.08-.37.31-1.1.7-2.51,1.17-4.35,1.75-5.53,1.75-4.13,0-6.19-2.61-6.19-7.82v-1.17c0-2.02.4-3.76,1.22-5.2.81-1.44,2.32-2.7,4.53-3.8,2.5-1.09,5.6-1.63,9.28-1.63,3.24,0,6.04.31,8.4.93,2.36.62,4.27,1.48,5.75,2.57,2.36,1.87,3.83,4.63,4.42,8.29.14.86.22,2.38.22,4.55,0,6.85-2.21,14.33-6.63,22.42-1.92,3.35-3.54,7.57-4.86,12.67-1.33,5.1-1.99,10.38-1.99,15.82,0,4.28.07,6.89.22,7.82-2.65,0-4.13.08-4.42.23-.3.08-.66.12-1.11.12-2.95,0-4.72-.86-5.3-2.57Zm0,14.36c-1.62-.78-2.43-1.75-2.43-2.92,0-1.09.89-2.12,2.65-3.09,1.77-.97,3.76-1.46,5.97-1.46,1.77,0,3.53.51,5.3,1.52,1.77,1.01,2.65,1.98,2.65,2.92,0,2.96-2.95,4.44-8.84,4.44-2.21,0-3.98-.47-5.3-1.4Z" style="fill: #fff;"/>
          <path d="m254.21,1260.84c.15-3.93.6-7.85,1.36-11.72,1.51-7.7,4.21-15.19,7.93-22.1,7.08-13.14,18.12-23.91,31.29-30.89,7.28-3.86,15.11-6.45,23.31-7.3.9-.09,1.04,1.32.21,1.55-13.47,3.68-26.18,9.85-36.36,19.55-10.52,10.02-17.78,22.93-20.93,37.11-.91,4.09-1.48,8.25-1.7,12.43-.22,4.17.46,8.37.19,12.51-.16,2.58-3.83,3.24-4.6.62-1.08-3.65-.85-7.96-.71-11.74Z" style="fill: #de5063;"/>
          <path d="m257.18,1287.43c.04-.33.08-.65.13-.98.06-.36.26-.55.38-.86.13-.36.67-.62.95-.25.17.22.42.33.6.56.17.23.3.5.44.74.29.5.57,1.02.85,1.53.62,1.16,1.04,2.41,1.55,3.62-.1-.25.21.46.24.53.13.28.26.55.39.82.27.55.55,1.09.85,1.62.3.53.61,1.06.94,1.57.16.26.34.51.5.77.32.53.4.98.48,1.58.21,1.76-2.07,2.77-3.42,1.96-1.23-.74-1.88-2.42-2.48-3.69-.59-1.24-1.12-2.51-1.57-3.81-.43-1.23-.79-2.52-.87-3.83-.04-.62-.01-1.28.05-1.89Z" style="fill: #de5063;"/>
          <path d="m420.33,1332.48c1.69-.98,3.74-1.42,5.52-2.22,1.81-.82,3.57-1.74,5.28-2.75,3.36-2,6.48-4.37,9.31-7.06,2.85-2.71,5.46-5.65,7.68-8.91,2.21-3.23,4.34-6.7,5.9-10.28.3-.68,1.39-.19,1.19.5-1.18,4.06-2.6,7.78-4.83,11.39-2.18,3.55-4.78,6.91-7.73,9.86-2.92,2.91-6.17,5.51-9.64,7.71-1.81,1.15-3.7,2.19-5.64,3.11-1.91.9-3.96,1.97-6.07,2.24-1.98.25-2.5-2.7-.97-3.59Z" style="fill: #de5063;"/>
        </g>
        <g>
          <path d="m1217.04,713.35c-6.89-34.89-10.65-63.42-9.69-88.55.68-18.43,2.5-35.35,3.98-52.37l-106.9-61.2-33.97-19.45h65.09s92.85,30.1,108.6,56.35c10.59,17.66,8.4,57.46,3.43,93.56-5.25,37.85-13.59,71.67-13.59,71.67h-16.96Z" style="fill: #f1c3c4;"/>
          <g>
            <path d="m1138.77,688.78c10.8-18.05,33.44-82.08,34.57-97.14-37.34-13.68-88.62-4.57-116.33-34.37-18.88-20.31-9.32-42.73-6.74-65,15.57-1.24,38-4.39,51.65-1.51,51.44,10.86,116.43,53.64,122.08,87.46,5.47,32.77-47.75,110.75-70.8,121.28-7.92,1.52-11.6-5.52-14.43-10.72Z" style="fill: #f1cccd;"/>
            <path d="m1138.77,688.78c-6.14,3.47-13.83,5.05-20.5,7.32-7.08,5.3-13.79,11.38-20.16,17.51,1.29,1.3,2.58,2.62,3.88,3.92,7.8-3.52,15.49-7.46,23.22-11.04-2.56,4.73-5.61,11.3-8.17,15.61-2.56,4.32-2.39,9.77-.63,12.99,4.64,8.49,21.58,30.61,30.4,26.14,8.81-4.48-7.19-26.14-3.94-34.96,3.24-8.82,6.67-18.08,10.34-26.78-4.7-3.87-9.42-7.34-14.43-10.72Z" style="fill: #30334d;"/>
          </g>
          <path d="m1050.27,492.26s-17.81,38.38,3.89,65.72c19.51,24.58,119.18,33.66,119.18,33.66,7.46-20.8,56.07-25.08,70.82-43.51-5.72-9.15-40.15-40.31-103.95-58.55l-89.94,2.69Z" style="fill: #30334d;"/>
          <path d="m1216.77,712.57l-5.48,17.92,3.43,27.86,5.52.27,5.03-24.38,8.91,16.19c2.4,4.36,6,7.93,10.93,8.57,13.01,1.69,38.45,2.13,39.5-6.41,1.08-8.78-22.29-9.07-31.63-16.66-9.72-7.9-18.62-24.05-18.62-24.05l-17.58.71Z" style="fill: #30334d;"/>
          <path d="m1108.12,321.92s16.34-13.85,5.91-31.03c-10.22-16.85-36.46-13.3-41.18-3.61-9.32-1.56-16.42,2.95-20.65,10.51-2.73,4.88-8.3,16.44-7.93,35.01.33,16.48-13.73,21.98-18.92,37.15-5.87,17.18,3.2,20.13-8.75,43.29-9.85,19.1,2.29,30.87,15.11,28.78,15.79-2.58,96.8-28.25,96.8-28.25,2.4,0,13.45-25.53.78-38.2-19.88-19.88-8.89-40.55-21.18-53.65Z" style="fill: #30334d;"/>
          <path d="m1113.4,423.25c11.12,13.44,30.99,29.01,42.38,42.22,5.61-4.87,12.15-7.27,16.85-13.47-19.12-29-40.4-58.28-64.84-83.15,4.56,18.92.3,35.75,5.61,54.4Z" style="fill: #f92572;"/>
          <path d="m1140.25,493.35c-26.18-3.49-47.68,7.38-74.36,5.31-3.21-.25-6.52-.68-9.88-1.33-6.21-1.23-10.53-6.92-9.88-13.22l8.8-85.84,7.75-26.4,1.79-6.05,13.88-7.44,15.26.53c22.76,9.88,38.45,36.62,24.65,66.17-13.4,28.72,21.99,68.27,21.99,68.27Z" style="fill: #f92572;"/>
          <path d="m1094.28,359.14c0,8.64-8.02,8.64-16.07,0l1.89-10.44,1.17-6.49,12.1,6.05.89,10.65.02.23Z" style="fill: #f1cccd;"/>
          <path d="m1073.77,419.98c-6.08,16.55-12.26,56.04-7.87,78.67-3.21-.25-6.52-.68-9.88-1.33-6.21-1.23-10.53-6.92-9.88-13.22l8.8-85.84,7.75-26.4c6.82,5.37,10.74,12.04,10.74,12.04,0,0,7.82,15.91.34,36.07Z" style="fill: #e81f71;"/>
          <g>
            <path d="m1147.19,463.95c-6.95,10.57-11.2,8.66-20.51,9.23-11.91.96-25.09,1.85-37.35.89-14.79-1.16-36.59,2.94-48.63-6.88-12.04-9.83,3.22-58.33,6.77-69.24,4.72-14.49,10.01-20.8,16.97-32.26-3.12,11.1-6.24,21.71-9.36,32.62,1.96,16.89,3.61,33.87,5.35,50.76,11.96,1.61,20.92,1.8,33.55,3.94,11.15,1.89,26.38,5.37,37.99,8.54,10.24-5.57,22.17-8.17,15.23,2.4Z" style="fill: #f1cccd;"/>
            <path d="m1094.41,452.39c-1.25,6.75-3.52,15.75-5.27,22.76-15.65.73-34.48,3.82-49.07-8.46-14.59-12.28-4.77-62.03,1.13-75.63,6.33-14.61,11.6-19.26,23.28-25.44,22.35,22.47.44,51.71-2.42,81.49,11.07,1.41,21.34,3.49,32.35,5.28Z" style="fill: #f92572;"/>
          </g>
          <path d="m1093.97,355.52c-.91.59-3.2,1.11-4.46.89-5.02-.86-7.25-3.17-9.41-7.71l1.17-6.49,12.1,6.05.61,7.26Z" style="fill: #e3afb0;"/>
          <path d="m1108.4,298.5c-15.47-2.99-13.11,17.03-28.74,19.16,0,0-5.67-7.13-9.89-2.83-5.1,5.2,4.24,13.03,4.24,13.03.83,13.69,10.68,24.55,20.88,21.98,23.21-5.83,13.51-51.35,13.51-51.35Z" style="fill: #f1cccd;"/>
          <g>
            <path d="m1110.94,503.69l18.07-54.24c1.85-3.33,5.36-5.4,9.17-5.4h80.72c7.59,0,12.67,7.81,9.59,14.75l-20.99,47.23c-1.81,4.08-5.86,6.71-10.32,6.71h-79.71c-4.7,0-8.01-4.6-6.53-9.06Z" style="fill: #c8cbe3;"/>
            <path d="m1167.72,487.43c-2.99-2.99-2.99-7.84,0-10.83,2.99-2.99,7.84-2.99,10.84,0,2.99,2.99,2.99,7.84,0,10.83s-7.84,2.99-10.84,0Z" style="fill: #fff;"/>
          </g>
        </g>
        <path d="m1987.39,1170.83c.69,1.11.91,2.45.58,3.76-.43,1.74-1.7,3.08-3.42,3.58l-16.59,4.84c-1.72.5-3.52.06-4.81-1.18-1.29-1.24-1.81-3.02-1.39-4.75l4.1-16.79c.43-1.74,1.71-3.08,3.42-3.58,1.72-.5,3.52-.06,4.81,1.18l12.48,11.95c.31.3.58.63.8.99Zm-21.71,7.97c.06.1.13.17.17.21.13.13.49.4,1.02.25l16.59-4.84c.52-.15.68-.58.72-.76.04-.18.1-.63-.29-1l-12.49-11.95c-.39-.38-.84-.3-1.02-.25-.17.05-.59.23-.72.76l-4.1,16.79c-.08.34,0,.61.12.79Z" style="fill: #eb6c6c;"/>
        <path d="m903.83,520.5c.69,1.11.91,2.45.58,3.76-.43,1.74-1.7,3.08-3.42,3.58l-16.59,4.84c-1.72.5-3.52.06-4.81-1.18-1.29-1.24-1.81-3.02-1.39-4.75l4.1-16.79c.43-1.74,1.71-3.08,3.42-3.58,1.72-.5,3.52-.06,4.81,1.18l12.48,11.95c.31.3.58.63.8.99Zm-21.71,7.97c.06.1.13.17.17.21.13.13.49.4,1.02.25l16.59-4.84c.52-.15.68-.58.72-.76.04-.18.1-.63-.29-1l-12.49-11.95c-.39-.38-.84-.3-1.02-.25-.17.05-.59.23-.72.76l-4.1,16.79c-.08.34,0,.61.12.79Z" style="fill: #eb6c6c;"/>
        <path d="m1815.71,688.78l6.1-6.1c1.39-1.39,1.39-3.63,0-5.02-1.38-1.39-3.63-1.39-5.02,0l-6.1,6.1-6.1-6.1c-1.38-1.39-3.63-1.39-5.02,0-1.39,1.38-1.39,3.63,0,5.02l6.1,6.1-6.09,6.09c-1.39,1.39-1.39,3.63,0,5.02.69.69,1.6,1.04,2.51,1.04s1.82-.35,2.51-1.04l6.09-6.09,6.09,6.09c.69.69,1.6,1.04,2.51,1.04s1.82-.35,2.51-1.04c1.39-1.38,1.39-3.63,0-5.02l-6.09-6.09Z" style="fill: #ffb86b;"/>
        <path d="m323.88,958.07l6.1-6.1c1.39-1.39,1.39-3.63,0-5.02-1.38-1.39-3.63-1.39-5.02,0l-6.1,6.1-6.1-6.1c-1.38-1.39-3.63-1.39-5.02,0-1.39,1.38-1.39,3.63,0,5.02l6.1,6.1-6.09,6.09c-1.39,1.39-1.39,3.63,0,5.02.69.69,1.6,1.04,2.51,1.04s1.82-.35,2.51-1.04l6.09-6.09,6.09,6.09c.69.69,1.6,1.04,2.51,1.04s1.82-.35,2.51-1.04c1.39-1.38,1.39-3.63,0-5.02l-6.09-6.09Z" style="fill: #ffb86b;"/>
        <path d="m1725.47,1513.95c-7.69,0-13.94-6.25-13.94-13.94s6.25-13.94,13.94-13.94,13.94,6.25,13.94,13.94-6.25,13.94-13.94,13.94Zm0-23.51c-5.28,0-9.58,4.3-9.58,9.58s4.3,9.58,9.58,9.58,9.58-4.3,9.58-9.58-4.3-9.58-9.58-9.58Z" style="fill: #3d70b3;"/>
        <path d="m467.6,519.53c-7.69,0-13.94-6.25-13.94-13.94s6.25-13.94,13.94-13.94,13.94,6.25,13.94,13.94-6.25,13.94-13.94,13.94Zm0-23.51c-5.28,0-9.58,4.3-9.58,9.58s4.3,9.58,9.58,9.58,9.58-4.3,9.58-9.58-4.3-9.58-9.58-9.58Z" style="fill: #3d70b3;"/>
      </g>
    </g>
  </g>
</svg>