<?xml version="1.0" encoding="UTF-8"?>
<svg id="Layer_1" data-name="Layer 1" xmlns="http://www.w3.org/2000/svg" viewBox="0 0 2278 2000">
  <path d="m1211.99,213.89c-271.67,0-581.35,232.99-777.48,343.49-259.55,146.26-365.45,203.39-365.45,454.42,0,440.72,511.71,866.33,1142.93,866.33s1049.36-509.23,1049.36-949.9S1843.15,213.89,1211.99,213.89h0Zm0,0" style="fill: #e6f2ff; fill-rule: evenodd;"/>
  <path d="m1757.15,735.14c6.7-41.09,26.97-113.76,87.88-205.48,96.34-145.13,147.73-301.09,73.12-343.38-73.25-41.49-213.58,172.78-235.57,551.92,30.01,1.2,54.56-.04,74.57-3.06h0Zm0,0" style="fill: #bfcee8; fill-rule: evenodd;"/>
  <path d="m1717.97,720.1c3.66-1.95,13.49-6.65,28.25-9.01,1.01-.13,1.72-1.11,1.54-2.13-.13-1.07-1.1-1.77-2.11-1.6-12.91,2.04-22.34,5.86-27.28,8.25.57-6.34,1.19-12.6,1.81-18.81,5.91-2.97,24.86-12.47,32.22-15.48.97-.4,1.45-1.51,1.06-2.49-.39-.98-1.5-1.42-2.47-1.02-6.79,2.75-22.87,10.74-30.32,14.51,1.23-11.58,2.56-22.94,4.01-34.03,5.82-2.62,23.89-10.56,44.82-17.3,1.01-.31,1.54-1.38,1.23-2.4-.31-.98-1.37-1.55-2.38-1.24-19,6.12-35.65,13.22-43.1,16.5,1.5-11.14,3.13-22.05,4.85-32.74,7.93-3.59,33.89-15.09,63.95-24.71,1.01-.31,1.59-1.38,1.23-2.4-.31-.98-1.37-1.55-2.34-1.24-27.85,8.92-52.14,19.39-62.14,23.87,2.29-13.98,4.76-27.55,7.36-40.69,8.07-4.26,41.78-21.39,71.31-25.29,1.06-.13,1.76-1.11,1.63-2.13-.13-1.06-1.06-1.77-2.12-1.64-27.5,3.64-58.44,18.46-69.85,24.31,3.26-16.06,6.74-31.5,10.4-46.28,11.5-4.7,58.31-22.76,86.56-17.79,1.01.18,1.98-.49,2.16-1.55.18-1.02-.53-2-1.54-2.17-27.37-4.88-71,11-86.03,16.95,3.97-15.66,8.11-30.62,12.38-44.86,9.08-2.04,47.34-9.98,87.22-9.01,1.06,0,1.9-.8,1.94-1.86,0-1.06-.79-1.91-1.85-1.95-37.77-.89-74.04,6.08-86.03,8.65,2.56-8.43,5.2-16.55,7.89-24.49,8.59-2.13,45.61-10.34,99.96-9.85,1.01,0,1.89-.84,1.89-1.86s-.84-1.91-1.85-1.95c-50.73-.44-86.56,6.66-98.55,9.41,6.43-18.68,13.09-36.12,19.83-52.22,11.46-1.42,69.77-8.21,104.15-3.86,1.01.13,1.98-.62,2.07-1.64.17-1.06-.57-2-1.59-2.13-33.06-4.17-87.48,1.77-102.91,3.59,4.01-9.32,8.02-18.24,12.03-26.71,9.87-1.11,55.26-5.86,100.53-2.04,1.06.09,1.98-.71,2.07-1.73.09-1.07-.7-1.95-1.72-2.04-42.66-3.64-85.41.31-98.94,1.77,9.47-19.66,18.95-37.01,28.07-52.18,9.34-2,51.79-10.52,88.1-7.41,1.01.09,1.94-.71,2.03-1.73.09-1.07-.66-1.95-1.72-2.09-33.36-2.8-71.75,3.99-85.68,6.79,3.79-6.21,7.54-12.02,11.19-17.44,7.14-2.57,33.89-11.27,72.41-14.2,1.06-.09,1.81-1.02,1.76-2.04-.09-1.06-1.02-1.86-2.03-1.77-32.92,2.49-57.43,9.23-68.62,12.82,29.75-43.26,52.31-61.41,52.49-61.59,1.23-.98,1.36-2.8.4-3.99-1.01-1.24-2.78-1.42-4.01-.4-.09.09-10.05,8.07-25.39,25.96,2.16-9.27,5.33-22.19,6.74-24.36.57-.89.31-2.04-.57-2.62-.84-.58-2.03-.36-2.6.53-2.2,3.37-7.19,25.25-8.86,32.79-6.13,7.45-12.96,16.33-20.19,26.71l1.01-41.8c0-1.06-.84-1.91-1.85-1.95-1.06,0-1.89.8-1.94,1.86l-1.15,47.52c-4.94,7.23-10.05,15.17-15.25,23.78l-.62-48.67c0-1.02-.88-1.86-1.89-1.86s-1.9.84-1.9,1.91l.7,54.8c-7.71,13.09-15.69,27.69-23.62,43.88l-3.7-48.94c-.09-1.07-1.01-1.82-2.07-1.78-1.01.09-1.81,1.02-1.72,2.04l4.19,55.51c-3.57,7.5-7.14,15.31-10.71,23.47l-4.19-43.7c-.09-1.06-1.01-1.82-2.03-1.73-1.06.09-1.81,1.02-1.72,2.08l4.84,50.58c-6.48,15.35-12.87,31.86-19.08,49.52l-7.05-41.26c-.17-1.02-1.19-1.73-2.2-1.55-1.02.18-1.72,1.15-1.54,2.22l8.24,48.01c-2.42,7.1-4.8,14.42-7.14,21.88l-7.4-30.53c-.26-1.02-1.28-1.64-2.29-1.42-1.02.27-1.63,1.29-1.41,2.31l8.95,36.65c-4.28,14.07-8.38,28.75-12.3,44.15l-9.34-33.59c-.26-.98-1.32-1.6-2.34-1.29-.97.27-1.58,1.33-1.28,2.35l11.06,39.89c-3.35,13.58-6.57,27.73-9.61,42.37l-9.52-29.24c-.31-.98-1.37-1.55-2.38-1.2-1.02.31-1.54,1.42-1.23,2.4l11.63,35.54c-2.6,12.91-5.02,26.22-7.32,39.93l-11.5-24.98c-.44-.93-1.54-1.37-2.51-.93-.93.44-1.37,1.6-.93,2.53l13.84,30.04c-1.59,10.03-3.09,20.23-4.54,30.66l-12.61-19.92c-.57-.89-1.72-1.15-2.6-.62-.88.58-1.15,1.73-.57,2.66l15.03,23.74c-1.28,9.67-2.47,19.52-3.61,29.59l-8.9-12.56c-.62-.84-1.81-1.07-2.64-.44-.84.62-1.02,1.82-.44,2.66l11.37,15.97c-.79,7.54-1.54,15.22-2.25,22.98l-10.93-8.56c-.79-.67-1.98-.49-2.64.31-.62.84-.49,2.04.36,2.66l12.82,10.07c-.53,6.35-1.06,12.78-1.54,19.26,1.94,0,3.83-.04,5.68-.09.49-6.21.97-12.34,1.5-18.41h0Zm0,0" style="fill: #fff; fill-rule: evenodd;"/>
  <path d="m1740.49,900.29c16.26-37.67,50.11-96.37,118.69-159.29,116.35-106.71,195.42-238.67,138.83-303.58-54.57-62.61-219.44,88.78-321.56,429.81l63.77,32.92.26.13Zm0,0" style="fill: #aabcdd; fill-rule: evenodd;"/>
  <path d="m1970.38,471.76c2.42-1.64,3.04-5.01,1.36-7.45-1.67-2.44-5.02-3.06-7.45-1.37-.13.13-14.55,9.89-36.8,30.04l11.37-28.71c.7-1.82-.17-3.9-1.98-4.66-1.81-.71-3.92.18-4.63,2.04l-16.88,42.59c-10.18,9.72-21.46,21.16-33.45,34.43l7.76-36.34c.4-1.95-.84-3.86-2.78-4.26-1.9-.4-3.79.8-4.23,2.75l-10.36,48.72c-12.25,14.11-25.08,29.99-38.12,47.74l5.55-31.77c.35-1.95-.93-3.82-2.87-4.17-1.94-.36-3.79.98-4.14,2.88l-8.11,46.46c-13.27,18.99-26.66,39.89-39.67,62.78l1.98-30.93c.13-1.95-1.37-3.68-3.31-3.82-1.98-.09-3.66,1.38-3.79,3.37l-2.96,45.92c-11.81,21.92-23.31,45.52-34.02,70.9l-2.87-18.15c-.31-1.95-2.16-3.28-4.1-2.97-1.94.31-3.22,2.17-2.95,4.13l4.72,29.6c-7.89,19.57-15.34,40.11-22.17,61.72l-3.57-18.01c-.4-1.95-2.29-3.19-4.19-2.84-1.94.4-3.17,2.31-2.82,4.26l6.17,30.93c-3.17,10.69-6.22,21.65-9.08,32.83l9.78,5.06c2.82-11.23,5.82-22.19,8.99-32.92,7.58-4.53,26.05-15,36.01-16.11,1.98-.22,3.4-2,3.17-3.99-.22-1.95-1.98-3.37-3.97-3.15-8.77,1.02-22.69,7.99-32.17,13.27,2.56-8.39,5.25-16.59,7.98-24.67,7.98-3.68,27.9-12.25,44.08-13.58,1.98-.18,3.44-1.91,3.26-3.9-.13-1.95-1.85-3.42-3.83-3.24-13.88,1.11-30.15,7.14-40.28,11.49,5.82-16.46,12.03-32.3,18.46-47.48,12.56-2.62,52.58-10.6,71.62-8.83,1.94.18,3.66-1.29,3.83-3.24.17-2-1.23-3.73-3.22-3.9-17.81-1.64-52.49,4.7-68.75,7.99,7.05-16.11,14.37-31.46,21.9-46.1,12.34-2.93,53.06-11.71,85.41-9.36,1.94.13,3.66-1.33,3.79-3.33.17-1.95-1.32-3.68-3.3-3.82-29.13-2.13-64.7,4.53-81.58,8.21,3.79-7.14,7.62-14.15,11.5-20.94,12.39-3.73,54.87-15.22,102.43-13.8,1.98.04,3.61-1.51,3.7-3.46.04-2-1.5-3.64-3.44-3.73-41.65-1.24-79.55,7.23-97.54,12.11,14.28-24.36,28.91-46.28,43.32-65.89,16-.71,78.18-2.97,109.57,2.22,1.94.31,3.79-1.02,4.1-2.97.31-1.95-1.01-3.77-2.95-4.08-29.04-4.84-83.21-3.42-105.2-2.62,10.93-14.46,21.68-27.64,32-39.49,15.38.84,72.15,4.04,85.9,5.63,1.94.27,3.7-1.15,3.92-3.11.26-2-1.15-3.77-3.09-3.99-12.61-1.46-60.2-4.22-80.7-5.37,13.67-15.31,26.4-28.26,37.68-38.91,14.46,1.69,49.27,5.95,57.82,7.59,1.94.35,3.83-.93,4.19-2.84.35-1.95-.93-3.86-2.87-4.21-7.62-1.46-35.74-4.93-52.31-6.92,23.58-21.65,38.96-32.12,39.14-32.26h0Zm0,0" style="fill: #bfcee8; fill-rule: evenodd;"/>
  <path d="m424.73,372.82l-15.42,9.01c-5.2,3.06-6.96,9.81-3.92,15.04l3.39,5.9c4.01,6.97,2.25,10.12,1.01,11.23-3.44,3.11-6.61,6.48-9.83,9.81-.93.98-3.88,4.35-11.72-.27l-5.38-3.15c-5.2-3.02-11.94-1.24-14.98,3.99l-8.95,15.53c-3.04,5.24-1.23,12.02,3.97,15.04l5.29,3.15c7.36,4.3,7.18,6.48,6.26,9.63-1.28,4.3-2.65,8.61-3.62,13.09-.79,3.95-.44,6.79-10.45,6.79h-6.13c-6.04,0-10.93,4.97-10.93,11v17.97c0,6.08,4.89,11.05,10.93,11.05h6.13c10.01,0,9.65,2.79,10.45,6.79.97,4.44,2.34,8.79,3.62,13.09.92,3.15,1.1,5.32-6.26,9.63l-5.29,3.11c-5.2,3.06-7.01,9.85-3.97,15.09l8.95,15.53c3.04,5.23,9.78,7.01,14.98,3.95l5.38-3.11c7.84-4.62,10.8-1.24,11.72-.27,3.22,3.33,6.39,6.7,9.83,9.81,1.23,1.11,3,4.26-1.01,11.22l-3.39,5.86c-3.04,5.24-1.28,12.02,3.92,15.09l15.42,9.01c5.2,3.06,11.94,1.29,14.99-3.99l3.39-5.86c4.06-7.05,8.06-6.79,9.78-6.26,4.89,1.6,9.43,2.62,14.54,3.95,1.85.49,5.03,1.86,5.03,10.25v6.3c0,6.08,4.89,11,10.93,11h17.85c5.99,0,10.93-4.93,10.93-11v-6.3c0-8.39,3.17-9.76,5.02-10.25,5.07-1.33,9.61-2.35,14.55-3.95,1.67-.53,5.68-.8,9.78,6.26l3.39,5.86c3,5.28,9.74,7.05,14.94,3.99l15.42-9.01c5.2-3.06,6.96-9.85,3.97-15.09l-3.39-5.86c-4.06-6.97-2.29-10.12-1.06-11.22,3.44-3.11,6.61-6.48,9.83-9.81.93-.98,3.92-4.35,11.77.27l5.37,3.11c5.2,3.06,11.9,1.29,14.94-3.95l8.99-15.53c3-5.24,1.23-12.02-3.97-15.09l-5.33-3.11c-7.36-4.3-7.18-6.48-6.21-9.63,1.28-4.3,2.64-8.65,3.57-13.09.84-3.99.44-6.79,10.45-6.79h6.13c6.04,0,10.93-4.97,10.93-11.05v-17.97c0-6.03-4.89-11-10.93-11h-6.13c-10,0-9.61-2.84-10.45-6.79-.93-4.48-2.29-8.78-3.57-13.09-.97-3.15-1.15-5.32,6.21-9.63l5.33-3.15c5.2-3.02,6.96-9.81,3.97-15.04l-8.99-15.53c-3.04-5.24-9.74-7.01-14.94-3.99l-5.37,3.15c-7.85,4.61-10.84,1.24-11.77.27-3.22-3.33-6.39-6.7-9.83-9.81-1.23-1.11-3-4.26,1.06-11.23l3.39-5.9c3-5.23,1.23-11.98-3.97-15.04l-15.42-9.01c-5.2-3.06-11.94-1.29-14.94,3.95l-3.39,5.9c-4.1,7.05-8.11,6.79-9.78,6.21-4.94-1.55-9.48-2.57-14.55-3.9-1.85-.49-5.02-1.86-5.02-10.25v-6.3c0-6.08-4.94-11-10.93-11h-17.85c-6.04,0-10.93,4.92-10.93,11v6.3c0,8.39-3.17,9.76-5.03,10.25-5.11,1.33-9.65,2.35-14.54,3.9-1.72.58-5.73.84-9.78-6.21l-3.39-5.9c-3.04-5.24-9.78-7.01-14.99-3.95h0Zm67.57,64.29c38.69,0,70.03,31.59,70.03,70.5s-31.34,70.5-70.03,70.5-69.99-31.59-69.99-70.5,31.33-70.5,69.99-70.5h0Zm0-17.61c48.35,0,87.53,39.44,87.53,88.12s-39.18,88.07-87.53,88.07-87.48-39.44-87.48-88.07,39.18-88.12,87.48-88.12h0Zm0,0" style="fill: #3a67b3; fill-rule: evenodd;"/>
  <path d="m654.44,268.19l-9.78,5.68c-3.26,1.95-4.41,6.21-2.47,9.54l2.16,3.73c2.51,4.39,1.41,6.39.62,7.1-2.16,1.95-4.19,4.08-6.22,6.21-.57.62-2.47,2.75-7.4-.18l-3.44-2c-3.26-1.91-7.54-.75-9.43,2.53l-5.69,9.85c-1.94,3.28-.79,7.59,2.51,9.49l3.35,2c4.67,2.71,4.54,4.13,3.97,6.08-.84,2.75-1.68,5.46-2.29,8.3-.53,2.53-.26,4.3-6.61,4.3h-3.88c-3.83,0-6.92,3.15-6.92,6.97v11.36c0,3.86,3.09,6.97,6.92,6.97h3.88c6.35,0,6.08,1.82,6.61,4.3.62,2.84,1.45,5.55,2.29,8.3.57,2,.7,3.37-3.97,6.12l-3.35,1.95c-3.31,1.91-4.45,6.21-2.51,9.54l5.69,9.81c1.9,3.33,6.17,4.44,9.43,2.53l3.44-2c4.94-2.88,6.83-.8,7.4-.18,2.03,2.13,4.06,4.26,6.22,6.21.79.71,1.9,2.71-.62,7.1l-2.16,3.73c-1.94,3.33-.79,7.59,2.47,9.54l9.78,5.72c3.3,1.91,7.53.8,9.47-2.53l2.12-3.73c2.6-4.48,5.11-4.3,6.22-3.95,3.08,1.02,5.99,1.64,9.21,2.48,1.15.31,3.17,1.15,3.17,6.48v3.99c0,3.86,3.09,6.97,6.92,6.97h11.28c3.79,0,6.92-3.11,6.92-6.97v-3.99c0-5.32,2.03-6.17,3.17-6.48,3.22-.84,6.08-1.46,9.21-2.48,1.06-.35,3.61-.53,6.17,3.95l2.16,3.73c1.94,3.33,6.17,4.44,9.48,2.53l9.74-5.72c3.31-1.95,4.41-6.21,2.51-9.54l-2.16-3.73c-2.56-4.39-1.41-6.39-.62-7.1,2.16-1.95,4.14-4.08,6.17-6.21.62-.62,2.51-2.71,7.45.18l3.39,2c3.3,1.91,7.58.8,9.47-2.53l5.69-9.81c1.9-3.33.79-7.63-2.51-9.54l-3.35-1.95c-4.67-2.75-4.54-4.13-3.97-6.12.79-2.75,1.67-5.46,2.29-8.3.48-2.48.26-4.3,6.61-4.3h3.88c3.79,0,6.92-3.11,6.92-6.97v-11.36c0-3.82-3.13-6.97-6.92-6.97h-3.88c-6.35,0-6.08-1.77-6.61-4.3-.62-2.84-1.5-5.55-2.29-8.3-.57-1.95-.7-3.37,3.97-6.08l3.35-2c3.31-1.91,4.41-6.21,2.51-9.49l-5.69-9.85c-1.89-3.28-6.17-4.44-9.47-2.53l-3.39,2c-4.94,2.93-6.83.8-7.45.18-2.03-2.13-4.01-4.26-6.17-6.21-.79-.71-1.94-2.71.62-7.1l2.16-3.73c1.9-3.33.79-7.59-2.51-9.54l-9.74-5.68c-3.3-1.95-7.54-.8-9.48,2.48l-2.16,3.73c-2.56,4.48-5.11,4.3-6.17,3.95-3.13-.98-5.99-1.64-9.21-2.49-1.14-.31-3.17-1.15-3.17-6.48v-3.99c0-3.82-3.13-6.97-6.92-6.97h-11.28c-3.83,0-6.92,3.15-6.92,6.97v3.99c0,5.32-2.03,6.17-3.17,6.48-3.22.84-6.13,1.51-9.21,2.49-1.1.35-3.62.53-6.22-3.95l-2.12-3.73c-1.94-3.28-6.17-4.44-9.47-2.48h0Zm42.75,40.69c24.46,0,44.29,19.97,44.29,44.59s-19.83,44.59-44.29,44.59-44.29-19.97-44.29-44.59,19.83-44.59,44.29-44.59h0Zm0-11.14c30.59,0,55.35,24.94,55.35,55.73s-24.77,55.77-55.35,55.77-55.4-24.98-55.4-55.77,24.81-55.73,55.4-55.73h0Zm0,0" style="fill: #3a67b3; fill-rule: evenodd;"/>
  <path d="m604.59,744.24h1233.96c59.72,0,110.36,49.25,108.55,109.24l-22.52,748.52c-1.81,59.99-48.92,109.28-108.55,109.28H627.12c-59.32,0-106.75-49.21-108.55-109.28l-22.52-748.52c-1.81-60.08,48.83-109.24,108.55-109.24h0Zm0,59.68h1233.96c27.1,0,50.07,22.36,49.27,49.56l-22.52,748.52c-.79,26.8-22.66,49.56-49.27,49.56H627.12c-26.62,0-48.48-22.32-49.27-49.56l-22.52-748.52c-.79-27.24,22.17-49.56,49.27-49.56h0Zm0,0" style="fill: #b0beea; fill-rule: evenodd;"/>
  <path d="m1887.83,853.48c0-23.83-16.97-43.93-39.36-48.54l-1.19-.27-1.19-.18h-.04l-1.19-.18h-.05l-1.19-.13h-.05l-1.23-.13-1.23-.09-1.28-.04H603.32l-1.28.04-1.23.09-2.47.27-1.19.18c-23.58,3.64-41.78,24.27-41.78,48.98l22.52,748.52c.84,27.24,22.65,49.56,49.27,49.56h1188.92c26.62,0,48.48-22.76,49.28-49.56l22.48-748.52Zm0,0" style="fill: #e9eef7; fill-rule: evenodd;"/>
  <path d="m458.45,1707.24h1526.3v44.37c0,24.4-19.83,44.42-44.07,44.42H502.52c-24.24,0-44.07-20.01-44.07-44.42v-44.37Zm0,0" style="fill: #b0beea; fill-rule: evenodd;"/>
  <path d="m1724.71,309.33h-767.27l-238.97,240.62v1101.61h1006.24V309.33Zm0,0" style="fill: #fff; fill-rule: evenodd;"/>
  <path d="m957.44,309.33v240.62h-238.97l238.97-240.62Zm0,0" style="fill: #cfdaee; fill-rule: evenodd;"/>
  <path d="m908.57,665.44h712.05c5.16,0,9.34,4.48,9.34,9.98s-4.19,10.03-9.34,10.03h-712.05c-5.16,0-9.39-4.48-9.39-10.03s4.23-9.98,9.39-9.98h0Zm336.72-75.61h375.33c5.16,0,9.34,4.53,9.34,10.03s-4.19,9.98-9.34,9.98h-375.33c-5.16,0-9.39-4.48-9.39-9.98s4.23-10.03,9.39-10.03h0Zm0-63.98h375.33c5.16,0,9.34,4.48,9.34,9.98s-4.19,9.98-9.34,9.98h-375.33c-5.16,0-9.39-4.48-9.39-9.98s4.23-9.98,9.39-9.98h0Zm-251.48-67.44l626.81,3.42c5.16.04,9.34,4.48,9.34,9.98s-4.19,10.03-9.34,10.03l-626.81-3.42c-5.11,0-9.34-4.48-9.34-9.98s4.19-10.03,9.34-10.03h0Zm0-63.98l626.81,3.37c5.16.04,9.34,4.53,9.34,10.03s-4.19,10.03-9.34,9.98l-626.81-3.37c-5.11-.05-9.34-4.53-9.34-10.03s4.19-10.03,9.34-9.98h0Zm-171.27,1102.06h798.08c5.16,0,9.34,4.52,9.34,10.02s-4.19,9.98-9.34,9.98h-798.08c-5.16,0-9.34-4.48-9.34-9.98s4.19-10.02,9.34-10.02h0Zm0-63.98h798.08c5.16,0,9.34,4.48,9.34,9.98s-4.19,10.03-9.34,10.03h-798.08c-5.16,0-9.34-4.52-9.34-10.03s4.19-9.98,9.34-9.98h0Zm0-64.03h798.08c5.16,0,9.34,4.48,9.34,9.99s-4.19,10.03-9.34,10.03h-798.08c-5.16,0-9.34-4.52-9.34-10.03s4.19-9.99,9.34-9.99h0Zm0-64.02h239.49c5.11,0,9.34,4.53,9.34,10.03s-4.23,9.99-9.34,9.99h-239.49c-5.16,0-9.34-4.48-9.34-9.99s4.19-10.03,9.34-10.03h0Zm305.78,0h492.3c5.16,0,9.34,4.53,9.34,10.03s-4.19,9.99-9.34,9.99h-492.3c-5.16,0-9.34-4.48-9.34-9.99s4.19-10.03,9.34-10.03h0Zm-305.78-63.98h798.08c5.16,0,9.34,4.48,9.34,9.98s-4.19,10.03-9.34,10.03h-798.08c-5.16,0-9.34-4.53-9.34-10.03s4.19-9.98,9.34-9.98h0Zm163.69-64.03h634.39c5.16,0,9.34,4.48,9.34,9.99s-4.19,10.02-9.34,10.02h-634.39c-5.11,0-9.34-4.48-9.34-10.02s4.23-9.99,9.34-9.99h0Zm-163.69,0h110.05c5.16,0,9.39,4.48,9.39,9.99s-4.23,10.02-9.39,10.02h-110.05c-5.16,0-9.34-4.48-9.34-10.02s4.19-9.99,9.34-9.99h0Zm0-64.02h416.14c5.16,0,9.34,4.53,9.34,10.03s-4.19,9.98-9.34,9.98h-416.14c-5.16,0-9.34-4.48-9.34-9.98s4.19-10.03,9.34-10.03h0Zm0-131.51h479.12c5.16,0,9.34,4.48,9.34,9.98s-4.19,10.03-9.34,10.03h-479.12c-5.16,0-9.34-4.53-9.34-10.03s4.19-9.98,9.34-9.98h0Zm528.18,0h269.9c5.16,0,9.34,4.48,9.34,9.98s-4.19,10.03-9.34,10.03h-269.9c-5.16,0-9.35-4.53-9.35-10.03s4.19-9.98,9.35-9.98h0Zm116.62-64.03h153.29c5.16,0,9.34,4.53,9.34,10.03s-4.19,9.98-9.34,9.98h-153.29c-5.16,0-9.39-4.48-9.39-9.98s4.23-10.03,9.39-10.03h0Zm-322.4,0h269.11c5.16,0,9.34,4.53,9.34,10.03s-4.19,9.98-9.34,9.98h-269.11c-5.16,0-9.34-4.48-9.34-9.98s4.19-10.03,9.34-10.03h0Zm-322.4,0h269.11c5.16,0,9.34,4.53,9.34,10.03s-4.19,9.98-9.34,9.98h-269.11c-5.16,0-9.34-4.48-9.34-9.98s4.19-10.03,9.34-10.03h0Zm458.4-63.98h339.67c5.16,0,9.34,4.48,9.34,9.98s-4.19,9.98-9.34,9.98h-339.67c-5.16,0-9.34-4.48-9.34-9.98s4.19-9.98,9.34-9.98h0Zm-458.4,0h397.23c5.16,0,9.34,4.48,9.34,9.98s-4.19,9.98-9.34,9.98h-397.23c-5.16,0-9.34-4.48-9.34-9.98s4.19-9.98,9.34-9.98h0Zm546.2-64.03h251.88c5.16,0,9.34,4.48,9.34,9.98s-4.19,10.03-9.34,10.03h-251.88c-5.16,0-9.34-4.53-9.34-10.03s4.19-9.98,9.34-9.98h0Zm-351.35,0h278.68c5.16,0,9.34,4.48,9.34,9.98s-4.19,10.03-9.34,10.03h-278.68c-5.11,0-9.34-4.53-9.34-10.03s4.23-9.98,9.34-9.98h0Zm-194.85,0h151.13c5.16,0,9.34,4.48,9.34,9.98s-4.19,10.03-9.34,10.03h-151.13c-5.16,0-9.34-4.53-9.34-10.03s4.19-9.98,9.34-9.98h0Zm297.05-64.03h501.03c5.16,0,9.34,4.53,9.34,10.03s-4.19,9.98-9.34,9.98h-501.03c-5.16,0-9.34-4.48-9.34-9.98s4.19-10.03,9.34-10.03h0Zm-297.05,0h244.65c5.16,0,9.39,4.53,9.39,10.03s-4.23,9.98-9.39,9.98h-244.65c-5.16,0-9.34-4.48-9.34-9.98s4.19-10.03,9.34-10.03h0Zm0,0" style="fill: #cfdaee; fill-rule: evenodd;"/>
  <path d="m350.82,1855.32c193.79,0,350.87,25.11,350.87,56.08s-157.08,56.08-350.87,56.08S0,1942.37,0,1911.4s157.08-56.08,350.82-56.08h0Zm-77.13-8.13" style="fill: #dbecff; fill-rule: evenodd;"/>
  <path d="m267.87,605.98c1.23,6.35-5.2,13-14.32,14.86-9.17,1.86-17.54-1.73-18.73-8.08-1.23-6.34,5.2-13,14.32-14.86,9.12-1.95,17.54,1.77,18.73,8.07h0Zm0,0" style="fill: #4f4021; fill-rule: evenodd;"/>
  <path d="m93.78,1792.12s-15.25,15.22-15.6,20.77c-.35,5.59-1.37,65.22,4.89,70.82,6.21,5.59,24.5,9.49,18.6,15.84-4.41,4.7-38.61,3.73-61.26,2.39-6.61-.31-14.9-54.17-17.5-62.03-3.83-11.49-17.54-36.52-14.06-44.5,1.67-3.91,14.19-12.87,25.56-20.32,11.94-7.85,23.36-25.47,23.36-25.47l36.01,42.51Zm0,0" style="fill: #ffb27d; fill-rule: evenodd;"/>
  <path d="m35.12,1774.64s31.86,98.59,45.62,103.38c3.66,1.33,24.46,7.1,27.77,14.95l.22.8c1.06,5.01-3.13,9.58-8.2,9.58H35.26s-9.26-44.46-12.91-64.02c0,0-19.39-47.74-17.23-52.09,2.16-4.39,30.01-12.6,30.01-12.6h0Zm0,0" style="fill: #233862; fill-rule: evenodd;"/>
  <path d="m297.71,1829.53l-13.66,39.31c-1.01,6.34-4.98,21.65-4.98,27.33,0,21.3,94.05-18.06,72.99-27.42-1.94-.89-7.93-7.76-8.55-15-.97-11.13,7.93-25.11,7.93-25.11l-53.72.89Zm0,0" style="fill: #ffb27d; fill-rule: evenodd;"/>
  <path d="m273.69,1903.27l10.8-34.74s22.61,9.72,33.94,8.08c11.28-1.64,33.36-8.08,33.36-8.08,45.18,15.09,82.15,22.5,75.41,34.74h-153.51Zm0,0" style="fill: #233862; fill-rule: evenodd;"/>
  <path d="m411.77,1073.02l18.16,99.57s45.13,316.22,40.9,337.61c-10.27,52.36-114.15,337.12-114.15,337.12l-66.55-8.52,73.03-336.77-121.69-316.35,170.3-112.66Zm0,0" style="fill: #2b478b; fill-rule: evenodd;"/>
  <path d="m289.91,1128.21l-48.7,57.15-47.73,299.19-150.25,279.09s22.57,34.96,46.85,40.42l213.22-282.06,115.6-353.14-4.06-78.45-124.95,37.8Zm0,0" style="fill: #2b478b; fill-rule: evenodd;"/>
  <path d="m670.66,819.09c-.97-2.97-10.75-21.21-10.75-21.21,0,0-.49-30.26.35-30.7,16.7-7.1,33.54.44,35.83,17.7v.53c.53,32.48-16.35,62.52-43.81,78.05-6.3,3.46-12.91,7.19-19.75,11-.35-13-2.12-25.78-6.21-38.11,24.99-8.74,44.69-16.19,44.34-17.26h0Zm0,0" style="fill: #ffb27d; fill-rule: evenodd;"/>
  <path d="m341.79,797.57c0-1.64,182.77,47.83,182.77,47.83,0,0,64.35-21.39,111.59-38.11,4.85,14.73,7.18,30.04,7.93,45.44-43.85,25.38-94.1,53.33-106.52,56.62-23.18,5.9-155.4-13.67-155.4-13.67,0,0-40.37-96.9-40.37-98.1h0Zm0,0" style="fill: #c9ea78; fill-rule: evenodd;"/>
  <path d="m461.4,1176.27c-.48-2.62-4.93-126.41-34.02-228.59-22.57-79.2-68.54-141.36-84.67-150.02-5.95-3.28-50.51.67-50.51.67l23.31,20.63c24.86,24.58,37.46,49.61,54.91,80.98,50.55,91.14,26.93,316.36,31.73,316.13,5.33-.36,61.22-29.42,59.23-39.8h0Zm0,0" style="fill: #a7e22c; fill-rule: evenodd;"/>
  <path d="m664.22,668.63l32.09,8.74-34.73,164.52-60.6-103.03,63.24-70.24Zm0,0" style="fill: #fff; fill-rule: evenodd;"/>
  <path d="m641,652.53l3.48,125.57-42.4-40.2,38.92-85.37Zm0,0" style="fill: #fff; fill-rule: evenodd;"/>
  <path d="m417.86,714.73l5.24,104.58,182.2-82.3-187.44-22.27Zm0,0" style="fill: #fff; fill-rule: evenodd;"/>
  <path d="m700.06,676.04l-32.26,276.56c-.13,1.2-.84,2.4-1.85,3.06l-66.02,46.01,16.97-268.79,76.73-60.56c2.82-2.26,6.83.13,6.44,3.73h0Zm0,0" style="fill: #ed7d2b; fill-rule: evenodd;"/>
  <path d="m256.9,577.9s-29.27-21.52-42.62,14.64c0,0-16.66-5.68-24.2,12.02,0,0-28.74-2.93-27.32,40.47,0,0-14.46.09-13,17.57,1.41,17.62,12.03,27.33,12.03,27.33,0,0-6.7,7.63-.13,22.72,5.6,12.78,16.7,12.69,16.7,12.69,0,0,7.18,22.05,17.98,26.84,10.75,4.92,23.05-.98,23.05-.98,0,0,5.73,11.58,16.57,8.21,10.84-3.37,22.44-17.04,35.74-14.64,13.31,2.31,44.43-9.41,44.43-9.41,0,0,32.88-23.92,14.81-59.99,0,0,15.6-21.52-5.02-39.44,0,0,5.77-35.72-21.95-50.36-27.68-14.78-47.07-7.68-47.07-7.68h0Zm0,0" style="fill: #233862; fill-rule: evenodd;"/>
  <path d="m299.12,797.44l-58.22,3.51s-15.47,19.21-16,19.35c-6.08,1.2,21.16,244.12,26.66,334.15,5.51,90.16,28.07,64.91,28.07,64.91,0,0,62.19,23.16,119.09,5.99,59.15-17.79,39.05-93.22,39.05-93.22,0,0-36.98-165.1-57.21-215.59-20.23-50.67-81.45-119.09-81.45-119.09h0Zm0,0" style="fill: #f5fafa; fill-rule: evenodd;"/>
  <path d="m287,758.21l9.17,27.86,1.63,4.93s19.04,46.54,8.2,58.43c-10.84,11.94-65.1-48.5-65.1-48.5l-11.81-85.99,57.91,43.26Zm0,0" style="fill: #ffb27d; fill-rule: evenodd;"/>
  <path d="m232.97,742.91c15.95,26.98,44.2,39.8,63.16,43.04l-9.12-27.73-57.91-43.26,3.88,27.95Zm0,0" style="fill: #ed6c50; fill-rule: evenodd;"/>
  <path d="m241.21,619.34c23.89-14.42,54.56-2.31,63.68,24.27,3.97,11.45,8.33,26.09,11.72,42.51,8.2,39.09-4.19,81.37-21.42,85.01-17.23,3.46-69.72-12.25-82.11-67.75-7.62-34.21,3.04-68.95,28.12-84.04h0Zm0,0" style="fill: #ffb27d; fill-rule: evenodd;"/>
  <path d="m226.67,705.24c1.63,8.61-2.56,16.82-9.43,18.24-6.83,1.42-13.7-4.48-15.38-13.22-1.67-8.65,2.56-16.82,9.39-18.24,6.87-1.42,13.75,4.44,15.42,13.22h0Zm0,0" style="fill: #ffb27d; fill-rule: evenodd;"/>
  <path d="m312.17,584.46c20.58,11.05,31.07,31.9,23.4,46.77-7.71,14.86-30.63,17.92-51.21,7.01-20.58-10.91-31.07-31.9-23.36-46.76,7.67-14.86,30.59-17.93,51.17-7.01h0Zm0,0" style="fill: #233862; fill-rule: evenodd;"/>
  <path d="m326.4,644.8c1.54,8.16-3.53,16.06-11.33,17.7-7.76,1.51-15.38-3.73-16.92-11.94-1.54-8.21,3.53-16.06,11.33-17.7,7.76-1.51,15.38,3.73,16.92,11.94h0Zm0,0" style="fill: #233862; fill-rule: evenodd;"/>
  <path d="m240.9,800.94s-56.5,9.41-71.97,23.61c-9.83,8.96,7.89,114.61,7.89,114.61,0,0,32.08,102.05,34.6,132.98,8.55,105.24,4.19,201.39,9.26,204.9,29.66,11.8,133.1-3.28,137.46-15.31,48.31-132.67-117.24-460.78-117.24-460.78h0Zm0,0" style="fill: #a7e22c; fill-rule: evenodd;"/>
  <path d="m184.58,934.9s108.77,153.43,138.04,163.37c29.27,9.85,80.21-195.49,80.21-195.49,0,0,38.48-43.17,41.69-44.59,12.87-5.77-30.28,1.33-30.28,1.33l-19.13-42.2s-1.9,1.11-9.52,19.57c-10.36,24.94-15.12,59.68-20.23,67l-52.89,79.95-74.22-106.62-53.68,57.68Zm0,0" style="fill: #ffb27d; fill-rule: evenodd;"/>
  <path d="m616.89,732.88l-22.96,5.32-16.44,278.33,22.43-14.86,16.97-268.79Zm0,0" style="fill: #bc503a; fill-rule: evenodd;"/>
  <path d="m404.9,1022.22c.57,5.15,172.59-5.68,172.59-5.68l16.44-278.33-200.01-1.51c-4.8,0,10.98,285.52,10.98,285.52h0Zm0,0" style="fill: #f99746; fill-rule: evenodd;"/>
  <path d="m368.01,891.41l31.64,35.18s-40.77,184.44-71.27,185.55c-30.54.98-136.27-147.09-159.19-190.13-22.92-42.95-18.03-86.79,2.82-100.54,20.85-13.67,51.35,20.19,63.73,34.74,12.43,14.64,76.73,127.61,76.73,127.61l55.53-92.42Zm0,0" style="fill: #c9ea78; fill-rule: evenodd;"/>
  <path d="m688.73,783.46s1.41-7.32,1.28-11.36c-.09-4.17-26.44-9.54-33.32-.58-6.83,8.87,19.48,9.85,32.04,11.94h0Zm0,0" style="fill: #ffb27d; fill-rule: evenodd;"/>
  <path d="m692.65,798.77s3.61-7.9,3.48-12.02c-.13-4.17-34.55-9.41-41.38-.44-6.87,8.96,25.3,10.47,37.91,12.47h0Zm0,0" style="fill: #ffb27d; fill-rule: evenodd;"/>
  <path d="m685.86,812.74s3.66-7.99,3.53-12.16c-.13-4.04-26.44-9.36-33.32-.53-6.88,8.96,17.23,10.61,29.79,12.69h0Zm0,0" style="fill: #ffb27d; fill-rule: evenodd;"/>
  <path d="m392.82,837.41l7.62-3.06c2.16-.62,4.27-1.6,6.26-2.93,7.89-4.79,29.57-17.62,32.92-13.44,4.1,5.15-29.35,24.36-29.35,24.36,0,0,37.46-18.77,39.67-11.89,2.2,6.88-36.45,24.14-36.45,24.14,0,0,34.33-13.22,36.23-9.49,1.9,3.73-37.82,29.73-37.82,29.73,0,0,32.53-20.01,37.51-16.51,4.94,3.37-50.42,58.57-50.42,58.57l-6.17-79.47Zm0,0" style="fill: #ffb27d; fill-rule: evenodd;"/>
  <path d="m685.86,812.74s-22.74-4.61-26.67.67c-3.92,5.23,22.92,14.64,22.92,14.64l-.62,6.97s10.23-15.71,4.36-22.27h0Zm0,0" style="fill: #ffb27d; fill-rule: evenodd;"/>
  <path d="m1952.93,1843.63c-186.12,0-337.03,25.91-337.03,57.86s150.91,57.86,337.03,57.86,337.07-25.91,337.07-57.86-150.91-57.86-337.07-57.86h0Zm0,0" style="fill: #dbecff; fill-rule: evenodd;"/>
  <path d="m1952.84,907.52c-13.66-16.02-13.8-38.87-.4-68.51,13.93,7.1,18.69,17.84,26.18,32.21,82.15-26.58,61.39-109.95,27.28-110.92,83.48-16.02,133.94-6.88,172.06,37.76,12.87,41.22-2.42,138.03-12.25,174.55-10.4,42.2-24.51,65.76-14.94,128.98-44.38,32.17-56.9,65.58-174.7,29.95,2.64-36.47,11.55-45.35,11.06-132.22,3-28.62-19.22-62.3-34.29-91.8h0Zm0,0" style="fill: #ff2075; fill-rule: evenodd;"/>
  <path d="m1976.06,1131.54c80.79,7.85,117.45-11.71,174.7-29.95,75.23,112.39,10.36,170.38,42.71,317.87-53.42,53.95-133.23,63.49-239.4,28.66-2.51-87.14,6.57-215.24,21.99-316.58h0Zm0,0" style="fill: #233862; fill-rule: evenodd;"/>
  <path d="m2149.98,1450.87c1.1,17.44,1.45,32.92,3.75,43.79,26.27,70.9,5.16,140.34-1.1,338.45.93,2.53,1.94,4.93,3,7.19-13.18,5.81-11.55,18.64-19.35,21.48-36.63,13.31-21.46-10.2-27.46-16.77,1.63-4.08,3.09-8.07,4.32-11.98-.97-182.63-30.63-273.05-30.72-329.89-.35-8.65-2.64-26.67-3.35-34.83h.22c26.18-1.38,49.76-7.19,70.69-17.44h0Zm0,0" style="fill: #ffb27d; fill-rule: evenodd;"/>
  <path d="m2172.41,1876.07c-8.2-19.66-4.27-37.54-13.13-37.09-17.15,4.93-14.55,19.7-23.01,22.81-41.47,15.08-16.48-17.13-31.16-18.37-32.04,13.27-48.13-2.53-51.92,21.83,2.87,6.21,24.15,29.15,97.98,33.46,16.66-6.56,23.76-14.11,21.24-22.63h0Zm0,0" style="fill: #233862; fill-rule: evenodd;"/>
  <path d="m2063.33,1468.58c-2.03,20.37-4.58,36.03-6.26,47.92,29.92,61.32-1.37,140.43-16.79,338.05.79,2.57,1.68,4.97,2.64,7.28-13.44,5.23-12.38,18.1-20.36,20.59-37.15,11.54-20.93-11.23-26.62-18.06,1.81-3.99,3.44-7.94,4.85-11.76-2.56-188.17-6.88-301.72-12.91-340.63.09-18.33-2.12-37.36-4.23-55.11,28.69,7.45,55.27,11.41,79.69,11.71h0Zm0,0" style="fill: #ffb27d; fill-rule: evenodd;"/>
  <path d="m2064.83,1898.74c-7.32-20.01-9.34-38.07-18.2-38.03-17.36,4.08-15.42,18.99-24.06,21.7-42.13,13.09-15.64-17.88-30.23-19.83-45.31,15.88-76.95,6.35-77,30.26,9.43,14.77,51.83,23.92,127.24,27.51,16.92-5.77,24.37-12.96,22.26-21.61h0Zm0,0" style="fill: #233862; fill-rule: evenodd;"/>
  <path d="m1978.62,871.22c82.15-26.58,61.39-109.95,27.28-110.92-33.27-4.22-41.07-1.46-91.63-7.28-18.38,20.23-19.26,45.83-2.65,76.76,49.81,4.17,54.7,17.88,66.99,41.44h0Zm0,0" style="fill: #ef2e7d; fill-rule: evenodd;"/>
  <path d="m1907.09,762.65c-20.8.75-44.56-.35-71.18-3.33-20.89-18.55-77.74-56.75-170.48-114.61-21.37-32.79-43.15-53.91-70.87-66.95-6.79,2.93-2.78,7.59,19.3,28.93-14.81,31.77-2.69,50.45,36.4,51.38,87.26,81.68,142.98,129.83,167.08,144.33,32.97,11,62.76,16.73,89.29,17.13-9.3-21.83-9.17-40.78.44-56.88h0Zm0,0" style="fill: #ffb27d; fill-rule: evenodd;"/>
  <path d="m2159.81,994.17c31.78-5.1,41.78-19.3,39.01-65.76-6,2.4-15.78,5.32-25.21,7.05-2.6,14.95-5.42,27.95-7.89,37.14-1.06,4.3-4.81,17.61-5.91,21.56h0Zm0,0" style="fill: #ffb27d; fill-rule: evenodd;"/>
  <path d="m2173.6,935.47c9.43-1.73,17.1-3.77,23.05-6.17,1.54-.58,2.95-1.2,4.23-1.86,4.49-65.53-3.17-108.66-22.92-129.38,9.65,30.84,3.48,92.87-4.36,137.41h0Zm0,0" style="fill: #ef2e7d; fill-rule: evenodd;"/>
  <path d="m2080.6,723.83c42.88,2.4,63.91-21.47,63.11-71.66,1.32-5.06,2.21-9.89,2.6-14.51,2.6-28.04-11.42-47.96-42.09-59.77-71.71-24.98-102.56-14.11-92.51,22.81,6.74,15.17,17.01,26.67,30.72,34.52-3.92,7.14-5.25,15.22-3.88,24.14-.09,2.44.66,5.81,2.25,10.07,2.2-18.01,8.15-29.42,17.81-34.21,6.3,11.09,4.36,25.65-5.82,43.66-4.41,26,4.85,40.95,27.81,44.95h0Zm0,0" style="fill: #233862; fill-rule: evenodd;"/>
  <path d="m2167.91,714.69c9.12-1.69,10.58,13,13.13,18.55,6.87-25.96.79-54.49-10.8-64.11,3.7.49,7.71,2.57,11.94,6.17,1.59-29.37-32.92-37.85-42.05-38.78-4.58-.49-7.94,2.13-10.05,7.85-13.05,38.2-6.17,71.44,20.71,99.66-5.07-7.41-7.01-16.24-5.82-26.4,9.26,29.46,25.74,36.52,49.5,21.21-19.66,5.99-23.14-3.37-26.58-24.14h0Zm0,0" style="fill: #233862; fill-rule: evenodd;"/>
  <path d="m2139.49,636.55c-3.22-4.7-8.07-8.34-14.86-7.19-10.75,3.42-12.25,17.75-4.45,22.23,2.2,1.6,4.72,2.17,7.05,2.4.79-3.19,1.76-6.39,2.87-9.63,1.98-5.37,5.11-7.99,9.39-7.81h0Zm0,0" style="fill: #ff2075; fill-rule: evenodd;"/>
  <path d="m2109.43,756.53c-3.53-10.87-2.95-23.12,1.76-36.74-8.5,3.33-18.69,4.7-30.59,4.04-22.96-3.99-32.22-18.95-27.81-44.95,10.18-18.01,12.12-32.57,5.82-43.66-9.65,4.79-15.6,16.19-17.81,34.21-1.59-4.26-2.34-7.63-2.25-10.07-1.37-8.92-.05-16.99,3.88-24.14-8.38-4.79-15.47-10.96-21.24-18.5-9.21,9.67-12.34,19.97-9.34,30.88-11.55,16.95-14.9,31.95-10,44.95-.79,13.75.26,23.21,3.22,28.4,4.67,8.3,28.78,4.39,37.2,3.86,3.57,8.96,4.19,18.86,1.94,29.68,24.9-2.53,46.37-2,65.23,2.04h0Zm0,0" style="fill: #ffb27d; fill-rule: evenodd;"/>
  <path d="m1868.66,966.93l-.18,17.35,23.31,18.72c-.48-5.68.66-10.65,3.35-14.91l-26.49-21.16Zm56.59,62.96l37.68,30.3,22.43.4c.44-5.73.79-12.03,1.1-19.17l-24.15.27-35.88-28.66c-.09,1.2-.26,2.35-.53,3.59-1.5,6.52-1.72,10.96-.66,13.27h0Zm0,0" style="fill: #2b478b; fill-rule: evenodd;"/>
  <path d="m1868.66,966.93l26.49,21.16c.44-.67.93-1.38,1.45-2,3.97-4.22,10.23.98,22.65,9.98,5.29,4.75,7.67,10.38,7.19,16.99l35.88,28.62,24.15-.27c.31-7.28.53-15.4.62-24.49l-31.34.75-49.41-37.54h79.51c-.88-4.35-2.21-8.74-3.75-13.18l-113.44-.05Zm0,0" style="fill: #aabcdd; fill-rule: evenodd;"/>
  <path d="m1906.34,980.15l49.41,37.54,31.34-.75c.04-5.5.09-11.36.04-17.61.66-6.17.13-12.6-1.28-19.17h-79.51Zm0,0" style="fill: #2b478b; fill-rule: evenodd;"/>
  <path d="m1868.66,966.93h113.44c-1.45-4.17-3.17-8.34-5.07-12.56l-98.02-.44-9.08-105.51h78.63c1.15-3.06,2.42-6.21,3.88-9.41-.53-.27-1.1-.53-1.63-.8l-93.66-.71,11.5,129.43Zm0,0" style="fill: #aabcdd; fill-rule: evenodd;"/>
  <path d="m1879.01,953.93l98.02.44c-7.1-15.89-16.57-31.9-24.2-46.86-12.21-14.29-13.62-33.99-4.28-59.1h-78.63l9.08,105.51Zm0,0" style="fill: #e9eef7; fill-rule: evenodd;"/>
  <path d="m1925.25,1029.89c-12.65,7.05-23.4.44-32.17-19.88-2.64-9.72-1.45-17.66,3.53-23.92,3.97-4.22,10.23.98,22.65,9.98,6.22,5.55,8.42,12.38,6.66,20.54-1.5,6.52-1.72,10.96-.66,13.27h0Zm0,0" style="fill: #ffb27d; fill-rule: evenodd;"/>
  <path d="m2115.56,704.7c-.92-15.97,1.41-33.23,6.96-51.82,1.54.67,3.17.93,4.72,1.11-5.02,19.35-4.67,37.36,1.01,54.04-4.63,5.19-10.31,9.1-17.06,11.76-8.5,3.33-18.69,4.7-30.59,4.04-15.03-2.62-24.19-9.94-27.5-22.01,15.82,20.41,36.63,21.34,62.45,2.88h0Zm0,0" style="fill: #233862; fill-rule: evenodd;"/>
  <path d="m492.3,595.69c48.35,0,87.53-39.44,87.53-88.07s-39.18-88.12-87.53-88.12-87.48,39.44-87.48,88.12,39.18,88.07,87.48,88.07h0Zm0-17.57c-38.65,0-69.99-31.59-69.99-70.5s31.33-70.5,69.99-70.5,70.03,31.59,70.03,70.5-31.34,70.5-70.03,70.5h0Zm0,0" style="fill: #fff; fill-rule: evenodd;"/>
  <path d="m697.19,409.2c30.59,0,55.35-24.94,55.35-55.73s-24.77-55.73-55.35-55.73-55.4,24.94-55.4,55.73,24.81,55.73,55.4,55.73h0Zm0-11.14c-24.46,0-44.29-19.97-44.29-44.59s19.83-44.59,44.29-44.59,44.29,19.97,44.29,44.59-19.83,44.59-44.29,44.59h0Zm0,0" style="fill: #fff; fill-rule: evenodd;"/>
  <path d="m1384.78,701.73h192.47v193.76h-18.78v-174.82h-173.69v-18.95Zm192.47,522.37v193.76h-192.47v-18.9h173.69v-174.86h18.78Zm-518.88,193.76h-192.47v-193.76h18.82v174.86h173.65v18.9Zm-192.47-522.36v-193.76h192.47v18.95h-173.65v174.82h-18.82Zm0,0" style="fill: #8ca3ca; fill-rule: evenodd;"/>
  <rect x="1213.07" y="752.18" width="17.01" height="615.29" style="fill: #8ca3ca;"/>
  <rect x="916.01" y="1051.23" width="611.12" height="17.13" style="fill: #8ca3ca;"/>
  <path d="m1221.57,987.65c-39.49,0-71.66,32.39-71.66,72.15s32.17,72.15,71.66,72.15,71.66-32.35,71.66-72.15-32.13-72.15-71.66-72.15h0Zm0,161.42c-48.88,0-88.63-40.07-88.63-89.27s39.76-89.23,88.63-89.23,88.67,40.02,88.67,89.23-39.8,89.27-88.67,89.27h0Zm0,0" style="fill: #8ca3ca; fill-rule: evenodd;"/>
  <path d="m1221.62,918.74c-77.3,0-140.15,63.27-140.15,141.05s62.85,141.09,140.15,141.09,140.11-63.32,140.11-141.09-62.89-141.05-140.11-141.05h0Zm0,299.23c-86.65,0-157.12-70.95-157.12-158.18s70.47-158.18,157.12-158.18,157.08,70.99,157.08,158.18-70.47,158.18-157.08,158.18h0Zm0,0" style="fill: #8ca3ca; fill-rule: evenodd;"/>
  <path d="m1221.62,849.84c-115.03,0-208.6,94.2-208.6,209.96s93.57,210,208.6,210,208.55-94.2,208.55-210-93.57-209.96-208.55-209.96h0Zm0,437.09c-124.42,0-225.61-101.87-225.61-227.13s101.19-227.08,225.61-227.08,225.57,101.87,225.57,227.08-101.19,227.13-225.57,227.13h0Zm0,0" style="fill: #8ca3ca; fill-rule: evenodd;"/>
  <path d="m1221.57,1055.67c-2.2,0-4.1,1.91-4.1,4.13s1.89,4.17,4.1,4.17,4.15-1.91,4.15-4.17-1.9-4.13-4.15-4.13h0Zm0,33.94c-16.31,0-29.61-13.35-29.61-29.82s13.31-29.82,29.61-29.82,29.62,13.4,29.62,29.82-13.27,29.82-29.62,29.82h0Zm0,0" style="fill: #8ca3ca; fill-rule: evenodd;"/>
</svg>