<?xml version="1.0" encoding="UTF-8"?>
<svg id="Layer_1" data-name="Layer 1" xmlns="http://www.w3.org/2000/svg" viewBox="0 0 2278 2000">
  <path d="m1378.31,1122.06c-30.74-95.23-82.61-468.29-407.18-564.32-65.43-19.36-346.54-93.84-630.48,120.5-58.87,44.44-273.43,234.92-317.61,454.01-75.18,372.79,100.14,611.17,256.06,693.54,58.12,30.71,1453.2,73.28,1645.28-20.79,731.96-358.48,91.04-1246.81-546.06-682.95Z" style="fill: #b0beea;"/>
  <g>
    <g>
      <path d="m1900.41,1233.96c-12.41-1.8-31.14.88-40.4,11.5-18.02,20.65,15.27,53.52,30.36,102.78,27.37,89.35-24.79,168.57-12.59,170.82,13.03,2.4,79.75-86.65,76.68-180.03-.34-10.22-4.23-97.83-54.05-105.06Z" style="fill: #b3dfff;"/>
      <path d="m1900.41,1233.96c-1.57-.23-3.25-.38-4.99-.46,8.85,5.86,18.48,13.87,26.97,24.73,27.05,34.58,24.01,74.26,22.59,92.68-.69,8.92-4.88,54.25-40.79,103.4-5.4,7.39-11.03,14.19-16.73,20.44-7.52,26.44-15.22,43.29-9.69,44.31,13.03,2.4,79.75-86.65,76.68-180.03-.34-10.22-4.23-97.83-54.05-105.06Z" style="fill: #a4d6ff;"/>
      <path d="m1901.56,1281.05c-.74-.15-1.15-.23-1.89-.38-.7.39-1,1.19-.67,1.79,11.08,20.23,18.37,42.11,21.67,65.06,6.94,48.25-5.28,91.29-17.02,119.29-.29.69.05,1.4.78,1.58.73.18,1.55-.24,1.85-.94,11.86-28.3,24.22-71.81,17.21-120.6-3.34-23.2-10.71-45.33-21.91-65.79Z" style="fill: #a4d6ff;"/>
    </g>
    <g>
      <path d="m2102.39,1451.62c-350.38,73.24-383.42,426.45-386.52,487.28-.07,1.34,1.54,1.69,1.89.41,11.32-40.48,69.32-215.52,248.56-313.94,87.86-48.25,217.46-70.61,247.92-84.16,58.51-26.02,62.61-126.07-111.85-89.6Z" style="fill: #b3dfff;"/>
      <path d="m2102.39,1451.62c-349.66,73.09-391.19,456.37-386.5,486.9.21,1.37,1.6,1.76,1.97.44,5.4-19.24,21.02-67.63,54.39-123.73,10.07-58.5,29.92-120.23,66.98-172.93,24.39-34.68,69.32-84.05,129.56-121.75,32.29-20.21,57.77-30.05,91.68-43.14,48.27-18.64,86.61-27.28,125.09-23.17,15.03,1.6,29.67,5.11,43.69,16.76,9.65,8.02,16.32,17.66,20.9,26.29,4.74-34.34-32.62-69.75-147.77-45.67Z" style="fill: #a4d6ff;"/>
      <path d="m2116.17,1510.71c-.16-1.2-1.12-2.02-2.14-1.83-42.37,8.04-83.72,22.4-122.92,42.71-50.18,26-97.38,62.15-136.47,104.57-54.24,58.84-86.58,120.59-104.16,162.02-5.64,13.28-10.86,26.98-15.54,40.74-.38,1.13.09,2.4,1.05,2.85.96.44,2.03-.11,2.41-1.23,4.64-13.65,9.82-27.23,15.42-40.41,17.44-41.11,49.53-102.37,103.35-160.76,38.8-42.09,85.63-77.97,135.44-103.77,38.91-20.16,79.95-34.42,122.01-42.39,1.01-.19,1.71-1.31,1.55-2.5h0Z" style="fill: #a4d6ff;"/>
      <g>
        <path d="m1899.7,1710.51c-125.27,62.45-195.12,213.8-182.68,229.27.25.31.52.54.81.73l6.07-1.3c22.43-14.35,88.97-113.51,209.3-137.66,75.67-15.19,142.69,5.29,157.08-33.17,7.4-19.78-2.4-46.36-13.61-61.44-45.01-60.51-163.26-3.25-176.97,3.58Z" style="fill: #b3dfff;"/>
        <path d="m1899.7,1710.51c-125.27,62.45-195.12,213.8-182.68,229.27.24.3.51.55.81.73l6.07-1.3c8.45-5.4,23.15-22.83,44.62-43.75,4.17-11.97,9.13-24.22,15.02-36.61,39.2-82.33,95.96-120.14,107.23-127.4,23.26-14.98,73.4-47.25,138.24-36.22,20.36,3.46,37.78,10.45,51.8,17.95-1.34-2.24-2.74-4.34-4.16-6.24-45.01-60.51-163.26-3.25-176.96,3.58Z" style="fill: #a4d6ff;"/>
        <path d="m1911.46,1756.91c-69.31,25.5-117.86,72.77-146.71,108.56-.71.88-.67,2.27.08,3.1.75.82,1.92.78,2.63-.1,28.54-35.41,76.56-82.16,145.1-107.38,32.59-11.99,66.62-17.96,101.18-17.77,1.03,0,1.87-.96,1.88-2.16-.72-.87-1.13-1.35-1.85-2.22-34.94-.2-69.36,5.84-102.32,17.97Z" style="fill: #a4d6ff;"/>
      </g>
    </g>
  </g>
  <g>
    <path d="m386.94,1574.68c-13.64-10.73-131.64-101.4-194.16-42.79-15.58,14.61-32.05,42.55-28.13,66.54,7.62,46.67,85.83,38.17,165.93,71.92,117.24,49.4,170.71,160.74,195.35,194.62l16.68-4.45c.83-47.5-46.98-200.31-155.67-285.85Z" style="fill: #b3dfff;"/>
    <path d="m386.94,1574.68c-13.64-10.73-131.64-101.4-194.16-42.79-1.97,1.85-3.96,3.91-5.92,6.16,17.05-5.41,37.72-9.5,60.89-8.97,73.79,1.71,122.11,49.2,144.53,71.24,10.86,10.68,65.3,65.88,90.88,167.63,3.85,15.31,6.69,30.26,8.72,44.71,15.13,22.38,26.08,41.38,34.04,52.32l16.68-4.45c.83-47.5-46.98-200.31-155.67-285.85Z" style="fill: #a4d6ff;"/>
    <path d="m219.01,1237.37c-184.37-79.45-201.24,34.66-142.35,76.91,30.65,21.99,168.62,75.67,255.08,149.49,164.87,140.77,198.77,334.09,205.6,398.16l4.83-1.29c10.87-96.42,28.8-471.59-323.17-623.27Z" style="fill: #b6d8f0;"/>
    <path d="m219.01,1237.37c-121.7-52.44-170.41-20.55-172.53,19.34,6.88-8.76,16.3-18.21,28.64-25.17,17.94-10.12,34.8-10.88,51.71-9.41,43.26,3.78,83.66,21.94,132.84,53.6,34.55,22.24,60.52,38.95,91.77,68.89,58.3,55.84,97.23,121.54,116.69,166.13,29.56,67.74,38.22,141.94,36.81,210.34,21.46,61.31,29.47,113.16,32.43,140.85l5.94-1.58c12.12-80.75,19.72-474.74-324.28-622.98Z" style="fill: #a4d6ff;"/>
    <path d="m528.28,1729.18c-10.51-50.74-32.94-127.69-80.1-206.14-34-56.55-78.25-107.8-127.97-148.19-38.84-31.56-81.31-56.86-126.27-75.23-1.08-.44-2.31.28-2.74,1.6h0c-.43,1.31.1,2.73,1.17,3.17,44.62,18.23,86.78,43.35,125.33,74.68,49.35,40.1,93.27,90.95,127,147.07,46.8,77.85,69.05,154.19,79.48,204.52,3.34,16.13,6.15,32.64,8.34,49.1.18,1.35,1.25,2.21,2.4,1.92,1.15-.29,1.95-1.63,1.76-2.99-2.21-16.6-5.04-33.24-8.41-49.5Z" style="fill: #a4d6ff;"/>
    <path d="m364.07,1624.6c-33.71-20.94-70.33-35.31-108.86-42.73-.98.82-1.53,1.28-2.51,2.11-.24,1.37.48,2.64,1.61,2.86,38.11,7.34,74.31,21.55,107.65,42.25,70.1,43.54,113,106.95,136.87,153.26.59,1.15,1.88,1.46,2.88.69,1.01-.77,1.34-2.34.75-3.49-24.13-46.81-67.5-110.93-138.39-154.95Z" style="fill: #a4d6ff;"/>
    <path d="m441.04,1045.5c-14.08-11.76-38.55-11.8-54.02-7.29-62.08,18.08-48.52,129.54-46.79,142.52,13.8,103.43,94.68,193.17,125.84,210.88l9.3-9.12c-12.54-29.02-64.31-106.5-51.36-201.61,8.85-64.98,44.41-112.5,17.03-135.38Z" style="fill: #b3dfff;"/>
    <path d="m428.78,1317.45c-56.24-55.69-71.19-112.24-73.95-123.4-5.7-23.03-17.98-72.65,9.25-121.22,8.55-15.25,19.15-27.1,29.21-36.1-2.21.41-4.31.91-6.27,1.48-62.08,18.08-48.52,129.54-46.79,142.52,13.8,103.43,94.68,193.17,125.84,210.88l9.3-9.12c-4.05-9.36-12.18-23.77-20.9-42.2-8.6-6.87-17.22-14.46-25.69-22.84Z" style="fill: #a4d6ff;"/>
    <path d="m385.17,1185.41c-.64-29.6,4.04-58.57,13.91-86.14.29-.82-.26-1.78-1.24-2.14-.91.32-1.42.5-2.33.82-9.98,27.87-14.71,57.17-14.06,87.1,1.36,62.95,26.34,115.73,47.47,149.38.52.83,1.67,1.21,2.56.85.88-.35,1.18-1.31.66-2.13-20.91-33.29-45.61-85.5-46.96-147.75Z" style="fill: #a4d6ff;"/>
  </g>
  <g>
    <path d="m1260.23,1545.43c-15.94-12.54-153.85-118.51-226.91-50-18.2,17.07-37.45,49.73-32.87,77.77,8.91,54.55,100.3,44.6,193.92,84.05,137.02,57.73,199.5,187.85,228.3,227.45l19.49-5.2c.97-55.51-54.91-234.1-181.93-334.06Z" style="fill: #b3dfff;"/>
    <path d="m1260.23,1545.43c-15.94-12.54-153.85-118.51-226.91-50-2.31,2.16-4.63,4.57-6.91,7.19,19.93-6.32,44.08-11.11,71.16-10.48,86.23,2,142.7,57.5,168.91,83.26,12.7,12.48,76.31,77,106.21,195.9,4.5,17.89,7.82,35.36,10.2,52.25,17.68,26.16,30.48,48.36,39.78,61.14l19.49-5.2c.97-55.51-54.91-234.1-181.93-334.06Z" style="fill: #a4d6ff;"/>
    <path d="m1063.97,1151.23c-215.46-92.85-235.18,40.5-166.36,89.88,35.82,25.7,197.06,88.43,298.11,174.71,192.68,164.51,232.3,390.45,240.28,465.32l5.65-1.51c12.7-112.69,33.66-551.14-377.68-728.4Z" style="fill: #b3dfff;"/>
    <path d="m1063.97,1151.23c-142.22-61.29-199.15-24.02-201.63,22.6,8.04-10.24,19.05-21.28,33.47-29.42,20.96-11.82,40.67-12.72,60.43-10.99,50.56,4.41,97.77,25.64,155.24,62.64,40.38,25.99,70.73,45.52,107.24,80.5,68.13,65.26,113.63,142.04,136.37,194.15,34.54,79.17,44.67,165.88,43.02,245.82,25.08,71.66,34.44,132.24,37.9,164.61l6.94-1.85c14.17-94.37,23.05-554.81-378.97-728.06Z" style="fill: #a4d6ff;"/>
    <path d="m1425.41,1726c-12.28-59.3-38.49-149.22-93.61-240.91-39.73-66.09-91.45-125.98-149.55-173.19-45.39-36.88-95.03-66.46-147.57-87.92-1.26-.52-2.7.32-3.21,1.87h0c-.5,1.54.11,3.19,1.37,3.7,52.15,21.31,101.42,50.66,146.47,87.27,57.67,46.86,109,106.3,148.43,171.88,54.69,90.98,80.7,180.2,92.88,239.02,3.9,18.85,7.18,38.14,9.75,57.38.21,1.58,1.46,2.59,2.8,2.25,1.35-.34,2.27-1.91,2.06-3.5-2.59-19.4-5.89-38.84-9.83-57.85Z" style="fill: #a4d6ff;"/>
    <path d="m1233.49,1603.78c-39.4-24.47-82.19-41.26-127.22-49.93-1.15.96-1.79,1.5-2.94,2.46-.28,1.6.56,3.09,1.88,3.34,44.54,8.58,86.85,25.18,125.81,49.38,81.93,50.88,132.06,124.99,159.96,179.12.69,1.34,2.19,1.7,3.36.8,1.17-.9,1.57-2.73.88-4.08-28.2-54.71-78.88-129.64-161.73-181.09Z" style="fill: #a4d6ff;"/>
    <path d="m1559.6,1491.58c10.57-17.31,102.9-164.7,195.25-125.95,23.01,9.65,52.44,33.55,57.92,61.44,10.66,54.23-78.47,76.77-152.47,146.36-108.31,101.87-121.52,245.6-134.71,292.75l-20.08,1.92c-20.25-51.69-30.12-238.56,54.09-376.52Z" style="fill: #b3dfff;"/>
    <path d="m1559.6,1491.58c10.57-17.31,102.9-164.7,195.25-125.95,2.91,1.22,5.93,2.67,8.99,4.33-20.88,1.02-45.19,4.95-70.35,14.98-80.13,31.93-113.71,103.63-129.3,136.91-7.55,16.12-44.69,98.77-31.28,220.63,2.02,18.33,5,35.87,8.66,52.53-7.46,30.68-11.72,55.95-15.97,71.17l-20.08,1.92c-20.25-51.69-30.12-238.56,54.09-376.52Z" style="fill: #a4d6ff;"/>
    <path d="m1604.99,1536.95c28.4-36.67,62.66-67.32,101.84-91.14,1.41.5,2.2.78,3.61,1.28.82,1.4.55,3.09-.6,3.79-38.76,23.56-72.63,53.87-100.71,90.13-59.06,76.24-80.22,163.18-87.51,223.64-.18,1.5-1.46,2.36-2.87,1.93-1.42-.44-2.43-2.01-2.24-3.52,7.36-61.11,28.75-149,88.48-226.1Z" style="fill: #a4d6ff;"/>
    <path d="m1323.45,927c-16.45-13.75-45.05-13.79-63.13-8.52-72.55,21.13-56.7,151.39-54.68,166.56,16.13,120.88,110.65,225.76,147.06,246.45l10.86-10.66c-14.66-33.91-75.15-124.46-60.02-235.61,10.34-75.94,51.9-131.47,19.9-158.21Z" style="fill: #b3dfff;"/>
    <path d="m1309.12,1244.82c-65.73-65.09-83.2-131.18-86.42-144.21-6.66-26.91-21.02-84.9,10.81-141.67,9.99-17.83,22.38-31.68,34.14-42.19-2.58.48-5.04,1.06-7.33,1.73-72.55,21.13-56.7,151.39-54.68,166.56,16.13,120.88,110.65,225.76,147.06,246.45l10.86-10.66c-4.73-10.94-14.23-27.78-24.43-49.31-10.05-8.03-20.13-16.9-30.02-26.69Z" style="fill: #a4d6ff;"/>
    <path d="m1258.15,1090.5c-.75-34.59,4.72-68.45,16.25-100.66.34-.96-.3-2.07-1.45-2.5-1.06.38-1.66.59-2.73.96-11.66,32.57-17.19,66.81-16.44,101.79,1.59,73.56,30.78,135.26,55.48,174.58.61.97,1.95,1.41,2.99,1,1.03-.41,1.37-1.53.77-2.49-24.43-38.9-53.31-99.93-54.88-172.67Z" style="fill: #a4d6ff;"/>
  </g>
  <ellipse cx="1125.29" cy="1916.28" rx="1077.63" ry="74.12" style="fill: #dbecff;"/>
  <path d="m420.95,586.24s-16.3,14.55-21.42,14.88c-6.25.41-24.07-11.91-24.07-11.91,0,0,12.25,16.28,12.58,21.43.41,6.23-9.61,24.07-9.61,24.07,0,0,15.27-12.18,21.5-12.59,5.14-.34,23.99,9.61,23.99,9.61,0,0-12.39-15.24-12.78-21.21-.35-5.4,9.8-24.28,9.8-24.28Z" style="fill: #fff;"/>
  <path d="m2047.08,1321.56s-16.3,14.55-21.42,14.88c-6.25.41-24.07-11.91-24.07-11.91,0,0,12.25,16.28,12.58,21.43.41,6.23-9.61,24.07-9.61,24.07,0,0,15.27-12.18,21.5-12.59,5.14-.34,23.99,9.61,23.99,9.61,0,0-12.39-15.24-12.78-21.21-.35-5.4,9.8-24.28,9.8-24.28Z" style="fill: #fff;"/>
  <path d="m1993.73,1112.89s-16.3,14.55-21.42,14.88c-6.25.41-24.07-11.91-24.07-11.91,0,0,12.25,16.28,12.58,21.43.41,6.23-9.61,24.07-9.61,24.07,0,0,15.27-12.18,21.5-12.59,5.14-.34,23.99,9.61,23.99,9.61,0,0-12.39-15.24-12.78-21.21-.35-5.4,9.8-24.28,9.8-24.28Z" style="fill: #fff;"/>
  <path d="m1530.46,1229.95s-14.67,13.09-19.28,13.4c-5.63.37-21.66-10.72-21.66-10.72,0,0,11.02,14.66,11.33,19.28.37,5.61-8.65,21.66-8.65,21.66,0,0,13.74-10.96,19.35-11.33,4.63-.3,21.59,8.65,21.59,8.65,0,0-11.15-13.71-11.5-19.09-.32-4.86,8.82-21.86,8.82-21.86Z" style="fill: #fff;"/>
  <path d="m394.59,972.49s-14.67,13.09-19.28,13.4c-5.63.37-21.66-10.72-21.66-10.72,0,0,11.02,14.66,11.33,19.28.37,5.61-8.65,21.66-8.65,21.66,0,0,13.74-10.96,19.35-11.33,4.63-.3,21.59,8.65,21.59,8.65,0,0-11.15-13.71-11.5-19.09-.32-4.86,8.82-21.86,8.82-21.86Z" style="fill: #fff;"/>
  <path d="m1706.61,1183.48s-14.67,13.09-19.28,13.4c-5.63.37-21.66-10.72-21.66-10.72,0,0,11.02,14.66,11.33,19.28.37,5.61-8.65,21.66-8.65,21.66,0,0,13.74-10.96,19.35-11.33,4.63-.3,21.59,8.65,21.59,8.65,0,0-11.15-13.71-11.5-19.09-.32-4.86,8.82-21.86,8.82-21.86Z" style="fill: #fff;"/>
  <path d="m568.91,342.82s-14.67,13.09-19.28,13.4c-5.63.37-21.66-10.72-21.66-10.72,0,0,11.02,14.66,11.33,19.28.37,5.61-8.65,21.66-8.65,21.66,0,0,13.74-10.96,19.35-11.33,4.63-.3,21.59,8.65,21.59,8.65,0,0-11.15-13.71-11.5-19.09-.32-4.86,8.82-21.86,8.82-21.86Z" style="fill: #fff;"/>
  <path d="m2171.25,930.88s-16.3,14.55-21.42,14.88c-6.25.41-24.07-11.91-24.07-11.91,0,0,12.25,16.28,12.58,21.43.41,6.23-9.61,24.07-9.61,24.07,0,0,15.27-12.18,21.5-12.59,5.14-.34,23.99,9.61,23.99,9.61,0,0-12.39-15.24-12.78-21.21-.35-5.4,9.8-24.28,9.8-24.28Z" style="fill: #fff;"/>
  <path d="m1887.32,964.57s-16.3,14.55-21.42,14.88c-6.25.41-24.07-11.91-24.07-11.91,0,0,12.25,16.28,12.58,21.43.41,6.23-9.61,24.07-9.61,24.07,0,0,15.27-12.18,21.5-12.59,5.14-.34,23.99,9.61,23.99,9.61,0,0-12.39-15.24-12.78-21.21-.35-5.4,9.8-24.28,9.8-24.28Z" style="fill: #fff;"/>
  <path d="m848.21,368.85s-24.32,21.71-31.96,22.21c-9.33.61-35.92-17.77-35.92-17.77,0,0,18.28,24.3,18.78,31.97.61,9.3-14.34,35.91-14.34,35.91,0,0,22.78-18.18,32.08-18.78,7.67-.5,35.8,14.34,35.8,14.34,0,0-18.48-22.73-19.06-31.65-.53-8.06,14.62-36.23,14.62-36.23Z" style="fill: #fff;"/>
  <path d="m1135,958.14s-24.32,21.71-31.96,22.21c-9.33.61-35.92-17.77-35.92-17.77,0,0,18.28,24.3,18.78,31.97.61,9.3-14.34,35.91-14.34,35.91,0,0,22.78-18.18,32.08-18.78,7.67-.5,35.8,14.34,35.8,14.34,0,0-18.48-22.73-19.06-31.65-.53-8.06,14.62-36.23,14.62-36.23Z" style="fill: #fff;"/>
  <path d="m25.43,796.47s-24.32,21.71-31.96,22.21c-9.33.61-35.92-17.77-35.92-17.77,0,0,18.28,24.3,18.78,31.97.61,9.3-14.34,35.91-14.34,35.91,0,0,22.78-18.18,32.08-18.78,7.67-.5,35.8,14.34,35.8,14.34,0,0-18.48-22.73-19.06-31.65-.53-8.06,14.62-36.23,14.62-36.23Z" style="fill: #fff;"/>
  <path d="m872.36,1309.63s-24.32,21.71-31.96,22.21c-9.33.61-35.92-17.77-35.92-17.77,0,0,18.28,24.3,18.78,31.97.61,9.3-14.34,35.91-14.34,35.91,0,0,22.78-18.18,32.08-18.78,7.67-.5,35.8,14.34,35.8,14.34,0,0-18.48-22.73-19.06-31.65-.53-8.06,14.62-36.23,14.62-36.23Z" style="fill: #fff;"/>
  <g>
    <path d="m871.3,684.33c0-.33-.23-.51-.43-.8-.82-1.17-2.19-1.9-2.85-1.51-.05.03-.13.13-.24.28-.2-.02-.4-.03-.6-.01-.28.02-.59.08-.95.23-.37.15-.79.4-1.31.8-.7.54-1.27,1.12-1.76,1.75-.82,1.05-1.44,2.22-2.12,3.54-.65,1.26-1.14,2.2-1.5,2.91-.27.53-.48.92-.63,1.22-.3.58-.4.78-.44.85,0,0,0,0,0,0,0,.02-.01.03-.02.03,0,0,0,0,0,0-.05.08-.09.14-.14.22-.08.13-.16.25-.24.36-.15.21-.29.4-.44.59-.22.27-.44.51-.68.75-1.09,1.07-2.59,2.06-5.8,4.83-.32.28-.66.57-1.02.89-3.19,2.82-5.11,4.78-5.62,4.39-.02-.01-.03-.03-.05-.05-.04-.06-.06-.16-.05-.31,0-.1.03-.23.06-.39.03-.16.08-.35.15-.59.44-1.53,1-2.75,1.46-3.57.46-.83.81-1.27.81-1.27,1.32-1.68,2.48-3.47,3.74-5.19.42-.57.85-1.14,1.31-1.69.11-.13.56-.72,1.38-1.8,1.37-1.8,3.75-4.93,7.21-9.5,2.18-2.88,3.54-4.67,4.34-5.76.04-.05.07-.09.1-.14.76-1.03.99-1.36.96-1.35,0,0-.02,0-.03.02-.12.12-.54.63-.81.96-.03.04-.07.08-.09.11-.09.1-.14.17-.15.17-.01,0,.12-.17.5-.67,1.16-1.52,2.16-2.77,2.93-4.37.26-.53.48-1.11.69-1.74.07-.23.14-.45.21-.67,0-.02.01-.05.02-.07.06-.2.11-.39.16-.59,0-.03.01-.06.02-.09.05-.19.09-.37.12-.55,0-.04.01-.08.02-.12,0-.02,0-.04,0-.06.29-.4.45-.69.49-.93.15-1.02-.41-1.86-.62-2.17-.92-1.38-2.88-2.33-4.09-1.72-.12.06-.27.22-.49.49-.19.03-.38.07-.56.13-.27.09-.51.21-.73.35,0,0,0,0,0-.01-.02.01-.04.04-.07.05-.22.14-.42.3-.61.47,0,0-.02.02-.03.03-.18.18-.35.37-.5.58-.02.03-.05.06-.07.09-.15.21-.3.43-.44.65-.04.06-.07.11-.11.17-.13.21-.26.41-.38.62-.21.34-.43.67-.65.99-.87,1.25-1.86,2.41-2.84,3.58-.81.96-1.61,1.93-2.34,2.94-.83,1.16-3.63,4.11-9.18,9.96-7.58,7.99-8.87,9.26-9.08,9.09-.33-.26,2.13-3.81,3.75-6.16.61-.88,1.18-1.68,1.72-2.43,1.63-2.24,3.07-4.04,4.91-6.41,3.81-4.89,5.32-7,6.15-8.19.83-1.18.98-1.44,2.08-2.61,1.81-1.93,3.33-4.11,4.9-6.24.73-.99,1.46-1.97,2.24-2.91.05-.06.11-.13.17-.21.17-.21.38-.5.57-.84.25-.44.46-.97.53-1.57.01-.14.01-.28,0-.42.43-.42.48-.47.53-.62.37-1.16-1.08-2.54-1.39-2.84-.27-.26-2.04-1.95-3.72-1.38-.35.12-.64.37-.99.77-.14.02-.28.04-.41.07h0c-.26.06-.5.14-.72.22-.05.02-.1.04-.15.06-.2.08-.39.16-.54.24-.45.24-.91.54-1.39.91s-.98.79-1.5,1.28c-.26.24-.52.51-.79.78-.54.55-1.1,1.17-1.69,1.86-.29.34-.59.7-.9,1.08-3.47,4.24-3.08,2.81-8.94,9.5-.51.58-1.07,1.23-1.7,1.96-.21.24-.42.5-.65.76-.89,1.05-1.89,2.25-3.02,3.66-.17.21-.35.43-.54.67-.3.36-.64.77-1.01,1.2-.35.41-.73.85-1.16,1.35-1.19,1.37-2.71,3.11-4.75,5.43-1.09,1.24-2.4,2.72-2.88,2.45-.05-.03-.08-.07-.11-.13-.05-.11-.07-.27-.07-.45,0-.18.03-.39.07-.59.02-.1.04-.2.06-.29.04-.19.09-.35.12-.48.4-1.5,2.13-4.29,4.24-7.33.35-.51.72-1.02,1.09-1.53.18-.26.37-.51.56-.77,1.13-1.54,2.29-3.07,3.38-4.47.36-.46.72-.91,1.06-1.34,1.54-1.93,2.81-3.44,3.43-4.08,1.44-1.49,2.91-2.83,4.86-4.94.35-.38.71-.78,1.09-1.21.36-.41.74-.84,1.13-1.31,1.7-2.01,2.84-3.57,3.03-5.15,0,0,.01-.02.02-.03,0-.08,0-.16.01-.25,0-.07,0-.14,0-.21,0-.22-.01-.45-.05-.67-.05-.29-.14-.59-.26-.88h0s0,0,0,0c-.35-.87-1-1.7-1.91-2.09-.2-.09-.42-.14-.64-.17-.05,0-.09-.02-.14-.02-.2-.02-.41-.03-.63,0,0,0,0,0,0,0,0,0-.02,0-.03,0-.01,0-.02,0-.03,0-.04,0-.09.02-.14.02-.13.02-.27.04-.42.08-.07.02-.14.04-.2.06-.04.01-.09.02-.13.04-.03.01-.07.02-.1.03-.08.03-.17.06-.26.09-.08.03-.17.06-.26.1-.14.06-.29.12-.44.19-.04.02-.06.02-.1.04,0,0,0,0-.01.01,0,0,0,0-.01,0-.08.04-.17.07-.25.12-.29.14-.58.29-.9.46-1.28.7-2.36,1.42-3.36,2.19-.38.29-.74.59-1.1.9-.6.51-1.18,1.04-1.79,1.6-.64.6-1.3,1.24-2.02,1.92-.02.02-.03.03-.05.04-.51.48-.95.9-1.34,1.26-.03.03-.07.06-.1.09-.37.34-.68.62-.96.87-.03.02-.05.05-.08.07-.57.51-.97.85-1.3,1.13-.28.24-.52.44-.77.66-.4.35-.83.77-1.54,1.5-.19.19-.43.45-.77.82-1.02,1.11-2.85,3.21-6.32,7.56-1,1.25-1.77,2.23-2.4,3.05-.48.62-.88,1.14-1.25,1.62-1.11,1.45-1.91,2.5-3.51,4.43-1.22,1.48-2.52,2.98-3.67,4.26-.26.29-.52.57-.76.83-.18.2-.36.39-.53.57-.25.26-.49.51-.7.72-.29.29-.56.54-.79.74-.46.4-.77.59-.87.51-.07-.05,0-.25.15-.55.07-.15.15-.32.25-.52.1-.21.21-.44.32-.71.03-.06.05-.12.07-.18.1-.23.19-.47.29-.74.04-.1.07-.19.1-.3.12-.36.23-.73.33-1.15.02-.08.05-.18.08-.3,0,0,0-.02,0-.02.03-.12.07-.25.11-.41.13-.48.3-1.12.47-1.85,0,0,0,0,0,0,.05-.22.1-.44.14-.67,0-.04.02-.08.02-.12.04-.21.08-.43.12-.65.01-.06.02-.12.03-.19.03-.2.06-.41.09-.62.01-.08.02-.15.03-.23,0,0,0,0,0,0,.01-.1.03-.2.04-.31.06-.54.11-1.08.12-1.63,0-.02,0-.03,0-.05.05-1.86-.24-3.69-1.25-4.96-.07-.08-.14-.17-.21-.25,0,0,0,0,0,0-.55-.66-1.2-1.27-1.85-1.73,0,0,0,0,0-.01-.07-.05-.14-.09-.21-.14-.03-.02-.06-.04-.09-.06-.17-.11-.34-.2-.51-.28-.04-.02-.07-.03-.11-.05-.17-.07-.33-.13-.49-.17-.03,0-.06-.01-.09-.02-.16-.03-.32-.05-.46-.04-.02,0-.04,0-.06,0-.15.01-.3.05-.43.12-.58.3-.52.93-1.02,3.18,0,0-.72,3.21-1.91,6.11-.6,1.47-1.19,2.47-1.88,3.66-1.77,3.02-3.28,4.74-4.49,6.32-.74.97-.59.85-5.89,10.23-2.88,5.08-3.66,6.42-4.28,8.9-.44,1.75-.61,3.34-.68,5.51-.21,6.66.82,11.03,1.98,18.91.94,6.36,1.4,9.54,1.27,11.3-.1,1.3-.72,3.07-1.69,5.13-10.25,11.61-25.35,28.32-37.84,37.61-9.18,6.82-17.49,11.92-34.1,22.12-26.78,16.44-38.33,22.11-56.42,36.21-3.61,2.81-63.72-37.86-74.07-32.38-19.17,10.16,8.29,67.76,6.69,71.17-10.3,21.88,34.76,56.97,51.24,47.98,27.57-15.03,140.82-84.32,179.99-166.18.95-1.99,1.6-3.83,2.01-5.55.41-.65.88-1.31,1.46-2.01,2.1-2.51,4-3.51,5.67-4.71,3.22-2.32,5.36-5.91,9.63-13.08,3.44-5.77,2.79-5.76,6.02-11.01,3.46-5.63,6.67-9.66,7.44-10.62,4.12-5.13,5.06-5.21,9.19-10.65.33-.44,2.76-3.65,5.25-8.17.34-.62,1.15-2.85,2.74-7.27.58-.79.98-2.07.97-2.92Z" style="fill: #f29e91;"/>
    <path d="m604.11,813.25c.45,3.71-1.82,8.02-5.39,16.59-7.05,16.92-10.42,17.48-26.82,44.6-4.31,7.12-5.94,10.17-9.59,11.16-6.1,1.66-11.35-4.17-22.82-12.65-2.93-2.16,5.18,3.95-23.11-14.72-22.88-15.11-34.4-22.74-38.35-26.75-5.63-5.72-14.59-15.02-20.43-30.43-6.71-17.71-5.38-33.17-4.72-39.88,1.31-13.48,2.89-29.71,14.5-39.96,12.13-10.71,21.64-14,26.46-12.56,29.7,8.84,52.95,34.62,83.27,67.66,11.53,12.57,25.87,27.71,27,36.94Z" style="fill: #e81f71;"/>
    <g>
      <g>
        <path d="m1155.72,506.16l-150.7,26.03h0c-1.9.11-3.8.32-5.71.63-35.87,5.92-59.17,45.74-52.04,88.95,7.13,43.21,41.99,73.44,77.86,67.52l160.23-14.83-29.64-168.31Z" style="fill: #010549;"/>
        <path d="m1155.72,506.16l-49.01,8.47,19.29,109.53-160.23,14.83c-4.63.76-9.25.92-13.79.53,12.45,33.4,42.43,54.85,73.15,49.78l160.23-14.83-29.64-168.31Z" style="fill: #01013d;"/>
        <path d="m1155.72,506.16l-138.75,23.97c-3.09,10.41-6.06,23.15-7.83,37.78-3.29,27.22-6.9,57.14,9.13,86.31,4.05,7.37,12.63,20.63,29.56,32.99l137.52-12.73-29.64-168.31Z" style="fill: #000538;"/>
        <path d="m1329.79,691.01l-13.28-255.37-231.84,46.08c-41.01,11.91-67.57,63.41-60.45,121,7.25,58.67,46.85,102.7,90.49,102.69h0c2.63,0,215.08-14.4,215.08-14.4Z" style="fill: #01154f;"/>
        <path d="m1316.51,436.89l-32.8,6.52,9.98,192.01s-212.44,14.4-215.08,14.4h0c-17.47,0-34.29-7.05-48.65-19.28,14.11,44.91,48,76.14,84.75,76.13h0c2.63,0,215.08-14.4,215.08-14.4l-13.28-255.37Z" style="fill: #010549;"/>
        <path d="m1316.51,435.64l-45.64,9.07c-9.14,13.65-21.68,52.01-23.54,77.2-5.83,78.83,20.81,134.33,41.31,171.88,24.28-1.64,41.15-2.78,41.15-2.78l-13.28-255.37Z" style="fill: #000538;"/>
        <path d="m1857.98,739.09l-70.09-456.39-397.18,72.49c-83.91,10.37-140.73,109.45-126.91,221.3,13.82,111.85,93.05,194.13,176.96,183.76,1.89-.23,3.76-.53,5.63-.85l411.59-20.31Z" style="fill: #031863;"/>
        <path d="m1787.9,282.7l-32.07,5.85,52.36,340.98-411.59,20.31c-1.86.32-3.74.62-5.63.85-46.32,5.72-91.2-16.79-124.45-56.91,19.42,102.91,94.73,176.3,174.25,166.47,1.89-.23,3.76-.53,5.63-.85l411.59-20.31-70.09-456.39Z" style="fill: #010549;"/>
        <path d="m1644.71,584.34c17.74,68.25,57.1,120.88,100.32,160.32l112.96-5.57-70.09-456.39-82.25,15.01c-23.45,13.75-46.65,52.96-55.96,84.95-3.72,12.77-29.82,106.12-4.98,201.69Z" style="fill: #010549;"/>
        <path d="m2044.53,761.14l-62.69-550.22s-119.61,33.01-184.13,50.22c-99.69,26.59-158.67,132.59-141.36,272.69,16.61,134.43,106.63,234.98,204.34,231.72l183.83-4.42Z" style="fill: #0a2672;"/>
        <path d="m1696.09,656.29c38.89,68.27,100.06,111.41,164.6,109.26l183.83-4.42-13.83-121.41-334.61,16.56Z" style="fill: #040460;"/>
        <ellipse cx="2013.19" cy="486.03" rx="187" ry="276.93" transform="translate(-37.57 197) rotate(-5.55)" style="fill: #1f5bb2;"/>
        <path d="m2026.43,716.36c-36.28,0-72.68-20.54-102.48-57.83-31.49-39.4-52.54-93.6-59.26-152.61-7.14-62.69,2.43-123.53,26.97-171.29,23.22-45.22,57.1-72.94,95.39-78.08,4.27-.57,8.61-.86,12.91-.86,36.28,0,72.68,20.54,102.48,57.83,31.49,39.4,52.54,93.6,59.26,152.61,7.14,62.69-2.43,123.53-26.97,171.29-23.22,45.22-57.1,72.94-95.39,78.08-4.27.57-8.61.86-12.91.86Z" style="fill: #258aef;"/>
        <path d="m2161.69,466.13c-5.86-51.45-22.62-99.24-47.69-136.76,4.8,17.25,8.32,35.27,10.43,53.77,7.14,62.69-2.43,123.53-26.97,171.29-23.22,45.22-57.1,72.94-95.39,78.08-4.27.57-8.61.86-12.91.86-36.28,0-72.68-20.54-102.48-57.83-4.03-5.05-7.89-10.34-11.57-15.85,10.52,37.77,27.21,71.79,48.83,98.84,29.8,37.29,66.2,57.83,102.48,57.83,4.29,0,8.63-.29,12.91-.86,38.29-5.13,72.17-32.86,95.39-78.08,24.53-47.76,34.11-108.6,26.97-171.29Z" style="fill: #266eed;"/>
        <path d="m2161.69,466.13c-6.72-59.01-27.77-113.21-59.26-152.61-29.8-37.29-66.2-57.83-102.48-57.83-4.29,0-8.63.29-12.91.86-23.49,3.15-45.32,14.82-64.05,33.8,10-4.47,20.5-7.41,31.35-8.72,4.27-.51,8.61-.78,12.91-.78,36.28,0,72.68,18.48,102.48,52.03,31.49,35.45,52.54,84.22,59.26,137.31,7.14,56.41-2.43,111.15-26.97,154.13-23.22,40.69-57.1,65.63-95.39,70.25-4.27.51-8.61.78-12.91.78-13.93,0-27.89-2.74-41.47-8,23.24,18.89,48.73,29,74.17,29,4.29,0,8.63-.29,12.91-.86,38.29-5.13,72.17-32.86,95.39-78.08,24.53-47.76,34.11-108.6,26.97-171.29Z" style="fill: #07195b;"/>
        <path d="m1599.01,562.67l-271.48,33.54c-12.23,1.51-23.47-7.26-24.99-19.49h0c-1.51-12.23,7.26-23.47,19.49-24.99l271.48-33.54c12.23-1.51,23.47,7.26,24.99,19.49h0c1.51,12.23-7.26,23.47-19.49,24.99Z" style="fill: #0f317c;"/>
        <path d="m1605.85,423.52l-252.63,41.68c-11.8,1.95-23.04-6.11-24.98-17.91l-.22-1.32c-1.95-11.8,6.11-23.04,17.91-24.98l252.63-41.68c11.8-1.95,23.04,6.11,24.98,17.91l.22,1.32c1.95,11.8-6.11,23.04-17.91,24.98Z" style="fill: #0f317c;"/>
        <path d="m1599.01,562.67l-271.48,33.54c-12.23,1.51-23.47-7.26-24.99-19.49h0c-1.51-12.23,7.26-23.47,19.49-24.99l271.48-33.54c12.23-1.51,23.47,7.26,24.99,19.49h0c1.51,12.23-7.26,23.47-19.49,24.99Z" style="fill: #0f317c;"/>
        <path d="m1605.85,423.52l-252.63,41.68c-11.8,1.95-23.04-6.11-24.98-17.91l-.22-1.32c-1.95-11.8,6.11-23.04,17.91-24.98l252.63-41.68c11.8-1.95,23.04,6.11,24.98,17.91l.22,1.32c1.95,11.8-6.11,23.04-17.91,24.98Z" style="fill: #0f317c;"/>
        <path d="m1618.5,537.68h0c-.68-5.5-3.33-10.29-7.14-13.77.02.16.05.33.07.49h0c1.51,12.23-7.26,23.47-19.49,24.99l-271.48,33.54c-6.73.83-13.17-1.46-17.84-5.72,1.75,11.97,12.85,20.49,24.91,19l271.48-33.54c12.23-1.51,21-12.75,19.49-24.99Z" style="fill: #052472;"/>
        <path d="m1623.76,398.53l-.22-1.32c-.84-5.07-3.39-9.44-6.96-12.63l.11.68c1.95,11.8-6.11,23.04-17.91,24.98l-252.63,41.68c-6.73,1.11-13.28-1.04-18.02-5.28l.11.65c1.95,11.8,13.19,19.85,24.98,17.91l252.63-41.68c11.8-1.95,19.85-13.19,17.91-24.98Z" style="fill: #052472;"/>
        <path d="m1641.96,710.15l-255.69,13.36c-11.94.62-22.22-8.63-22.84-20.57l-.07-1.34c-.62-11.94,8.63-22.22,20.57-22.84l255.69-13.36c11.94-.62,22.22,8.63,22.84,20.57l.07,1.34c.62,11.94-8.63,22.22-20.57,22.84Z" style="fill: #031863;"/>
        <path d="m1662.53,687.31l-.07-1.34c-.38-7.23-4.29-13.46-9.97-17.13.42,1.5.69,3.06.77,4.68l.07,1.34c.62,11.94-8.63,22.22-20.57,22.84l-255.69,13.36c-4.71.25-9.16-1.05-12.87-3.44,2.67,9.58,11.75,16.43,22.07,15.89l255.69-13.36c11.94-.62,21.2-10.9,20.57-22.84Z" style="fill: #07025e;"/>
        <path d="m1927.01,347.15c4.31-17.22,34.96-22.41,39.84-23.24,37.63-6.37,67.86,19.85,81.33,31.54,30.35,26.32,39.59,57.76,41.5,64.73,2.26,8.27,6.67,25.1,3.32,46.47-2.67,17.05-12.58,51.64-28.22,53.11-16.85,1.59-20.97-37.11-58.09-84.65-41.93-53.7-85.08-66.33-79.67-87.97Z" style="fill: #48acff;"/>
        <path d="m1592.77,399.46l-83.7,13.81c-3.15.52-6.16-1.63-6.68-4.79h0c-.52-3.15,1.63-6.16,4.79-6.68l83.7-13.81c3.15-.52,6.16,1.63,6.68,4.79h0c.52,3.15-1.63,6.16-4.79,6.68Z" style="fill: #144191;"/>
        <path d="m1227.94,499.87l-94.88,15.65c-6.97,1.15-13.61-3.61-14.76-10.58h0c-1.15-6.97,3.61-13.61,10.58-14.76l94.88-15.65c6.97-1.15,13.61,3.61,14.76,10.58h0c1.15,6.97-3.61,13.61-10.58,14.76Z" style="fill: #072266;"/>
        <path d="m1592.78,535.19l-84.19,10.4c-3.17.39-6.09-1.88-6.48-5.05h0c-.39-3.17,1.88-6.09,5.05-6.48l84.19-10.4c3.17-.39,6.09,1.88,6.48,5.05h0c.39,3.17-1.88,6.09-5.05,6.48Z" style="fill: #144191;"/>
        <path d="m1719.9,362.09c-4.68.23,27.22-53.97,38.65-60.58,10.97-6.35,48.08-12.31,69.63-15.34,6.91-.97,13.37,5.91,10.42,12.24-13.47,28.83-9.99,43.41-18.19,50.25-7.52,6.27-67.36,11.78-100.5,13.44Z" style="fill: #13357f;"/>
      </g>
      <g>
        <path d="m765.6,506.16l-150.7,26.03h0c-1.9.11-3.8.32-5.71.63-35.87,5.92-59.17,45.74-52.04,88.95,7.13,43.21,41.99,73.44,77.86,67.52l160.23-14.83-29.64-168.31Z" style="fill: #010549;"/>
        <path d="m765.6,506.16l-49.01,8.47,19.29,109.53-160.23,14.83c-4.63.76-9.25.92-13.79.53,12.45,33.4,42.43,54.85,73.15,49.78l160.23-14.83-29.64-168.31Z" style="fill: #01013d;"/>
        <path d="m765.6,506.16l-138.75,23.97c-3.09,10.41-6.06,23.15-7.83,37.78-3.29,27.22-6.9,57.14,9.13,86.31,4.05,7.37,12.63,20.63,29.56,32.99l137.52-12.73-29.64-168.31Z" style="fill: #000538;"/>
        <path d="m939.67,691.01l-13.28-255.37-231.84,46.08c-41.01,11.91-67.57,63.41-60.45,121,7.25,58.67,46.85,102.7,90.49,102.69h0c2.63,0,215.08-14.4,215.08-14.4Z" style="fill: #01154f;"/>
        <path d="m926.39,436.89l-32.8,6.52,9.98,192.01s-212.44,14.4-215.08,14.4h0c-17.47,0-34.29-7.05-48.65-19.28,14.11,44.91,48,76.14,84.75,76.13h0c2.63,0,215.08-14.4,215.08-14.4l-13.28-255.37Z" style="fill: #010549;"/>
        <path d="m926.39,435.64l-45.64,9.07c-9.14,13.65-21.68,52.01-23.54,77.2-5.83,78.83,20.81,134.33,41.31,171.88,24.28-1.64,41.15-2.78,41.15-2.78l-13.28-255.37Z" style="fill: #000538;"/>
        <path d="m1467.86,739.09l-70.09-456.39-397.18,72.49c-83.91,10.37-140.73,109.45-126.91,221.3,13.82,111.85,93.05,194.13,176.96,183.76,1.89-.23,3.76-.53,5.63-.85l411.59-20.31Z" style="fill: #031863;"/>
        <path d="m1397.77,282.7l-32.07,5.85,52.36,340.98-411.59,20.31c-1.86.32-3.74.62-5.63.85-46.32,5.72-91.2-16.79-124.45-56.91,19.42,102.91,94.73,176.3,174.25,166.47,1.89-.23,3.76-.53,5.63-.85l411.59-20.31-70.09-456.39Z" style="fill: #010549;"/>
        <path d="m1254.58,584.34c17.74,68.25,57.1,120.88,100.32,160.32l112.96-5.57-70.09-456.39-82.25,15.01c-23.45,13.75-46.65,52.96-55.96,84.95-3.72,12.77-29.82,106.12-4.98,201.69Z" style="fill: #010549;"/>
        <path d="m1654.41,761.14l-62.69-550.22s-119.61,33.01-184.13,50.22c-99.69,26.59-158.67,132.59-141.36,272.69,16.61,134.43,106.63,234.98,204.34,231.72l183.83-4.42Z" style="fill: #0a2672;"/>
        <path d="m1305.97,656.29c38.89,68.27,100.06,111.41,164.6,109.26l183.83-4.42-13.83-121.41-334.61,16.56Z" style="fill: #040460;"/>
        <ellipse cx="1623.07" cy="486.03" rx="187" ry="276.93" transform="translate(-39.4 159.27) rotate(-5.55)" style="fill: #1f5bb2;"/>
        <path d="m1636.31,716.36c-36.28,0-72.68-20.54-102.48-57.83-31.49-39.4-52.54-93.6-59.26-152.61-7.14-62.69,2.43-123.53,26.97-171.29,23.22-45.22,57.1-72.94,95.39-78.08,4.27-.57,8.61-.86,12.91-.86,36.28,0,72.68,20.54,102.48,57.83,31.49,39.4,52.54,93.6,59.26,152.61,7.14,62.69-2.43,123.53-26.97,171.29-23.22,45.22-57.1,72.94-95.39,78.08-4.27.57-8.61.86-12.91.86Z" style="fill: #258aef;"/>
        <path d="m1771.57,466.13c-5.86-51.45-22.62-99.24-47.69-136.76,4.8,17.25,8.32,35.27,10.43,53.77,7.14,62.69-2.43,123.53-26.97,171.29-23.22,45.22-57.1,72.94-95.39,78.08-4.27.57-8.61.86-12.91.86-36.28,0-72.68-20.54-102.48-57.83-4.03-5.05-7.89-10.34-11.57-15.85,10.52,37.77,27.21,71.79,48.83,98.84,29.8,37.29,66.2,57.83,102.48,57.83,4.29,0,8.63-.29,12.91-.86,38.29-5.13,72.17-32.86,95.39-78.08,24.53-47.76,34.11-108.6,26.97-171.29Z" style="fill: #266eed;"/>
        <path d="m1771.57,466.13c-6.72-59.01-27.77-113.21-59.26-152.61-29.8-37.29-66.2-57.83-102.48-57.83-4.29,0-8.63.29-12.91.86-23.49,3.15-45.32,14.82-64.05,33.8,10-4.47,20.5-7.41,31.35-8.72,4.27-.51,8.61-.78,12.91-.78,36.28,0,72.68,18.48,102.48,52.03,31.49,35.45,52.54,84.22,59.26,137.31,7.14,56.41-2.43,111.15-26.97,154.13-23.22,40.69-57.1,65.63-95.39,70.25-4.27.51-8.61.78-12.91.78-13.94,0-27.89-2.74-41.47-8,23.24,18.89,48.73,29,74.17,29,4.29,0,8.63-.29,12.91-.86,38.29-5.13,72.17-32.86,95.39-78.08,24.53-47.76,34.11-108.6,26.97-171.29Z" style="fill: #07195b;"/>
        <path d="m1208.89,562.67l-271.48,33.54c-12.23,1.51-23.47-7.26-24.99-19.49h0c-1.51-12.23,7.26-23.47,19.49-24.99l271.48-33.54c12.23-1.51,23.47,7.26,24.99,19.49h0c1.51,12.23-7.26,23.47-19.49,24.99Z" style="fill: #0f317c;"/>
        <path d="m1215.73,423.52l-252.63,41.68c-11.8,1.95-23.04-6.11-24.98-17.91l-.22-1.32c-1.95-11.8,6.11-23.04,17.91-24.98l252.63-41.68c11.8-1.95,23.04,6.11,24.98,17.91l.22,1.32c1.95,11.8-6.11,23.04-17.91,24.98Z" style="fill: #0f317c;"/>
        <path d="m1208.89,562.67l-271.48,33.54c-12.23,1.51-23.47-7.26-24.99-19.49h0c-1.51-12.23,7.26-23.47,19.49-24.99l271.48-33.54c12.23-1.51,23.47,7.26,24.99,19.49h0c1.51,12.23-7.26,23.47-19.49,24.99Z" style="fill: #0f317c;"/>
        <path d="m1215.73,423.52l-252.63,41.68c-11.8,1.95-23.04-6.11-24.98-17.91l-.22-1.32c-1.95-11.8,6.11-23.04,17.91-24.98l252.63-41.68c11.8-1.95,23.04,6.11,24.98,17.91l.22,1.32c1.95,11.8-6.11,23.04-17.91,24.98Z" style="fill: #0f317c;"/>
        <path d="m1228.38,537.68h0c-.68-5.5-3.33-10.29-7.14-13.77.02.16.05.33.07.49h0c1.51,12.23-7.26,23.47-19.49,24.99l-271.48,33.54c-6.73.83-13.17-1.46-17.84-5.72,1.75,11.97,12.85,20.49,24.91,19l271.48-33.54c12.23-1.51,21-12.75,19.49-24.99Z" style="fill: #052472;"/>
        <path d="m1233.63,398.53l-.22-1.32c-.84-5.07-3.39-9.44-6.96-12.63l.11.68c1.95,11.8-6.11,23.04-17.91,24.98l-252.63,41.68c-6.73,1.11-13.28-1.04-18.02-5.28l.11.65c1.95,11.8,13.19,19.85,24.98,17.91l252.63-41.68c11.8-1.95,19.85-13.19,17.91-24.98Z" style="fill: #052472;"/>
        <path d="m1251.84,710.15l-255.69,13.36c-11.94.62-22.22-8.63-22.84-20.57l-.07-1.34c-.62-11.94,8.63-22.22,20.57-22.84l255.69-13.36c11.94-.62,22.22,8.63,22.84,20.57l.07,1.34c.62,11.94-8.63,22.22-20.57,22.84Z" style="fill: #031863;"/>
        <path d="m1272.41,687.31l-.07-1.34c-.38-7.23-4.29-13.46-9.97-17.13.42,1.5.69,3.06.77,4.68l.07,1.34c.62,11.94-8.63,22.22-20.57,22.84l-255.69,13.36c-4.71.25-9.16-1.05-12.87-3.44,2.67,9.58,11.75,16.43,22.07,15.89l255.69-13.36c11.94-.62,21.2-10.9,20.57-22.84Z" style="fill: #07025e;"/>
        <path d="m1536.89,347.15c4.31-17.22,34.96-22.41,39.84-23.24,37.63-6.37,67.86,19.85,81.33,31.54,30.35,26.32,39.59,57.76,41.5,64.73,2.26,8.27,6.67,25.1,3.32,46.47-2.67,17.05-12.58,51.64-28.22,53.11-16.85,1.59-20.97-37.11-58.09-84.65-41.93-53.7-85.08-66.33-79.67-87.97Z" style="fill: #48acff;"/>
        <path d="m1202.64,399.46l-83.7,13.81c-3.15.52-6.16-1.63-6.68-4.79h0c-.52-3.15,1.63-6.16,4.79-6.68l83.7-13.81c3.15-.52,6.16,1.63,6.68,4.79h0c.52,3.15-1.63,6.16-4.79,6.68Z" style="fill: #144191;"/>
        <path d="m837.82,499.87l-94.88,15.65c-6.97,1.15-13.61-3.61-14.76-10.58h0c-1.15-6.97,3.61-13.61,10.58-14.76l94.88-15.65c6.97-1.15,13.61,3.61,14.76,10.58h0c1.15,6.97-3.61,13.61-10.58,14.76Z" style="fill: #072266;"/>
        <path d="m1202.66,535.19l-84.19,10.4c-3.17.39-6.09-1.88-6.48-5.05h0c-.39-3.17,1.88-6.09,5.05-6.48l84.19-10.4c3.17-.39,6.09,1.88,6.48,5.05h0c.39,3.17-1.88,6.09-5.05,6.48Z" style="fill: #144191;"/>
        <path d="m1329.78,362.09c-4.68.23,27.22-53.97,38.65-60.58,10.97-6.35,48.08-12.31,69.63-15.34,6.91-.97,13.37,5.91,10.42,12.24-13.47,28.83-9.99,43.41-18.19,50.25-7.52,6.27-67.36,11.78-100.5,13.44Z" style="fill: #13357f;"/>
      </g>
    </g>
    <path d="m541.27,1072.77c10.78,16.4,7.23,28.45,4.73,88.69-3.55,85.59,2.84,79.91-2.37,143.08-3.23,39.22-7.92,68.52-14.19,107.61-3.97,24.76-4.74,26.68-18.92,102.88-19.56,105.12-18.5,103.67-23.65,124.16-8.11,32.27-13.99,48.76-21.28,86.32-11.24,57.84-3.67,34.55-9.46,60.31,0,0-3.03,13.48-1.77,31.46.46,6.61,1.33,10.69,3.68,14.72,1.69,2.9,3.34,4.37,12.09,12.61,9.43,8.88,7.83,7.46,9.46,8.93,10.86,9.85,16.38,14.86,24.18,19.97,5.8,3.8,11.58,6.56,23.12,12.09,13.62,6.52,13.89,5.74,18.92,8.93,7.62,4.84,19.29,12.26,19.97,23.65.39,6.49-2.58,13.2-7.36,17.34-3.49,3.03-7.76,4.54-14.72,5.26-19.2,1.96-35.34-4.6-40.47-6.83-17-7.4-13.55-10.94-31.01-18.4-6.32-2.7-15.25-5.3-33.11-10.51-12.07-3.52-18.11-5.28-20.5-5.78-16.89-3.53-26.26-8.79-29.43-8.41-2.07.25-1.03-2.63-1.58-11.56-1.5-24.39-2.96-25.48-1.58-33.11.88-4.86,1.23-3.11,5.26-17.34,2.35-8.33,4.05-15.36,4.73-18.4,3.61-16.16,3.24-30.24,3.15-36.26-1.3-87.5,7.88-135.07,7.88-135.07,5.74-29.76,12.24-41.9,15.24-77.26.95-11.22,1.17-20.42,1.58-38.37.91-40.55.1-71.28,0-75.16-2.25-87.23,5.7-136.06,2.63-241.77-3.33-114.47-15.22-145.6,7.88-162.4,27.72-20.17,85.04-4.59,106.88,28.63Z" style="fill: #f29e91;"/>
    <path d="m320.42,1084.18h0c-5.33,6.53-10.57,186.34,1.73,208.34,6.66,11.91,4.81,6.56,23.86,37.18,26.87,43.17,20.94,38.37,43,74.18,0,0,21.05,34.18,29.17,64.2.79,2.91,2.25,8.72.99,15.81-2.48,14.04-13.7,22.49-19.96,27.66-26.94,22.26-42.67,50.4-51.36,65.94-10.61,18.97-66.09,120.49-78.97,129.6-12.44,8.79-19.4,5.89-32.22,17.74-4.44,4.1-13.37,12.58-16.75,26.2-2.4,9.66-.99,17.79.58,26.84,1.7,9.84,6.75,15.02,9.67,23.51,6.4,18.57,6.9,34.36,9.75,48.21,4.87,23.6,6.72,28.03,12.73,37.9,2.01,3.3,5.21,13.22,16.67,19.99,20.94,12.38,51.13,12.94,56.72,2.11,1.44-2.8.76-5.41-5.16-22.34-6.08-17.38-9.11-26.07-10.72-29.98-11.29-27.49-4.61-61.9-1.92-75.8,5.8-29.88,17.92-50.17,28.54-67.57,15.57-25.51,38.98-49.04,85.18-95.05,20.55-20.47,38.29-44.15,61.45-61.61,4.81-3.63,21.67-16.06,34.54-37.77,3.41-5.75,7.16-12.19,9.06-20.96,4.65-21.42-5.24-40.37-8.88-47.66-18.37-36.82-23.74-78.87-38.24-117.38-24.69-65.56-37.04-98.42-37.63-101.98-4.26-26-15.45-94.25,21.81-141.19,10.6-13.34,20.85-19.61,18.69-25.34-5.01-13.28-68.52-1.87-128.24,11.8l-34.13,7.43Z" style="fill: #f7a491;"/>
    <path d="m325.48,1356.05c-21.2-19.17-33.91-128.52-26.06-189.64,1.74-13.51,4.26-128.54,70.07-149.31,47.87-15.11,99.05,24.01,144.47,23.4,4.14-.06,18.33-.58,27.18,8.26,5.39,5.38,6.65,12.1,7.15,15.14,13.35,81.21,5.72,166.56,5.72,166.56-9.12,102.15,11.24,83.9-9.57,110.62-35.65,45.77-206.79,25.99-218.96,14.97Z" style="fill: #f92572;"/>
    <path d="m541.11,541.9c1.57,1.08-.09,4.64-.51,25.09-.1,4.72-.15,7.08,0,8.71.98,10.99,13.38,31.3-10.69,51.9-3.09,2.64-59.38-3.71-43.08-29.89,22.06-35.41,49.56-59.05,54.28-55.81Z" style="fill: #050d33;"/>
    <path d="m395.25,705.86c-1.52,7,13.7,18.66,44.12,41.98,11.26,8.63,26.64,16.89,57.4,33.41,7.1,3.81,12.27,6.48,15.85,4.28,9-5.53-.33-36.86-7.28-53.55-4.52-10.84-7.29-17.5-14.14-24.42-13.86-14.01-31.7-16.2-40.27-17.13-21.08-2.29-52.87,2.43-55.69,15.42Z" style="fill: #f79c8d;"/>
    <path d="m492.63,661.89c3.54,8.35-10.92,14.79-15.02,33.45-5.19,23.64,12.28,39.4,5.46,46.43-7.83,8.07-35.62-7.78-42.33-11.61-14.88-8.49-79.07-16.75-62.1-26.22,25.18-14.06,24.03-19.83,32.06-42.74,11.37-32.47-8.4-77.12-2.37-76.9,7.74.28,30.62,51.01,48.12,63.93,15.55,11.48,32.4,4.72,36.19,13.65Z" style="fill: #f7a491;"/>
    <path d="m307.28,749.06s7.15-26.34,58.53-45.74c18.8-7.1,27.03-11.04,38.77-6.29,3.37,1.36,8.75,6.52,19.38,16.76,24.52,23.64,27.4,25.37,32.48,30.39,17.06,16.84,34.81,21.67,40.86,19.38,6.88-2.6,4.64-26.26-4.71-44.01-5.11-9.7-8.79-17.87-9.95-19.73-.99-1.58,33.13,11.72,39.26,22.9,8.73,15.91,16.91,50.62,21.51,57.08,15.16,21.32,22.1,24.89,34.58,47.15,7.01,12.51,9.54,19.8,10.48,27.77,2.27,19.3-5.55,36.13-6.81,38.77-3.64,7.6-5.97,8.89-9.43,17.81-3.72,9.6-4.6,17.35-5.24,22.53-2.75,22.2-2.31,5.89-7.33,44.53-7.03,54.11-6.06,154.53-6.06,154.53,0,0-248.19-28.4-241.7-43.4,21.88-50.58,59.02-200.15,34.54-289.77-10.69-39.13-47.16-15.58-39.14-50.65Z" style="fill: #f92572;"/>
    <path d="m321.04,1065.03c21.35-64.07,33.14-168.61,2.37-258.92-11.8-34.62,7.84-47.86,14.74-64.81,28.36,8.01,21.43,17.66,37.66,45.04,5.5,9.28,15.54,25.67,9.67,108.16-4.26,59.8-1.13,98.04-9.75,149.21-12.93,76.77-24.54,149-11.4,234.27,3.55,23.04,9.98,53.94,22.58,89.93-31.95-2.77-57.05-7.88-61.44-11.85-21.2-19.17-33.91-128.52-26.06-189.64,1.13-8.79,2.6-60.56,21.61-101.38Z" style="fill: #e81f71;"/>
    <path d="m328.73,825.29c5.85,8.04,10.6,22.99,29.73,30.89,3.74,1.54,172.94,70.28,217.11,65.92,12.71-1.25,26.94-46.96,0-67.81-3.62-2.8-40.94-7.21-62.07-18.27-50.48-26.43-58.18-28.99-59.64-29.78-42.07-22.82-63.1-34.24-74.74-43.32-6.58-5.13-10.31-8.53-17.23-10.18-19.72-4.69-69.9,22.05-33.14,72.54Z" style="fill: #f7a491;"/>
    <path d="m479.74,688.5c5.51-13.57,15.96-19.38,12.89-26.61-3.79-8.94-20.63-2.18-36.19-13.65-16.08-11.87-15.11-31.65-20.85-35,1.72,18.18,7.8,41.35,25.63,60.27,6.01,6.37,12.4,11.26,18.51,15.01Z" style="fill: #c36252;"/>
    <path d="m537.52,530.12c1.02,3.57-.28,1.87,0,23.55.17,13.13.29,20.55,1.54,30.38,1.54,12.07,2.72,11.59,2.73,18.43,0,2.35-.11,13.03-5.46,25.94-4.5,10.87-6.84,9.14-10.24,18.43-4.77,13.04-1.25,19.38-6.83,25.26-4.53,4.78-11.25,5.23-15.7,5.46-28.04,1.48-52.74-24.49-55.99-27.99-6.16-6.64-24.97-27.54-26.63-60.08-.2-3.98-1.71-47.12,30.72-73.05,6.3-5.04,22.51-18,44.38-15.7,17.73,1.87,36.98,13.54,41.48,29.36Z" style="fill: #f7a491;"/>
    <path d="m505.6,510.32c3.7.37,13.25,1.25,20.48,8.19,1.14,1.1,4.45,4.48,8.19,14.34,6.07,15.99,5.32,28,6.14,27.99,1.05-.01,6.58-19.27-1.37-38.92-7.09-17.52-21.26-26.36-29.36-31.41-6.44-4.01-22.3-13.61-44.38-12.97-19.71.57-40.88,9.18-40.28,14.34,1.01,8.64,64.16,16.78,80.56,18.43Z" style="fill: #0e1647;"/>
    <path d="m484.44,491.2c-15.6-7.27-23.55-10.91-30.72-11.61-11.85-1.15-41.22-10.43-64.86,25.26-51.76,78.14,22.62,130.38,26.77,116.99,3.54-11.44,17.36-17.46,22.14-30.8,4.78-13.31,9.91-12.52,15.95-19.96,5.54-6.82,10.8-3.5,19.12-10.24,10.55-8.55,6.27-17.27,15.7-29.36,11.59-14.85,27.16-13.33,27.31-20.48.11-5.02-10.39-10.02-31.41-19.8Z" style="fill: #0e1647;"/>
    <g>
      <path d="m427.17,570.73c6.39-1.8,12.54,6.16,12.86,6.59,9.08,12.07,4.55,36.22-2.97,38.42-6.76,1.98-19.24-12.84-18.79-27.44.19-6.11,2.75-15.83,8.9-17.56Z" style="fill: #f7a491;"/>
      <g>
        <path d="m434.74,603.23c.27.28.44.46.44.49,0,0-.19-.2-.44-.49Z" style="fill: #c36252;"/>
        <path d="m435.47,584.51c2.34.7,4.22,2.76,5.09,5.45.32.98-.27,2.05-1.2,2.2-.71.12-1.35-.37-1.6-1.12-.55-1.68-1.68-2.94-3.07-3.36-1.9-.57-3.97.62-4.8,2.05-.9,1.55-.69,4.2.57,7.28.93,2.26,2.41,4.15,3.46,5.34-.77-.84-1.35-1.48.04.05.23.26.44.49.61.67.18.2.37.4.59.65,2.72,2.99.35,3.27.13,3.27-2.05,0-4.15-2.68-5.29-4.39-2.74-4.12-5.06-10.43-2.61-14.66,1.4-2.42,4.71-4.45,8.06-3.44Z" style="fill: #c36252;"/>
        <path d="m434.59,603.08c-.24-.26-.44-.48-.61-.67-.01-.02-.03-.03-.04-.05.28.3.57.62.8.88-.05-.05-.09-.1-.15-.16Z" style="fill: #c36252;"/>
      </g>
      <path d="m419.88,578.3c-1.27,3.23-2.5,8.6-1.08,15.83,1.98,10.09,7.94,18.51,12.36,20.02.02.04.03.09.05.14.73,1.9,2.67,6.93,7.58,6.93h0c3.77,0,4.73-2.85,5.04-5.26.12-.95-.51-1.82-1.38-1.88h0c-.78-.06-1.46.58-1.56,1.44-.26,2.07-.79,2.41-2.09,2.41h0c-2.6,0-3.87-2.37-4.86-4.93-.36-.94-.68-1.76-1.6-1.91-2.99-.5-8.77-8.14-10.64-17.66-1-5.11-.7-9.76.9-13.81.63-1.6,1.5-3.79,3.53-4.96,2.16-1.25,4.44-.66,5.41-.41,3.43.89,5.61,3.65,6.76,5.59.42.7,1.25.93,1.92.53.77-.45,1.03-1.55.55-2.36-1.43-2.4-4.17-5.84-8.55-6.97-1.18-.31-4.31-1.12-7.45.69-2.96,1.71-4.16,4.75-4.88,6.56Zm12.01,36.05h0s0,0,0,0Z" style="fill: #c36252;"/>
      <path d="m440.3,591.52c.2.48-1.29,1.1-2.39,2.93-2.13,3.53-.64,7.91-1.24,8.05-.44.1-1.53-2.27-1.65-4.85-.05-1.18-.17-3.59,1.32-5.12,1.41-1.46,3.72-1.56,3.96-1.01Z" style="fill: #c36252;"/>
    </g>
    <path d="m472.44,566.12c5.15-.95,10.38-1.32,15.58-1.11,3.27.14,6.56.51,9.8,1.11,1.28.24,2.11,1.49,1.83,2.76-.27,1.2-1.43,1.99-2.64,1.76-3.03-.56-6.11-.91-9.18-1.04-4.87-.2-9.78.15-14.6,1.04-1.21.22-2.37-.56-2.64-1.76h0c-.28-1.28.56-2.52,1.84-2.76Z" style="fill: #49302a;"/>
    <path d="m536.87,566.12c-2.83-.95-5.7-1.32-8.56-1.11-1.8.14-3.6.51-5.38,1.11-.7.24-1.16,1.49-1,2.76.15,1.2.78,1.99,1.45,1.76,1.67-.56,3.36-.91,5.04-1.04,2.68-.2,5.37.15,8.02,1.04.66.22,1.3-.56,1.45-1.76h0c.15-1.28-.31-2.52-1.01-2.76Z" style="fill: #49302a;"/>
    <path d="m503.17,616.93c.17-.7.92-1.15,1.71-1.01,6.43,1.18,10.84.68,12.49-1.44,1.35-1.73.76-4.36-.41-9.59-.42-1.88-.9-4.01-1.38-6.55-1.01-5.29-1.73-10.67-2.14-16-.06-.75.57-1.38,1.4-1.41.81-.03,1.5.54,1.56,1.28.4,5.24,1.1,10.52,2.1,15.72.48,2.49.95,4.61,1.37,6.47,1.3,5.8,2.01,8.99-.05,11.66-2.03,2.61-6.02,3.62-11.89,3.02-1.11-.11-2.29-.29-3.54-.52-.83-.15-1.38-.89-1.2-1.63h0Z" style="fill: #c36252;"/>
    <path d="m489.64,576.45c2.32,0,4.2,2.93,4.2,6.54s-1.88,6.54-4.2,6.54-4.2-2.93-4.2-6.54,1.88-6.54,4.2-6.54Z" style="fill: #49302a;"/>
    <path d="m529.57,576.45c2.32,0,4.2,2.93,4.2,6.54s-1.88,6.54-4.2,6.54-4.2-2.93-4.2-6.54,1.88-6.54,4.2-6.54Z" style="fill: #49302a;"/>
    <path d="m493.22,628.74l7.97.77c6.14.59,12.36.59,18.49-.02l4.24-.42c1.84-.18,3.22,1.19,2.38,2.37-2.47,3.46-7.6,7.71-15.86,7.64-8.31-.07-17.22-4.48-19.58-8.01-.79-1.18.55-2.51,2.36-2.34Z" style="fill: #c36252;"/>
    <path d="m475.27,593.25c6.05.77,10.56,4.46,10.08,8.24-.48,3.78-5.78,6.22-11.83,5.45-6.05-.77-10.56-4.46-10.08-8.24.48-3.78,5.78-6.22,11.83-5.45Z" style="fill: #dd8064;"/>
    <path d="m497.22,781.26c-3.13,0-6.88-.6-11.15-1.81-15.86-4.49-26.49-13.66-36.02-22.68-11.47-10.85-22.3-22.76-32.24-35.45-.94-1.2-.71-2.95.5-3.88h0c1.2-.92,2.91-.7,3.85.49,9.77,12.47,20.42,24.18,31.68,34.84,11.02,10.42,20.5,17.63,33.73,21.38,9.42,2.67,12.97,1.32,13.83.85,6.96-3.83,8.62-18.64,4.24-36.49-.35-1.44.51-2.91,1.94-3.3h0c1.5-.41,3.04.5,3.41,2.01,5.13,20.86,2.49,37.43-6.94,42.61-1.74.96-4.04,1.44-6.83,1.44Z" style="fill: #e81f71;"/>
    <path d="m301.43,1852c-8.21,5.17-21.41-28.76-28.14-64.24-4.3-22.65-6.05-54.55-6.35-79.38-11.26,7.22-45.75,11.6-48.32,37.78-3.15,32.12,8.61,46.72,11.54,55.22,6.4,18.57,6.9,34.36,9.75,48.21,4.87,23.6,6.26,29.4,12.27,39.28,2.01,3.3,5.67,11.84,17.13,18.62,20.94,12.38,51.13,12.94,56.72,2.11,1.44-2.8.76-5.41-5.16-22.34-6.08-17.38-9.11-26.07-10.72-29.98-2.76-6.71-4.44-13.83-5.37-20.97-.7,8.64-1.53,14.55-3.36,15.7Z" style="fill: #f92572;"/>
    <path d="m569.05,1919.2c-.71-11.81-12.8-19.49-20.7-24.51-5.21-3.31-5.49-2.51-19.61-9.26-11.97-5.72-17.95-8.59-23.96-12.53-1.24-.81-2.42-1.62-3.58-2.45-.44-.31-1.03.07-.93.6.21,1.16.05,1.92-.38,2.39-4.12,4.57-25.19-8.7-81.78-32.33-8.44-3.53-25.38-15.54-26.25-14.59-4.32,4.73-8.16,13.03-9.07,18.06-1.43,7.91.08,9.04,1.63,34.31.57,9.25-.37,11.18,1.63,11.98,3.81,1.52,12.99,5.05,30.5,8.71,2.48.52,8.73,2.34,21.24,5.99,18.51,5.4,27.77,8.1,34.31,10.89,18.09,7.72,14.52,11.39,32.13,19.06,5.32,2.32,22.03,9.11,41.93,7.08,7.21-.74,11.63-2.31,15.25-5.45,4.95-4.29,8.03-11.24,7.62-17.97Z" style="fill: #f92572;"/>
    <path d="m302.94,1918.41c-7.98,0-14.85-2.48-19.89-4.31-6.41-2.32-21.43-7.75-31.18-22.54-3.71-5.62-5.24-11.3-8.28-22.63-2.73-10.15-3.57-16.26-4.38-22.17-.71-5.15-1.44-10.48-3.44-18.77-1.45-6-4-13.85-9.08-29.48-1.54-4.74-2.8-8.51-3.85-11.67-3.34-10-4.72-14.14-5.5-20.77-1.02-8.75-.52-17.67,1.48-26.59.46-2.03,7.52-13.75,12.42-14.51,0,0-4.83,14.24-5.26,16.16-1.81,8.1-2.27,16.19-1.34,24.09.69,5.88,1.91,9.53,5.17,19.3,1.06,3.17,2.33,6.97,3.85,11.66,5.16,15.89,7.74,23.83,9.25,30.1,2.09,8.65,2.85,14.16,3.58,19.49.82,5.95,1.59,11.56,4.2,21.26,2.84,10.57,4.27,15.87,7.32,20.5,8.41,12.75,21.34,17.43,27.55,19.68,6.95,2.52,15.61,5.65,25.71,2.68,2.47-.73,4.86-1.77,7.13-3.12,1.61-.96,6.25-4.35,7.36-2.84,0,0,3.67,4.89-3.62,9.16-2.8,1.64-5.74,2.95-8.8,3.85-3.62,1.06-7.1,1.48-10.39,1.48Z" style="fill: #f0f0f2;"/>
    <path d="m542.1,1943.77c-2.89,0-6.43-.31-11.05-1.04-9.73-1.56-23.06-3.69-37.98-12.38-4.64-2.7-6.9-4.57-8.91-6.22-2.11-1.73-3.92-3.23-8.42-5.65-4.76-2.56-8.62-4.04-25-8.89-20.12-5.96-36.43-10.28-42.57-11.9-4.63-1.23-10.22-2.88-15.15-4.34-2.05-.61-5.35-1.99-6.96-2.45-1.91-.55-1.45-7.78-1.45-7.78,1.64.47,8.44,2.58,10.5,3.19,4.88,1.45,10.42,3.09,14.94,4.29,6.17,1.63,22.55,5.97,42.78,11.96,17.01,5.03,21.11,6.62,26.4,9.47,5.13,2.76,7.4,4.64,9.61,6.45,1.96,1.61,3.82,3.14,7.94,5.54,13.73,8.01,25.77,9.93,35.44,11.48,9.91,1.58,13.61.88,16.29.1,3.49-1.02,9.06-2.11,12.04-4.51,1.47-1.18,5.28-3.44,8.55-7.8,0,0-.97,7.11-6.22,12.87-3.23,3.55-7.86,5.19-12.31,6.48-2.36.69-4.92,1.15-8.45,1.15Z" style="fill: #f0f0f2;"/>
    <path d="m442.42,487.52c2.84-5.57,10.12-19.85,3.51-30.73-7.44-12.26-26.89-10.92-32.49-10.54-3.39.23-30.8,2.53-39.51,23.71-.95,2.32-5.28,13.62,0,25.46,5.71,12.81,19.43,19,30.73,19.32,23.55.66,36.22-24.21,37.76-27.22Z" style="fill: #0e1647;"/>
    <path d="m731.55,729.2c-8.11,8.91-29.42,34.56-46.07,46.94-9.13,6.78-17.39,11.86-33.92,22-26.64,16.35-38.12,21.99-56.12,36.01-10.24,7.98-64.56,33.36-67.02,38.58-10.25,21.76,34.57,56.66,50.96,47.73,27.43-14.95,140.06-83.87,179.01-165.28,12.34-25.79-25.2-27.8-26.86-25.97Z" style="fill: #f7a491;"/>
    <g>
      <path d="m752.97,764.24c1.91-4.37,1.78-3.11,5.58-11.05.93-1.93,1.7-3.61,3.31-5.54,2.09-2.5,3.97-3.49,5.64-4.69,3.21-2.31,5.33-5.88,9.58-13.01,3.42-5.74,2.78-5.73,5.99-10.95,3.44-5.6,6.63-9.61,7.4-10.57,4.09-5.1,5.03-5.18,9.14-10.59.33-.44,2.74-3.63,5.22-8.12.35-.63,1.16-2.89,2.79-7.42.31-.85.66-1.88.22-2.88-.53-1.21-2.05-1.97-3.41-1.87-.56.04-1.22.23-2.25,1.02-1.86,1.43-2.78,3.17-3.86,5.26-2.59,5.01-2.55,4.96-2.58,5-1.63,2.59-2.6,2.58-8.28,7.58-3.18,2.8-5.08,4.75-5.59,4.37-.15-.11-.16-.4.11-1.33.87-3.05,2.25-4.82,2.25-4.82,1.75-2.23,3.22-4.66,5.02-6.84.28-.34,3.04-3.97,8.55-11.24,10.14-13.36,2.37-3.45,4.79-6.62,1.54-2.01,2.8-3.56,3.6-6.08.55-1.74,1.04-3.37.15-4.75-.98-1.52-3.2-2.1-4.83-1.57-1.46.48-2.16,1.75-2.92,2.98-1.66,2.69-3.97,4.91-5.81,7.48-.83,1.16-3.61,4.09-9.13,9.9-7.54,7.94-8.82,9.21-9.03,9.04-.32-.26,2.12-3.79,3.73-6.13,2.43-3.52,4.15-5.65,6.6-8.79,7.58-9.72,6-8.41,8.18-10.74,2.63-2.81,4.65-6.14,7.11-9.11.39-.47,1.37-1.64,1.27-3.14-.1-1.57-1.33-2.94-2.66-3.55-1.87-.87-3.8-.27-4.71.22-1.79.96-3.8,2.89-6.25,5.87-3.46,4.22-3.07,2.79-8.9,9.45-1.35,1.54-3.1,3.54-5.34,6.34-1.35,1.68-3.37,3.99-7.42,8.6-1.09,1.24-2.39,2.7-2.87,2.43-.38-.22-.06-1.44.07-1.92,1.06-3.97,11.49-17.13,13.68-19.41,1.93-2,3.91-3.71,7.04-7.41,2.1-2.48,3.36-4.27,3-6.27-.2-1.14-.95-2.44-2.16-2.95-1.12-.48-2.42-.19-4.68,1.04-3.39,1.85-5.37,3.88-8.22,6.58-4.39,4.17-3.84,3.27-6.1,5.6-.74.77-2.46,2.57-7.05,8.33-3.97,4.98-4.29,5.65-7.12,9.06-3.2,3.86-6.86,7.92-7.29,7.59-.22-.17.9-1.54,1.51-4.13.3-1.24,2.7-8.58.02-11.95-1.34-1.69-3.36-3.2-4.48-2.62-.57.3-.51.93-1.01,3.16,0,0-.72,3.19-1.9,6.07-.6,1.46-1.18,2.46-1.87,3.64-1.76,3.01-3.26,4.71-4.47,6.29-.74.96-.58.85-5.86,10.17-2.86,5.06-3.64,6.38-4.25,8.85-.44,1.74-.61,3.32-.68,5.48-.21,6.63.81,10.97,1.97,18.8.93,6.33,1.4,9.49,1.27,11.24-.57,7.71-19.5,32.08-24.64,37.87-15.3,17.24,6.08,5.02-2.99,24.27l18.98,17.86c15.05-17.77,35.94-47.37,36.82-49.38Z" style="fill: #f7a491;"/>
      <path d="m743.56,676.23c-1.32,3.07-2.9,5.05-3.73,6.13-6.06,7.88-9.7,16.73-9.58,16.8.08.05,2.39-3.89,7.04-10.98,1.78-2.72,2.76-4.17,4.1-5.94,1.16-1.54,2.27-2.9,3.27-4.07.28-.61.97-1.84,1.41-3.68.3-1.24,2.7-8.58.02-11.95-.07-.08-.14-.17-.21-.25.09,2.5-.08,4.61-.31,6.23-.25,1.77-.65,4.53-2.01,7.7Z" style="fill: #f7a491;"/>
      <path d="m740.6,663.08s-.72,3.19-1.9,6.07c-.08.2-.16.39-.25.57,1.01.06,2.33-.07,3.51-.88,2.3-1.59,2.34-4.62,2.36-5.92.01-.88-.1-1.67-.27-2.36-.91-.64-1.81-.97-2.44-.64-.57.3-.51.93-1.01,3.16Z" style="fill: #f7a491;"/>
      <path d="m803.97,679.4c-.11.32-.31.93-.11,1.55.16.5.57.83,1.38,1.48.64.51.96.77,1.21.78,1.11.04,2.07-2.3,2.06-3.62,0-.33-.23-.51-.43-.8-.82-1.16-2.18-1.89-2.83-1.5-.2.12-1.13,1.66-1.28,2.1Z" style="fill: #f7a491;"/>
      <g>
        <path d="m793.29,653.3c.69.54,1.32,1.17,1.86,1.86l.32-.25c-.57-.72-1.22-1.37-1.93-1.93-.55-.43-1.14-.81-1.76-1.14l-.19.36c.6.31,1.17.68,1.69,1.1Z" style="fill: #f7a491;"/>
        <path d="m792.63,654.11c.72.68,1.35,1.46,1.86,2.31l.35-.21c-.53-.89-1.18-1.7-1.93-2.4-.67-.63-1.41-1.17-2.22-1.61l-.2.36c.77.43,1.49.95,2.13,1.55Z" style="fill: #f7a491;"/>
        <path d="m779.39,647.3c.7.41,1.38.88,2.02,1.38l.25-.32c-.66-.52-1.35-.99-2.06-1.41-.62-.37-1.27-.7-1.93-.99l-.17.37c.65.29,1.28.61,1.89.97Z" style="fill: #f7a491;"/>
        <path d="m800.07,665.19c.71.48,1.39,1.02,2.01,1.6l.28-.3c-.64-.6-1.33-1.16-2.06-1.65-.46-.31-.94-.59-1.43-.85l-.19.36c.47.25.94.53,1.39.83Z" style="fill: #f7a491;"/>
        <path d="m767.8,657.31c1.27.7,2.38,1.65,3.29,2.82l.32-.25c-.94-1.22-2.09-2.2-3.41-2.93-.86-.47-1.78-.83-2.74-1.06l-.1.4c.92.22,1.81.56,2.63,1.02Z" style="fill: #f7a491;"/>
        <path d="m766.87,658.44c.94.55,1.83,1.2,2.64,1.93l.27-.3c-.83-.75-1.75-1.42-2.71-1.98-.5-.29-1.03-.57-1.56-.81l-.17.37c.52.23,1.04.5,1.53.79Z" style="fill: #f7a491;"/>
        <path d="m765.59,659.51c.63.51,1.31.95,2.04,1.32.55.28,1.12.52,1.71.72l.13-.39c-1.33-.45-2.55-1.12-3.62-1.98-.54-.44-1.05-.93-1.51-1.46l-.31.27c.47.55,1,1.05,1.56,1.51Z" style="fill: #f7a491;"/>
        <path d="m781.04,665.75c.69.41,1.68,1.16,2.46,2.39.22.34.41.7.57,1.07l.38-.16c-.17-.39-.37-.78-.6-1.13-.83-1.3-1.87-2.09-2.6-2.52-.66-.4-1.39-.69-2.15-.87l-.1.4c.72.17,1.41.45,2.04.83Z" style="fill: #f7a491;"/>
        <path d="m780.2,666.92c1.11.76,2.04,1.82,2.69,3.07l.36-.19c-.67-1.31-1.65-2.42-2.82-3.22-.58-.39-1.2-.72-1.86-.96l-.14.38c.63.23,1.23.54,1.77.91Z" style="fill: #f7a491;"/>
        <path d="m779.18,668.8c.84.85,1.8,1.58,2.85,2.17l.2-.36c-1.02-.58-1.95-1.28-2.77-2.1-.59-.6-1.13-1.25-1.6-1.96l-.34.23c.48.72,1.04,1.4,1.65,2.02Z" style="fill: #f7a491;"/>
        <path d="m789.76,676.91c1.66,1.23,2.33,2.97,2.57,3.9l.4-.11c-.26-.98-.96-2.82-2.73-4.12-.59-.44-1.25-.78-1.97-1.01l-.13.39c.67.22,1.29.54,1.85.95Z" style="fill: #f7a491;"/>
        <path d="m789.12,678.75c.93,1.05,1.82,2.16,2.64,3.31l.33-.24c-.83-1.16-1.73-2.28-2.67-3.34-.62-.7-1.28-1.39-1.95-2.05l-.29.29c.67.65,1.32,1.33,1.93,2.03Z" style="fill: #f7a491;"/>
        <path d="m787.25,679.6c.92,1.74,2.34,2.74,3.37,3.28,0,0,0,0,.01,0l.19-.36c-.99-.49-2.34-1.45-3.21-3.11-.29-.56-.51-1.16-.64-1.79l-.4.09c.14.66.37,1.3.68,1.89Z" style="fill: #f7a491;"/>
        <path d="m738.43,675.88c.78.49,1.52,1.06,2.19,1.69l.28-.3c-.69-.66-1.45-1.24-2.25-1.74-.61-.38-1.27-.72-1.94-1l-.16.38c.65.27,1.28.6,1.88.97Z" style="fill: #f7a491;"/>
        <path d="m736.85,677.71c.83.28,1.68.52,2.52.72l.09-.4c-.84-.2-1.67-.44-2.49-.71-.52-.17-1.04-.36-1.54-.56l-.15.38c.51.2,1.03.4,1.56.57Z" style="fill: #f7a491;"/>
        <path d="m735.2,678.71c-.44-.1-.88-.21-1.31-.33l-.12.39c.44.13.89.24,1.34.34,1,.22,2.02.35,3.05.41l.02-.41c-1-.05-2.01-.19-2.98-.4Z" style="fill: #f7a491;"/>
        <path d="m797.39,693.94c.76.82,1.32,1.84,1.61,2.95l.4-.1c-.31-1.18-.9-2.26-1.7-3.13-.49-.53-1.05-.98-1.68-1.34l-.2.35c.59.34,1.12.77,1.58,1.26Z" style="fill: #f7a491;"/>
        <path d="m796.24,695.85c.45.86.95,1.7,1.49,2.5l.34-.23c-.53-.79-1.02-1.62-1.47-2.47-.31-.59-.61-1.21-.89-1.83l-.37.17c.28.63.58,1.25.9,1.85Z" style="fill: #f7a491;"/>
      </g>
      <path d="m802.26,669.6c-3.71,5.03-6.84,8.91-7.62,9.88-7.66,9.51-5.43,7.42-8.5,10.92-1.46,1.67-3.76,4.18-5.5,8.21-.39.91-1.85,4.29-1.02,4.88.44.31,1.3-.31,5.85-3.77,3.88-2.95,4.76-3.65,5.96-4.64,4.05-3.36,4.7-4.32,5-4.79.99-1.56.77-1.97,2.12-4.78.72-1.5,1.76-3.68,3.04-5.22.54-.65,1.57-1.74,3.36-2.72-.18-.01-.35-.02-.53,0-.56.04-1.22.23-2.25,1.02-1.86,1.43-2.78,3.17-3.86,5.26-2.59,5.01-2.55,4.96-2.58,5-1.63,2.59-2.6,2.58-8.28,7.58-3.18,2.8-5.08,4.75-5.59,4.37-.15-.11-.16-.4.11-1.33.87-3.05,2.25-4.82,2.25-4.82,1.75-2.23,3.22-4.66,5.02-6.84.28-.34,3.04-3.97,8.55-11.24,10.14-13.36,2.37-3.45,4.79-6.62,1.54-2.01,2.8-3.56,3.6-6.08.29-.91.55-1.79.62-2.62-.47,1.39-1.11,2.92-1.98,4.5-.78,1.4-1.48,2.4-2.56,3.86Z" style="fill: #f7a491;"/>
      <path d="m796.07,656.4c-.68.79.04-.02-6.09,7.79-8.92,11.38-8.31,10.37-10.31,13.09-.89,1.21-9.14,12.48-8.21,13.25.74.62,6.95-5.59,7.81-6.45,1.99-1.99,2.1-2.31,6.3-6.87,2.69-2.92,2.92-3.09,6.16-6.6,3.52-3.82,5.3-5.75,6.12-6.97.91-1.34,2-3.24,2.93-5.77-.99.6-1.57,1.64-2.2,2.65-1.66,2.69-3.97,4.91-5.81,7.48-.83,1.16-3.61,4.09-9.13,9.9-7.54,7.94-8.82,9.21-9.03,9.04-.32-.26,2.12-3.79,3.73-6.13,2.43-3.52,4.15-5.65,6.6-8.79,7.58-9.72,6-8.41,8.18-10.74,2.63-2.81,4.65-6.14,7.11-9.11.39-.47,1.37-1.64,1.27-3.14-.01-.22-.05-.43-.11-.64-.4.98-.92,2.05-1.58,3.15-1.19,1.98-2.3,3.15-3.76,4.85Z" style="fill: #f7a491;"/>
      <path d="m763.45,676.47c1.06-3.97,11.49-17.13,13.68-19.41,1.93-2,3.91-3.71,7.04-7.41,2.1-2.48,3.36-4.27,3-6.27-.05-.29-.14-.58-.26-.88-.3,1.35-.83,2.91-1.76,4.48-.57.96-1.11,1.62-2.83,3.49-3.76,4.07-4.81,4.86-6.95,7.23-1.26,1.4-2.5,3.03-4.97,6.3-2.48,3.27-3.75,4.95-5.07,7.16-.73,1.21-.28.58-3.04,5.68-1.91,3.54-2.37,4.3-2.11,4.55.58.56,4.16-2.03,6.78-4.45.89-.82,1.91-1.84,5.61-6.43,4.19-5.19,3.97-5.21,6.18-7.75,2.52-2.89,5.34-5.76,6.16-6.6,1.33-1.35,2.61-2.62,4.36-4.66,1.5-1.76,2.03-2.56,2.55-3.17,1.01-1.18,2.7-2.45,5.66-3.26-1.38-.18-2.65.25-3.33.62-1.79.96-3.8,2.89-6.25,5.87-3.46,4.22-3.07,2.79-8.9,9.45-1.35,1.54-3.1,3.54-5.34,6.34-1.35,1.68-3.37,3.99-7.42,8.6-1.09,1.24-2.39,2.7-2.87,2.43-.38-.22-.06-1.44.07-1.92Z" style="fill: #f7a491;"/>
      <path d="m772.12,648.04c-4.39,4.17-3.84,3.27-6.1,5.6-.74.77-2.46,2.57-7.05,8.33-3.97,4.98-4.29,5.65-7.12,9.06-3.2,3.86-6.86,7.92-7.29,7.59-.22-.17.9-1.54,1.51-4.13.15-.61.8-2.69,1.11-5.05-7.8,12.72-9.42,16.16-9.05,16.42.29.2,1.62-1.62,5.8-5.3,2.47-2.17,3.01-2.42,4.68-4.03,1.59-1.53,2.73-2.87,4.89-5.61,4.33-5.5,5.3-7.16,8.12-10.69,3.12-3.92,5.53-6.44,6.06-7,.9-.95,3.21-3.35,6.42-6.2,1.85-1.64,2.83-2.52,4.25-3.56,1.89-1.39,3.69-2.44,5.28-3.25-.85.08-1.88.48-3.28,1.24-3.39,1.85-5.37,3.88-8.22,6.58Z" style="fill: #f7a491;"/>
      <path d="m779.96,642.64c-.29.51-.38.88-.29,1.23.14.55.67.84,2.09,1.53,1.52.74,2.27,1.11,2.41,1.13.98.1,2.06-.69,3.05-2.04.04-.37.03-.74-.03-1.12-.2-1.14-.95-2.44-2.16-2.95-.91-.39-1.94-.27-3.5.45-.6.5-1.17,1.09-1.56,1.78Z" style="fill: #f7a491;"/>
      <path d="m795.32,645.88c-.92,1.13-1.78,2.2-1.5,3.21.09.32.37.59.92,1.12,1.36,1.31,2.39,2.32,3.34,2.07.21-.06.58-.39,1.31-1.05.37-.34.54-.52,1.08-1.05,1.44-1.43,1.5-1.42,1.57-1.64.36-1.15-1.07-2.53-1.38-2.82-.27-.26-2.03-1.94-3.7-1.37-.54.18-.9.63-1.63,1.54Z" style="fill: #f7a491;"/>
      <path d="m801.56,658.03c-1.05,1.33-1.34,2.09-1.46,2.54-.17.59-.13.87-.1,1.02.1.5.39.8.82,1.23.96.95,1.94,1.3,2.27,1.4.45.14.68.21.99.16.51-.08.85-.41,1.51-1.22,1.05-1.28,1.58-1.91,1.64-2.37.15-1.02-.41-1.85-.61-2.16-.92-1.38-2.86-2.32-4.06-1.71-.19.1-.46.43-.99,1.1Z" style="fill: #f7a491;"/>
    </g>
    <path d="m462.34,808.69c1.07,3.58-.45,8.21-2.53,17.26-4.1,17.86-7.33,18.98-18.94,48.47-3.05,7.75-4.15,11.02-7.58,12.62-5.73,2.66-11.89-2.2-24.62-8.63-3.25-1.64,5.77,3.03-25.25-10.62-25.1-11.04-37.74-16.63-42.3-19.92-6.52-4.7-16.91-12.35-25.25-26.56-9.59-16.33-10.88-31.79-11.36-38.51-.98-13.51-2.15-29.77,7.58-41.83,10.15-12.59,26.58-14.55,31.57-13.94,30.76,3.72,50.42,22.33,85.87,49.8,13.48,10.45,30.16,22.96,32.83,31.87Z" style="fill: #f92572;"/>
  </g>
</svg>