<?xml version="1.0" encoding="utf-8"?>
<!-- Generator: Adobe Illustrator 27.2.0, SVG Export Plug-In . SVG Version: 6.00 Build 0)  -->
<svg version="1.1" id="Layer_1" xmlns="http://www.w3.org/2000/svg" xmlns:xlink="http://www.w3.org/1999/xlink" x="0px" y="0px"
	 viewBox="0 0 29.2 29.8" style="enable-background:new 0 0 29.2 29.8;" xml:space="preserve">
<style type="text/css">
	.st0{fill:#ED1D74;}
	.st1{fill:#FFFFFF;}
</style>
<path class="st0" d="M4.8,0.9h20c2.2,0,4,1.8,4,4v20c0,2.2-1.8,4-4,4h-20c-2.2,0-4-1.8-4-4v-20C0.8,2.7,2.6,0.9,4.8,0.9z"/>
<path class="st1" d="M14.8,10.1c-2.3,0.4-3.7,1.3-4.7,2c-0.1,0.5-0.2,1-0.2,1.5c0,3.4,2.9,6.1,6.4,6.1c0.6,0,1.1-0.1,1.5-0.2
	c1.1-1.3,1.9-3.6,2.1-5.4c0.2-2,0.7-2.5,1.2-3c0.2-0.1,0.4-0.2,0.6-0.3c-0.6-1.3-1.7-2.4-3-3c0,0,0,0,0,0.1
	C19,9.1,17.7,9.6,14.8,10.1z M22.7,12c0-0.1-0.1-0.1-0.1-0.1c-0.4-1.1-1.4-0.4-1.7,0.2c-0.5,1.2-0.4,1.7-0.6,2.9s-0.9,3.5-2,4.7
	c-1.5,1.7-3.2,2.5-5.4,2.3c-2.3-0.2-4.1-2.2-4.7-3.6c-0.6-1.2-0.6-2.5,0-4.3s2.6-3.2,4.4-3.9s3.2-0.8,4.2-1.1c1-0.3,1.5-0.8,1.5-1.2
	c-0.1-0.5-0.6-0.8-0.8-0.9c-0.8-0.3-1.8-0.4-2.7-0.4c-4.7,0.1-8.5,3.8-8.5,8.4s3.8,8.2,8.4,8.2s8.4-3.7,8.4-8.2
	C23.2,13.9,23,12.9,22.7,12z"/>
</svg>
