<?xml version="1.0" encoding="utf-8"?>
<!-- Generator: Adobe Illustrator 27.3.1, SVG Export Plug-In . SVG Version: 6.00 Build 0)  -->
<svg version="1.1" id="Layer_1" xmlns="http://www.w3.org/2000/svg" xmlns:xlink="http://www.w3.org/1999/xlink" x="0px" y="0px"
	 viewBox="0 0 28 28" style="enable-background:new 0 0 28 28;" xml:space="preserve">
<style type="text/css">
	.st0{fill:#ED1D74;}
	.st1{fill:#FFFFFF;}
</style>
<path class="st0" d="M4,0h20c2.2,0,4,1.8,4,4v20c0,2.2-1.8,4-4,4H4c-2.2,0-4-1.8-4-4V4C0,1.8,1.8,0,4,0z"/>
<path class="st1" d="M14,9.2c-2.3,0.4-3.7,1.3-4.7,2c-0.1,0.5-0.2,1-0.2,1.5c0,3.4,2.9,6.1,6.4,6.1c0.6,0,1.1-0.1,1.5-0.2
	c1.1-1.3,1.9-3.6,2.1-5.4c0.2-2,0.7-2.5,1.2-3c0.2-0.1,0.4-0.2,0.6-0.3c-0.6-1.3-1.7-2.4-3-3c0,0,0,0,0,0.1
	C18.2,8.2,16.9,8.7,14,9.2z M21.9,11.1c0-0.1-0.1-0.1-0.1-0.1c-0.4-1.1-1.4-0.4-1.7,0.2c-0.5,1.2-0.4,1.7-0.6,2.9s-0.9,3.5-2,4.7
	c-1.5,1.7-3.2,2.5-5.4,2.3c-2.3-0.2-4.1-2.2-4.7-3.6c-0.6-1.2-0.6-2.5,0-4.3S10,10,11.8,9.3S15,8.5,16,8.2c1-0.3,1.5-0.8,1.5-1.2
	c-0.1-0.5-0.6-0.8-0.8-0.9c-0.8-0.3-1.8-0.4-2.7-0.4c-4.7,0.1-8.5,3.8-8.5,8.4s3.8,8.2,8.4,8.2s8.4-3.7,8.4-8.2
	C22.4,13,22.2,12,21.9,11.1z"/>
</svg>
