<?xml version="1.0" encoding="utf-8"?>
<!-- Generator: Adobe Illustrator 27.3.1, SVG Export Plug-In . SVG Version: 6.00 Build 0)  -->
<svg version="1.1" id="Layer_1" xmlns="http://www.w3.org/2000/svg" xmlns:xlink="http://www.w3.org/1999/xlink" x="0px" y="0px"
	 viewBox="0 0 28 28" style="enable-background:new 0 0 28 28;" xml:space="preserve">
<style type="text/css">
	.st0{fill:#FF0073;}
	.st1{fill:#FFFFFF;}
</style>
<g>
	<path class="st0" d="M4,0h20c2.2,0,4,1.8,4,4v20c0,2.2-1.8,4-4,4H4c-2.2,0-4-1.8-4-4V4C0,1.8,1.8,0,4,0z"/>
	<polygon class="st1" points="22.3,4.3 5.6,4.3 6,8.3 14,8.3 6.2,11.3 6.6,15.3 17.5,15.3 17.1,19.3 14,20.3 10.8,19.3 10.5,17.3 
		6.8,17.3 7.2,22.3 14,24.3 20.7,22.3 21.7,11.3 14,11.3 22,8.3 	"/>
</g>
</svg>
