<?xml version="1.0" encoding="utf-8"?>
<!-- Generator: Adobe Illustrator 27.2.0, SVG Export Plug-In . SVG Version: 6.00 Build 0)  -->
<svg version="1.1" id="Layer_1" xmlns="http://www.w3.org/2000/svg" xmlns:xlink="http://www.w3.org/1999/xlink" x="0px" y="0px"
	 viewBox="0 0 29 29.2" style="enable-background:new 0 0 29 29.2;" xml:space="preserve">
<style type="text/css">
	.st0{fill:#FF0073;}
	.st1{fill:#FFFFFF;}
</style>
<g>
	<path class="st0" d="M4.6,0.6h20c2.2,0,4,1.8,4,4v20c0,2.2-1.8,4-4,4h-20c-2.2,0-4-1.8-4-4v-20C0.6,2.4,2.4,0.6,4.6,0.6z"/>
	<polygon class="st1" points="22.9,4.9 6.2,4.9 6.6,8.9 14.6,8.9 6.8,11.9 7.2,15.9 18.1,15.9 17.7,19.9 14.6,20.9 11.4,19.9 
		11.1,17.9 7.4,17.9 7.8,22.9 14.6,24.9 21.3,22.9 22.3,11.9 14.6,11.9 22.6,8.9 	"/>
</g>
</svg>
