<?xml version="1.0" encoding="utf-8"?>
<!-- Generator: Adobe Illustrator 27.3.1, SVG Export Plug-In . SVG Version: 6.00 Build 0)  -->
<svg version="1.1"
	 id="Layer_1" text-rendering="geometricPrecision" image-rendering="optimizeQuality" shape-rendering="geometricPrecision"
	 xmlns="http://www.w3.org/2000/svg" xmlns:xlink="http://www.w3.org/1999/xlink" x="0px" y="0px" viewBox="0 0 28 28"
	 style="enable-background:new 0 0 28 28;" xml:space="preserve">
<style type="text/css">
	.st0{fill:#FF0073;}
	.st1{fill-rule:evenodd;clip-rule:evenodd;fill:#F9F9F9;}
</style>
<g>
	<path class="st0" d="M4,0h20c2.2,0,4,1.8,4,4v20c0,2.2-1.8,4-4,4H4c-2.2,0-4-1.8-4-4V4C0,1.8,1.8,0,4,0z"/>
	<path class="st1" d="M14,3.2c-6.1,0-11.1,5-11.1,11.1c0,4.9,3.2,9.1,7.6,10.5c0.5,0.1,0.8-0.3,0.8-0.5c0-0.3,0-1.1,0-2.1
		c-3.1,0.7-3.7-1.3-3.7-1.3c-0.5-1.3-1.2-1.6-1.2-1.6c-1-0.7,0.1-0.7,0.1-0.7c1,0,1.5,1.1,1.5,1.1c1,1.7,2.6,1.2,3.2,0.9
		c0.1-0.7,0.4-1.2,0.7-1.5c-2.4-0.3-5.1-1.2-5.1-5.5c0-1.2,0.4-2.2,1.1-3c0-0.3-0.4-1.3,0.3-2.9c0,0,0.9-0.3,3,1.1
		C12.1,8.5,13,8.4,14,8.4c0.9,0,1.9,0.1,2.8,0.4c2.1-1.4,3-1.1,3-1.1c0.6,1.5,0.2,2.7,0.1,2.9c0.7,0.8,1.1,1.8,1.1,3
		c0,4.3-2.6,5.2-5.1,5.5c0.4,0.3,0.8,1,0.8,2.1c0,1.5,0,2.7,0,3s0.2,0.6,0.8,0.5c4.4-1.5,7.6-5.6,7.6-10.5C25.1,8.1,20.1,3.2,14,3.2
		L14,3.2L14,3.2z"/>
</g>
</svg>
