<?xml version="1.0" encoding="utf-8"?>
<!-- Generator: Adobe Illustrator 27.2.0, SVG Export Plug-In . SVG Version: 6.00 Build 0)  -->
<svg version="1.1"
	 id="Layer_1" image-rendering="optimizeQuality" text-rendering="geometricPrecision" shape-rendering="geometricPrecision"
	 xmlns="http://www.w3.org/2000/svg" xmlns:xlink="http://www.w3.org/1999/xlink" x="0px" y="0px" viewBox="0 0 28.6 28.5"
	 style="enable-background:new 0 0 28.6 28.5;" xml:space="preserve">
<style type="text/css">
	.st0{fill:#FF0073;}
	.st1{fill-rule:evenodd;clip-rule:evenodd;fill:#F9F9F9;}
</style>
<g>
	<path class="st0" d="M4.3,0.3h20c2.2,0,4,1.8,4,4v20c0,2.2-1.8,4-4,4h-20c-2.2,0-4-1.8-4-4v-20C0.3,2.1,2.1,0.3,4.3,0.3z"/>
	<path class="st1" d="M14.3,3.5c-6.1,0-11.1,5-11.1,11.1c0,4.9,3.2,9.1,7.6,10.5c0.5,0.1,0.8-0.3,0.8-0.5c0-0.3,0-1.1,0-2.1
		c-3.1,0.7-3.7-1.3-3.7-1.3c-0.5-1.3-1.2-1.6-1.2-1.6c-1-0.7,0.1-0.7,0.1-0.7C7.8,18.9,8.3,20,8.3,20c1,1.7,2.6,1.2,3.2,0.9
		c0.1-0.7,0.4-1.2,0.7-1.5c-2.4-0.3-5.1-1.2-5.1-5.5c0-1.2,0.4-2.2,1.1-3C8.2,10.6,7.8,9.6,8.5,8c0,0,0.9-0.3,3,1.1
		c0.9-0.3,1.8-0.4,2.8-0.4c0.9,0,1.9,0.1,2.8,0.4c2.1-1.4,3-1.1,3-1.1c0.6,1.5,0.2,2.7,0.1,2.9c0.7,0.8,1.1,1.8,1.1,3
		c0,4.3-2.6,5.2-5.1,5.5c0.4,0.3,0.8,1,0.8,2.1c0,1.5,0,2.7,0,3c0,0.3,0.2,0.6,0.8,0.5c4.4-1.5,7.6-5.6,7.6-10.5
		C25.4,8.4,20.4,3.5,14.3,3.5L14.3,3.5L14.3,3.5z"/>
</g>
</svg>
