<?xml version="1.0" encoding="utf-8"?>
<!-- Generator: Adobe Illustrator 27.2.0, SVG Export Plug-In . SVG Version: 6.00 Build 0)  -->
<svg version="1.1" id="Layer_1" xmlns="http://www.w3.org/2000/svg" xmlns:xlink="http://www.w3.org/1999/xlink" x="0px" y="0px"
	 viewBox="0 0 29.1 28.9" style="enable-background:new 0 0 29.1 28.9;" xml:space="preserve">
<style type="text/css">
	.st0{fill:#FF0073;}
	.st1{fill:#FFFFFF;}
</style>
<g>
	<path class="st0" d="M4.6,0.4h20c2.2,0,4,1.8,4,4v20c0,2.2-1.8,4-4,4h-20c-2.2,0-4-1.8-4-4v-20C0.6,2.2,2.4,0.4,4.6,0.4z"/>
	<polygon class="st1" points="23,4.4 6.3,4.4 6.7,8.4 7.3,15.4 18.2,15.4 17.8,19.4 14.7,20.4 11.5,19.4 11.3,17.4 7.5,17.4 
		7.9,22.4 14.7,24.4 21.4,22.4 22.4,11.4 10.9,11.4 10.7,8.4 22.7,8.4 	"/>
</g>
</svg>
