<?xml version="1.0" encoding="UTF-8"?>
<svg id="Layer_1" data-name="Layer 1" xmlns="http://www.w3.org/2000/svg" viewBox="0 0 78.32 78.32">
  <g id="Ai">
    <rect width="78.32" height="78.32" rx="14.83" ry="14.83" style="fill: #2e1110;"/>
    <g>
      <path d="m26.85,46.17l-2.68,8.03c-.1.29-.24.39-.54.39h-4.87c-.29,0-.39-.15-.34-.49l10.02-28.51c.19-.49.34-.97.44-2.63,0-.19.1-.34.29-.34h6.76c.24,0,.29.05.34.29l11.24,31.24c.05.29,0,.44-.29.44h-5.45c-.24,0-.39-.1-.49-.29l-2.82-8.13h-11.63Zm10.07-5.3c-1.02-3.21-3.31-9.97-4.28-13.38h-.05c-.78,3.26-2.72,8.95-4.18,13.38h8.51Z" style="fill: #eda920;"/>
      <path d="m50.74,23.98c0-1.99,1.41-3.36,3.36-3.36,2.09,0,3.31,1.41,3.31,3.36s-1.31,3.36-3.36,3.36-3.31-1.36-3.31-3.36Zm.34,6.96c0-.24.15-.34.39-.34h5.16c.29,0,.39.05.39.34v23.26c0,.29-.1.39-.44.39h-5.01c-.34,0-.49-.15-.49-.44v-23.21Z" style="fill: #eda920;"/>
    </g>
  </g>
</svg>