<?xml version="1.0" encoding="UTF-8"?>
<svg id="Layer_1" data-name="Layer 1" xmlns="http://www.w3.org/2000/svg" viewBox="0 0 143.39 143.39">
  <g id="Id">
    <rect width="143.39" height="143.39" rx="27.15" ry="27.15" style="fill: #451020;"/>
    <g>
      <path d="m53.12,99.12c0,.62-.18.8-.71.8h-9.35c-.53,0-.71-.27-.71-.8v-57c0-.62.27-.71.71-.71h9.35c.53,0,.71.18.71.71v57Z" style="fill: #ee2163;"/>
      <path d="m62.12,78.37c0-12.91,9.62-23.25,25.3-23.25,1.25,0,2.32.09,3.83.27v-18.26c0-.45.18-.62.53-.62h9.71c.45,0,.45.18.45.53v53.8c0,1.78.18,4.1.36,5.7,0,.45-.09.62-.53.8-5.79,2.49-11.49,3.47-16.83,3.47-12.91,0-22.8-7.48-22.8-22.45Zm29.13-13.63c-1.16-.45-2.58-.62-4.19-.62-7.93,0-13.89,5.08-13.89,13.72,0,9.71,5.79,13.72,12.91,13.72,1.78,0,3.56-.18,5.17-.71v-26.1Z" style="fill: #ee2163;"/>
    </g>
  </g>
</svg>