<?xml version="1.0" encoding="UTF-8"?>
<svg id="Layer_1" data-name="Layer 1" xmlns="http://www.w3.org/2000/svg" viewBox="0 0 143.39 143.39">
  <g id="Au">
    <rect width="143.39" height="143.39" rx="27.15" ry="27.15" style="fill: #211b5a;"/>
    <g>
      <path d="m36.96,84.52l-4.9,14.7c-.18.53-.45.71-.98.71h-8.91c-.53,0-.71-.27-.62-.89l18.35-52.2c.36-.89.62-1.78.8-4.81,0-.36.18-.62.53-.62h12.38c.45,0,.53.09.62.53l20.58,57.18c.09.53,0,.8-.53.8h-9.98c-.45,0-.71-.18-.89-.53l-5.17-14.88h-21.29Zm18.44-9.71c-1.87-5.88-6.06-18.26-7.84-24.49h-.09c-1.43,5.97-4.99,16.39-7.66,24.49h15.59Z" style="fill: #958ec4;"/>
      <path d="m116.5,90.13c0,4.63.36,7.3.53,9.17.09.45-.18.62-.71.62h-8.19c-.62,0-.8-.18-.89-.53-.27-.89-.53-2.23-.62-3.12-3.83,3.56-8.37,4.54-12.38,4.54-8.46,0-14.96-4.54-14.96-17.01v-27.17c0-.53.18-.62.71-.62h9.35c.53,0,.62.18.62.62v25.92c0,5.52,2.4,8.91,7.75,8.91,3.38,0,5.88-1.16,8.11-3.21v-31.62c0-.45.18-.62.71-.62h9.35c.53,0,.62.18.62.62v33.49Z" style="fill: #958ec4;"/>
    </g>
  </g>
</svg>