<?xml version="1.0" encoding="utf-8"?>
<!-- Generator: Adobe Illustrator 27.3.1, SVG Export Plug-In . SVG Version: 6.00 Build 0)  -->
<svg version="1.1" id="Layer_1" xmlns="http://www.w3.org/2000/svg" xmlns:xlink="http://www.w3.org/1999/xlink" x="0px" y="0px"
	 viewBox="0 0 1159.8 1159.8" style="enable-background:new 0 0 1159.8 1159.8;" xml:space="preserve">
<style type="text/css">
	.st0{fill:#FFFFFF;stroke:#000000;stroke-miterlimit:10;}
	.st1{fill-rule:evenodd;clip-rule:evenodd;fill:#0F8CC3;}
</style>
<circle class="st0" cx="584.1" cy="576.4" r="562.2"/>
<path class="st1" d="M1015.9,341.6c2.1,15.8,3.3,32.8,3.3,51.1c0,50.4-9.4,107.1-37.8,178l-151.8,438.8
	c147.7-86.2,247.1-246.2,247.1-429.5C1076.8,493.7,1054.7,412.4,1015.9,341.6L1015.9,341.6L1015.9,341.6z M588.6,623.5l-149.1,433.2
	c44.5,13.1,91.6,20.3,140.4,20.3c57.9,0,113.4-10,165-28.2c-1.3-2.1-2.6-4.4-3.5-6.8L588.6,623.5L588.6,623.5L588.6,623.5z
	 M915.4,555c0,42.5-6.7,71.7-28.2,140.4L828,881.2L648.4,347c29.9-1.6,56.9-4.7,56.9-4.7c26.8-3.2,23.6-48.9-3.2-47.4
	c0,0-80.5,6.3-132.4,6.3c-48.8,0-130.9-6.3-130.9-6.3c-26.8-1.6-29.9,45.8-3.1,47.4c0,0,25.4,3.2,52.1,4.7l76,208.2l-2,6.2
	L454.1,878.2L275.5,347c30-1.6,56.9-4.7,56.9-4.7c26.8-3.2,23.6-49-3.2-47.4c0,0-80.5,6.3-132.4,6.3c-9.3,0-20.3-0.2-32-0.6
	C247,165,406.3,83.1,579.9,83.1c129.4,0,247.2,49.4,335.6,130.4c-51.2-2.8-89.9,37.5-89.9,87.8c0,40.9,23.6,75.6,48.8,116.5
	C893.3,451,915.4,493.5,915.4,555L915.4,555L915.4,555z M83,580c0,196.7,114.3,366.7,280.1,447.2L126,377.8
	C98.5,439.6,83,508,83,580L83,580L83,580z M579.9,41.4c297.4,0,538.5,241.1,538.5,538.5s-241.1,538.5-538.5,538.5
	S41.4,877.3,41.4,579.9S282.5,41.4,579.9,41.4L579.9,41.4z M579.9,0c320.3,0,579.9,259.6,579.9,579.9s-259.6,579.9-579.9,579.9
	S0,900.2,0,579.9S259.6,0,579.9,0z"/>
</svg>
