<?xml version="1.0" encoding="UTF-8"?>
<svg id="Layer_1" data-name="Layer 1" xmlns="http://www.w3.org/2000/svg" viewBox="0 0 143.39 135">
  <g id="Ps">
    <rect width="143.39" height="135" rx="26.34" ry="26.34" style="fill: #071e32;"/>
    <g>
      <path d="m34.33,39.74c0-.42.18-.67.62-.67,3.38-.08,9.98-.25,16.48-.25,17.28,0,23.69,9.06,23.69,18.28,0,13.33-10.96,19.12-24.4,19.12h-5.61v17.19c0,.42-.18.67-.71.67h-9.35c-.45,0-.71-.17-.71-.59v-53.75Zm10.78,27.51c1.51.08,2.67.08,5.61.08,7.48,0,13.81-2.35,13.81-9.98,0-6.12-4.63-9.73-12.83-9.73-3.12,0-5.61.08-6.59.17v19.46Z" style="fill: #49a0d8;"/>
      <path d="m98.99,60.03c-4.72,0-6.32,1.84-6.32,3.61s1.34,3.1,7.04,5.2c10.15,3.52,13.63,7.3,13.63,13.25,0,7.88-6.59,12.83-17.55,12.83-5.25,0-9.89-.92-12.56-2.35-.45-.25-.62-.42-.62-.92v-7.97c0-.42.36-.59.71-.42,3.83,2.35,8.73,3.35,12.74,3.35,4.63,0,6.86-1.51,6.86-3.69s-1.69-3.44-7.21-5.53c-9.71-3.35-13.18-7.13-13.18-13.17,0-6.37,5.52-12.33,16.66-12.33,5.17,0,9.08.67,11.22,1.68.45.25.53.59.53,1.01v7.38c0,.42-.27.67-.8.5-2.76-1.43-7.21-2.43-11.13-2.43Z" style="fill: #49a0d8;"/>
    </g>
  </g>
</svg>