<?xml version="1.0" encoding="utf-8"?>
<!-- Generator: Adobe Illustrator 27.3.1, SVG Export Plug-In . SVG Version: 6.00 Build 0)  -->
<svg version="1.1"
	 id="svg3430" xmlns:cc="http://creativecommons.org/ns#" xmlns:svg="http://www.w3.org/2000/svg" xmlns:dc="http://purl.org/dc/elements/1.1/" xmlns:rdf="http://www.w3.org/1999/02/22-rdf-syntax-ns#"
	 xmlns="http://www.w3.org/2000/svg" xmlns:xlink="http://www.w3.org/1999/xlink" x="0px" y="0px" viewBox="0 0 648.5 446"
	 style="enable-background:new 0 0 648.5 446;" xml:space="preserve">
<style type="text/css">
	.st0{fill:#7475AB;}
	.st1{fill:#777BB3;}
	.st2{clip-path:url(#SVGID_00000115493212581138074460000006395824707106423192_);}
	.st3{fill:#FFFFFF;}
</style>
<path class="st0" d="M16.6,0h615.3c9.2,0,16.6,7.6,16.6,16.9v412.2c0,9.4-7.4,16.9-16.6,16.9H16.6C7.4,446,0,438.4,0,429.1V16.9
	C0,7.6,7.4,0,16.6,0z"/>
<g id="g3438" transform="matrix(1.25,0,0,-1.25,-4.4,394.29875)">
	<polygon class="st1" points="3.5,315.4 522.3,315.4 522.3,315.4 	"/>
	<g id="g3476">
		<g>
			<g>
				<g>
					<g>
						<defs>
							<rect id="SVGID_1_" x="-455.4" y="-285.6" width="1406.2" height="791"/>
						</defs>
						<clipPath id="SVGID_00000119108849178465339830000003649090808289464483_">
							<use xlink:href="#SVGID_1_"  style="overflow:visible;"/>
						</clipPath>
						<g id="g3478" style="clip-path:url(#SVGID_00000119108849178465339830000003649090808289464483_);">
							<g id="g3484" transform="translate(161.7344,145.3066)">
								<path id="path3486" class="st3" d="M-34.7-34.9c12.1,0,21.1,2.2,26.8,6.6C-2.3-24,1.6-16.4,3.7-5.9
									c1.9,9.8,1.2,16.7-2.2,20.3c-3.4,3.8-10.8,5.7-21.9,5.7h-19.3l-10.7-55C-50.4-34.9-34.7-34.9-34.7-34.9z M-97.7-102.6
									c-0.9,0-1.7,0.4-2.3,1.1c-0.6,0.7-0.8,1.6-0.6,2.5l28.3,145.8c0.3,1.4,1.5,2.4,2.9,2.4h61c19.2,0,33.5-5.2,42.4-15.5
									c9-10.3,11.8-24.8,8.3-42.9c-1.4-7.4-3.9-14.3-7.3-20.4c-3.4-6.2-8-11.8-13.5-16.9C14.9-52.8,7.4-57.3-0.7-59.9
									c-8-2.6-18.3-3.9-30.5-3.9H-56l-7-36.4c-0.3-1.4-1.5-2.4-2.9-2.4C-65.9-102.6-97.7-102.6-97.7-102.6z"/>
							</g>
							<g id="g3488" transform="translate(159.2236,197.3071)">
								<path id="path3490" class="st3" d="M-34.7-34.9h16.8c13.4,0,18.1-2.9,19.7-4.7c2.6-2.9,3.1-9.1,1.4-17.8
									C1.3-67.1-2.2-74-7.2-77.9c-5.2-4-13.6-6-24.9-6h-12L-34.7-34.9z M-5.8,0.1h-61.1c-2.9,0-5.3-2-5.9-4.9l-28.3-145.8
									c-0.3-1.8,0.1-3.6,1.3-5c1.1-1.4,2.8-2.2,4.6-2.2h31.8c2.9,0,5.3,2,5.9,4.9l6.6,33.9h22.2c12.6,0,23.2,1.4,31.5,4.1
									c8.5,2.8,16.4,7.5,23.4,14c5.8,5.3,10.5,11.2,14.1,17.7c3.6,6.4,6.2,13.6,7.7,21.3c3.7,19.1,0.7,34.4-9,45.5
									C29.3-5.4,14.2,0.1-5.8,0.1 M-51.5-89.9h19.3c12.8,0,22.3,2.4,28.6,7.2C2.7-77.9,6.9-69.8,9.1-58.5
									c2.1,10.8,1.1,18.5-2.9,22.9c-4,4.5-12.1,6.7-24.1,6.7h-21.8L-51.5-89.9 M-5.8-5.9c18.4,0,31.8-4.8,40.2-14.5
									c8.4-9.6,11-23.1,7.6-40.4c-1.4-7.1-3.7-13.6-7-19.5c-3.4-5.8-7.7-11.2-13-16.1c-6.3-5.9-13.4-10.2-21.1-12.7
									c-7.8-2.5-17.6-3.8-29.6-3.8h-27.2l-7.5-38.8h-31.8L-66.9-5.9H-5.8"/>
							</g>
							<g id="g3492" transform="translate(311.583,116.3066)">
								<path id="path3494" class="st3" d="M-34.7-34.9c-0.9,0-1.7,0.4-2.3,1.1s-0.8,1.6-0.6,2.5l12.5,64.5
									c1.2,6.1,0.9,10.5-0.8,12.4c-1.1,1.1-4.2,3-13.6,3h-22.7l-15.8-81c-0.3-1.4-1.5-2.4-2.9-2.4h-31.5c-0.9,0-1.7,0.4-2.3,1.1
									c-0.6,0.7-0.8,1.6-0.6,2.5L-87,114.5c0.3,1.4,1.5,2.4,2.9,2.4h31.5c0.9,0,1.7-0.4,2.3-1.1s0.8-1.6,0.6-2.5l-6.8-35.2h24.4
									c18.6,0,31.2-3.3,38.6-10c7.5-6.9,9.8-17.9,6.9-32.7L0.3-32.4c-0.3-1.4-1.5-2.4-2.9-2.4L-34.7-34.9
									C-34.7-34.8-34.7-34.9-34.7-34.9z"/>
							</g>
							<g id="g3496" transform="translate(293.6611,271.0571)">
								<path id="path3498" class="st3" d="M-34.7-34.9h-31.5c-2.9,0-5.3-2-5.9-4.9l-28.3-145.8c-0.3-1.8,0.1-3.6,1.3-5
									s2.8-2.2,4.6-2.2H-63c2.9,0,5.3,2,5.9,4.9l15.3,78.8h20.2c9.4,0,11.3-2,11.4-2.1c0.6-0.6,1.3-3.4,0.1-9.8l-12.5-64.5
									c-0.3-1.8,0.1-3.6,1.3-5c1.2-1.4,2.8-2.2,4.6-2.2h32c2.9,0,5.3,2,5.9,4.9L34.4-120c3.1,15.9,0.4,27.9-7.9,35.5
									c-8,7.4-21.3,10.9-40.6,10.9h-20.8l6.1,31.6c0.3,1.8-0.1,3.6-1.3,5C-31.2-35.7-32.9-34.9-34.7-34.9 M-34.7-40.9l-7.5-38.8
									h28.1c17.7,0,29.8-3.1,36.5-9.2c6.7-6.2,8.7-16.1,6-29.9l-13.2-67.8h-32l12.6,64.5c1.4,7.3,0.9,12.3-1.6,15s-7.7,4-15.8,4
									h-25.2L-63-186.6h-31.5l28.3,145.7H-34.7"/>
							</g>
							<g id="g3500" transform="translate(409.5498,145.3066)">
								<path id="path3502" class="st3" d="M-34.7-34.9c12.1,0,21.1,2.2,26.8,6.6C-2.3-24,1.6-16.4,3.7-5.9
									c1.9,9.8,1.2,16.7-2.2,20.3c-3.4,3.8-10.8,5.7-21.9,5.7h-19.3l-10.7-55C-50.4-34.9-34.7-34.9-34.7-34.9z M-97.7-102.6
									c-0.9,0-1.7,0.4-2.3,1.1c-0.6,0.7-0.8,1.6-0.6,2.5l28.3,145.8c0.3,1.4,1.5,2.4,2.9,2.4h61c19.2,0,33.5-5.2,42.4-15.5
									c9-10.3,11.8-24.8,8.3-42.9c-1.4-7.4-3.9-14.3-7.3-20.4c-3.4-6.2-8-11.8-13.5-16.9C14.9-52.8,7.4-57.3-0.7-59.9
									c-8-2.6-18.3-3.9-30.5-3.9H-56l-7-36.4c-0.3-1.4-1.5-2.4-2.9-2.4C-65.9-102.6-97.7-102.6-97.7-102.6z"/>
							</g>
							<g id="g3504" transform="translate(407.0391,197.3071)">
								<path id="path3506" class="st3" d="M-34.7-34.9h16.8c13.4,0,18.1-2.9,19.7-4.7c2.6-2.9,3.1-9.1,1.4-17.8
									C1.3-67.1-2.2-74-7.2-77.9c-5.2-4-13.6-6-24.9-6h-12L-34.7-34.9z M-5.8,0.1h-61.1c-2.9,0-5.3-2-5.9-4.9l-28.3-145.8
									c-0.3-1.8,0.1-3.6,1.3-5c1.1-1.4,2.8-2.2,4.6-2.2h31.8c2.9,0,5.3,2,5.9,4.9l6.6,33.9h22.2c12.6,0,23.2,1.4,31.5,4.1
									c8.5,2.8,16.4,7.5,23.4,14c5.8,5.3,10.5,11.2,14.1,17.7c3.6,6.4,6.2,13.6,7.7,21.3c3.7,19.1,0.7,34.4-9,45.5
									C29.3-5.4,14.2,0.1-5.8,0.1 M-51.5-89.9h19.3c12.8,0,22.3,2.4,28.6,7.2C2.7-77.9,6.9-69.8,9.1-58.5
									c2.1,10.8,1.1,18.5-2.9,22.9c-4,4.5-12.1,6.7-24.1,6.7h-21.8L-51.5-89.9 M-5.8-5.9c18.4,0,31.8-4.8,40.2-14.5
									s11-23.1,7.6-40.4c-1.4-7.1-3.7-13.6-7-19.5c-3.4-5.8-7.7-11.2-13-16.1c-6.3-5.9-13.4-10.2-21.1-12.7
									c-7.8-2.5-17.6-3.8-29.6-3.8h-27.2l-7.5-38.8h-31.8L-66.9-5.9H-5.8"/>
							</g>
						</g>
					</g>
				</g>
			</g>
		</g>
	</g>
</g>
</svg>
