<?xml version="1.0" encoding="utf-8"?>
<!-- Generator: Adobe Illustrator 27.3.1, SVG Export Plug-In . SVG Version: 6.00 Build 0)  -->
<svg version="1.1" id="Layer_1" xmlns="http://www.w3.org/2000/svg" xmlns:xlink="http://www.w3.org/1999/xlink" x="0px" y="0px"
	 viewBox="0 0 143.4 142.2" style="enable-background:new 0 0 143.4 142.2;" xml:space="preserve">
<style type="text/css">
	.st0{fill:#00005B;}
	.st1{fill:#9999FF;}
</style>
<g>
	<path class="st0" d="M117.7,142.2h-92C11.5,142.2,0,130.5,0,116V26.2C0,11.7,11.5,0,25.7,0h92c14.2,0,25.7,11.7,25.7,26.2V116
		C143.4,130.5,131.9,142.2,117.7,142.2z"/>
	<g>
		<path class="st1" d="M47.1,38c2.3,0,4.7,0,7,0c1.1,0,1.1,0,1.4,1c7.1,20.1,14.1,40.3,21.2,60.4c0.1,0.1,0.1,0.3,0.1,0.5
			c0.1,0.6,0,0.8-0.7,0.9c-1.4,0-2.8,0-4.2,0c-2.5,0-5,0-7.5,0c-1.1,0-1.2-0.1-1.5-1.1c-1.5-4.4-3-8.8-4.4-13.2
			c-0.2-0.5-0.4-0.7-1-0.7c-6.8,0-13.7,0-20.5,0c-0.6,0-0.8,0.2-0.9,0.7c-1.4,4.4-2.7,8.7-4.1,13.1c-0.4,1.1-0.5,1.2-1.7,1.2
			c-3.3,0-6.7,0-10,0c-1.4,0-1.5-0.2-1.1-1.5c4.4-12.9,8.9-25.8,13.3-38.7c2-5.8,4-11.5,5.9-17.3c0.4-1.3,0.5-2.8,0.6-4.2
			c0.1-1,0.1-1,1-1C42.3,38,44.7,38,47.1,38z M39.8,73.7c4.9,0,9.8,0,14.8,0c-2.5-8.3-5.1-16.6-7.5-24.6
			C44.7,57.2,42.3,65.4,39.8,73.7z"/>
		<path class="st1" d="M119.7,78.5c0.6,0,2.6,0,2.6,0s0-5-0.1-6.6c-0.1-2.8-0.6-5.6-1.5-8.2c-1.4-4.1-4-7.6-7.7-9.7
			c-2-1.2-4.2-1.9-6.4-2.4c-8-1.5-16.8,0.5-21.9,7.4c-4,5.5-5.2,12.8-5.2,19.5c0,0,0,20.6,21.5,22.2c0,0,9.4,0.7,17.1-2.7V87.5
			c0,0-23.9,7.4-25.4-9.1c3.7,0,7.3,0,11,0C108.9,78.5,114.3,78.5,119.7,78.5z M101.4,60.7c4.8,0,8.8,4,8.8,8.9H92.6
			C92.6,64.7,96.5,60.7,101.4,60.7z"/>
	</g>
</g>
</svg>
