<?xml version="1.0" encoding="UTF-8"?>
<svg id="Layer_1" data-name="Layer 1" xmlns="http://www.w3.org/2000/svg" viewBox="0 0 143.39 143.39">
  <g id="Xd">
    <rect width="143.39" height="143.39" rx="27.15" ry="27.15" style="fill: #480436;"/>
    <g>
      <path d="m54.68,69.82l17.99,29.21c.36.45.09.8-.36.89h-10.96c-.71,0-1.07-.18-1.34-.71-4.28-7.3-8.64-14.7-13-22.36h-.09c-4.01,7.48-8.19,15.05-12.38,22.36-.27.53-.53.71-1.07.71h-10.42c-.62,0-.62-.53-.36-.89l17.46-28.5-17.1-28.32c-.27-.45,0-.8.45-.8h10.87c.53,0,.8.09,1.07.62,3.92,7.39,8.37,14.7,12.38,22.09h.09c3.92-7.39,8.11-14.7,12.2-22,.18-.45.45-.71,1.07-.71h9.98c.53,0,.62.36.36.89l-16.83,27.52Z" style="fill: #c45fa4;"/>
      <path d="m74.37,78.37c0-12.91,9.62-23.25,25.3-23.25,1.25,0,2.32.09,3.83.27v-18.26c0-.45.18-.62.53-.62h9.71c.45,0,.45.18.45.53v53.8c0,1.78.18,4.1.36,5.7,0,.45-.09.62-.53.8-5.79,2.49-11.49,3.47-16.83,3.47-12.91,0-22.8-7.48-22.8-22.45Zm29.13-13.63c-1.16-.45-2.58-.62-4.19-.62-7.93,0-13.89,5.08-13.89,13.72,0,9.71,5.79,13.72,12.91,13.72,1.78,0,3.56-.18,5.17-.71v-26.1Z" style="fill: #c45fa4;"/>
    </g>
  </g>
</svg>