<?xml version="1.0" encoding="UTF-8"?>
<svg id="Layer_1" data-name="Layer 1" xmlns="http://www.w3.org/2000/svg" viewBox="0 0 1159.83 1159.83">
  <path d="m1015.94,341.62c2.13,15.83,3.34,32.83,3.34,51.1,0,50.42-9.42,107.11-37.78,177.99l-151.78,438.84c147.73-86.15,247.09-246.2,247.09-429.52,0-86.38-22.06-167.62-60.87-238.4h0Zm-427.3,281.87l-149.09,433.21c44.51,13.11,91.59,20.26,140.37,20.26,57.87,0,113.36-10.02,165.01-28.17-1.35-2.12-2.56-4.38-3.54-6.84l-152.76-418.46h0Zm326.74-68.54c0,42.54-6.71,71.69-28.21,140.43l-59.19,185.83-179.57-534.17c29.9-1.57,56.87-4.74,56.87-4.74,26.76-3.17,23.62-48.94-3.19-47.36,0,0-80.46,6.31-132.43,6.31-48.83,0-130.89-6.31-130.89-6.31-26.78-1.58-29.92,45.8-3.14,47.36,0,0,25.35,3.17,52.11,4.74l76.03,208.25-1.97,6.19-107.74,316.76-178.59-531.2c29.95-1.57,56.89-4.74,56.89-4.74,26.75-3.17,23.59-48.95-3.2-47.37,0,0-80.46,6.3-132.44,6.31-9.32,0-20.31-.23-31.98-.58,82.27-135.64,241.58-217.55,415.18-217.55,129.36,0,247.15,49.45,335.57,130.44-51.18-2.82-89.88,37.48-89.88,87.8,0,40.93,23.6,75.59,48.78,116.53,18.93,33.1,40.99,75.63,40.99,137.05h0Zm-832.37,25.07c0,196.7,114.3,366.67,280.06,447.23L126.04,377.8c-27.57,61.8-43.02,130.19-43.02,202.23h0ZM579.92,41.4c297.41,0,538.52,241.11,538.52,538.52s-241.11,538.52-538.52,538.52S41.4,877.33,41.4,579.92,282.5,41.4,579.92,41.4h0Zm0-41.4c320.28,0,579.92,259.64,579.92,579.92s-259.64,579.92-579.92,579.92S0,900.19,0,579.92,259.64,0,579.92,0Z" style="fill: #0f8cc3; fill-rule: evenodd;"/>
</svg>