<?xml version="1.0" encoding="UTF-8"?>
<svg id="Layer_1" data-name="Layer 1" xmlns="http://www.w3.org/2000/svg" viewBox="0 0 143.39 143.39">
  <g id="Pr">
    <rect width="143.39" height="143.39" rx="27.15" ry="27.15" style="fill: #211b5a;"/>
    <g>
      <path d="m38.03,42.21c0-.45.18-.71.62-.71,3.38-.09,9.98-.27,16.48-.27,17.28,0,23.69,9.62,23.69,19.42,0,14.16-10.96,20.31-24.4,20.31h-5.61v18.26c0,.45-.18.71-.71.71h-9.35c-.45,0-.71-.18-.71-.62v-57.09Zm10.78,29.21c1.51.09,2.67.09,5.61.09,7.48,0,13.81-2.49,13.81-10.6,0-6.5-4.63-10.33-12.83-10.33-3.12,0-5.61.09-6.59.18v20.66Z" style="fill: #958ec4;"/>
      <path d="m95.03,56.01c.53,0,.8.18.98.71.45,1.16.8,3.38.89,5.34,3.03-3.74,8.11-6.95,14.25-6.95.53,0,.71.09.71.62v9.44c0,.45-.18.62-.8.62-6.32-.18-11.58,2.05-13.63,4.72v28.68c0,.53-.27.71-.8.71h-9.26c-.62,0-.8-.27-.8-.71v-30.73c0-3.83-.09-9-.45-11.94,0-.45.09-.53.53-.53h8.37Z" style="fill: #958ec4;"/>
    </g>
  </g>
</svg>