<?xml version="1.0" encoding="utf-8"?>
<!-- Generator: Adobe Illustrator 27.2.0, SVG Export Plug-In . SVG Version: 6.00 Build 0)  -->
<svg version="1.1" id="Layer_1" xmlns="http://www.w3.org/2000/svg" xmlns:xlink="http://www.w3.org/1999/xlink" x="0px" y="0px"
	 viewBox="0 0 143.4 143.4" style="enable-background:new 0 0 143.4 143.4;" xml:space="preserve">
<style type="text/css">
	.st0{fill:#00005B;}
	.st1{fill:#9999FF;}
</style>
<g>
	<path class="st0" d="M117.7,143.4h-92C11.5,143.4,0,131.7,0,117.2V27.4C0,12.9,11.5,1.2,25.7,1.2h92c14.2,0,25.7,11.7,25.7,26.2
		v89.8C143.4,131.7,131.9,143.4,117.7,143.4z"/>
	<g>
		<path class="st1" d="M47.1,39.2c2.3,0,4.7,0,7,0c1.1,0,1.1,0,1.4,1c7.1,20.1,14.1,40.3,21.2,60.4c0.1,0.1,0.1,0.3,0.1,0.5
			c0.1,0.6,0,0.8-0.7,0.9c-1.4,0-2.8,0-4.2,0c-2.5,0-5,0-7.5,0c-1.1,0-1.2-0.1-1.5-1.1c-1.5-4.4-3-8.8-4.4-13.2
			c-0.2-0.5-0.4-0.7-1-0.7c-6.8,0-13.7,0-20.5,0c-0.6,0-0.8,0.2-0.9,0.7c-1.4,4.4-2.7,8.7-4.1,13.1c-0.4,1.1-0.5,1.2-1.7,1.2
			c-3.3,0-6.7,0-10,0c-1.4,0-1.5-0.2-1.1-1.5c4.4-12.9,8.9-25.8,13.3-38.7c2-5.8,4-11.5,5.9-17.3c0.4-1.3,0.5-2.8,0.6-4.2
			c0.1-1,0.1-1,1-1C42.3,39.2,44.7,39.2,47.1,39.2z M39.8,74.9c4.9,0,9.8,0,14.8,0c-2.5-8.3-5.1-16.6-7.5-24.6
			C44.7,58.4,42.3,66.6,39.8,74.9z"/>
		<path class="st1" d="M119.7,79.7c0.6,0,2.6,0,2.6,0s0-5-0.1-6.6c-0.1-2.8-0.6-5.6-1.5-8.2c-1.4-4.1-4-7.6-7.7-9.7
			c-2-1.2-4.2-1.9-6.4-2.4c-8-1.5-16.8,0.5-21.9,7.4c-4,5.5-5.2,12.8-5.2,19.5c0,0,0,20.6,21.5,22.2c0,0,9.4,0.7,17.1-2.7V88.7
			c0,0-23.9,7.4-25.4-9.1c3.7,0,7.3,0,11,0C108.9,79.7,114.3,79.7,119.7,79.7z M101.4,61.9c4.8,0,8.8,4,8.8,8.9H92.6
			C92.6,65.9,96.5,61.9,101.4,61.9z"/>
	</g>
</g>
</svg>
