<?xml version="1.0" encoding="UTF-8"?>
<svg xmlns="http://www.w3.org/2000/svg" xmlns:xlink="http://www.w3.org/1999/xlink" viewBox="0 0 589.7 373.44">
  <defs>
    <clipPath id="clippath">
      <path d="m109.67,248.94c.05,1.32-1.23,1.6-2.21,2.01-6.57,2.78-14.15,3.06-20.91.78-2.37-.8-4.57-1.22-6.96-1.84-.32-.09-.64-.19-.89-.41-.5-.45-.49-1.24-.34-1.9.54-2.33,1.56-4,2.81-6.07.88-1.46,1.42-2.84,1.72-4.2.87-4.07-.49-7.88-1.61-12.5-.09-.36-.18-.72-.26-1.06-.7-2.92-1.28-5.61-1.38-7.19,0-.28-.02-.53,0-.73v-.24c-.06-1.62.04-3.01.24-4.2.07-.37.15-.72.24-1.06,1.54-5.65,5.5-6.06,5.5-6.06l9.12,3.17s2.09,1.1,4.95,3.77c.31.28.64.58.96.91.51.51,1.04,1.07,1.59,1.68,1.3,1.44,2.12,2.98,2.65,4.4.11.27.2.55.29.82.21.71.36,1.39.46,1.99.11.69.15,1.29.17,1.76-.34,1.07-.59,2.14-.79,3.2-.21,1.19-.51,2.44-.65,3.68-.1.79-.14,1.58-.07,2.34.54,5.57,1.83,10.25,4.65,15.07.35.59.7,1.2.73,1.88Z" style="fill: none;"/>
    </clipPath>
    <clipPath id="clippath-1">
      <path d="m89.67,175.39c-2.1,1.27-3.85,2.37-6.37,2.63-.53.06-.77.93-.14,1.03,2.59.4,5.12-1.11,7.12-2.6.62-.46.07-1.48-.62-1.06Z" style="fill: none;"/>
    </clipPath>
  </defs>
  <g style="isolation: isolate;">
    <g id="Layer_1" data-name="Layer 1">
      <g>
        <g>
          <path d="m581.51,361.76h-183.81c.4-2.35,1.41-4.57,2.76-6.69.78-1.24,1.68-2.44,2.65-3.62,1.77-2.2,3.76-4.3,5.59-6.34,3.12-3.47,5.91-7.17,8.46-11.07,1.77-2.71,3.41-5.49,4.96-8.33,3.08-5.66,5.77-11.56,8.21-17.52,2.36-5.76,4.59-11.7,8.48-16.56,4.95-6.18,12.12-10.06,18.41-14.86.33-.25.65-.5.97-.75,5.48-4.32,10.56-9.31,16.93-12.11,11.39-5.01,25.93-1.45,33.71,8.24,5.22,6.5,7.59,15.24,12.41,21.81,1.39,1.9,2.99,3.62,4.92,5.05,1.86,1.38,3.92,2.4,6.06,3.29,4.54,1.89,9.42,3.19,13.44,6.01.85.59,1.64,1.25,2.38,1.95,1.56,1.46,2.9,3.14,4.07,4.96,2.26,3.51,3.89,7.55,5.18,11.55,2.28,7.05,3.87,14.43,7.68,20.78,1.98,3.29,4.69,6.3,7.96,8.33,2.16,1.35,7.54,2.18,8.44,4.94.11.34.16.66.14.94Z" style="fill: #b0beea;"/>
          <path d="m547.81,347.27c-8.37,4.83-16.75,9.65-25.13,14.49h-26.15c-4.37-11.27-.54-32.14,4.34-39.16,2.42-3.47,5.79-6.16,8.52-9.4,4.86-5.77,7.52-13.08,11.85-19.24.06-.09.12-.17.18-.26,2.39-3.48,13.4-14.7,17.12-7.08,1.57,3.22-3.31,10.83-6.32,15.68-.76,1.23-1.4,2.28-1.79,3.04-3.94,7.74-8.03,15.41-12.26,23-2.51,4.52-4.91,10.67-1.26,14.33,1.52-5.98,3.19-12.24,7.38-16.76,2.42-2.61,5.52-4.46,8.58-6.27,2.16-1.28,10.03-7.29,15.17-9.38,1.85-.76,3.35-1,4.11-.34,1.21,1.06.86,3.15-.04,5.3-1.13,2.68-3.13,5.46-4.05,6.5-3.22,3.62-7.41,6.21-11,9.47-5.34,4.85-9.28,11.21-11.24,18.15,5.14-5.93,12.04-10.33,19.59-12.48,2.62-.75,5.96-.98,7.52,1.24,2.27,3.25-1.68,7.19-5.12,9.17Z" style="fill: #8ca3ea;"/>
          <path d="m507.03,361.76H210.86c1.08-.91,2.13-1.85,2.97-3.09,2.32-3.39-.23-4.34-.15-8.45.24-11.34,1.3-24.22,10.2-31.25,3.87-3.05,8.7-4.51,13.47-6.05,4.82-1.56,9.57-3.2,13.18-6.63,9.87-9.37,6.75-27.69,17.37-36.22,7.9-6.34,19.63-4.13,29-7.97,10.35-4.24,16.18-14.96,21.96-24.54,5.77-9.58,13.7-19.61,24.84-20.61,12.8-1.16,24.32,10.26,37.08,8.78,5.07-.58,10.29-3.18,15.02-1.28,7.34,2.95,7.04,13.35,10.9,20.26,4,7.14,12.53,10.28,20.52,12.08,7.98,1.8,16.53,3,22.92,8.12,3.73,2.98,6.21,6.82,8.05,11.11,5.43,12.65,5.25,29.26,14.83,39.57,6.89,7.43,17.7,10.22,24.57,17.66,6.93,7.51,8.58,18.21,9.44,28.51Z" style="fill: #d0def2;"/>
          <path d="m278.45,361.76H0c0-3.64,3.44-8.62,6.23-11.3,4.99-4.79,11.41-8.2,15.86-13.45.91-1.08,1.72-2.2,2.43-3.37,3.98-6.49,5.02-14.31,4.76-22.12-.1-3.17-.42-6.33-.84-9.42-1.64-12.04-4.48-24.49-.73-36.11,5.33-16.54,25.11-27.73,43.19-24.43,25.4,4.64,41.57,32.53,67.4,34.08,11.8.7,22.97-4.41,34.14-8.08,9.37-3.09,19.33-5.21,29.21-4.22,9.87.99,19.7,5.48,25.08,13.32,7.5,10.95,4.97,25.49,9.91,37.65.22.54.46,1.09.71,1.61,3.09,6.54,8.42,12.12,15.02,15.71,6.43,3.49,14.14,5.24,19.27,10.28,5.24,5.17,6.6,12.57,6.81,19.85Z" style="fill: #b0beea;"/>
          <path d="m67.31,312.48c-.16,1.99-.88,3.85-1.82,5.62-.28.54-.59,1.08-.91,1.6-.39.65-.79,1.28-1.19,1.9-1.82,2.81-3.72,5.72-4.14,9.04-.18,1.42-.08,2.88-.07,4.32,0,.55,0,1.08-.05,1.62-.06.71-.17,1.4-.38,2.09-1.28,4.14-5.9,6.51-7.35,10.59-.81,2.26-.54,4.74-.32,7.13.13,1.49-.1,3.55-.66,5.37h-7.57c-2.41-4.65-2.21-9.49-7.44-13.07-2.99-2.05-6.72-3.25-8.75-6.24-1.65-2.43-1.77-5.41-1.97-8.4-.02-.46-.05-.93-.1-1.39,0-.29-.04-.57-.07-.86-.13-1.28-.36-2.54-.8-3.73-1.62-4.34-5.83-7.11-8.37-10.98-.45-.68-.84-1.4-1.17-2.15-.17-.38-.32-.77-.46-1.16-1.56-4.42-1.16-9.53,1.22-13.57.54-.9,1.19-1.78,2.02-2.4.37-.29.78-.51,1.22-.68.07-.03.15-.05.22-.07,1.24-.37,2.63-.15,3.82.4,4.02,1.86,5.3,6.49,7.06,10.77.09.23.19.46.29.68.29.69.6,1.35.95,1.99.78,1.49,1.74,2.84,3.02,3.89,1.07.88,2.34,1.5,3.36,2.43,1.96,1.79,2.71,4.36,3.05,7.06.1.82.17,1.65.22,2.47.04.69.07,1.38.11,2.06.22,4.13,1.28,8.95,5.07,10.62-.25-3.25-.47-6.64.38-9.73.16-.6.36-1.19.62-1.76.11-.26.23-.52.36-.77,1.01-1.9,2.55-3.47,3.61-5.34,1.48-2.58,1.97-5.56,2.76-8.44.13-.48.27-.97.43-1.44.11-.36.24-.71.37-1.06,1.4-3.58,4.81-7.02,8.57-6.2.21.05.41.1.6.18.59.19,1.12.5,1.59.89,1.88,1.5,2.86,4.23,2.67,6.72Z" style="fill: #8ca3ea;"/>
          <path d="m436.76,351.84c-1.18.66-2.56.87-3.83,1.37-3.98,1.56-6.2,5.67-9.37,8.55h-6.32c-.25-.48-.48-.99-.75-1.46-.92-1.55-2.5-2.73-4.28-3.08-2.1-.42-4.27.25-6.41.12-1.97-.11-3.88-.94-5.34-2.27-.33-.29-.63-.61-.9-.95-.46-.57-.85-1.22-.9-1.94-.06-.73.32-1.52,1-1.76.98-.35,1.94.52,2.91.89.18.07.36.11.54.14,1.38.26,2.87-.27,4.3-.48,3.22-.5,6.66.84,8.69,3.39-1.01-2.06-2.03-4.15-2.55-6.39-.52-2.23-.51-4.67.49-6.74.59-1.2,1.48-2.23,2.05-3.44.56-1.18.81-2.47,1.07-3.75.15-.74.31-1.47.55-2.17.83-2.42,2.53-4.38,4.41-6.16.67-.64,1.37-1.25,2.05-1.86.57-.5,1.17-1.01,1.9-1.17-.31,3.34-.61,6.68-.92,10.01-.26,2.83-.52,5.66-1.13,8.43-.85,3.81-2.37,7.53-2.41,11.43-.01.36.07.82.42.91.47-1.76,1.75-3.29,3.39-4.07,1.19-.55,2.52-.73,3.7-1.31,1.16-.56,2.11-1.48,3.17-2.22,1.39-.97,3-1.63,4.67-1.91.56-.1,1.18-.14,1.64.19.33.23.52.6.65.97.9,2.45-.22,5.46-2.49,6.73Z" style="fill: #8ca3ea;"/>
          <path d="m240.73,329.63c-.31,5.58-2.42,11.64-5.77,16.14-4.12,5.55-13.36,8.4-14.01,15.99h-4.04c-.71-5.48-3.35-8.72-7.51-12.7-2.25-2.17-4.45-4.86-3.48-8.11.2-.51,1.01-.83,1.36-.18,1.59,2.92,3.13,4.88,5.62,7.07,1.45,1.27,2.84,2.54,3.98,4.09-.63-3.52-1.54-6.93-3.98-10.08-.55-.72.31-1.64,1.02-1.02,2.99,2.63,4.98,6.31,5.9,10.26,1.97-5.42,5.85-10.51,9.47-14.14.72-.73,1.83.2,1.37,1.06-2,3.77-4.86,7.02-7.03,10.69-1.03,1.73-1.73,3.47-2.24,5.25,1.51-1.71,3.38-3.2,5.35-4.67,3.69-2.75,6.6-5.49,8.67-9.64,1.66-3.34,2.51-7,4.19-10.32.27-.53,1.16-.29,1.13.31Z" style="fill: #8ca3ea;"/>
          <path d="m65.49,318.1c-.28.54-.59,1.08-.91,1.6-1.68-.05-3.36-.07-5.11.18h-.07c-2.16,3.37-4.52,6.62-5.56,10.51-.49,1.8-.77,3.63-1.11,5.46,1.06.7,2.07-.1,4.23-.55.74-.15,1.48-.27,2.22-.34,0,.55,0,1.08-.05,1.62-1.64.24-3.26.63-4.98,1.13-.92.26-1.27.49-1.86.27-.16.68-.34,1.37-.56,2.04-.89,2.7-2.03,5.29-2.84,8.01-1.35,4.58-1.84,9.12-1.95,13.73h-1.95c-.39-3.78-.78-7.55-2.09-11.14-1.73-4.71-4.65-8.82-7.4-13.02-.59.13-1.15-.11-1.9-.3-1.43-.36-3.54-1.66-4.72-2.08-1.38-.49-2.78-.87-4.19-1.17-.02-.46-.05-.93-.1-1.39,1.57.3,3.12.71,4.65,1.25.57.2,2.66,1.34,3.34,1.37.56.03,1.02,0,1.41-.06-.58-.95-1.16-1.9-1.69-2.88-2.37-4.39-4.12-8.99-6.24-13.46-2.31.04-5.45-2.17-7.35-2.76-1.5-.46-3.01-.84-4.53-1.18-.17-.38-.32-.77-.46-1.16.67.11,1.33.23,2,.37,2.94.61,6.05,2.41,8.93,2.77.16.02.3.01.44.01-.64-1.27-1.31-2.52-2.07-3.74-1.65-2.69-3.15-5.36-4.23-8.33-.38-1.03-.98-4.46-1.83-7.05.37-.29.78-.51,1.22-.68.07-.03.15-.05.22-.07,1.47,3.13,2.2,7.94,2.86,9.4,1.54,3.39,3.74,6.4,5.58,9.62,1.24-1.44,1.55-4.36,2.32-6.22.13-.32.27-.63.41-.95.29.69.6,1.35.95,1.99-.7,1.68-1.36,3.39-2.01,5.17-.23.64-.31,1.36-.64,1.91,1.59,3.21,2.74,6.6,4.17,9.89,1.01,2.3,2.24,4.49,3.54,6.64.72-.74.81-1.94,1.31-3.33.86-2.38,1.86-4.69,3.06-6.9.1.82.17,1.65.22,2.47-.07.14-.14.29-.21.43-1.13,2.44-1.93,4.91-2.76,7.45-.13.4-.23,1.21-.44,1.83,2.45,3.96,5,7.87,6.73,12.21,1.18,2.99,1.85,6.11,2.32,9.29.16-1.96.43-3.91.81-5.83,1-5.15,3.19-9.92,4.48-14.98-1.22-1.34-2.52-4.43-3.44-5.52-.59-.7-1.27-1.31-1.93-1.93.16-.6.36-1.19.62-1.76,2.14,1.59,3.87,4.21,5.06,6.28.09.15.17.27.25.4,1.09-6.14,3.11-9.93,6.37-15.11.1-.16.2-.33.3-.49-1.41-2.27-3.1-4.09-5.25-5.63.13-.48.27-.97.43-1.44,1.23.83,2.36,1.72,3.4,2.8.71.75,1.41,2.19,2.19,2.92,2.22-4.07,3.45-8.32,3.95-12.8.59.19,1.12.5,1.59.89-.32,2.89-1.07,5.73-2.18,8.48-.57,1.4-1.28,2.74-2.06,4.03,1.23.21,2.73-.21,3.85-.21.42,0,.83,0,1.24.04Z" style="fill: #d0def2;"/>
          <path d="m429.86,351.01c-1.82,1.63-3.78,3.15-5.41,4.97-1.62,1.82-2.39,3.64-2.76,5.78h-2.65c-.52-1.8-1.18-3.51-2.89-4.56-2.03-1.25-4.61-1.84-6.95-2.1-.24-.03-.34-.41-.06-.46,2.55-.47,6.02.55,8.14,1.99.79.54,1.37,1.24,1.81,2.01-.69-3.63-1.58-7.21-1.75-11.01-.3-6.78,3.69-11.55,5.43-17.79.02-.07.13-.05.13.02-.29,2.97-1.38,5.23-2.47,7.97-1.6,4.04-2,7.82-1.38,12.13.43,3.04,1.38,6.14,1.93,9.25.25-.94.68-1.86,1.35-2.8,1.79-2.5,4.35-4.64,7.13-5.91.32-.15.7.25.4.51Z" style="fill: #d0def2;"/>
        </g>
        <path d="m115.24,370.24c-8.8-1.43-18.48-.39-27.4-.38-4.51,0-9.02,0-13.53.02-4.54.01-9.36-.47-13.79.66-.91.23-.91,1.61,0,1.84,4.42,1.13,9.25.65,13.79.66,4.51,0,9.02.01,13.53.02,8.94.01,18.58,1.06,27.4-.38,1.21-.2,1.21-2.24,0-2.44Z" style="fill: #b0beea; mix-blend-mode: multiply;"/>
        <path d="m194.98,370.24c-8.8-1.43-18.48-.39-27.4-.38-4.51,0-9.02,0-13.53.02-4.54.01-9.36-.47-13.79.66-.91.23-.91,1.61,0,1.84,4.42,1.13,9.25.65,13.79.66,4.51,0,9.02.01,13.53.02,8.94.01,18.58,1.06,27.4-.38,1.21-.2,1.21-2.24,0-2.44Z" style="fill: #b0beea; mix-blend-mode: multiply;"/>
        <path d="m548.22,370.24c-16.99-1.43-35.66-.39-52.88-.38-8.7,0-17.41,0-26.11.02-8.76.01-18.07-.47-26.6.66-1.75.23-1.75,1.61,0,1.84,8.53,1.13,17.85.65,26.6.66,8.7,0,17.41.01,26.11.02,17.25.01,35.86,1.06,52.88-.38,2.33-.2,2.33-2.24,0-2.44Z" style="fill: #b0beea; mix-blend-mode: multiply;"/>
        <path d="m365.5,370.23c-19.87-1.41-41.7-.38-61.84-.37-10.18,0-20.36,0-30.54.02-10.24.01-21.14-.46-31.11.65-2.05.23-2.05,1.58,0,1.81,9.98,1.12,20.87.64,31.11.65,10.18,0,20.36.01,30.54.02,20.17.01,41.94,1.04,61.84-.37,2.73-.19,2.73-2.21,0-2.4Z" style="fill: #b0beea; mix-blend-mode: multiply;"/>
        <path d="m43.04,247.86c-.11,0-.22-.04-.31-.12-.94-.83-1.87-1.71-2.75-2.6-.18-.18-.18-.48,0-.66.18-.18.48-.18.66,0,.87.88,1.78,1.74,2.71,2.56.19.17.21.47.04.66-.09.11-.22.16-.35.16Zm-5.27-5.34c-.13,0-.26-.06-.36-.16-.82-.95-1.62-1.94-2.37-2.95-.16-.21-.11-.5.09-.66.21-.16.5-.12.66.09.75.99,1.53,1.97,2.34,2.9.17.2.15.49-.05.66-.09.08-.2.11-.31.11Zm-4.51-6c-.15,0-.3-.08-.39-.21-.69-1.05-1.35-2.14-1.97-3.23-.13-.23-.05-.51.18-.64.23-.13.51-.05.64.18.61,1.08,1.27,2.15,1.94,3.18.14.22.08.51-.14.65-.08.05-.17.08-.26.08Zm450.21-4.95c-.24,0-.44-.18-.47-.42-.03-.26.16-.49.42-.51,1.08-.11,2.15-.22,3.23-.34.25-.03.49.16.52.42.03.26-.16.49-.41.52-1.08.12-2.16.23-3.24.34-.02,0-.03,0-.05,0Zm6.96-.78c-.23,0-.43-.17-.46-.41-.03-.26.15-.49.41-.53,1.24-.16,2.48-.33,3.71-.51.25-.04.5.14.53.4.04.26-.14.5-.4.53-1.24.18-2.49.35-3.73.51-.02,0-.04,0-.06,0Zm-460.88-.79c-.17,0-.34-.1-.42-.26-.55-1.13-1.08-2.29-1.56-3.45-.1-.24.01-.51.25-.61.24-.1.51.01.61.25.48,1.14.99,2.28,1.54,3.4.11.23.02.51-.22.63-.07.03-.14.05-.21.05Zm468.32-.3c-.23,0-.42-.16-.46-.39-.04-.26.13-.5.39-.54,1.23-.2,2.46-.42,3.69-.65.25-.04.5.12.55.38.05.25-.12.5-.38.55-1.23.23-2.47.44-3.71.65-.03,0-.05,0-.08,0Zm7.39-1.37c-.22,0-.41-.15-.46-.38-.05-.25.11-.5.37-.55,1.22-.25,2.44-.52,3.66-.8.25-.06.5.1.56.35.06.25-.1.5-.35.56-1.22.28-2.45.55-3.68.8-.03,0-.06,0-.09,0Zm7.32-1.68c-.21,0-.4-.14-.46-.35-.06-.25.09-.51.34-.57,1.21-.31,2.42-.63,3.62-.96.25-.07.51.08.58.33.07.25-.08.51-.33.58-1.21.34-2.42.66-3.64.97-.04,0-.08.01-.12.01Zm7.23-2.01c-.2,0-.39-.13-.45-.33-.08-.25.06-.51.31-.59,1.19-.37,2.38-.74,3.57-1.14.25-.08.51.05.59.3.08.25-.05.51-.3.59-1.19.4-2.39.78-3.59,1.15-.05.01-.09.02-.14.02Zm-493.16-1.57c-.19,0-.38-.12-.44-.31-.41-1.18-.8-2.39-1.15-3.6-.07-.25.07-.51.32-.58.25-.07.51.07.58.32.34,1.2.73,2.39,1.13,3.55.09.24-.04.51-.29.6-.05.02-.1.03-.16.03Zm500.28-.81c-.19,0-.37-.12-.44-.31-.09-.24.04-.51.28-.6,1.17-.43,2.34-.87,3.5-1.33.24-.09.51.02.61.26s-.02.51-.26.61c-1.17.46-2.34.91-3.52,1.34-.05.02-.11.03-.16.03Zm6.98-2.77c-.18,0-.35-.11-.43-.28-.1-.24,0-.51.24-.62,1.15-.49,2.28-1,3.41-1.53.23-.11.51-.01.62.23.11.23,0,.51-.23.62-1.14.53-2.28,1.05-3.44,1.55-.06.03-.12.04-.19.04Zm6.8-3.19c-.17,0-.34-.09-.42-.26-.12-.23-.03-.51.21-.63,1.11-.56,2.21-1.15,3.31-1.75.22-.13.51-.04.64.18.12.23.04.51-.18.64-1.1.61-2.21,1.19-3.33,1.76-.07.03-.14.05-.21.05Zm-516.15-.45c-.21,0-.41-.15-.46-.37-.28-1.22-.53-2.47-.74-3.71-.04-.25.13-.5.38-.54.26-.04.5.13.54.38.21,1.22.46,2.45.73,3.66.06.25-.1.5-.35.56-.04,0-.07.01-.11.01Zm522.73-3.17c-.16,0-.32-.08-.4-.23-.13-.22-.06-.51.16-.64,1.07-.64,2.13-1.3,3.18-1.97.22-.14.51-.08.65.14.14.22.08.51-.14.65-1.06.68-2.13,1.35-3.2,1.99-.08.05-.16.07-.24.07Zm6.31-4.08c-.15,0-.29-.07-.38-.2-.15-.21-.1-.5.12-.65,1.01-.71,2.02-1.45,3.02-2.21.21-.16.5-.12.66.09.16.21.12.5-.09.66-1,.77-2.03,1.52-3.05,2.23-.08.06-.18.08-.27.08Zm-530.31-.15c-.23,0-.44-.18-.47-.42-.15-1.24-.26-2.51-.34-3.77-.02-.26.18-.48.44-.5.26-.03.48.18.5.44.08,1.24.19,2.49.33,3.72.03.26-.15.49-.41.52-.02,0-.04,0-.06,0Zm536.28-4.41c-.13,0-.27-.06-.36-.17-.17-.2-.14-.5.06-.66.96-.8,1.91-1.62,2.83-2.44.19-.17.49-.16.66.03.17.19.16.49-.04.66-.92.83-1.89,1.66-2.86,2.47-.09.07-.19.11-.3.11Zm-536.75-3.08c-.26,0-.47-.21-.47-.46v-.7c0-1.03.02-2.07.06-3.09.01-.26.24-.48.49-.45.26.01.46.23.45.49-.04,1.01-.07,2.03-.07,3.04v.69c0,.26-.2.47-.46.47Zm542.33-1.94c-.12,0-.24-.05-.34-.14-.18-.19-.18-.48,0-.66.88-.86,1.77-1.76,2.62-2.66.18-.19.48-.2.66-.02.19.18.2.48.02.66-.86.92-1.75,1.82-2.65,2.69-.09.09-.21.13-.33.13Zm5.16-5.46c-.11,0-.22-.04-.31-.12-.2-.17-.22-.47-.05-.66.81-.94,1.62-1.9,2.39-2.87.16-.2.46-.24.66-.07.2.16.24.46.08.66-.78.98-1.59,1.96-2.41,2.9-.09.11-.22.16-.35.16Zm-547.16-.1c-.3-.03-.49-.26-.47-.52.12-1.25.28-2.52.47-3.75.04-.26.28-.43.54-.39.26.04.43.28.39.53-.19,1.22-.34,2.46-.46,3.7-.02.24-.23.42-.47.42Zm551.84-5.78c-.1,0-.19-.03-.28-.09-.21-.15-.26-.45-.1-.66.73-1,1.45-2.04,2.13-3.07.14-.22.43-.28.65-.13.22.14.28.43.13.65-.69,1.04-1.41,2.09-2.15,3.1-.09.13-.24.19-.38.19Zm-550.71-1.64s-.06,0-.1-.01c-.25-.05-.42-.3-.36-.56.26-1.23.55-2.47.88-3.68.07-.25.33-.4.58-.33.25.07.4.32.33.58-.32,1.19-.61,2.42-.87,3.63-.05.22-.24.37-.46.37Zm554.84-4.62c-.08,0-.17-.02-.24-.07-.22-.13-.3-.42-.16-.64.64-1.07,1.26-2.16,1.84-3.25.12-.23.41-.31.63-.19.23.12.32.41.19.64-.59,1.1-1.21,2.21-1.86,3.29-.09.15-.24.23-.4.23Zm-552.9-2.63s-.1,0-.15-.02c-.25-.08-.38-.35-.3-.59.39-1.19.83-2.39,1.29-3.56.1-.24.37-.36.61-.26.24.1.36.37.26.61-.46,1.15-.88,2.33-1.27,3.5-.07.2-.25.32-.45.32Zm556.43-3.99c-.07,0-.14-.01-.2-.05-.24-.11-.33-.39-.22-.62.53-1.13,1.04-2.28,1.51-3.41.1-.24.37-.35.61-.26.24.1.35.37.26.61-.47,1.15-.99,2.31-1.53,3.46-.08.17-.25.27-.42.27Zm-553.66-2.98c-.07,0-.13-.01-.2-.04-.23-.11-.34-.39-.23-.62.53-1.14,1.11-2.27,1.71-3.38.12-.23.41-.31.64-.19.23.12.31.41.19.64-.59,1.09-1.16,2.2-1.68,3.32-.08.17-.25.27-.43.27Zm556.52-3.96c-.05,0-.1,0-.16-.03-.24-.09-.37-.35-.29-.6.41-1.17.8-2.37,1.15-3.55.07-.25.33-.39.58-.32.25.07.39.33.32.58-.35,1.2-.74,2.41-1.16,3.6-.07.19-.25.31-.44.31Zm-552.92-2.63c-.09,0-.17-.02-.25-.07-.22-.14-.28-.43-.15-.65.67-1.07,1.39-2.12,2.13-3.13.15-.21.45-.26.66-.1.21.15.26.45.1.66-.72,1-1.43,2.03-2.09,3.08-.09.14-.24.22-.4.22Zm344.39-.75c-.47,0-.94,0-1.41-.01-.26,0-.47-.22-.46-.48,0-.26.19-.45.48-.46,1.25.02,2.49.01,3.74-.02.25-.04.47.2.48.46,0,.26-.2.47-.46.48-.79.02-1.58.03-2.37.03Zm-5.16-.14c-1.28-.07-2.54-.16-3.79-.27-.26-.02-.45-.25-.42-.51.02-.26.23-.45.51-.42,1.23.11,2.49.2,3.73.27.26.01.46.23.44.49-.01.25-.22.44-.47.44Zm11.26-.05c-.25,0-.45-.19-.47-.44-.02-.26.18-.48.44-.5,1.24-.08,2.49-.18,3.73-.3.25-.02.49.16.51.42.03.26-.16.49-.42.51-1.25.12-2.51.23-3.76.3h-.03Zm-18.74-.63s-.04,0-.06,0c-1.25-.16-2.5-.36-3.73-.57-.25-.04-.43-.29-.38-.54.04-.26.29-.42.54-.38,1.21.21,2.46.4,3.69.56.26.03.44.27.4.53-.03.24-.23.41-.46.41Zm26.21-.11c-.23,0-.43-.17-.46-.41-.04-.26.14-.49.4-.53,1.23-.17,2.48-.37,3.69-.58.25-.04.5.12.54.38.05.26-.12.5-.38.54-1.23.22-2.48.42-3.73.59-.02,0-.04,0-.07,0Zm-33.61-1.16s-.07,0-.1-.01c-1.22-.26-2.46-.55-3.67-.87-.25-.06-.4-.32-.34-.57.07-.25.32-.4.57-.34,1.2.31,2.43.6,3.64.86.25.05.41.3.36.56-.05.22-.24.37-.46.37Zm41.01-.14c-.22,0-.41-.15-.46-.37-.05-.25.11-.5.36-.56,1.22-.26,2.44-.55,3.64-.86.25-.06.51.09.57.34.06.25-.09.51-.34.57-1.21.31-2.44.6-3.67.87-.03,0-.07.01-.1.01Zm189.66-1.59s-.07,0-.11-.01c-.25-.06-.41-.31-.35-.56.28-1.2.53-2.43.74-3.65.04-.26.3-.43.54-.38.26.04.43.29.38.54-.22,1.24-.47,2.49-.76,3.71-.05.22-.24.36-.46.36Zm-237.95-.15s-.09,0-.14-.02c-1.2-.36-2.41-.76-3.59-1.17-.24-.09-.37-.35-.29-.6.08-.25.35-.37.6-.29,1.17.41,2.37.8,3.55,1.16.25.07.39.34.31.59-.06.2-.25.33-.45.33Zm55.56-.13c-.2,0-.39-.13-.45-.34-.07-.25.07-.51.32-.58,1.19-.35,2.39-.74,3.56-1.13.25-.08.51.05.6.29.08.25-.05.51-.29.6-1.18.4-2.39.79-3.6,1.15-.04.01-.09.02-.13.02Zm-368.22-1.21c-.11,0-.21-.04-.3-.11-.2-.17-.23-.46-.06-.66.81-.97,1.66-1.92,2.53-2.82.18-.19.48-.19.66-.01.19.18.19.48.01.66-.85.89-1.69,1.82-2.48,2.77-.09.11-.23.17-.36.17Zm305.57-1.13c-.06,0-.12-.01-.17-.03-1.17-.46-2.33-.96-3.48-1.47-.24-.11-.34-.38-.24-.62.11-.24.38-.34.62-.24,1.13.51,2.29,1,3.44,1.46.24.1.36.37.26.61-.07.18-.25.3-.44.3Zm69.76-.07c-.19,0-.37-.11-.44-.3-.09-.24.03-.51.27-.61.7-.27,1.39-.54,2.08-.82.46-.19.92-.38,1.39-.58.24-.1.51.01.62.25.1.24,0,.51-.25.62-.47.2-.94.4-1.4.59-.7.29-1.39.56-2.1.83-.05.02-.11.03-.17.03Zm6.91-2.94c-.18,0-.35-.1-.43-.27-.11-.23,0-.51.23-.62,1.12-.52,2.24-1.06,3.37-1.63.23-.12.51-.02.63.21.12.23.02.51-.21.63-1.14.58-2.27,1.12-3.39,1.65-.06.03-.13.04-.2.04Zm-83.52-.07c-.07,0-.14-.02-.21-.05-1.12-.57-2.24-1.16-3.33-1.78-.23-.13-.31-.41-.18-.64.13-.23.41-.31.64-.18,1.08.61,2.19,1.2,3.3,1.76.23.12.33.4.21.63-.08.16-.25.26-.42.26Zm-293.53-1.2c-.13,0-.25-.05-.35-.15-.17-.19-.16-.49.03-.66.89-.81,1.86-1.64,2.87-2.46.2-.16.5-.13.66.07.16.2.13.5-.07.66-1,.81-1.95,1.63-2.83,2.43-.09.08-.2.12-.32.12Zm546.7-.49s-.04,0-.05,0c-.26-.03-.44-.26-.41-.52.09-.8.17-1.6.23-2.4.03-.44.06-.88.08-1.31.01-.26.22-.46.49-.45.26.01.46.23.45.49-.02.45-.05.9-.08,1.35-.06.81-.14,1.62-.23,2.43-.03.24-.23.42-.47.42Zm-162.95-1.63c-.17,0-.33-.09-.41-.24-.12-.23-.04-.51.18-.64,1.1-.61,2.19-1.23,3.24-1.86.22-.13.51-.06.64.16.13.22.06.51-.16.64-1.06.64-2.16,1.27-3.27,1.88-.07.04-.15.06-.23.06Zm-96.77-.36c-.08,0-.17-.02-.25-.07-1.08-.67-2.15-1.37-3.16-2.07-.21-.15-.27-.44-.12-.65.15-.22.44-.27.65-.12,1,.69,2.05,1.38,3.12,2.04.22.14.29.43.15.65-.09.14-.24.22-.4.22Zm-281.16-2.26c-.14,0-.29-.07-.38-.19-.15-.21-.11-.5.1-.66,1.01-.75,2.03-1.48,3.06-2.2.21-.15.51-.1.65.12.15.21.1.51-.12.65-1.02.71-2.04,1.44-3.04,2.18-.08.06-.18.09-.28.09Zm384.37-1.25c-.15,0-.3-.07-.39-.21-.14-.22-.08-.51.13-.65,1.06-.7,2.09-1.41,3.08-2.12.21-.15.5-.1.66.11.15.21.11.5-.1.66-1,.72-2.04,1.44-3.11,2.15-.08.05-.17.08-.26.08Zm-109.39-.76c-.1,0-.2-.03-.29-.1-1.01-.78-2-1.59-2.93-2.4-.2-.17-.22-.47-.05-.66.17-.2.47-.22.66-.05.92.8,1.89,1.59,2.88,2.36.2.16.24.45.08.66-.09.12-.23.18-.37.18Zm266.22-1.24c-.25,0-.46-.2-.47-.45-.05-1.22-.15-2.47-.3-3.7-.03-.26.15-.49.41-.52.25-.02.49.15.52.41.15,1.26.26,2.53.3,3.78.01.26-.19.48-.45.49h-.02Zm-535.05-1.07c-.15,0-.3-.07-.39-.21-.15-.21-.09-.51.13-.65l3.12-2.1c.22-.14.51-.09.65.13.15.21.09.51-.13.65l-3.12,2.1c-.08.05-.17.08-.26.08Zm384.3-1.35c-.14,0-.27-.06-.37-.17-.16-.2-.13-.5.07-.66.98-.8,1.94-1.61,2.83-2.43.19-.18.49-.16.66.03.17.19.16.49-.03.66-.91.83-1.87,1.66-2.87,2.46-.09.07-.19.1-.29.1Zm-121.12-1.28c-.12,0-.24-.05-.33-.14-.9-.89-1.77-1.82-2.59-2.76-.17-.2-.15-.49.04-.66.2-.17.49-.15.66.05.81.92,1.66,1.84,2.55,2.71.18.18.18.48,0,.66-.09.09-.21.14-.33.14Zm-256.96-1.58c-.15,0-.29-.07-.39-.2-.15-.21-.09-.51.12-.65,1.03-.71,2.04-1.43,3.05-2.17.21-.15.5-.11.66.1.15.21.11.5-.1.66-1.01.74-2.04,1.47-3.07,2.19-.08.06-.17.08-.27.08Zm527.93-2.17c-.22,0-.41-.15-.46-.38-.24-1.2-.53-2.42-.87-3.62-.07-.25.08-.51.33-.58.25-.07.51.08.58.33.34,1.22.64,2.46.88,3.69.05.25-.11.5-.37.55-.03,0-.06,0-.09,0Zm-144.32-.04c-.12,0-.23-.04-.32-.13-.19-.18-.2-.48-.02-.66.88-.92,1.7-1.86,2.45-2.79.16-.2.46-.23.66-.07.2.16.23.46.07.66-.77.95-1.61,1.91-2.5,2.85-.09.1-.22.15-.34.15Zm-131.58-1.87c-.14,0-.28-.07-.38-.19-.74-1-1.46-2.05-2.15-3.12-.14-.22-.07-.51.15-.65.22-.14.51-.07.65.15.67,1.06,1.38,2.09,2.11,3.06.16.21.11.5-.1.66-.08.06-.18.09-.28.09Zm-245.99-.38c-.14,0-.27-.06-.37-.18-.16-.2-.13-.5.07-.66.82-.65,1.6-1.31,2.33-1.94l.53-.46c.19-.17.49-.15.66.04.17.19.15.49-.04.66l-.53.46c-.74.65-1.53,1.31-2.36,1.97-.09.07-.19.1-.29.1Zm382.26-3.6c-.09,0-.18-.03-.27-.08-.21-.15-.27-.44-.12-.65l2.13-3.1c.15-.21.44-.27.65-.12.21.15.27.44.12.65l-2.13,3.1c-.09.13-.24.2-.39.2Zm-376.6-1.33c-.13,0-.25-.05-.35-.15-.18-.19-.16-.49.03-.66.92-.84,1.83-1.7,2.73-2.57.19-.18.48-.17.66.01.18.19.17.48-.01.66-.91.87-1.82,1.73-2.74,2.58-.09.08-.2.12-.32.12Zm514.23-.01c-.19,0-.37-.12-.44-.31-.41-1.16-.87-2.33-1.36-3.48-.1-.24,0-.51.25-.62.24-.1.51,0,.62.25.5,1.17.96,2.36,1.38,3.53.09.24-.04.51-.29.6-.05.02-.1.03-.16.03Zm-277.92-1c-.17,0-.33-.09-.41-.25-.59-1.09-1.15-2.22-1.69-3.38-.11-.24,0-.51.23-.62.24-.11.51,0,.62.23.53,1.14,1.09,2.26,1.66,3.33.12.23.04.51-.19.64-.07.04-.15.06-.22.06Zm144.55-3.85c-.09,0-.19-.03-.27-.08-.21-.15-.27-.44-.12-.65.72-1.03,1.43-2.06,2.16-3.08.15-.21.44-.26.65-.11.21.15.26.44.11.65-.72,1.02-1.44,2.04-2.15,3.07-.09.13-.24.2-.39.2Zm-375.45-.35c-.12,0-.24-.05-.33-.14-.18-.18-.18-.48,0-.66.88-.88,1.75-1.78,2.61-2.68.18-.19.48-.2.66-.02.19.18.2.48.02.66-.87.91-1.74,1.81-2.63,2.7-.09.09-.21.14-.33.14Zm505.87-1.71c-.17,0-.34-.1-.42-.26-.55-1.1-1.15-2.21-1.77-3.29-.13-.22-.05-.51.17-.64.22-.13.51-.05.64.17.63,1.1,1.24,2.22,1.8,3.34.12.23.02.51-.21.63-.07.03-.14.05-.21.05Zm-278.12-.9c-.19,0-.36-.11-.44-.3-.45-1.15-.89-2.34-1.31-3.54-.08-.25.05-.51.29-.6.24-.09.51.05.6.29.41,1.19.84,2.37,1.29,3.51.1.24-.02.51-.26.61-.06.02-.12.03-.17.03Zm-222.56-2.82c-.11,0-.23-.04-.32-.12-.19-.17-.21-.47-.03-.66.84-.92,1.67-1.85,2.49-2.8.17-.2.47-.22.66-.05.2.17.22.47.05.66-.82.95-1.66,1.89-2.5,2.81-.09.1-.22.15-.35.15Zm374.62-.34c-.1,0-.19-.03-.28-.09-.21-.15-.26-.45-.1-.66.74-1.02,1.49-2.02,2.25-3.02.16-.21.45-.25.66-.09.21.16.25.45.09.66-.76.99-1.5,1.99-2.24,3-.09.13-.23.19-.38.19Zm122.32-2.45c-.15,0-.3-.08-.39-.21-.67-1.04-1.39-2.07-2.12-3.08-.15-.21-.11-.5.1-.66.21-.15.5-.11.66.1.74,1.02,1.46,2.07,2.15,3.12.14.22.08.51-.14.65-.08.05-.17.08-.26.08Zm-276.83-1.48c-.2,0-.39-.13-.45-.33-.36-1.2-.7-2.41-1.03-3.63-.07-.25.08-.51.33-.58.25-.07.51.08.57.33.32,1.21.66,2.41,1.02,3.6.08.25-.07.51-.31.59-.05.01-.09.02-.14.02Zm-215.18-1.39c-.11,0-.21-.04-.3-.11-.2-.17-.23-.46-.06-.66.8-.96,1.58-1.93,2.36-2.91.16-.2.46-.24.66-.08.2.16.24.46.08.66-.78.99-1.57,1.96-2.37,2.93-.09.11-.23.17-.36.17Zm374.24-.65c-.1,0-.21-.03-.29-.1-.2-.16-.23-.46-.07-.66.79-.98,1.59-1.95,2.4-2.91.17-.2.47-.22.66-.05.2.17.22.46.05.66-.81.95-1.6,1.91-2.38,2.88-.09.12-.23.18-.37.18Zm113.34-2.55c-.14,0-.27-.06-.37-.17-.78-.96-1.59-1.92-2.42-2.85-.17-.19-.16-.49.04-.66.19-.17.49-.16.66.04.84.94,1.67,1.91,2.45,2.88.16.2.13.5-.07.66-.09.07-.19.1-.29.1Zm-274.36-2.67c-.21,0-.4-.14-.46-.36-.3-1.22-.58-2.44-.86-3.67-.06-.25.1-.5.35-.56.25-.06.5.1.56.35.28,1.22.56,2.44.86,3.65.06.25-.09.51-.34.57-.04,0-.08.01-.11.01Zm-208.57-.03c-.1,0-.2-.03-.28-.09-.21-.16-.25-.45-.09-.66.75-1,1.49-2,2.21-3.02.15-.21.45-.26.65-.11.21.15.26.44.11.65-.73,1.02-1.47,2.04-2.23,3.04-.09.12-.23.19-.38.19Zm374.46-.47c-.11,0-.23-.04-.32-.12-.19-.18-.2-.47-.03-.66.87-.95,1.75-1.87,2.6-2.73.18-.18.48-.18.66,0,.18.18.18.48,0,.66-.85.85-1.72,1.76-2.58,2.7-.09.1-.22.15-.35.15Zm103.46-2.44c-.12,0-.24-.05-.33-.14-.87-.89-1.78-1.76-2.68-2.6-.19-.18-.2-.47-.03-.66.18-.19.47-.2.66-.03.92.85,1.83,1.73,2.71,2.63.18.18.18.48,0,.66-.09.09-.21.14-.33.14Zm-98.16-2.88c-.13,0-.25-.05-.35-.15-.18-.19-.16-.49.03-.66.93-.86,1.89-1.7,2.84-2.49.2-.17.5-.14.66.06.17.2.14.5-.06.66-.94.78-1.88,1.61-2.81,2.46-.09.08-.21.12-.32.12Zm-375.4-.33c-.09,0-.18-.03-.26-.08-.21-.15-.27-.44-.13-.65.7-1.03,1.38-2.08,2.06-3.13.14-.22.43-.28.65-.14.22.14.28.43.14.65-.68,1.06-1.37,2.11-2.07,3.15-.09.13-.24.21-.39.21Zm202.53-1.19c-.22,0-.41-.15-.46-.37l-.8-3.67c-.05-.25.11-.5.36-.56.25-.06.5.11.56.36l.8,3.67c.05.25-.11.5-.36.56-.03,0-.07.01-.1.01Zm265.51-.71c-.11,0-.21-.04-.3-.11-.95-.8-1.93-1.58-2.91-2.33-.21-.16-.25-.45-.09-.66.16-.21.45-.25.66-.09,1,.76,1.99,1.55,2.95,2.36.2.17.22.46.06.66-.09.11-.23.17-.36.17Zm-86.88-2.58c-.14,0-.28-.06-.38-.19-.16-.21-.11-.5.09-.66.96-.72,1.94-1.41,2.91-2.07l.17-.12c.21-.14.51-.09.65.13.14.22.08.51-.13.65l-.17.11c-.96.65-1.93,1.33-2.87,2.04-.08.06-.18.09-.28.09Zm-377.12-1.86c-.08,0-.17-.02-.24-.07-.22-.13-.29-.42-.16-.64.64-1.07,1.27-2.15,1.89-3.23.13-.23.42-.31.64-.18.23.13.31.41.18.64-.62,1.09-1.25,2.18-1.9,3.26-.09.15-.24.23-.4.23Zm458.03-.11c-.09,0-.18-.03-.27-.08-1.03-.71-2.08-1.39-3.13-2.04-.22-.14-.29-.43-.15-.65.14-.22.43-.29.65-.15,1.06.65,2.13,1.35,3.17,2.06.21.15.27.44.12.65-.09.13-.24.2-.39.2Zm-261.14-2.09c-.22,0-.41-.15-.46-.37-.27-1.22-.55-2.44-.83-3.66-.06-.25.1-.51.35-.56.25-.06.5.1.56.35.29,1.22.56,2.44.84,3.67.06.25-.1.5-.36.56-.04,0-.07.01-.1.01Zm186.48-.11c-.16,0-.32-.08-.4-.23-.13-.22-.06-.51.17-.64,1.08-.64,2.19-1.25,3.31-1.83.23-.12.51-.03.63.2.12.23.03.51-.2.63-1.1.57-2.2,1.18-3.26,1.81-.08.04-.16.06-.24.06Zm68.27-1.74c-.08,0-.15-.02-.23-.06-1.1-.6-2.21-1.17-3.32-1.7-.23-.11-.33-.39-.22-.63.11-.23.39-.33.63-.22,1.12.54,2.25,1.12,3.37,1.73.23.12.31.41.19.64-.09.16-.25.24-.41.24Zm-61.61-1.71c-.18,0-.35-.1-.43-.28-.11-.24,0-.51.23-.62,1.14-.51,2.31-1.01,3.49-1.46.24-.09.51.03.61.27.09.24-.03.51-.27.61-1.16.45-2.32.94-3.44,1.44-.06.03-.13.04-.19.04Zm-386.34-.78c-.07,0-.15-.02-.22-.05-.23-.12-.32-.41-.2-.63.58-1.1,1.15-2.21,1.7-3.33.11-.23.39-.33.63-.21.23.11.33.4.21.63-.56,1.13-1.13,2.25-1.71,3.36-.08.16-.25.25-.42.25Zm441.17-.75c-.06,0-.12-.01-.18-.04-1.16-.47-2.33-.91-3.49-1.31-.25-.08-.38-.35-.29-.6.08-.24.35-.38.59-.29,1.18.4,2.37.84,3.54,1.33.24.1.36.37.26.61-.07.18-.25.29-.43.29Zm-47.83-1.2c-.2,0-.38-.13-.45-.32-.08-.25.05-.51.3-.59,1.19-.39,2.4-.76,3.62-1.09.25-.07.51.08.58.33.07.25-.08.51-.33.58-1.2.33-2.4.69-3.57,1.07-.05.02-.1.02-.15.02Zm-201.87-1.02c-.21,0-.4-.14-.46-.35-.31-1.21-.63-2.42-.97-3.61-.07-.25.07-.51.32-.58.25-.07.51.07.58.32.34,1.21.67,2.42.98,3.64.06.25-.09.51-.34.57-.04,0-.08.01-.12.01Zm242.59-.19s-.08,0-.12-.02c-1.19-.33-2.41-.62-3.62-.88-.25-.05-.41-.3-.36-.56.05-.25.31-.42.56-.36,1.23.26,2.47.57,3.67.9.25.07.4.33.33.58-.06.21-.25.35-.45.35Zm-33.47-.76c-.22,0-.41-.15-.46-.37-.05-.25.11-.5.36-.56,1.23-.27,2.48-.5,3.71-.71.26-.04.5.13.54.39.04.26-.13.5-.39.54-1.22.2-2.46.43-3.67.7-.03,0-.07.01-.1.01Zm26.13-.81s-.05,0-.07,0c-1.21-.19-2.46-.35-3.7-.48-.26-.03-.45-.26-.42-.51.03-.26.28-.44.51-.42,1.26.13,2.52.29,3.75.48.26.04.43.28.39.54-.04.23-.24.4-.46.4Zm-18.72-.4c-.24,0-.44-.18-.47-.42-.03-.26.16-.49.42-.52,1.25-.14,2.51-.25,3.77-.32.29,0,.48.18.5.44.01.26-.18.48-.44.5-1.24.07-2.49.18-3.72.31-.02,0-.04,0-.05,0Zm11.25-.36c-1.13-.03-2.24-.08-3.34-.08h-.41c-.26,0-.47-.21-.47-.46,0-.26.21-.47.47-.47h.42c1.11,0,2.25.03,3.36.08.26.01.46.23.45.49-.01.25-.22.45-.47.45Zm-415.93-1.25c-.06,0-.13-.01-.19-.04-.24-.11-.34-.39-.23-.62.52-1.13,1.02-2.28,1.5-3.43.1-.24.38-.35.61-.25.24.1.35.38.25.61-.49,1.16-.99,2.31-1.51,3.45-.08.17-.25.27-.43.27Zm186.09-3.45c-.2,0-.38-.13-.45-.33-.39-1.22-.8-2.4-1.21-3.53-.09-.24.04-.51.28-.6.24-.09.51.04.6.28.42,1.14.83,2.34,1.22,3.57.08.25-.06.51-.3.59-.05.02-.1.02-.14.02Zm-183.19-3.48c-.06,0-.11-.01-.17-.03-.24-.09-.36-.36-.27-.61.45-1.16.88-2.34,1.29-3.51.09-.25.35-.38.6-.29.25.08.37.35.29.6-.41,1.19-.85,2.37-1.3,3.54-.07.19-.25.3-.44.3Zm180.59-3.57c-.18,0-.36-.11-.43-.29-.49-1.17-1.02-2.31-1.55-3.39-.11-.23-.02-.51.21-.63.23-.11.51-.02.63.21.54,1.1,1.07,2.26,1.57,3.44.1.24-.01.51-.25.62-.06.03-.12.04-.18.04Zm-178.13-3.53s-.09,0-.14-.02c-.25-.08-.39-.34-.31-.59.37-1.19.72-2.39,1.05-3.59.07-.25.33-.4.58-.33.25.07.4.33.33.58-.33,1.21-.69,2.42-1.06,3.62-.06.2-.25.33-.45.33Zm174.81-3.2c-.16,0-.32-.08-.41-.24-.61-1.07-1.27-2.13-1.96-3.17-.14-.22-.09-.51.13-.65.22-.14.51-.08.65.13.7,1.05,1.37,2.13,1.99,3.22.13.23.05.51-.17.64-.07.04-.15.06-.23.06Zm-172.81-4.04s-.07,0-.11-.01c-.25-.06-.41-.31-.35-.57.29-1.21.56-2.43.81-3.65.05-.25.3-.42.55-.37.25.05.42.3.37.55-.25,1.23-.53,2.46-.82,3.68-.05.22-.24.36-.46.36Zm168.66-2.21c-.14,0-.28-.06-.37-.18-.75-.98-1.54-1.95-2.35-2.88-.17-.2-.15-.49.05-.66.2-.17.49-.15.66.05.83.95,1.63,1.94,2.39,2.93.16.21.12.5-.09.66-.08.06-.18.1-.28.1Zm-167.14-5.14s-.05,0-.08,0c-.26-.04-.43-.29-.38-.54.21-1.23.4-2.46.56-3.7.03-.26.27-.44.53-.4.26.03.44.27.4.53-.17,1.25-.36,2.49-.57,3.73-.04.23-.24.39-.46.39Zm162.23-.52c-.12,0-.24-.05-.33-.14-.86-.88-1.77-1.74-2.69-2.58-.19-.17-.21-.47-.03-.66.17-.19.47-.21.66-.03.94.85,1.86,1.73,2.73,2.62.18.19.18.48,0,.66-.09.09-.21.13-.33.13Zm-5.57-5.03c-.1,0-.21-.03-.29-.1-.96-.77-1.96-1.53-2.97-2.26-.21-.15-.26-.44-.11-.66.15-.21.44-.26.66-.11,1.02.74,2.04,1.51,3.01,2.29.2.16.23.46.07.66-.09.12-.23.18-.37.18Zm-155.65-1.89c-.31-.03-.49-.26-.47-.52.12-1.24.23-2.48.31-3.73.02-.26.24-.46.5-.44.26.02.45.24.44.5-.08,1.25-.19,2.51-.31,3.76-.02.24-.23.42-.47.42Zm149.55-2.49c-.09,0-.17-.02-.25-.07-1.03-.66-2.11-1.32-3.19-1.94-.23-.13-.3-.42-.17-.64.13-.23.42-.3.64-.17,1.1.63,2.19,1.29,3.23,1.96.22.14.28.43.14.65-.09.14-.24.22-.4.22Zm-6.52-3.75c-.07,0-.15-.02-.21-.05-1.09-.56-2.23-1.11-3.36-1.63-.24-.11-.34-.39-.23-.62.11-.24.39-.34.62-.23,1.15.53,2.29,1.08,3.4,1.65.23.12.32.4.2.63-.08.16-.25.26-.42.26Zm-140.87-.05c-1.12,0-2.23-.03-3.28-.08-.26-.01-.46-.23-.45-.49.01-.26.22-.46.49-.44,1.04.05,2.12.08,3.23.08h.49c.26,0,.47.21.47.46,0,.26-.21.47-.47.47h-.5Zm4.25-.12c-.25,0-.46-.19-.47-.45-.01-.26.19-.48.44-.49,1.25-.06,2.49-.15,3.73-.26.26-.03.49.17.51.43.02.26-.17.49-.43.51-1.25.11-2.51.2-3.76.26h-.02Zm-11.25-.28s-.04,0-.06,0c-1.28-.16-2.54-.36-3.75-.61-.25-.05-.42-.3-.36-.56.05-.25.3-.42.56-.36,1.18.24,2.41.45,3.67.6.26.03.44.27.41.52-.03.24-.23.41-.47.41Zm18.8-.35c-.24,0-.47-.17-.5-.42-.03-.26.12-.49.38-.51,0,0,2.51-.28,3.73-.43.27-.03.49.15.52.41.03.26-.15.49-.41.52-1.22.15-2.45.29-3.67.42-.02,0-.03,0-.05,0Zm-13.48-.46c-.27,0-.48-.22-.47-.48.03-1.04.05-2.08.05-3.12v-.61c0-.26.21-.47.46-.47.26,0,.47.21.47.47v.62c0,1.05-.01,2.1-.05,3.15,0,.25-.22.46-.47.46Zm20.87-.43c-.23,0-.43-.17-.46-.41-.03-.26.15-.49.4-.53,1.24-.16,2.48-.34,3.72-.51.26-.04.49.14.53.4.04.26-.14.49-.4.53-1.24.18-2.48.35-3.73.51-.02,0-.04,0-.06,0Zm-33.54-.3s-.09,0-.14-.02c-.53-.16-1.06-.34-1.58-.53-.67-.24-1.33-.51-1.99-.8-.24-.11-.34-.38-.24-.62.11-.24.38-.35.62-.24.63.28,1.28.54,1.92.78.51.19,1.02.36,1.54.52.25.08.39.34.31.59-.06.2-.25.33-.45.33Zm40.97-.76c-.23,0-.43-.17-.46-.4-.04-.26.14-.5.39-.53,1.24-.19,2.47-.38,3.71-.57.26-.04.5.13.54.39.04.26-.13.5-.39.54-1.24.2-2.48.39-3.72.57-.02,0-.05,0-.07,0Zm107.41-.39c-.06,0-.12-.01-.18-.04-1.14-.47-2.32-.92-3.49-1.34-.24-.09-.37-.36-.28-.6.09-.24.36-.37.6-.28,1.19.43,2.37.88,3.53,1.36.24.1.35.37.26.61-.07.18-.25.29-.43.29Zm-99.99-.78c-.23,0-.43-.16-.46-.39-.04-.26.13-.5.39-.54,1.24-.2,2.47-.4,3.71-.61.26-.04.5.13.54.39.04.26-.13.5-.39.54-1.24.2-2.47.41-3.71.61-.03,0-.05,0-.08,0Zm-55.23-1.13c-.08,0-.17-.02-.24-.07-1.09-.66-2.14-1.4-3.13-2.18-.2-.16-.24-.46-.07-.66s.46-.24.66-.07c.95.76,1.97,1.47,3.03,2.12.22.13.29.42.16.65-.09.15-.24.23-.4.23Zm62.65-.09c-.23,0-.42-.16-.46-.39-.04-.26.13-.5.39-.54l3.71-.61c.25-.04.5.13.54.39.04.26-.13.5-.39.54l-3.71.61s-.05,0-.08,0Zm85.5-.56s-.1,0-.14-.02c-1.17-.37-2.38-.73-3.59-1.07-.25-.07-.4-.33-.33-.58.07-.25.33-.39.58-.33,1.22.34,2.44.7,3.62,1.08.25.08.38.34.3.59-.06.2-.25.33-.45.33Zm-78.09-.67c-.23,0-.43-.16-.46-.39-.04-.26.13-.5.39-.54,1.24-.2,2.47-.4,3.71-.6.25-.04.5.13.54.39.04.26-.13.5-.39.54-1.24.2-2.47.4-3.71.6-.03,0-.05,0-.08,0Zm7.42-1.17c-.23,0-.43-.17-.46-.4-.04-.26.14-.5.39-.54,1.24-.19,2.48-.37,3.72-.55.26-.04.49.14.53.4.04.26-.14.5-.4.53-1.24.18-2.48.36-3.71.55-.02,0-.05,0-.07,0Zm63.43-.17s-.07,0-.11-.01c-1.21-.29-2.43-.56-3.65-.81-.25-.05-.42-.3-.37-.55.05-.25.3-.42.55-.37,1.23.25,2.46.52,3.69.81.25.06.41.31.35.57-.05.22-.24.36-.46.36Zm-55.99-.9c-.23,0-.43-.17-.46-.41-.03-.26.15-.49.4-.53,1.24-.17,2.49-.33,3.73-.48.26-.04.49.15.52.41.03.26-.15.49-.41.52-1.24.15-2.48.31-3.72.48-.02,0-.04,0-.06,0Zm-65.44-.16c-.25,0-.46-.2-.47-.46-.04-1.18-.08-2.44-.14-3.75-.01-.26.19-.48.44-.49.28-.02.48.19.49.44.07,1.31.11,2.58.15,3.77,0,.26-.2.48-.46.48h-.01Zm114.07-.43s-.05,0-.08,0c-1.23-.21-2.46-.39-3.7-.56-.26-.03-.44-.27-.4-.53.03-.26.27-.44.53-.4,1.25.17,2.49.35,3.73.56.26.04.43.28.39.54-.04.23-.24.39-.46.39Zm-41.17-.32c-.24,0-.44-.18-.47-.42-.03-.26.16-.49.42-.52,1.25-.14,2.5-.26,3.74-.38.26-.03.49.16.51.42s-.16.49-.42.51c-1.24.12-2.49.25-3.73.38-.02,0-.03,0-.05,0Zm-98.22-.21c-.12,0-.25-.05-.34-.15-.89-.94-1.71-1.93-2.42-2.96-.15-.21-.1-.51.12-.65.21-.15.5-.1.65.12.69.98,1.47,1.94,2.33,2.85.18.19.17.49-.02.66-.09.09-.21.13-.32.13Zm131.95-.46c-1.29-.13-2.53-.23-3.77-.32-.26-.02-.45-.24-.44-.5.02-.26.25-.46.5-.44,1.25.08,2.5.19,3.76.32.26.03.45.26.42.51-.02.24-.23.42-.47.42Zm-26.25-.03c-.24,0-.45-.19-.47-.43-.02-.26.17-.48.43-.5,1.25-.1,2.5-.18,3.76-.26.25-.02.48.18.5.44.02.26-.18.48-.44.5-1.25.07-3.76.26-3.78.26Zm7.5-.44c-.25,0-.46-.2-.47-.45,0-.26.19-.48.45-.49,1.25-.05,2.51-.08,3.76-.1.27-.01.47.2.48.46,0,.26-.2.47-.46.48-1.25.02-3.76.1-3.76.1Zm11.26-.04c-.48,0-2.97-.07-3.76-.08-.26,0-.47-.21-.47-.47,0-.26.18-.45.47-.47.79,0,3.3.06,3.76.08.26,0,.46.23.45.49,0,.25-.22.46-.47.45Zm-128.72-5.17c-.18,0-.35-.1-.43-.27-.55-1.18-.99-2.39-1.3-3.61-.06-.25.09-.51.34-.57.25-.06.51.09.57.34.3,1.16.71,2.32,1.24,3.44.11.23,0,.51-.23.62-.06.03-.13.04-.2.04Zm29.18-.4c-.24,0-.45-.18-.47-.43-.11-1.3-.25-2.55-.42-3.71-.04-.26.14-.49.4-.53.25-.04.49.14.53.4.17,1.18.31,2.44.42,3.76.02.26-.17.49-.43.51-.01,0-.03,0-.04,0Zm-31-6.83c-.25,0-.46-.2-.47-.45,0-.19-.01-.38-.01-.56,0-1.08.12-2.19.36-3.28.05-.25.3-.42.56-.36.25.05.41.3.36.56-.22,1.03-.33,2.07-.33,3.09,0,.18,0,.35,0,.53,0,.26-.19.48-.45.49h-.02Zm29.94-.61c-.22,0-.41-.15-.46-.37-.27-1.27-.59-2.48-.94-3.59-.08-.25.06-.51.31-.59.25-.08.51.06.59.31.36,1.14.69,2.38.97,3.68.05.25-.11.5-.36.56-.03,0-.07.01-.1.01Zm-28.4-6.68c-.07,0-.13-.01-.2-.04-.24-.11-.34-.39-.23-.62.54-1.16,1.2-2.27,1.98-3.3.16-.21.45-.25.66-.09.21.16.25.45.09.66-.73.98-1.37,2.03-1.88,3.13-.08.17-.25.27-.43.27Zm26.09-.45c-.18,0-.34-.1-.42-.27-.55-1.16-1.18-2.22-1.86-3.16-.15-.21-.11-.5.1-.66.21-.15.5-.11.66.1.72.98,1.37,2.09,1.95,3.31.11.23.01.51-.22.63-.06.03-.13.05-.2.05Zm-21.61-5.51c-.13,0-.26-.06-.36-.16-.17-.2-.15-.49.05-.66,1-.86,2.08-1.59,3.2-2.16.23-.12.51-.03.63.21.12.23.03.51-.21.63-1.05.54-2.06,1.22-3.01,2.04-.09.08-.2.11-.31.11Zm17.15-.46c-.11,0-.21-.04-.3-.11-.93-.77-1.96-1.41-3.07-1.89-.24-.1-.35-.38-.24-.62.1-.24.38-.35.62-.24,1.19.52,2.29,1.2,3.29,2.02.2.17.23.46.06.66-.09.11-.23.17-.36.17Zm-10.52-2.87c-.22,0-.42-.16-.46-.38-.05-.25.12-.5.37-.55,1.29-.24,2.61-.28,3.89-.11.26.03.44.27.4.53-.03.26-.26.44-.53.4-1.18-.16-2.39-.12-3.59.1-.03,0-.06,0-.09,0Z" style="fill: #d0def2;"/>
        <g>
          <path d="m188.96,257l-39-1.66c.11-1.4.33-2.74.64-4.04.95-4.17,2.65-7.97,3.81-12.23,1.51-5.59-1.87-16.64-3.49-21.94-1.62-5.31-.47-13.24-.47-13.24,1.29-1.53,9.4-3.52,12.28-4.62.53-.2.87-.37.98-.5.47-.57.5-3.21.46-4.89,0-.83-.04-1.43-.04-1.43l.51-.43,8.53,1.31s-.33,1.63.05,2.98c.19.67.54,1.27,1.2,1.58.4.19.93.34,1.52.45.03.02.08.02.12.03,1.3.25,2.86.33,3.99.37.9.03,1.53.02,1.53.02,0,0,2.45,3.73,4.4,9.67.47,1.43.91,2.99,1.27,4.65,1.44,6.53,1.68,28.48,1.71,38.65,0,3.22,0,5.25,0,5.25Z" style="fill: #f5a784;"/>
          <path d="m169.94,370.44c-1.25.86-12.72.05-12.83-.76-.11-.85-.27-1.62-.37-2.31,0-.07-.03-.12-.03-.18,0-5.61-1.44-18.83-1.44-18.83,0,0,6.01-3.93,8.31-.73,0,0-2.92,18.34-.18,19.67.11.06.23.11.38.18,1.47.65,4.47,1.64,5.96,1.69,0,0,1.43.4.19,1.27Z" style="fill: #f5a784;"/>
          <path d="m169.94,370.44c-1.25.86-12.72.05-12.83-.76-.11-.85-.27-1.62-.37-2.31,0-.07-.02-.12-.03-.18,1.49.3,4.07.65,7.08.29,1.47.65,4.47,1.64,5.96,1.69,0,0,1.43.4.19,1.27Z" style="fill: #05004a;"/>
          <path d="m186.63,363.63c-1.52.02-10.59-7.04-10.24-7.77.38-.77.68-1.5.98-2.12.03-.06.04-.12.08-.16,3.12-4.66,6.83-20.37,6.83-20.37,0,0,7.72.57,7.85,4.5,0,0-10.73,17.05-9.18,19.69.06.11.13.22.22.36.86,1.36,2.8,3.85,4.01,4.72,0,0,.97,1.13-.55,1.16Z" style="fill: #f5a784;"/>
          <path d="m186.63,363.63c-1.52.02-10.59-7.04-10.24-7.77.38-.77.68-1.5.98-2.12.03-.06.05-.11.08-.16,1.07,1.08,3.02,2.8,5.72,4.18.86,1.36,2.8,3.85,4.01,4.72,0,0,.97,1.13-.55,1.16Z" style="fill: #05004a;"/>
          <path d="m185.15,352.29c-.89,1.29-6.86-1.54-6.21-4.01,8.31-31.77,13.49-36.13,13.49-36.13.59-1.1.53-2.44-.17-3.48-9.93-14.74-19.73-33.55-19.73-33.55.2,7.5-2.65,34.76-3.29,42.26-.64,7.51-5.13,42.52-5.95,42.95-5.03,2.61-8.02-.01-8.02-.01,0,0-4.42-19.03-2.85-29.5,1.57-10.47-1.24-25.3-2.46-39.44-1.16-13.44-1.26-22.83-.93-29.33.57-10.94,2.35-13.68,2.35-13.68,11.28,2.59,26.44,2.35,33.57,2.05,2.5-.1,4.01-.21,4.01-.21,0,0,1.23,3.31,1.46,3.93,4.49,12.07,17.77,48.2,18.55,54.76.93,7.9-23.82,43.39-23.82,43.39Z" style="fill: #01070a;"/>
          <path d="m189.8,252.47l-4.85-2.05c-7.13.3-22.29.54-33.57-2.05,0,0-1.78,2.74-2.35,13.68,8.42.46,28.83.55,41.39-7.91l-.62-1.67Z" style="fill: #000405;"/>
          <path d="m218.55,160.35s-.09-3.23.83-4.97c1.23-2.31,11.19-1.98,11.19-1.98,0,0,1.69,2.62-1.48,3.33-5.12,1.14-4.71,5.62-4.71,5.62,0,0-6.06-.3-5.82-2Z" style="fill: #f5a784;"/>
          <path d="m173.22,196.32c-6.2,1.67-8.07-.26-9.05-2.44,0-.83-.04-1.43-.04-1.43l.51-.43,8.53,1.31s-.33,1.63.05,2.98Z" style="fill: #e0855c;"/>
          <path d="m173.6,187.2c3.94-1.81,2.07-6.67,1.57-9.88-.18-1.16-.37-2.37-1.05-3.33-.82-1.16-2.25-1.78-3.66-1.96-1.56-.2-3.42.18-4.65,1.19-1.13.93-1.57,2.46-2.56,3.52-1.63,1.76-4.57,2.21-5.6,4.38-.39.81-.43,1.75-.36,2.65.26,3.5,2.32,7,6.25,6.81,2.48-.12,4.87-.86,7.24-1.6.54-.17,1.08-.34,1.56-.65.69-.45.52-.78,1.26-1.12Z" style="fill: #05004a;"/>
          <path d="m174.98,183.35s1.08-1.9,2.76-.5c1.68,1.41-.09,5-1.86,5.46,0,0-.97-4.22-.9-4.97Z" style="fill: #e0855c;"/>
          <path d="m173.62,178.54c1.09.79,1.9,3.97,2.41,6.32,1.52,7.12-.22,9.74-3.8,10.8-3.59,1.05-7.67.34-9.65-6.16-.99-3.25-1.97-6.24-1.02-7.89,1.41-2.46,8.73-5.49,12.07-3.07Z" style="fill: #f5a784;"/>
          <path d="m162.91,188.45s-1.66-2.76-3.14-.87,1.72,5.7,4.36,4.88c0,0-.18-3.15-1.22-4Z" style="fill: #f5a784;"/>
          <path d="m160.84,188.78c.4,0,.87.29,1.2.51.35.22.75.5.97.86.07.11-.09.22-.18.15-.27-.17-.5-.39-.75-.59-.12.19-.25.39-.44.5-.15.09-.31-.09-.26-.24.06-.19.21-.34.35-.49-.32-.17-.69-.27-.97-.49-.11-.08-.04-.23.08-.23Z" style="fill: #e0855c;"/>
          <path d="m172.6,184.8s.66.12.37-.96c-.26-.97-.68-.76-.68-.76,0,0-.43.07-.21.93.22.85.52.79.52.79Z" style="fill: #05004a;"/>
          <path d="m166.58,186.39s.66.12.37-.96c-.26-.97-.68-.76-.68-.76,0,0-.43.07-.21.93.22.85.52.79.52.79Z" style="fill: #05004a;"/>
          <path d="m170.57,188.69c.31-.1,1.06-.05,1.14-.41.07-.3-.73-1.88-.86-2.15-.44-.98-.84-1.63-1.26-2.83-.02-.05.07-.1.1-.05,1.02,1.51,1.66,3.49,2.41,5.15.04.09-.01.21-.11.22-.46.08-.89.25-1.35.34-.15.03-.24-.22-.09-.27Z" style="fill: #e0855c;"/>
          <path d="m171.32,181.59c.4-.31,1.22-.52,1.63-.11.07.07.02.21-.08.23-.22.03-.44-.04-.66-.02-.24.02-.46.12-.67.23-.19.1-.39-.19-.21-.32Z" style="fill: #05004a;"/>
          <path d="m165.15,183.77c.14-.67,1.23-.93,1.77-.63.12.07.09.25-.02.31-.26.13-.57.08-.85.16-.25.07-.42.21-.64.34-.11.06-.28-.05-.26-.18Z" style="fill: #05004a;"/>
          <path d="m173.74,189.71s-1.73,2.03-4.4,1.28c0,0,.62,1.39,2.79.96,1.42-.29,1.62-2.24,1.62-2.24Z" style="fill: #fff;"/>
          <path d="m152.07,212.72c-1.01-.68-2.01-1.49-2.96-2.43-10.99-10.69-17.82-36.69-17.71-39.95.15-4.64,1.45-11.01,2.73-16.32.18-.74.36-1.46.53-2.15.49-1.92.95-3.62,1.33-4.95.51-1.83.85-2.95.85-2.95,0,0,4.47-3.11,5.85.21,0,0-.56,3.29-.69,4.73-.08.95-.42,4.72-.48,5.38-.54,6.3-1.17,14.5-1.01,16.7.21,2.8,10.42,20.59,21.04,27.79.06.05.12.08.18.13,1.83,1.21,5.89,24.09-9.66,13.8Z" style="fill: #f5a784;"/>
          <path d="m137.43,146.28s-.6-1.64-1.56-3.59c-.97-1.95-3.11-6.22-3.02-7.81,0,0,.09-.29.32-.7.03-.06.07-.12.11-.18.23-.35.56-.75,1.04-1.09.03-.03.07-.05.11-.08.35-.23.78-.44,1.28-.56.04-.01.09-.02.13-.03.39-.09.83-.14,1.32-.14,0,0,2.08,4.39,3.27,5.53,0,0-.56-2.95.17-3.55l.64-.09s.96,3.11,1.52,4.45c1.35,3.27-.25,6.63-.25,6.63,0,0-2.99,2.65-5.08,1.2Z" style="fill: #f5a784;"/>
          <path d="m135.72,132.28s.09-.02.13-.03c.77,2.04,1.86,3.9,2.91,5.84.02.04-.03.08-.06.05-1.46-1.69-2.34-3.74-2.98-5.86Z" style="fill: #e0855c;"/>
          <path d="m134.32,132.92s.07-.05.11-.08c.78,2.04,1.86,3.9,2.9,5.84.02.04-.03.08-.06.04-1.45-1.67-2.33-3.7-2.96-5.8Z" style="fill: #e0855c;"/>
          <path d="m133.16,134.19c.03-.06.07-.12.11-.18.76,1.92,1.78,3.68,2.77,5.51.03.03-.03.08-.06.04-1.39-1.52-2.2-3.43-2.83-5.38Z" style="fill: #e0855c;"/>
          <path d="m225.57,161.37c-.42,4.31-6.24,22.78-10.48,31.76-1.2,2.53-13.38,10.08-21.28,14.86-2.82,1.71-6.48,3.94-6.66,4.05.09.37.15.68.15.87,0,.1-.02.17-.05.19,1.35,6.12,2.57,25.82,2.74,36.63.01.72.02,1.4.02,2.03-18.22,7.82-34.4,2.1-40.05-.76.94-4.18,3.29-7.67,4.44-11.93,1.51-5.58-2.6-20.6-6.29-29.08-.19-.43-.31-.82-.41-1.19-10.16-11.43-16.4-35.35-16.3-38.46.16-4.65,1.45-11.01,2.73-16.32,2.24.12,5.05.29,7.39.28-.54,6.3-1.17,14.51-1.01,16.7.21,2.81,10.42,20.59,21.04,27.79.06.04.12.08.18.13.13.08.27.29.42.57.21-.07.4-.14.58-.21,1.97,3.06,7.02,10,11.07,8.5,3.04-1.14,3.04-4.85,2.53-7.67-.05-.21-.1-.41-.13-.58-.03-.15-.05-.25-.08-.35-.02-.13-.04-.24-.05-.33-.04-.17-.09-.35-.13-.5.03,0,.08.02.12.03.18-.02.46-.09.85-.19.58-.14,1.39-.37,2.39-.68l.05.09c2.82-.87,7.14-2.33,12.08-4.25.46-.19.93-.37,1.41-.56,4.79-1.91,7.41-2.89,12.4-5.47,0,0,7.48-13.73,12.83-27.11,4.14,1.3,5.4.81,7.5,1.16Z" style="fill: #a7e22c;"/>
          <path d="m187.25,213.1c1.35,6.12,2.57,25.82,2.74,36.63-3.95-1.7-11.58-4.36-11.58-18.61,0-19.24-.74-28.96-1.5-32.93.58-.14,1.39-.37,2.39-.68l.05.09c2.82-.87,7.14-2.33,12.08-4.25l2.38,14.64c-2.82,1.71-6.48,3.94-6.66,4.05.09.37.15.68.15.87,0,.1-.02.17-.05.19Z" style="fill: #a7e22c;"/>
        </g>
        <g>
          <path d="m56.79,264.61s-.62.97-3.21,3c-1.56,1.22-5.31,3.47-5.88,4.81,0,0-.04.28-.02.7,0,.06,0,.12.02.19.05.38.16.84.42,1.31.02.03.04.07.06.11.19.33.46.67.83.97.03.03.06.05.1.07.28.23.62.45,1.03.64,0,0,3.46-2.78,4.88-3.24,0,0-1.63,2.2-1.27,2.98l.49.33s2.02-2.17,3.01-3.05c2.41-2.14,2.82-5.38,2.82-5.38,0,0-.99-3.8-3.29-3.45Z" style="fill: #f5a784;"/>
          <path d="m49.02,275.7s.06.05.1.07c1.45-1.37,3.08-2.46,4.71-3.63.03-.02,0-.08-.03-.06-1.87.81-3.41,2.14-4.77,3.62Z" style="fill: #e0855c;"/>
          <path d="m48.13,274.61s.04.07.06.11c1.45-1.37,3.08-2.46,4.71-3.63.03-.02,0-.08-.03-.06-1.85.8-3.38,2.11-4.74,3.58Z" style="fill: #e0855c;"/>
          <path d="m47.68,273.12c0,.06,0,.12.02.19,1.38-1.27,2.93-2.31,4.47-3.42.03-.02,0-.07-.03-.06-1.75.7-3.17,1.94-4.46,3.29Z" style="fill: #e0855c;"/>
          <path d="m86.16,205.15s-3.77-1.22-7.58,6.64c-3.82,7.86-6.34,24.62-8.95,30.9s-14.86,25.05-14.86,25.05l3.58,2.43s14.2-17.31,18.13-24.97c3.93-7.66,21.84-41.57,9.69-40.06Z" style="fill: #f5a784;"/>
          <path d="m132.36,298.31c-1.26,5.4-7.77,16.59-13.74,26.11-5.48,8.75-10.51,16.09-10.61,16.23-1.46,2.37-2.57,4.44-2.98,5.79-.13.44.13,1.27.51,2.2.59,1.49,1.64,3.3,3.02,4.53,0,0,.97,1.39-.74,1.24-1.72-.16-8.97-7.37-8.49-8.15.52-.83.97-1.59,1.35-2.28,1.1-1.95,1.7-3.31,1.98-4,0,0,.38-1.06,1.07-2.85,0,0,1.64-7.45,4.55-16.16,2.57-7.71,6.14-16.41,10.43-21.79,0,0-8.87-9.48-18.16-20.11-6.05-6.93-12.28-14.35-16.32-19.95-2.19-3.04-3.45-6.03-1.17-8.74,1.13-1.37,3.16-2.66,6.41-3.86,9.73-3.59,14.34-5.53,14.34-5.53,0,0,30.98,46.91,28.55,57.32Z" style="fill: #f5a784;"/>
          <path d="m100.55,279.07c-.05.26-.1.51-.14.73-1.21,6.13-12.85,35.88-14.41,40.39-.71,2.05-3.98,10.72-7.38,19.78-4.07,10.88-8.32,22.33-8.49,23.54-.06.46.33,1.23.84,2.1.82,1.38,2.14,3.01,3.69,4,0,0,1.17,1.22-.54,1.34-1.72.11-10-5.89-9.65-6.73.39-.9.71-1.72.98-2.46.79-2.1,1.17-3.53,1.33-4.26,0,0,.21-1.08.6-2.92,0,0,.79-7.34,2-15.83,1.2-8.47,2.82-18.1,4.47-22.73,1.4-3.94,3.99-6.07,4.86-16.32.87-10.24,0-46.93,0-46.93,0-.75.87-1.95,4.35-2.39,2.14-.28,5.27-.27,9.8.3,11.46,1.45,8.98,21.45,7.69,28.39Z" style="fill: #f5a784;"/>
          <path d="m80,190.84c.44,1.91,1.31,3.59,2.62,4.67,1.98,1.63,4.65,2.26,7.21,2.08,2.9-.2,6.03-1.04,7.72-3.46,1.93-2.75,3.91-5.6,3.69-9.13-.16-2.54-1.66-4.87-3.72-6.31-2.5-1.75-4.95-3.47-8.12-1.97.74-1.43,1.19-3.04,1.02-4.64-.17-1.6-1.02-3.16-2.41-3.96-1.73-.99-4.05-.62-5.56.68-1.51,1.3-2.23,3.38-2.13,5.36.11,2.07,1.53,4.64,3.88,4.62-3.85,1.86-5.22,7.57-4.19,12.06Z" style="fill: #05004a;"/>
          <path d="m78.71,252.77l28.21,3.1s-.78-10.86-3.67-22.9c-1.97-8.21-.12-8.81,0-11.41.12-2.59-4.62-7.22-6.24-10.58-1.32-2.72-2.67-4.98-2.72-8.26-.02-.77.05-1.6.19-2.51,0,0-4.74-6.35-7.19-2.47-.05.08-.07.54-.1,1.17-.09,1.6-.28,4.35-1.58,5.35,0,0-6.21,3.49-5.28,12.17.93,8.67,5.61,17.23,3.9,20.7-1.71,3.47-5.52,6.25-5.52,15.63Z" style="fill: #f5a784;"/>
          <path d="m87.19,198.92c1.89,2.82,5.08,3.6,7.1,3.8-.02-.77.05-1.6.19-2.51,0,0-4.74-6.35-7.19-2.47-.05.08-.07.54-.1,1.17Z" style="fill: #e0855c;"/>
          <path d="m99.33,346.26c-.48.78,6.77,7.99,8.49,8.15,1.71.15.74-1.24.74-1.24-1.38-1.22-2.43-3.03-3.02-4.53-.28-.12-2.88-1.63-4.86-4.66-.38.68-.83,1.45-1.35,2.28Z" style="fill: #05004a;"/>
          <path d="m64.47,364.22c-.35.84,7.93,6.84,9.65,6.73,1.71-.12.54-1.34.54-1.34-1.55-.99-2.87-2.62-3.69-4-.29-.07-3.09-1.17-5.52-3.85-.27.74-.6,1.56-.98,2.46Z" style="fill: #05004a;"/>
          <path d="m98.27,186.19c.74,1.05.96,3.01,1.04,5.31.23,6.96-3.14,9.52-5.41,9.52-2.34,0-7.27-.98-8.04-7.44-.38-3.23-.36-5.94.38-7.6,1.56-3.49,8.76-4.38,12.03.22Z" style="fill: #f5a784;"/>
          <path d="m96.09,191.94s.6.22.51-.84c-.08-.96-.51-.83-.51-.83,0,0-.42,0-.35.83.06.84.35.84.35.84Z" style="fill: #05004a;"/>
          <path d="m90.39,192.08s.6.22.51-.84c-.08-.96-.51-.83-.51-.83,0,0-.42,0-.35.83.06.84.35.84.35.84Z" style="fill: #05004a;"/>
          <path d="m92.97,194.24c.3-.05,1,.14,1.15-.19.12-.27-.37-1.89-.44-2.17-.08-.3-.15-.58-.23-.84.03-.02.05-.04.08-.06.06-.04.13-.06.19-.07.28,1.11.49,2.27.75,3.32.02.09-.05.19-.14.19-.45,0-.88.09-1.33.09-.15,0-.19-.25-.04-.27Z" style="fill: #e0855c;"/>
          <path d="m95.43,188.71c.43-.22,1.24-.28,1.55.17.06.08-.02.2-.11.2-.21-.01-.4-.11-.62-.13-.23-.02-.45.03-.67.1-.2.06-.33-.24-.14-.34Z" style="fill: #05004a;"/>
          <path d="m89.49,189.37c.25-.61,1.31-.67,1.77-.29.1.09.04.25-.08.29-.27.08-.55-.02-.82,0-.24.02-.44.13-.66.21-.12.04-.26-.09-.21-.21Z" style="fill: #05004a;"/>
          <path d="m92.24,195.9c.42.21.74.45,1.24.47.39.02.8-.17,1.17-.04.06.02.1.09.06.15-.28.42-1.01.46-1.47.42-.49-.04-1.07-.22-1.32-.68-.12-.22.11-.43.32-.32Z" style="fill: #e0855c;"/>
          <path d="m92.82,183.93c-.11.51-.37,1.01-.79,1.31-.43.31-.98.36-1.49.47-.51.11-1.06.34-1.29.83-.16.33-.13.72-.2,1.09-.11.54-.45,1.03-.92,1.31-.42.25-.95.34-1.25.73-.22.28-.27.65-.43.97-.16.32-.52.6-.82.44-.61-1.07-1.18-2.19-1.34-3.42-.26-1.93.58-3.94,2.04-5.16,1.46-1.22,3.46-1.65,5.29-1.25,1.39.3,1.51,1.39,1.23,2.69Z" style="fill: #05004a;"/>
          <path d="m86.35,192.05s-1.09-2.88-2.8-1.35c-1.72,1.53.64,5.65,3.27,5.33,0,0,.37-2.99-.47-3.98Z" style="fill: #f5a784;"/>
          <path d="m84.39,192c.38.07.77.42,1.04.68.29.27.62.6.77.97.04.12-.12.19-.2.11-.22-.21-.4-.45-.61-.68-.15.16-.3.32-.5.4-.16.06-.28-.14-.21-.27.09-.17.25-.29.42-.4-.27-.21-.6-.38-.83-.62-.09-.09,0-.22.12-.2Z" style="fill: #e0855c;"/>
          <path d="m132.36,298.31c-1.26,5.4-7.77,16.59-13.74,26.11-3.54-.62-6.99-1.89-10.34-3.45,2.57-7.71,6.14-16.41,10.43-21.79,0,0-8.87-9.48-18.16-20.11-.05.26-.1.51-.14.73-.22,1.1-.77,2.96-1.54,5.3-3.52,10.69-11.59,31.39-12.87,35.09-.71,2.05-3.98,10.72-7.38,19.78-2.59.33-6.12-.1-9.24-1.22,1.2-8.47,2.82-18.1,4.47-22.73,1.4-3.94,3.99-6.07,4.86-16.32.76-8.98.6-18.1.4-27.17-.07-2.97-.14-5.93-.19-8.88-.02-1.43.02-2.89.02-4.36,0-1.62-.03-3.24-.23-4.8-.72-5.57,1.18-11.28,4.75-15.67.13-.16.27-.32.47-.39.21-.09.46-.04.68.02,3.28.78,6.41,2.44,9.71,3.04,3.23.59,6.78.66,10.07.45.2,0,.42-.02.58.11.1.08.16.2.22.31,3.37,6.48,7.53,12.65,11.24,18.97,5.72,9.72,12.05,19.97,15.22,30.88.55,1.89,1.17,4.12.71,6.1Z" style="fill: #05004a;"/>
          <path d="m124.89,196.84s1.3-2.88,2.62-5.75c.8-1.73,3.01-5.3,2.9-6.69,0,0-.08-.25-.29-.6-.03-.05-.06-.1-.1-.15-.21-.3-.5-.64-.93-.93-.03-.02-.07-.05-.1-.07-.31-.2-.69-.37-1.14-.47-.04,0-.08-.01-.11-.02-.34-.07-.73-.11-1.16-.09,0,0-1.73,3.89-2.74,4.91,0,0,.42-2.59-.22-3.1l-.56-.07s-.78,2.74-1.23,3.92c-1.11,2.89-.04,5.83-.04,5.83,0,0,1.31,4.58,3.12,3.27Z" style="fill: #f5a784;"/>
          <path d="m127.84,182.19s-.08-.01-.11-.02c-.63,1.8-1.55,3.45-2.42,5.17-.02.03.03.07.06.04,1.24-1.51,1.97-3.32,2.48-5.19Z" style="fill: #e0855c;"/>
          <path d="m129.08,182.72s-.07-.05-.1-.07c-.64,1.8-1.55,3.45-2.42,5.17-.02.03.03.07.05.04,1.23-1.49,1.96-3.29,2.47-5.14Z" style="fill: #e0855c;"/>
          <path d="m130.12,183.8s-.06-.1-.1-.15c-.62,1.69-1.48,3.25-2.31,4.88-.02.03.03.07.05.04,1.19-1.36,1.86-3.05,2.36-4.77Z" style="fill: #e0855c;"/>
          <g style="clip-path: url(#clippath);">
            <rect x="65.14" y="207.08" width="41.97" height="41.97" style="fill: #f92572;"/>
            <rect x="65.14" y="249.05" width="41.97" height="41.97" style="fill: #f92572;"/>
            <rect x="107.1" y="165.11" width="41.97" height="41.97" style="fill: #29aac9;"/>
            <rect x="107.1" y="207.08" width="41.97" height="41.97" style="fill: #f92572;"/>
            <rect x="107.1" y="249.05" width="41.97" height="41.97" style="fill: #f92572;"/>
          </g>
          <g style="clip-path: url(#clippath-1);">
            <rect x="65.14" y="165.11" width="41.97" height="41.97" style="fill: #f92572;"/>
          </g>
          <path d="m105.8,222.77c-.34,1.07-.59,2.14-.79,3.2-.21,1.19-.51,2.44-.65,3.68-19.31-5.01-22.51-15.59-22.51-15.59l-.48-.42c-.39-2.42,17.53,4.64,24.26,7.37.11.69.15,1.29.17,1.76Z" style="fill: #f92572;"/>
          <path d="m83.95,216.96s-6.63-4.73-.09-10.6c4.19-3.76,21.54,13.6,29,10.6,1.07-.43,9.79-26.22,9.79-26.22l3.99,1.15s-3.46,27.86-8.38,32.08c-4.57,3.93-18.49,4-34.32-7.01Z" style="fill: #f5a784;"/>
          <path d="m100.55,279.07c-.05.26-.1.51-.14.73-.22,1.1-.77,2.96-1.54,5.3-3.89-1.51-13.67-5.77-19.76-12.57-.07-2.97-.14-5.93-.19-8.88-.02-1.43.02-2.89.02-4.36,1.65,3.44,6.73,9.7,21.61,19.78Z" style="fill: #040038;"/>
        </g>
        <path d="m476.57,147.65h-57.24c-15.35,0-63.6,2.28-68.05-1.98-9.92-9.49,19.41-12.07,23.44-9.24-5.5-3.87-7.81-11.68-5.3-17.92,2.51-6.24,9.59-10.28,16.23-9.26,11.61,1.77,16.97,15.49,26.84,21.86-2.54-5.87,3.84-12.81,10.22-12.24,6.37.56,11.24,6.54,12.48,12.82,3.66-2.21,7.76-4.38,11.98-3.76s7.95,5.49,5.83,9.2c9.97-.09,19.95,1.01,29.67,3.26,2.61.6,5.7,1.84,6.02,4.49.51,4.25-7.93,3.67-12.12,2.76Z" style="fill: #d0def2;"/>
        <path d="m69.51,91.88h44.52c11.94,0,49.46,1.78,52.92-1.54,7.71-7.38-15.1-9.38-18.23-7.18,4.28-3.01,6.07-9.09,4.12-13.94-1.95-4.85-7.46-7.99-12.62-7.2-9.03,1.38-13.2,12.05-20.87,17,1.98-4.57-2.99-9.96-7.95-9.52s-8.74,5.09-9.7,9.97c-2.85-1.72-6.03-3.41-9.32-2.92-3.29.48-6.18,4.27-4.53,7.15-7.76-.07-15.52.78-23.07,2.54-2.03.47-4.43,1.43-4.68,3.49-.4,3.3,6.17,2.85,9.42,2.15Z" style="fill: #d0def2;"/>
        <g>
          <path d="m455.83,371.24c1.28.89,13.11.05,13.23-.78.12-.88.28-1.67.38-2.38,0-.07.04-.13.03-.18-1.02-7.35-2.37-18.36-2.37-18.36,0,0-5.63-.74-8.01,2.56,0,0,6.31,14.54,3.48,15.92-.12.06-.24.12-.4.18-1.52.67-4.61,1.69-6.14,1.74,0,0-1.48.42-.19,1.3Z" style="fill: #f5a784;"/>
          <path d="m455.83,371.24c1.28.89,13.11.05,13.23-.78.12-.88.28-1.67.38-2.38,0-.07.02-.13.03-.18-1.54.31-4.19.67-7.29.3-1.52.67-4.61,1.69-6.14,1.74,0,0-1.48.42-.19,1.3Z" style="fill: #011948;"/>
          <path d="m537.74,370.16c-1.28.89-13.11.05-13.23-.78-.12-.88-.28-1.67-.38-2.38,0-.07-.02-.13-.03-.18-.46-3.44-6-13.82-6-13.82,0,0,5.09-4.37,7.47-1.08,0,0,2.6,13.64,5.43,15.02.12.06.24.12.4.18,1.52.67,4.61,1.69,6.14,1.74,0,0,1.48.42.19,1.3Z" style="fill: #f5a784;"/>
          <path d="m537.74,370.16c-1.28.89-13.11.05-13.23-.78-.12-.88-.28-1.67-.38-2.38,0-.07-.02-.13-.03-.18,1.54.31,4.19.67,7.29.3,1.52.67,4.61,1.69,6.14,1.74,0,0,1.48.42.19,1.3Z" style="fill: #011948;"/>
          <path d="m538.27,354.1s-12.66,5.88-21.9,1.56c0,0-.24-.43-.66-1.24-.16-.29-.32-.63-.52-1.01-.9-1.83-2.25-4.7-3.72-8.43-.14-.33-.27-.67-.4-1.02-1.18-3.05-2.42-6.62-3.57-10.61-.09-.32-.18-.65-.28-.98-.98-3.51-1.89-7.35-2.63-11.45-.07-.37-.14-.75-.2-1.12-.33-1.92-.62-3.88-.85-5.88,0,0-.25-1.18-2.61-5.34-.17-.31-.36-.64-.56-.99-.86-1.47-1.94-3.26-3.31-5.43-.49-.77-1.01-1.62-1.55-2.53-.22-.37-.44-.75-.67-1.15-2.19-3.79-4.65-8.45-6.95-13.12-.18-.36-.36-.72-.54-1.09-1.23-2.53-2.41-5.04-3.46-7.41-.18-.42-.36-.83-.54-1.24-1.87-4.31-3.25-8-3.69-10.16,0,0-2.11,4.94-6.18,15.29-.21.54-8.39,21.89-10.5,27.56-.15.39-.23.81-.26,1.23-.02.36-.02.75.06,1.12.04.27.12.55.23.82l16.95,43.4s-11.33,3.06-23.09-1.02c0,0-.12-.3-.32-.86-.12-.34-.28-.76-.47-1.27-.81-2.24-2.13-6.1-3.54-10.86-.12-.4-.24-.81-.36-1.23-.81-2.8-1.63-5.87-2.38-9.09-.11-.47-.22-.95-.32-1.44-.83-3.67-1.54-7.49-2.02-11.27-.03-.28-.06-.56-.09-.84-.36-3.75-.66-7.43-.52-10.88,0,0,3.07-17.26,3.14-17.61.81-4.16,1.72-8.66,2.75-13.04.13-.54.26-1.09.38-1.62.81-3.42,1.67-6.74,2.55-9.72.11-.39.23-.77.34-1.14.6-2,1.23-3.82,1.85-5.4.99-2.52,1.99-4.43,2.97-5.45,2.04-2.12,6.75-2.84,12.33-2.68.51.02,1.04.04,1.58.07,5.47.32,11.58,1.41,16.76,2.86.34.1.66.19.99.29,4.65,1.37,8.43,3.02,10.13,4.62.48.45.8.89.92,1.32.06.23,8.48,27.67,8.65,28.18,1.17,3.55,2.29,6.81,3.25,9.31.12.3.23.6.35.87.03.09.07.18.1.26,1.03,2.57,2.63,7.06,4.52,12.43.1.29,8.93,24.94,9.04,25.25,1.39,3.7,2.75,7.15,3.99,10.11.08.19.16.37.24.55,1.87,4.4,3.48,7.55,4.59,8.52Z" style="fill: #011948;"/>
          <path d="m505.94,266.75c-4.48,1.39-11.01,2.17-18.33-.93-5.76-2.44-12.19-4.57-19.68-4.17-5.06.27-8.42-2.34-10.07-4.06.99-2.52,1.99-4.43,2.97-5.45,2.04-2.12,6.75-2.84,12.33-2.68.51.02,1.04.04,1.58.07,5.47.32,11.58,1.41,16.76,2.86.34.1.66.19.99.29,4.65,1.37,8.43,3.02,10.13,4.62.48.45.8.89.92,1.32.06.23,1.01,3.5,2.4,8.13Z" style="fill: #040038;"/>
          <path d="m476.07,201.65c-.19,2.97-5.03,13.89-9.81,23.54-3.48,7.03-6.93,13.38-8.54,15.52-6.75,9.01-23.06,21.84-23.06,21.84,0,0-4.34-2.01-3.44-6.16,0,0,15.9-18.72,18.12-22.47,1.16-1.97,3.65-7.36,6.13-13.07,2.28-5.17,4.56-10.6,5.9-13.9,2.47-6.07,8.82-13.84,13.05-9.77,1.2,1.15,1.75,2.82,1.65,4.47Z" style="fill: #f5a784;"/>
          <path d="m436.13,260.98s-1.45,1.46-3.05,3.46c-1.6,2.01-5.08,6.44-6.83,7.14,0,0-.36.05-.9.01-.08,0-.16-.01-.24-.03-.48-.07-1.08-.22-1.68-.57-.04-.02-.09-.05-.14-.08-.42-.25-.86-.61-1.25-1.09-.03-.04-.06-.08-.09-.12-.29-.37-.57-.81-.81-1.35,0,0,3.65-4.43,4.27-6.26,0,0-2.87,2.07-3.87,1.59l-.42-.64s2.84-2.58,3.99-3.85c2.82-3.08,7.21-3.06,7.21-3.06,0,0,4.32,1.86,3.83,4.83Z" style="fill: #f5a784;"/>
          <path d="m422.03,269.82s-.06-.08-.09-.12c1.79-1.85,3.23-3.94,4.78-6.03.03-.04.1,0,.08.04-1.07,2.4-2.82,4.37-4.77,6.11Z" style="fill: #e0855c;"/>
          <path d="m423.42,270.99s-.09-.05-.14-.08c1.8-1.85,3.23-3.94,4.78-6.03.03-.04.1,0,.08.04-1.06,2.39-2.79,4.34-4.72,6.07Z" style="fill: #e0855c;"/>
          <path d="m425.35,271.59c-.08,0-.16-.01-.24-.03,1.67-1.77,3.03-3.75,4.5-5.72.02-.04.1,0,.08.04-.93,2.25-2.56,4.07-4.33,5.71Z" style="fill: #e0855c;"/>
          <path d="m476.07,201.65c-.19,2.97-6.24,17.12-11.02,26.78-4.49.82-8.38-1.08-10.79-4.82,2.28-5.17,5.77-13.36,7.11-16.66,2.47-6.07,8.82-13.84,13.05-9.77,1.2,1.15,1.75,2.82,1.65,4.47Z" style="fill: #a7e22c;"/>
          <rect x="451.05" y="194.47" width="7.45" height="14.15" rx="1.17" ry="1.17" transform="translate(-37.27 128.51) rotate(-15.46)" style="fill: #011948;"/>
          <path d="m505.87,259.61s-.73.22-1.91.48c-.54.11-1.2.23-1.9.34-.65.1-1.36.19-2.11.24-1.85.15-3.89.11-5.77-.34-2.37-.57-4.76-1.48-7.23-2.22-.49-.15-.99-.29-1.49-.42-2.51-.66-5.09-1.06-7.83-.69-2.6.35-6.09.7-9.54.56-.62-.02-1.24-.06-1.84-.12-2.77-.26-5.38-.89-7.41-2.15-.84-.51-1.58-1.14-2.17-1.89,0,0,3.76-5.85,6.11-11.44,1.06-2.56,1.83-5.05,1.8-6.91,0,0,1.41-19.99,1.43-20.33.1-1.45,2.44-15.39,3.61-17.72.16-.32.48-.54.91-.69,2.26-.74,7.63.65,10.09.73-.02.1-.03.21-.05.31l-.04.23c-.36,2.89.72,6.17-.34,9.57-1.39,4.51,8.56-4.78,12.35-8.68.24-.24.43-.45.62-.63.19-.21.36-.4.49-.54.05-.07.11-.14.16-.2,8.44.84,10.72,1.99,10.75,2.01,1.17.81,1.43,2.04,1.25,3.74-.25,2.39-1.41,5.77-2.36,10.53-.72,3.52-1.55,7.72-2.26,12.68-.46,3.26-.56,6.54-.42,9.71.58,12.84,5.1,23.84,5.1,23.84Z" style="fill: #a7e22c;"/>
          <path d="m481.52,213.04c3.59-5.58,8.6-11.54,11.1-14.52.21-.24,1.14-1.36,1.19-1.42-.74.03-1.35.03-1.72-.11-.19-.07-.32-.17-.39-.31-.02-.01-.02-.03-.03-.04-.35-.85-.25-3.59-.11-5.65.04-.78.11-1.47.14-1.91,0-.04.01-.08.01-.11.02-.31.04-.47.04-.47.01-.14.01-.26,0-.38,0-.13-.02-.24-.06-.34-.41-1.59-2.76-1.19-5.06-.39-1.1.4-2.2.88-3.05,1.29-.51.24-.93.46-1.2.61-.27.14-.41.22-.41.22,0,0,.05.25.12.67.09.58.21,1.48.28,2.43.03.34.06.7.07,1.04.03,1.5-.11,2.91-.76,3.25-.2.12-.58.15-1.06.14-.02.1-.03.21-.05.31l-.04.23c-.62,4.11-1.62,19.48.99,15.46Z" style="fill: #f5a784;"/>
          <path d="m481.98,189.51s.05.25.12.67c.09.58.21,1.48.28,2.43.03.34.06.7.07,1.04,1.75.56,3.23.61,4.47.36.38-.08.73-.18,1.05-.3,1.79-.65,2.96-1.89,3.59-2.73.04-.78.11-1.47.14-1.91,0-.04.01-.08.01-.11.02-.31.04-.47.04-.47.01-.14.01-.26,0-.38,0-.13-.02-.24-.06-.34-.41-1.59-2.76-1.19-5.06-.39-1.1.4-2.2.88-3.05,1.29-.51.24-.93.46-1.2.61-.27.14-.41.22-.41.22Z" style="fill: #e0855c;"/>
          <path d="m482.31,179.06c-.46-.24-1.33-.3-1.67.18-.06.09.02.22.12.22.23-.01.43-.12.67-.14.25-.02.49.04.73.11.22.07.36-.26.16-.37Z" style="fill: #3b2645;"/>
          <path d="m489.14,179.63c-.26-.66-1.42-.72-1.91-.31-.11.09-.04.27.08.31.29.09.59-.02.89,0,.26.02.47.14.71.22.12.04.28-.1.23-.23Z" style="fill: #3b2645;"/>
          <path d="m478.61,182.54c-.55-.76-.88-1.64-.96-2.62-.13-1.42.12-2.86-.04-4.28-.22-2.03-1.23-4.19-.27-6,.76-1.44,2.77-2.05,4.19-1.27,1.05.57,1.94,1.79,3.11,1.58.58-.1,1.03-.55,1.55-.81.9-.46,2.06-.37,2.88.24,1.01.75,1.42,2.12,2.46,2.83.9.62,2.11.62,3.04,1.2.87.55,1.38,1.55,1.57,2.56.44,2.4-.4,5.12-1.12,7.39-.11.35-.23,1.78-.76,1.8-.19,0-.26-.19-.33-.19-.21-.01-.42-.02-.64-.04-3.31-.2-6.61-.43-9.91-.75-1.48-.14-2.82.24-4-.8-.3-.26-.56-.55-.78-.86Z" style="fill: #011948;"/>
          <path d="m479.09,182.03s-1.45-1.73-2.89,0c-1.45,1.73,1.01,5.05,2.89,5.2,0,0,.22-4.45,0-5.2Z" style="fill: #e0855c;"/>
          <path d="m478.29,183.5c-.01.97.02,1.83.09,2.61.01.08.02.15.02.22.01.04.01.07.01.09.03.23.13.86.14.95.28,1.5.74,2.64,1.37,3.48.64.86,1.47,1.43,2.45,1.77.54.19,1.13.31,1.76.38.52.06,1.05.08,1.57.06.42-.02.83-.07,1.24-.14,1.91-.38,3.65-1.49,4.76-3.82.1-.21.18-.39.25-.57.2-.51.38-1.06.52-1.67.08-.32.15-.65.21-1.01.03-.2.06-.41.08-.62,0-.08.02-.17.03-.24,0-.02,0-.03.01-.06.09-.78.18-1.55.25-2.28.25-2.53.3-4.71-.69-5.87-1.65-1.96-8.09-2.67-11.63-.74-.42.23-.81.49-1.13.78-.09.08-.14.14-.2.2-.08.08-.15.18-.22.28-.32.48-.53,1.14-.65,1.92-.06.3-.09.61-.12.93-.04.42-.07.86-.09,1.31-.02.41-.03.84-.04,1.27v.15c-.01.21-.02.42-.01.62Z" style="fill: #f5a784;"/>
          <path d="m492.27,183.97s1.17-3.11,3.02-1.46c1.85,1.65-.71,6.34-3.54,6,0,0-.39-3.47.51-4.54Z" style="fill: #f5a784;"/>
          <path d="m494.43,183.92c-.41.07-.83.46-1.12.73-.31.29-.67.65-.83,1.05-.05.13.12.2.21.12.24-.22.44-.49.66-.73.16.17.32.35.54.43.17.06.3-.15.22-.29-.1-.18-.27-.31-.45-.43.29-.23.65-.4.89-.67.09-.1,0-.24-.13-.22Z" style="fill: #e0855c;"/>
          <path d="m481.6,182.55s-.65.24-.55-.91c.09-1.03.55-.89.55-.89,0,0,.45,0,.38.9-.07.9-.38.9-.38.9Z" style="fill: #011948;"/>
          <path d="m488.17,182.55s-.65.24-.55-.91c.09-1.03.55-.89.55-.89,0,0,.45,0,.38.9-.07.9-.38.9-.38.9Z" style="fill: #011948;"/>
          <path d="m484.54,185.61c-.33-.05-1.08.15-1.24-.21-.13-.3.4-2.04.47-2.34.27-1.08.55-1.81.76-3.1,0-.06-.09-.09-.11-.03-.76,1.72-1.04,3.84-1.5,5.67-.03.1.05.21.16.2.48,0,.95.09,1.43.1.16,0,.21-.26.04-.29Z" style="fill: #e0855c;"/>
          <path d="m482.56,187.24s2.24.76,4.17.02c0,0-.87,1.4-2.36,1.54-1.49.13-1.81-1.56-1.81-1.56Z" style="fill: #fff;"/>
          <path d="m482.46,178.71c-.45-.23-1.28-.29-1.61.18-.06.08.02.21.12.21.22-.01.42-.12.64-.14.24-.02.47.04.7.11.21.07.35-.25.15-.35Z" style="fill: #011948;"/>
          <path d="m489.5,179.04c-.25-.63-1.36-.69-1.83-.3-.11.09-.04.26.08.3.28.09.57-.02.85,0,.25.02.45.13.68.22.12.04.27-.09.22-.22Z" style="fill: #011948;"/>
          <path d="m455.17,212.77s-1.17-1.42-2.8-3.03c-1.64-1.61-5.26-5.11-5.73-6.73,0,0-.01-.32.07-.8.01-.07.03-.14.05-.21.11-.42.29-.94.66-1.45.03-.04.05-.08.09-.12.26-.35.62-.71,1.08-1.01.04-.03.08-.05.12-.07.36-.23.78-.43,1.27-.6,0,0,3.6,3.65,5.18,4.37,0,0-1.58-2.75-1.06-3.59l.6-.31s2.04,2.76,3.06,3.91c2.48,2.79,2.06,6.7,2.06,6.7,0,0-2.05,3.68-4.65,2.96Z" style="fill: #f5a784;"/>
          <path d="m448.59,199.41s.08-.05.12-.07c1.48,1.76,3.21,3.24,4.93,4.8.03.03,0,.09-.05.07-2.04-1.18-3.63-2.91-5-4.8Z" style="fill: #e0855c;"/>
          <path d="m447.42,200.54s.06-.08.09-.12c1.48,1.77,3.21,3.24,4.92,4.81.03.03,0,.09-.04.06-2.03-1.16-3.61-2.88-4.97-4.75Z" style="fill: #e0855c;"/>
          <path d="m446.71,202.2c.01-.07.03-.14.05-.21,1.42,1.65,3.06,3.04,4.68,4.53.04.03,0,.09-.04.07-1.92-1.03-3.39-2.65-4.69-4.38Z" style="fill: #e0855c;"/>
          <path d="m505.81,202.85c-.25,2.39-1.41,5.77-2.36,10.53-.72,3.52-1.55,7.72-2.26,12.68-.46,3.26-.56,6.54-.42,9.71-1.05.69-2.17,1.35-3.37,1.99-13.42,7.15-18.21,1.28-18.21,1.28l9.37-9.74,11.71-20.48,5.54-5.97Z" style="fill: #a7e22c;"/>
          <path d="m501.83,221.98c-1.12,1.89-2.3,3.6-3.52,5.16-7.68,9.89-16.64,13.34-20.84,11.39-6.76-3.18-18.62-19.72-21.8-24.5-1.12-1.67-1.78-2.71-1.78-2.71,0,0,2.19-3.7,5.8-2.5,0,0,.64.69,1.7,1.78,4.06,4.2,17.63,14.7,20.11,16.54.82.61,2.89-2.69,5.54-7.25,4.99-8.63,11.98-21.77,16.26-21.18,2.96.41,9.03,5.66-1.48,23.28Z" style="fill: #f5a784;"/>
          <path d="m501.83,221.98c-1.12,1.89-2.3,3.6-3.52,5.16-6.42-1.86-9.69-5.06-11.26-7.25,4.99-8.63,11.98-21.77,16.26-21.18,2.96.41,9.03,5.66-1.48,23.28Z" style="fill: #a7e22c;"/>
        </g>
        <g>
          <path d="m62.67,181.47c5.59-3.42,9-7.98,9-12.99,0-10.61-15.29-19.2-34.15-19.2S3.37,157.87,3.37,168.48s15.29,19.2,34.15,19.2c6.13,0,11.87-.91,16.84-2.5,4.3,7.28,13.66,7.78,13.66,7.78-4.6-2.71-5.32-8.47-5.36-11.49Z" style="fill: #b0beea;"/>
          <g>
            <path d="m20.87,168.95c0-.36.06-.7.18-1,.12-.31.29-.57.51-.8.22-.22.48-.4.8-.53.31-.13.66-.2,1.04-.2s.75.07,1.06.2c.31.13.58.31.8.53.22.22.39.49.51.8.12.31.18.64.18,1s-.06.7-.18,1c-.12.31-.29.57-.51.81-.22.23-.48.41-.8.53-.31.13-.67.19-1.06.19s-.73-.06-1.04-.19c-.31-.13-.58-.3-.8-.53-.22-.23-.39-.5-.51-.81-.12-.31-.18-.64-.18-1Z" style="fill: #fff;"/>
            <path d="m34.98,168.95c0-.36.06-.7.18-1,.12-.31.29-.57.51-.8.22-.22.48-.4.8-.53.31-.13.66-.2,1.04-.2s.75.07,1.06.2c.31.13.58.31.8.53.22.22.39.49.51.8.12.31.18.64.18,1s-.06.7-.18,1c-.12.31-.29.57-.51.81-.22.23-.48.41-.8.53-.31.13-.67.19-1.06.19s-.73-.06-1.04-.19c-.31-.13-.58-.3-.8-.53-.22-.23-.39-.5-.51-.81-.12-.31-.18-.64-.18-1Z" style="fill: #fff;"/>
            <path d="m49.1,168.95c0-.36.06-.7.18-1,.12-.31.29-.57.51-.8.22-.22.48-.4.8-.53.31-.13.66-.2,1.04-.2s.75.07,1.06.2c.31.13.58.31.8.53.22.22.39.49.51.8.12.31.18.64.18,1s-.06.7-.18,1c-.12.31-.29.57-.51.81-.22.23-.48.41-.8.53-.31.13-.67.19-1.06.19s-.73-.06-1.04-.19c-.31-.13-.58-.3-.8-.53-.22-.23-.39-.5-.51-.81-.12-.31-.18-.64-.18-1Z" style="fill: #fff;"/>
          </g>
        </g>
        <g>
          <path d="m202.73,247.48c-8.53.65-15.78-6.11-15.81-14.66,0-2.21.02-4.34.1-6.39.24-6.6,1.03-12.72,2.39-18.36,1.36-5.64,3.35-10.96,5.99-15.96,2.64-5,5.98-9.99,10.03-14.97,3.03-3.92,5.81-7.73,8.36-11.43,2.55-3.7,4.7-7.4,6.45-11.1,1.75-3.7,3.06-7.49,3.94-11.37.87-3.88,1.15-8.02.81-12.43-1.55-20.43-8.93-30.15-22.14-29.15-2.33.18-4.67.94-7.02,2.29-2.36,1.35-4.45,3.38-6.28,6.1-1.82,2.72-3.23,6.09-4.22,10.1l-.03.12c-2.09,8.56-9.45,14.81-18.24,15.47l-12.53.95c-12.85.97-23.34-10.41-21.06-23.09.57-3.16,1.31-6.18,2.22-9.07,3.08-9.71,7.66-17.87,13.74-24.48,6.08-6.61,13.38-11.75,21.9-15.41,8.52-3.66,17.92-5.88,28.2-6.66,11.25-.85,21.44-.02,30.55,2.48,9.11,2.51,16.99,6.59,23.63,12.24,6.64,5.65,11.95,12.82,15.93,21.49,3.98,8.68,6.41,18.83,7.29,30.46.6,7.95.05,15.26-1.66,21.91-1.71,6.65-4.13,12.96-7.24,18.91-3.12,5.96-6.8,11.77-11.04,17.45-4.25,5.68-8.68,11.4-13.08,17.33-2.49,3.36-4.44,6.74-5.97,10.05-1.53,3.32-2.69,6.76-3.46,10.32-.78,3.57-1.26,7.36-1.45,11.37,0,.04,0,.08,0,.12-.34,7.47-6.12,13.54-13.58,14.11l-16.71,1.27Zm-15.66,57.66c-.31-4.04.08-7.82,1.17-11.35,1.09-3.53,2.76-6.64,5.02-9.33,2.26-2.69,5.07-4.91,8.45-6.64,3.37-1.73,7.2-2.76,11.49-3.08,4.4-.33,8.41.1,12,1.31,3.6,1.2,6.71,2.97,9.35,5.29,2.64,2.32,4.76,5.15,6.36,8.47,1.6,3.32,2.56,7,2.87,11.04.31,4.04-.09,7.82-1.17,11.35-1.09,3.53-2.76,6.67-5.01,9.42-2.25,2.75-5.07,4.97-8.45,6.64-3.38,1.67-7.27,2.67-11.68,3.01-4.28.32-8.22-.09-11.81-1.23-3.59-1.14-6.71-2.91-9.35-5.29-2.64-2.38-4.77-5.24-6.37-8.56-1.61-3.32-2.56-7.01-2.87-11.04Z" style="fill: #f5a42a;"/>
          <path d="m196.97,247.48c-8.53.65-15.78-6.11-15.81-14.66,0-2.21.02-4.34.1-6.39.24-6.6,1.03-12.72,2.39-18.36,1.36-5.64,3.35-10.96,5.99-15.96,2.64-5,5.98-9.99,10.03-14.97,3.03-3.92,5.81-7.73,8.36-11.43,2.55-3.7,4.7-7.4,6.45-11.1,1.75-3.7,3.06-7.49,3.94-11.37.87-3.88,1.15-8.02.81-12.43-1.55-20.43-8.93-30.15-22.14-29.15-2.33.18-4.67.94-7.02,2.29-2.36,1.35-4.45,3.38-6.28,6.1-1.82,2.72-3.23,6.09-4.22,10.1l-.03.12c-2.09,8.56-9.45,14.81-18.24,15.47l-12.53.95c-12.85.97-23.34-10.41-21.06-23.09.57-3.16,1.31-6.18,2.22-9.07,3.08-9.71,7.66-17.87,13.74-24.48,6.08-6.61,13.38-11.75,21.9-15.41,8.52-3.66,17.92-5.88,28.2-6.66,11.25-.85,21.44-.02,30.55,2.48,9.11,2.51,16.99,6.59,23.63,12.24,6.64,5.65,11.95,12.82,15.93,21.49,3.98,8.68,6.41,18.83,7.29,30.46.6,7.95.05,15.26-1.66,21.91-1.71,6.65-4.13,12.96-7.24,18.91-3.12,5.96-6.8,11.77-11.04,17.45-4.25,5.68-8.68,11.4-13.08,17.33-2.49,3.36-4.44,6.74-5.97,10.05-1.53,3.32-2.69,6.76-3.46,10.32-.78,3.57-1.26,7.36-1.45,11.37,0,.04,0,.08,0,.12-.34,7.47-6.12,13.54-13.58,14.11l-16.71,1.27Zm-15.66,57.66c-.31-4.04.08-7.82,1.17-11.35,1.09-3.53,2.76-6.64,5.02-9.33,2.26-2.69,5.07-4.91,8.45-6.64,3.37-1.73,7.2-2.76,11.49-3.08,4.4-.33,8.41.1,12,1.31,3.6,1.2,6.71,2.97,9.35,5.29,2.64,2.32,4.76,5.15,6.36,8.47,1.6,3.32,2.56,7,2.87,11.04.31,4.04-.09,7.82-1.17,11.35-1.09,3.53-2.76,6.67-5.01,9.42-2.25,2.75-5.07,4.97-8.45,6.64-3.38,1.67-7.27,2.67-11.68,3.01-4.28.32-8.22-.09-11.81-1.23-3.59-1.14-6.71-2.91-9.35-5.29-2.64-2.38-4.77-5.24-6.37-8.56-1.61-3.32-2.56-7.01-2.87-11.04Z" style="fill: #fed32c;"/>
          <path d="m162.4,76.63c.75-1.01-.72-2.43-1.73-1.73-5.55,3.84-10.34,9.38-14.69,14.5-3.89,4.57-7.37,9.62-8.87,15.51-1.25,4.91-1.23,10.54,1.52,14.95,1.79,2.87,5.21,5.84,8.68,4.28.24-.11.3-.53.09-.7-4.02-3.15-6.97-5.18-7.48-10.82-.47-5.15,1.39-10.19,4.05-14.51,5-8.14,12.8-13.89,18.43-21.48Z" style="fill: #ffe47a;"/>
          <path d="m202.56,317.19c-6.27-3.81-10.45-8.26-10.57-16.06-.12-7.63,3.67-13.56,9.5-18.04.58-.45.28-1.43-.52-1.24-16.49,3.83-16.66,35.51.97,37.64,1.28.16,1.58-1.72.62-2.3Z" style="fill: #ffe47a;"/>
        </g>
        <g>
          <path d="m526.24,114.69c-15.32,5.65-23.16,22.64-17.51,37.96,1.96,5.33,5.3,9.75,9.46,13.01.66,2.4,1.52,8.29-3.89,13.51,0,0,9.03-1.38,11.77-9.09,6.41,2.41,13.69,2.63,20.62.07,15.32-5.65,23.16-22.64,17.51-37.96s-22.64-23.16-37.96-17.51Z" style="fill: #b0beea;"/>
          <path d="m557.28,133.23h-41.62c-.55,0-1-.45-1-1s.45-1,1-1h41.62c.55,0,1,.45,1,1s-.45,1-1,1Z" style="fill: #fff;"/>
          <path d="m557.28,140.12h-41.62c-.55,0-1-.45-1-1s.45-1,1-1h41.62c.55,0,1,.45,1,1s-.45,1-1,1Z" style="fill: #fff;"/>
          <path d="m557.28,147.02h-41.62c-.55,0-1-.45-1-1s.45-1,1-1h41.62c.55,0,1,.45,1,1s-.45,1-1,1Z" style="fill: #fff;"/>
          <path d="m540.91,153.91h-25.25c-.55,0-1-.45-1-1s.45-1,1-1h25.25c.55,0,1,.45,1,1s-.45,1-1,1Z" style="fill: #fff;"/>
        </g>
        <g>
          <path d="m361.68,304.1c.45-4.02,1.53-7.7,3.26-11.03,1.73-3.33,3.95-6.1,6.67-8.33,2.72-2.23,5.89-3.88,9.53-4.96,3.64-1.08,7.65-1.37,12.04-.88,4.27.47,8.06,1.64,11.37,3.49,3.31,1.85,6.05,4.16,8.21,6.93,2.16,2.77,3.72,5.97,4.67,9.59.95,3.62,1.21,7.45.76,11.47-.45,4.02-1.53,7.67-3.25,10.93-1.72,3.27-3.94,6.02-6.66,8.24-2.72,2.23-5.89,3.85-9.52,4.87-3.63,1.01-7.58,1.29-11.85.81-4.39-.49-8.24-1.63-11.57-3.42-3.32-1.79-6.06-4.07-8.22-6.84-2.16-2.77-3.72-5.94-4.68-9.5-.96-3.56-1.22-7.36-.77-11.38Zm34.77-53.72c-11.98-1.33-20.75-11.93-19.81-23.95l10.97-140.47c.98-12.59,12.2-21.86,24.75-20.47l9.16,1.02c12.55,1.39,21.45,12.9,19.65,25.4l-20.14,139.45c-1.72,11.93-12.6,20.35-24.58,19.01Z" style="fill: #f5a42a;"/>
          <path d="m356.79,304.1c.45-4.02,1.53-7.7,3.26-11.03,1.73-3.33,3.95-6.1,6.67-8.33,2.72-2.23,5.89-3.88,9.53-4.96,3.64-1.08,7.65-1.37,12.04-.88,4.27.47,8.06,1.64,11.37,3.49,3.31,1.85,6.05,4.16,8.21,6.93,2.16,2.77,3.72,5.97,4.67,9.59.95,3.62,1.21,7.45.76,11.47-.45,4.02-1.53,7.67-3.25,10.93-1.72,3.27-3.94,6.02-6.66,8.24-2.72,2.23-5.89,3.85-9.52,4.87-3.63,1.01-7.58,1.29-11.85.81-4.39-.49-8.25-1.63-11.57-3.42-3.32-1.79-6.06-4.07-8.22-6.84-2.16-2.77-3.72-5.94-4.68-9.5-.96-3.56-1.22-7.36-.77-11.38Zm34.77-53.72c-11.98-1.33-20.75-11.93-19.81-23.95l10.97-140.47c.98-12.59,12.2-21.86,24.75-20.47l9.16,1.02c12.55,1.39,21.45,12.9,19.65,25.4l-20.14,139.45c-1.72,11.93-12.6,20.35-24.58,19.01Z" style="fill: #fed32c;"/>
          <path d="m380.66,323.67c-6.69-4.26-11.6-10.89-11.1-19.17.5-8.24,5.97-12.99,11.69-18.06.25-.22.06-.74-.29-.69-8.63,1.12-14.29,10.68-14.84,18.75-.63,9.21,4.87,18.37,13.37,21.93,1.63.68,2.54-1.88,1.16-2.76Z" style="fill: #ffe47a;"/>
          <path d="m403.25,73.93c-13.59,1.65-13.17,17.8-14.28,28.1-.93,8.57-1.86,17.14-2.78,25.71-.95,8.81-2.55,17.83-2.35,26.7.02.7,1.07.88,1.24.17,3.24-13.44,3.51-27.97,4.97-41.71.77-7.25,1.44-14.52,2.3-21.76.95-7.95,3.63-12.99,11.17-16.21.48-.21.25-1.07-.27-1Z" style="fill: #ffe47a;"/>
        </g>
        <g>
          <path d="m297.21,363.24s.47,1.21.97,3.72c.04.2.08.42.12.64.13.69.25,1.47.37,2.35.12.8,11.73,1.63,13,.76,1.26-.87-.2-1.28-.2-1.28-1.65-.05-5.21-1.09-6.42-1.88-3.38-2.21-3.62-15.14-3.62-15.14-3.82-9.98-10.97-19.78-4.21,10.83Z" style="fill: #f5a784;"/>
          <path d="m245.29,370.55c1.29.89,13.15.05,13.27-.78.12-.88.28-1.68.38-2.38,0-.07.02-.13.03-.18.47-3.45,1.17-9.67,1.17-9.67,0,0-3.16-3.42-5.54-.12,0,0,.29,8.53-2.55,9.9-.12.06-.24.12-.4.18-1.52.67-4.62,1.7-6.16,1.74,0,0-1.48.42-.19,1.31Z" style="fill: #f5a784;"/>
          <path d="m303.3,359.4s-3.46,2.57-8.88.52c0,0-5.13-23.17-9.49-43.57-.51-2.38-8.38-23.22-11.73-32.23-.76-2.03-1.28-3.46-1.44-3.95-.24-.68-.73-1.27-1.42-1.49-.8-.27-1.79-.06-2.21,2.23-.07.4-.2,1.47-.36,3.06-1.51,14.76-6.44,74.97-6.44,74.97,0,0-4.54.87-7.8-.71,0,0-3.54-45.7-3.97-75.54-.04-1.99-.05-3.92-.05-5.75,0-5.46.14-9.95.43-12.9l37.28-1.48s9.56,47.24,10.34,51.98c1.51,9,5.74,44.86,5.74,44.86Z" style="fill: #05004a;"/>
          <path d="m298.18,366.96c.04.2.08.42.12.64.13.69.25,1.47.37,2.35.12.8,11.73,1.63,13,.76,1.26-.87-.2-1.28-.2-1.28-1.65-.05-5.21-1.09-6.42-1.88-1.56.23-4.11.39-6.86-.58Z" style="fill: #05004a;"/>
          <path d="m245.29,370.55c1.29.89,13.15.05,13.27-.78.12-.88.28-1.68.38-2.38,0-.07.02-.13.03-.18-1.54.31-4.21.67-7.32.3-1.52.67-4.62,1.7-6.16,1.74,0,0-1.48.42-.19,1.31Z" style="fill: #05004a;"/>
          <path d="m291.45,283.3c-5.54.73-11.98.91-18.25.82-.76-2.03-1.28-3.46-1.44-3.95-.24-.68-.73-1.27-1.42-1.49-.8-.27-1.79-.06-2.21,2.23-.07.4-.2,1.47-.36,3.06-7.4-.28-14.1-.87-18.21-1.28-.04-1.99-.05-3.92-.05-5.75,0-5.46.14-9.95.43-12.9l36.99-1.47.88,2.84c.76,3.71,2.14,10.47,3.64,17.89Z" style="fill: #040038;"/>
          <path d="m278.51,220.71c-2.1-4.09,55.54-26.64,27.06-38.87-9.28-3.99-27.48-7.6-27.48-7.6,0,0-2.84,3.23-.6,6.3,0,0,19.25,6.49,22.44,8.77s-17.88,10.46-27.2,12.2c-5.78,1.08,6.46,20.52,5.78,19.2Z" style="fill: #f5a784;"/>
          <path d="m279.81,174.67s-1.74-.6-3.83-1.58c-2.08-.98-6.64-3.16-8.33-3.04,0,0-.31.1-.73.35-.06.04-.12.07-.18.12-.36.25-.78.6-1.13,1.13-.03.04-.06.08-.08.12-.24.37-.45.83-.57,1.37,0,.05-.02.09-.03.14-.09.42-.14.88-.12,1.4,0,0,4.7,2.11,5.92,3.34,0,0-3.13-.53-3.75.25l-.08.68s3.31.95,4.74,1.51c3.49,1.36,7.01-.4,7.01-.4,0,0,2.74-3.22,1.16-5.4Z" style="fill: #f5a784;"/>
          <path d="m255.12,186.3c-.1-.17-.16-.42-.21-.8-.22-1.7-.16-3.46.05-5.17.12-.99.25-2,.66-2.91.76-1.65,2.37-2.75,4-3.54,3.44-1.67,7.34-2.39,11.15-2.02.87.08,1.76.23,2.53.65.77.42,1.41,1.17,1.5,2.04.06.56-.1,1.11-.24,1.66-.95,3.71.14,7.37-1.14,10.93-.39,1.09-.47,1.26-1.1,1.22-3.4-.21-6.8-.47-10.19-.79-1.96-.19-3.99-.31-5.91-.75-.62-.14-.93-.22-1.1-.5Z" style="fill: #05004a;"/>
          <path d="m272.68,185.21s1.55-1.86,3.1,0c1.55,1.86-1.08,5.42-3.1,5.58,0,0-.23-4.77,0-5.58Z" style="fill: #e0855c;"/>
          <path d="m245.4,206.16c.94,2.23,4.42,10.81,5.54,17.77.6,3.71,2.89,16.46,2.89,16.46,13.13,3.61,27.56,0,27.56,0,0,0,7.93-33.26,1.83-37.19-1.05-.67-2.89-1.1-4.86-1.39-3.72-.53-7.89-.51-7.89-.51l-.17-1.92s-.45-4.74-.45-4.74c-6.35,1.29-10.88-2.66-10.88-2.66.21,1.13.36,2.76.45,4.36.06.97.1,1.92.13,2.74.04,1.43.05,2.47.05,2.47-1.83.03-3.55.23-5.11.52-4.46.85-7.65,2.48-8.8,3.19-.3.18-.43.56-.29.88Z" style="fill: #f5a784;"/>
          <path d="m258.98,191.99c1.69,7.66,9.39,7.13,11.2,6.12l-.32-3.46c-6.35,1.3-10.88-2.66-10.88-2.66Z" style="fill: #e0855c;"/>
          <path d="m272.33,179.83c1.03,1.07,1.11,3.47,1.2,6.13.26,8.04-2.15,10.55-6.26,11-4.11.44-8.4-1.14-9.29-8.59-.44-3.73-.91-7.17.44-8.78,2.02-2.4,10.74-3.03,13.9.25Z" style="fill: #f5a784;"/>
          <path d="m258.55,187.29s-1.26-3.33-3.24-1.57c-1.98,1.77.76,6.8,3.79,6.42,0,0,.42-3.72-.55-4.86Z" style="fill: #f5a784;"/>
          <path d="m247.85,205.26c-1.48.18-2.77,1.08-3.59,2.32-2.54,3.84-7.9,32.21-7.91,37.91-.02,10.1,4.75,28.09,4.75,28.09,0,0,4.2.9,5.79-2.56,0,0-1.31-21.99-.87-25.89s4.2-19.34,5.92-25.83c1.51-5.68,1.15-14.68-4.09-14.04Z" style="fill: #f5a784;"/>
          <path d="m256.24,187.24c.44.08.89.49,1.21.79.33.31.72.7.89,1.13.05.13-.14.22-.23.13-.26-.24-.46-.53-.7-.78-.17.18-.34.37-.58.46-.18.07-.32-.16-.24-.31.1-.19.29-.33.48-.46-.32-.24-.7-.43-.96-.72-.1-.11,0-.26.14-.23Z" style="fill: #e0855c;"/>
          <path d="m270,185.77s.7.26.59-.97c-.09-1.11-.59-.96-.59-.96,0,0-.48,0-.41.96.07.97.41.96.41.96Z" style="fill: #05004a;"/>
          <path d="m262.95,185.77s.7.26.59-.97c-.09-1.11-.59-.96-.59-.96,0,0-.48,0-.41.96s.41.96.41.96Z" style="fill: #05004a;"/>
          <path d="m266.84,189.05c.35-.05,1.16.16,1.33-.22.14-.32-.43-2.19-.51-2.51-.29-1.16-.59-1.94-.81-3.32,0-.06.1-.09.12-.03.82,1.84,1.12,4.12,1.61,6.07.03.11-.05.22-.17.22-.52,0-1.02.1-1.53.1-.17,0-.22-.28-.04-.31Z" style="fill: #e0855c;"/>
          <path d="m269.23,182.03c.5-.25,1.43-.32,1.79.2.07.09-.02.24-.13.23-.25-.01-.47-.13-.71-.15-.27-.02-.52.04-.78.12-.23.07-.39-.28-.17-.39Z" style="fill: #05004a;"/>
          <path d="m261.91,182.64c.28-.71,1.52-.77,2.04-.34.12.1.04.29-.09.33-.31.1-.63-.02-.95,0-.28.03-.5.15-.76.24-.13.05-.3-.11-.24-.24Z" style="fill: #05004a;"/>
          <path d="m292.25,279.68c.97,5.67-45.32-1.99-45.06-4.54,1.69-16.76,3.15-43.95,3.15-43.95,0,0,.02-1.41,0-3.72-.03.21-.05.32-.05.32l-1.97,8.57c-7.53.42-11.98-3.26-11.98-3.26,0,0,2.42-10.57,5.22-20.39,1.98-6.94,5.68-9.34,7.37-10.09.15-.08.36-.16.6-.23.18-.06.29-.09.29-.09,2.41-.63,7.62-.91,7.62-.91,0,0-1.31,7.1,7.19,7.78,9.59.77,9.07-8.18,9.07-8.18,0,0,18.76-6.02,21.87-8.08,0,0,4.83,6.18,6.77,13.28,0,0-11.62,5.82-17.16,13.02-.03,1.07-.07,1.73-.07,1.73,0,0,1.02,23.12,7.13,58.74Z" style="fill: #a7e22c;"/>
          <path d="m240.91,271.65s.25,1.83.32,4.13c.06,2.3.17,7.36,1.05,8.81,0,0,.23.23.64.49.06.04.12.08.19.11.38.21.89.42,1.51.5.04,0,.1.01.15.02.44.05.95.03,1.48-.11.05-.01.09-.03.13-.04.41-.11.85-.28,1.31-.53,0,0-.23-5.14.31-6.79,0,0,.94,3.03,1.92,3.23l.64-.23s-.64-3.38-.79-4.91c-.36-3.73-3.52-6.08-3.52-6.08,0,0-4.1-.99-5.35,1.4Z" style="fill: #f5a784;"/>
          <path d="m246.25,285.6s.09-.03.13-.04c-.29-2.29-.19-4.57-.17-6.9,0-.04-.07-.06-.08-.01-.53,2.3-.33,4.66.12,6.95Z" style="fill: #e0855c;"/>
          <path d="m244.62,285.69s.1.01.15.02c-.29-2.3-.19-4.57-.18-6.9,0-.04-.07-.06-.08-.01-.53,2.28-.34,4.62.11,6.89Z" style="fill: #e0855c;"/>
          <path d="m242.91,285.08c.06.04.12.08.19.11-.24-2.17-.15-4.32-.14-6.53,0-.04-.07-.06-.08-.01-.55,2.12-.36,4.3.03,6.43Z" style="fill: #e0855c;"/>
          <path d="m269.26,191.37c-.75.04-1.45.35-2.22.39-.65.03-1.37-.25-1.98-.04.45.54,1.47.51,2.12.48.74-.03,1.58-.11,2.17-.6.09-.07.02-.23-.09-.23Z" style="fill: #e0855c;"/>
          <path d="m302.35,206.19s-11.62,5.82-17.16,13.02l-1.09-7.66,18.25-5.36Z" style="fill: #a7e22c;"/>
        </g>
        <g>
          <path d="m362.57,369.44c-1.75-.35-3.51-1.35-4.73-2.31-.76-.6-1.38-1.16-1.49-1.59-.31-1.29-.27-5.07-.22-7.66.51-25.22,6.26-50.13,3.84-75.42-.54-5.69-1.35-11.49-3.99-16.55-.28-.54-.59-1.08-1.09-1.43-.77-.55-1.8-.53-2.73-.34-3.33.69-6.03,3.29-7.52,6.35-1.48,3.06-1.88,6.53-1.87,9.93.01,4.77.79,9.54,2.29,14.07.77,2.32,1.73,4.61,1.97,7.04.27,2.73-.7,4.87-1.11,7.45-.6,3.81-.25,8.11-.22,11.96.12,14.03,3.03,27.47,5.62,41.15.09.8.18,1.97.2,3.53.01.76.01,1.61-.02,2.56-.02.88,9.55,3.38,11.06,2.67,1.5-.71.02-1.4.02-1.4Z" style="fill: #f5a784;"/>
          <path d="m351.5,368.16c-.02.88,9.55,3.38,11.06,2.67,1.5-.71.02-1.4.02-1.4-1.75-.35-3.51-1.35-4.73-2.31-.29.03-3.2.04-6.32-1.52.01.76.01,1.61-.02,2.56Z" style="fill: #011948;"/>
          <path d="m335.5,369.51c-1.66-.66-3.21-1.96-4.24-3.12-.64-.73-1.15-1.39-1.18-1.83-.07-1.32.64-5.03,1.16-7.57,5.02-24.72,15.14-48.2,17.29-73.51.48-5.69.73-11.54-.96-17-.18-.58-.39-1.17-.81-1.61-.65-.68-1.68-.84-2.62-.82-3.4.09-6.53,2.16-8.53,4.9-2.01,2.74-3.02,6.09-3.62,9.43-.84,4.7-.94,9.53-.27,14.26.34,2.42.88,4.84.67,7.28-.23,2.74-1.56,4.66-2.43,7.13-1.28,3.64-1.7,7.93-2.36,11.73-2.4,13.82-1.94,27.57-1.84,41.49-.06.8-.18,1.97-.44,3.51-.12.75-.28,1.59-.48,2.51-.18.87,8.79,5.03,10.4,4.61,1.6-.43.27-1.37.27-1.37Z" style="fill: #f5a784;"/>
          <path d="m324.83,366.28c-.18.87,8.79,5.03,10.4,4.61,1.6-.43.27-1.37.27-1.37-1.66-.66-3.21-1.96-4.24-3.12-.29-.02-3.15-.53-5.95-2.63-.12.75-.28,1.59-.48,2.51Z" style="fill: #011948;"/>
          <path d="m361.1,228.62c-.72,2.38.7,14.97.7,14.97,0,0-13.19,4.58-21.87-.92,0,0-2.14-16.33-4.64-22.79l.3-11.24s5.31-1.03,6.95-2.98c.05-.05.1-.1.14-.16.87-1.22.83-4.87.65-7.65-.12-1.93-.31-3.44-.31-3.44,0,0,9.24,3.28,9.38,4.94,0,0-.01.06-.02.18-.02.3-.07.93-.08,1.7-.05,1.94.13,4.71,1.45,4.85.35.04.71-.07,1.06-.1,1.82-.12,3.6-.12,3.6-.12,0,0,3.7,9.13,6.53,12.76,2.83,3.64-3.13,7.61-3.84,10Z" style="fill: #f5a784;"/>
          <path d="m368.54,306.43c-2.67-8.68-1.89-18.5-2.75-27.47-.87-5.22-.76-10.63-1.4-15.89-.69-5.7-1.31-11.42-1.86-17.15-.3-3.1-.79-6.4-.91-9.67-.1-2.75.06-5.48.83-8.05.54-1.82,3.32-3.83,3.39-6.28.03-.78-.22-1.61-.9-2.48-1.77-2.28-3.03-4.88-4.17-7.51-.53-1.22-.92-2.64-1.72-3.7-.64-.85-.76-2.47-1.9-2.84-.42-.14-.89-.04-1.32.07-.45.1-.9.21-1.35.31-.44.11-.96.09-1.31.39-2.6,2.2-5.89,2.33-7.13,2.11-1.4-.25-2.74-.94-3.65-2.03-1.11,0-2.21.28-3.17.83-1.12.63-1.96,1.67-3.06,2.3-.56.31-.59.34-.62.99-.01.47-.23,8.61-.27,10.33-.06,2.1,1.8,5.18,2.24,7.34.37,1.81.51,3.49.37,5.32-.31,4.12-.13,9.22-2.01,13.02-1.82,3.68-3.85,6.47-4.74,10.73-1.62,7.78-1.07,15.83-2.43,23.64-.18,1.04-.4,2.08-.66,3.12-1.95,7.74-6.3,14.63-9.32,22.03-.17.4-.33.84-.22,1.26.3,1.19,2.03.95,3.21.59,2.96-.87,5.87-.42,8.72.58,2.47.87,4.73,2.69,7.39,3.06,3.52.49,6.82-1.67,10.32-2.32,4.85-.91,11.15.5,15.63,2.39,4.16,1.76,6.13-.6,4.77-5.02Z" style="fill: #f92572;"/>
          <path d="m396.56,213.56s2.2-1.9,4.41-3.78c1.33-1.14,4.56-3.25,5.01-4.46,0,0,.03-.25,0-.62,0-.05-.01-.11-.03-.17-.06-.33-.17-.73-.42-1.14-.02-.03-.04-.06-.06-.1-.18-.28-.43-.58-.77-.83-.03-.02-.06-.04-.09-.06-.26-.19-.56-.37-.93-.53,0,0-2.95,2.57-4.19,3.03,0,0,1.36-2,1.01-2.67l-.44-.27s-1.71,1.98-2.55,2.8c-2.05,1.98-2.29,4.85-2.29,4.85,0,0-.68,4.33,1.33,3.94Z" style="fill: #f5a784;"/>
          <path d="m404.7,202.48s-.06-.04-.09-.06c-1.23,1.26-2.62,2.28-4.02,3.37-.03.02,0,.07.03.06,1.62-.78,2.93-2.01,4.08-3.36Z" style="fill: #e0855c;"/>
          <path d="m405.52,203.41s-.04-.06-.06-.1c-1.23,1.26-2.62,2.28-4.02,3.38-.03.02,0,.07.03.05,1.61-.77,2.91-1.98,4.05-3.33Z" style="fill: #e0855c;"/>
          <path d="m405.97,204.71c0-.05-.01-.11-.03-.17-1.17,1.17-2.5,2.14-3.82,3.18-.03.02,0,.07.03.05,1.52-.68,2.73-1.82,3.81-3.06Z" style="fill: #e0855c;"/>
          <path d="m357.81,192.79c0,.17-.01.34-.03.51-.38,4.13-1.99,5.8-5.52,6.29-2.64.36-8.32-.53-9.71-7.78-.7-3.63-.89-6.7-.19-8.65,1.48-4.08,9.16-8.74,13.24-3.8.93,1.13,1.75,6.4,2.02,9,.18,1.71.22,3.17.19,4.43Z" style="fill: #f5a784;"/>
          <path d="m323.98,225.8c-.17-2.78,1.28-5.36,2.34-7.93,1.06-2.57,1.69-5.72.07-7.99-.61-.85-1.49-1.5-1.95-2.43-.68-1.4-.24-3.11.6-4.42.83-1.31,2.01-2.36,2.97-3.59,1.75-2.24,2.73-5.07,2.74-7.92,0-2.32-.52-4.94.95-6.73.91-1.1,2.39-1.58,3.44-2.55,1.47-1.36,1.94-3.33,3.3-4.78,1.31-1.41,3.02-2.44,4.86-3.01,2.81-.86,5.89-.67,8.69.23,2.45.79,4.96,2.97,4.7,5.79-.01.12-.03.23-.09.33-.06.1-.16.17-.25.23-.37.26-.85.44-1.2.71-.38.29-.54.87-.66,1.31-.25,1-.09,2.15-.46,3.11-.21.54-.7,1.02-1.28,1.03-.58.01-1.1-.43-1.68-.41-.41.01-.78.26-1.08.56-.69.7-1.07,1.7-1,2.68.07.96.53,1.89,1.21,2.56,3.46,3.4-2.09,7.5-1.89,10.99.04.76.31,1.49.45,2.23.26,1.35.09,2.79-.48,4.04-.39.87-.97,1.65-1.26,2.56-.52,1.65-.01,3.42.4,5.1.72,2.95.16,6.49-.99,9.27-.65,1.55-1.61,3-2.86,4.13-1.32,1.19-2.52,1.84-4.25,2.18-1.67.33-3.07.68-4.78.62-1.72-.06-3.38-.27-5.01-.84-2.9-1-5.37-4.01-5.56-7.09Z" style="fill: #011948;"/>
          <path d="m356.92,184.94s.42,2.2,2.06,3.91c1.35,1.41-2.75,2.54-2.75,2.54,0,0,.04-5.67.69-6.45Z" style="fill: #f5a784;"/>
          <path d="m351.92,189.64c-.2-.42-.46-.83-.9-1.03-.31-.14-.54.25-.26.45.28.21.46.49.6.79-.23.05-.46.12-.67.23-.25.12-.07.53.19.44.23-.08.46-.12.7-.17.12.31.24.63.42.9.13.19.52.15.49-.13-.06-.52-.33-1.03-.55-1.5Z" style="fill: #e0855c;"/>
          <path d="m357.81,192.79c0,.17-.01.34-.03.51l-.21.03c-.44.05-1.16.1-1.45-.31-.03-.03-.01-.09.03-.11.37-.18.83,0,1.24-.04.15-.01.28-.04.42-.08Z" style="fill: #e0855c;"/>
          <path d="m352.38,199.52c-.02.3-.07.93-.08,1.7-1.37-.86-1.52-2.31-1.52-2.31.56.41,1.27.56,1.6.61Z" style="fill: #e0855c;"/>
          <path d="m362.45,228.2c-.77,2.57-.93,5.3-.83,8.05-4.3-6.66-3.79-16.59-3.79-16.59,2.53-.61,5.48.64,8.01,2.26-.07,2.45-2.85,4.46-3.39,6.28Z" style="fill: #f92572;"/>
          <path d="m354.63,214.48s-2.65-10.28,5.2-8.4c7.61,1.83,11.52,19.21,18.91,19.59,1.05.06,18.32-18.07,18.32-18.07l2.89,2.5s-13.68,21.89-19.41,23.51c-5.33,1.51-16.97-3.82-25.9-19.14Z" style="fill: #f5a784;"/>
          <path d="m355.07,205.64s3.38-1.24,7.22.52c3.84,1.76,3.9,2.54,7.35,2.37,0,0-9.95,12.75-16.41,12.25,0,0-2.39-9.14,1.84-15.14Z" style="fill: #f92572;"/>
          <path d="m360.62,246.04c-3.51,1.37-6.97,2.69-10.77,3-3.66.3-8.43.17-11.29-2.42-.48-.44-1.1.21-.7.7,1.29,1.6,3.37,2.39,5.56,2.76-.01.03-.02.06-.03.09-1.65.6-2.93,2.03-3.49,3.69-.48,1.43-.15,2.92-.51,4.38-.39,1.57-1.3,3.03-1.85,4.56-1.03,2.84-1.54,5.85-.92,8.84.8,3.86,2.75,7.03,1.54,11.07-.08.27.3.42.45.19,1.13-1.79,1.14-3.98.7-6.01-.78-3.59-2.26-6.64-1.58-10.42.51-2.82,2.09-5.19,2.79-7.91.35-1.34.05-2.74.41-4.07.34-1.27,1.1-2.16,2.04-2.9-.47,2.32.13,4.62,1.22,6.83,1.3,2.65.66,4.57-.11,7.26-.48,1.65-.7,3.28-.49,5,.48,3.98,3.45,7.01,3.82,11.04.41,4.39-1.03,8.69-.58,13.09.03.3.44.3.47,0,.37-4.06,1.46-8.14,1.35-12.24-.1-3.92-2.22-6.51-3.37-10.09-.7-2.17-.57-4.29.03-6.45.47-1.68,1.26-3.32,1.14-5.11-.1-1.45-.91-2.5-1.51-3.77-1-2.11-1.03-4.2-.71-6.43.17-.13.2-.33.12-.49,1.64.19,3.29.18,4.69.11,4.17-.2,8.46-1.33,11.79-3.93.16-.13-.01-.43-.21-.35Z" style="fill: #b21454;"/>
        </g>
      </g>
    </g>
  </g>
</svg>