<?xml version="1.0" encoding="UTF-8"?>
<svg id="Layer_1" data-name="Layer 1" xmlns="http://www.w3.org/2000/svg" viewBox="0 0 29.5 29.34">
  <rect x=".97" y=".49" width="28" height="28" rx="4" ry="4" style="fill: #ed1d74;"/>
  <g>
    <path d="m6.34,6.14c0-.12.02-.16.12-.16.74-.03,2.2-.05,3.68-.05,3.82,0,5.27,2.22,5.29,4.85,0,3.6-2.68,4.97-5.55,4.97h-1.21v5.15c0,.14-.04.18-.14.18h-2.06c-.1,0-.14-.05-.14-.16V6.14h0Zm2.33,7.42c.15.03.45.05,1.26.05,1.54,0,3.02-.44,3.02-2.7,0-1.81-.99-2.74-2.82-2.74-.76,0-1.3.03-1.46.05v5.35h0Z" style="fill: #fff;"/>
    <path d="m20.29,11.86c-.94,0-1.19.59-1.19,1.02,0,.54.25.84,1.68,1.52,1.97.95,2.81,1.79,2.81,3.42,0,2.26-1.48,3.55-3.58,3.55-1.01,0-2.3-.1-3.1-.68-.08-.05-.12-.12-.12-.23v-2.08c0-.12.08-.16.14-.12.99.75,2.11.96,3.1.96.88,0,1.19-.59,1.19-1.08,0-.59-.21-.93-1.59-1.59-1.97-.95-2.79-1.77-2.79-3.42,0-1.84,1.37-3.35,3.64-3.35,1.17,0,1.99.03,2.53.39.1.09.12.16.12.3v1.86c0,.14-.08.21-.17.14-.68-.45-1.66-.59-2.66-.59Z" style="fill: #fff;"/>
  </g>
</svg>