<?xml version="1.0" encoding="utf-8"?>
<!-- Generator: Adobe Illustrator 27.3.1, SVG Export Plug-In . SVG Version: 6.00 Build 0)  -->
<svg version="1.1" id="Layer_1" xmlns="http://www.w3.org/2000/svg" xmlns:xlink="http://www.w3.org/1999/xlink" x="0px" y="0px"
	 viewBox="0 0 28 28" style="enable-background:new 0 0 28 28;" xml:space="preserve">
<style type="text/css">
	.st0{fill:#ED1D74;}
	.st1{fill:#FFFFFF;}
</style>
<path class="st0" d="M4,0h20c2.2,0,4,1.8,4,4v20c0,2.2-1.8,4-4,4H4c-2.2,0-4-1.8-4-4V4C0,1.8,1.8,0,4,0z"/>
<g>
	<path class="st1" d="M5.4,5.6c0-0.1,0-0.2,0.1-0.2c0.7,0,2.2-0.1,3.7-0.1c3.8,0,5.3,2.2,5.3,4.9c0,3.6-2.7,5-5.6,5H7.7v5.1
		c0,0.1,0,0.2-0.1,0.2H5.5c-0.1,0-0.1,0-0.1-0.2L5.4,5.6L5.4,5.6L5.4,5.6z M7.7,13.1c0.1,0,0.4,0.1,1.3,0.1c1.5,0,3-0.4,3-2.7
		c0-1.8-1-2.7-2.8-2.7c-0.8,0-1.3,0-1.5,0.1L7.7,13.1L7.7,13.1L7.7,13.1z"/>
	<path class="st1" d="M19.3,11.4c-0.9,0-1.2,0.6-1.2,1c0,0.5,0.2,0.8,1.7,1.5c2,0.9,2.8,1.8,2.8,3.4c0,2.3-1.5,3.5-3.6,3.5
		c-1,0-2.3-0.1-3.1-0.7c-0.1,0-0.1-0.1-0.1-0.2v-2.1c0-0.1,0.1-0.2,0.1-0.1c1,0.8,2.1,1,3.1,1c0.9,0,1.2-0.6,1.2-1.1
		c0-0.6-0.2-0.9-1.6-1.6c-2-0.9-2.8-1.8-2.8-3.4c0-1.8,1.4-3.4,3.6-3.4c1.2,0,2,0,2.5,0.4c0.1,0.1,0.1,0.2,0.1,0.3v1.9
		c0,0.1-0.1,0.2-0.2,0.1C21.3,11.5,20.3,11.4,19.3,11.4L19.3,11.4z"/>
</g>
</svg>
