<?xml version="1.0" encoding="UTF-8"?>
<svg id="Layer_1" data-name="Layer 1" xmlns="http://www.w3.org/2000/svg" viewBox="0 0 644.82 382.44">
  <path d="m29.05,382.44S-16.69,309.1,6.62,206.88c14.67-64.3,76.92-103.9,158.85-93.11,75.85,9.99,74.58-30.11,140.94-68.38C448.36-36.47,653.7-1.7,604.56,182.43c-23.78,89.11,75.48,108.86,26.49,197.93l-601.99,2.08Z" style="fill: #d0def2;"/>
  <path d="m435.58,28.93l-7.03-.32h-.17c-.86-.04-1.6.57-1.73,1.41l-.9,5.8c-.01.1-.04.19-.07.28-.21.61-.77,1.07-1.43,1.11-3.89.32-7.67,1.41-11.13,3.21-.14.07-.3.12-.45.15-.57.11-1.19-.09-1.58-.54l-3.22-3.69c-.43-.48-1.1-.67-1.69-.51-.18.05-.37.13-.54.25l-5.88,4.12c-.72.5-.95,1.49-.5,2.26l3.27,5.64c.32.56.29,1.24-.07,1.77-.52.77-1.01,1.56-1.46,2.38-.85,1.55-1.54,3.13-2.09,4.74h0c-.23.68-.83,1.14-1.54,1.17l-6.62.27-.33.02c-.85.03-1.55.71-1.59,1.58l-.33,7.18c-.03.87.59,1.64,1.45,1.78l6.46,1.01c.72.11,1.29.67,1.4,1.38.53,2.99,1.51,5.89,2.93,8.58.35.69.2,1.52-.39,2.04l-4.37,3.83c-.66.59-.77,1.56-.27,2.27l4.13,5.91c.49.7,1.43.9,2.16.48l6.63-3.84c.56-.33,1.26-.3,1.81.05.67.44,1.36.86,2.07,1.25,1.35.74,2.73,1.37,4.12,1.88.64.23,1.07.81,1.09,1.48l.31,7.95c.04.88.73,1.57,1.6,1.61l7.21.33c.76.03,1.45-.46,1.67-1.18.02-.07.05-.15.05-.24l1.12-7.17c.1-.67.58-1.21,1.23-1.38.06-.02.11-.03.17-.04.18-.03.34-.05.52-.1,2.06-.35,4.08-.93,6.02-1.72.64-.27,1.4-.09,1.86.45l4.05,4.61c.57.66,1.55.77,2.27.27l1.31-.91,4.56-3.2c.72-.5.93-1.47.49-2.23l-3.23-5.56c-.35-.59-.28-1.33.16-1.86,1.14-1.39,2.18-2.91,3.08-4.56.67-1.22,1.25-2.48,1.73-3.74l1.39-.05,5.7-.23c.71-.02,1.31-.5,1.51-1.15.05-.14.07-.28.07-.43l.35-7.23c.03-.86-.59-1.6-1.42-1.73l-4.41-.68c-.74-.11-1.34-.73-1.41-1.49-.29-3.12-1.07-6.16-2.31-9-.29-.67-.13-1.45.42-1.91l5.52-4.84c.61-.55.73-1.46.26-2.14l-4.19-5.97c-.49-.71-1.44-.92-2.18-.48l-6.9,4c-.59.35-1.33.29-1.88-.13-1.16-.91-2.43-1.72-3.77-2.46-.72-.4-1.45-.76-2.19-1.09-.58-.26-.96-.82-.99-1.46l-.3-7.62c-.04-.88-.73-1.59-1.62-1.64Zm-21.82,28.28c1.12-1.59,2.57-3.05,4.38-4.33.38-.28.84-.54,1.33-.79,2.13-1.06,5.02-1.76,7.09-1.66,15.84.82,21.49,19.63,9,29.04-.21.15-.41.3-.63.45-1.99,1.39-5.64,2.44-8.06,2.34-1.27-.05-2.48-.22-3.62-.49-11.36-2.7-15.86-15.51-9.48-24.57Z" style="fill: #3d68b1;"/>
  <path d="m530.87,78.94l-10.7-1.84-.26-.04c-1.3-.22-2.56.57-2.92,1.84l-2.49,8.72c-.04.14-.09.28-.16.41-.45.9-1.38,1.49-2.4,1.43-6.02-.25-12.02.68-17.67,2.78-.24.08-.48.13-.71.15-.9.06-1.8-.37-2.32-1.13l-4.23-6.27c-.56-.82-1.55-1.23-2.5-1.11-.29.05-.59.13-.87.28l-9.8,5.18c-1.21.63-1.73,2.11-1.19,3.37l3.93,9.27c.38.91.21,1.96-.45,2.7-.94,1.08-1.84,2.19-2.69,3.37-1.6,2.21-2.96,4.5-4.11,6.87h0c-.48,1-1.49,1.58-2.58,1.49l-10.19-.86-.51-.04c-1.31-.12-2.51.8-2.74,2.11l-1.88,10.94c-.22,1.33.59,2.63,1.89,3l9.7,2.78c1.08.31,1.84,1.27,1.88,2.38.24,4.68,1.19,9.31,2.85,13.7.41,1.12.01,2.37-.99,3.05l-7.43,5.03c-1.13.77-1.48,2.24-.85,3.43l5.2,9.85c.62,1.16,2.02,1.66,3.22,1.14l10.9-4.61c.92-.4,1.99-.22,2.76.43.94.81,1.92,1.58,2.94,2.32,1.93,1.4,3.91,2.62,5.95,3.66.93.47,1.49,1.45,1.39,2.48l-1.05,12.24c-.11,1.35.82,2.55,2.15,2.78l10.98,1.89c1.16.19,2.31-.43,2.79-1.49.05-.11.1-.23.13-.35l3.09-10.76c.28-1,1.12-1.74,2.15-1.87.09-.01.18-.03.27-.03.27,0,.53-.01.81-.05,3.22-.14,6.42-.65,9.55-1.48,1.04-.29,2.16.13,2.76,1.05l5.32,7.84c.75,1.11,2.23,1.48,3.42.84l2.18-1.15,7.6-4.03c1.2-.62,1.7-2.07,1.18-3.32l-3.88-9.13c-.42-.97-.17-2.09.6-2.82,2.02-1.9,3.9-4.05,5.6-6.39,1.26-1.74,2.39-3.56,3.36-5.4l2.14.18,8.77.74c1.08.1,2.1-.51,2.53-1.47.1-.2.16-.41.19-.64l1.92-11.01c.22-1.3-.59-2.56-1.85-2.93l-6.63-1.89c-1.12-.32-1.9-1.38-1.87-2.55.15-4.83-.46-9.64-1.81-14.23-.32-1.09.08-2.24,1.01-2.84l9.39-6.36c1.05-.72,1.4-2.1.8-3.23l-5.27-9.95c-.62-1.18-2.04-1.68-3.24-1.16l-11.34,4.8c-.97.42-2.09.2-2.85-.56-1.61-1.61-3.39-3.1-5.3-4.49-1.03-.75-2.08-1.44-3.15-2.09-.84-.51-1.32-1.45-1.24-2.42l1-11.74c.11-1.36-.82-2.58-2.16-2.82Zm-38.85,39.13c2.02-2.22,4.52-4.18,7.53-5.79.63-.35,1.39-.66,2.19-.96,3.47-1.22,8.02-1.74,11.18-1.18,24.12,4.29,29.16,34.19,8.22,46.22-.35.19-.69.39-1.05.57-3.32,1.75-9.1,2.66-12.8,2.04-1.94-.33-3.76-.82-5.45-1.44-16.88-6.32-21.32-26.81-9.82-39.46Z" style="fill: #3d68b1;"/>
  <path d="m175.23,156.72c-.6-14.93,11.91-21.56,24.7-21.56s26.72,3.32,27.92,23.17c.78,12.77-6.03,20.63-25.64,20.63-6.61,0-11.75-1.04-15.69-2.9l-9.8,8.71,4.82-12.04c-4.27-3.97-6.06-9.56-6.32-16Z" style="fill: #e0edf9;"/>
  <g>
    <path d="m53.5,381.69s-.53-4.14-1.76-6.6c-1.23-2.46-9.06-.89-9.06-.89,0,0-1.57,1.34-1.9,7.6l12.72-.11Z" style="fill: #243962;"/>
    <path d="m80.17,381.64c-1.84-1.12-.79-9.5-.79-9.5,0,0,8.57-6.86,9.75-1.61,1.18,5.25,8.14,7.61,12.11,8.25,2.74.44,3.58,1.96,3.85,2.86h-24.91Z" style="fill: #243962;"/>
    <path d="m62.42,320.72c.35,1.92.57,3.5.63,4.63.8,15.54,13.08,51.08,15.28,51.91,3.4,1.28,8.76-1.44,11.56-2.34,1.16-.37,1.94-1.54,1.69-2.73-6.08-27.97-8.32-68.25-9.13-92.1-.41-12.01-2.47-20.31-2.47-20.31,0,0-29.97-8-30.14,2.12-.16,8.95,9.93,44.05,12.6,58.81Z" style="fill: #22407a;"/>
    <path d="m62.42,320.72l20.02-40.62c-.41-12.01-2.47-20.31-2.47-20.31,0,0-29.97-8-30.14,2.12-.16,8.95,9.93,44.05,12.6,58.81Z" style="fill: #243962;"/>
    <path d="m69.09,261.94l-15.84,114.81s-6.96,1.68-12.37.34c0,0-4.64-61.06-4.25-75.83.39-14.76-3.33-39.5.85-42.23,4.18-2.73,31.61,2.91,31.61,2.91Z" style="fill: #22407a;"/>
    <path d="m36.36,232.46l-1.97,27.57c-.08,1.04.59,1.98,1.59,2.27,2.21.64,4.76,1.09,9.67,2.11,4.61.96,10.82,1.81,18.45,1.85,12.13.08,16.73-4.11,16.73-4.11.52,0-.28-2.53-1-14.6-.24-4.09-.48-9.28-.65-15.83-.15-5.9-.26-12.9-.27-21.21-.01-10-15.49-20.75-15.77-20.75h0c0,1.44-2.27,4.1-5.76,4.33-4.15.27-9.23-1.79-9.23-4.18,0-.02-7.5,11.99-10.16,24.8-.34,1.62-.6,3.34-.81,5.14,0,.03,0,.05,0,.08-.04.33-.07.66-.11.99,0,.06-.01.12-.02.18-.03.3-.06.61-.09.92,0,.09-.01.18-.02.26-.03.28-.05.56-.07.85,0,.03,0,.05,0,.08-.02.21-.03.42-.05.64-.01.15-.02.3-.03.46-.02.25-.03.5-.05.75,0,.13-.02.25-.02.38-.01.24-.03.48-.04.72,0,.11-.01.21-.02.32-.02.35-.04.7-.06,1.06,0,.03,0,.06,0,.09-.02.34-.03.68-.05,1.03,0,.09,0,.17-.01.26-.02.32-.03.65-.04.98,0,.05,0,.1,0,.15-.03.8-.06,1.62-.1,2.44,0,.02,0,.04,0,.06v-.06Z" style="fill: #aad037;"/>
    <path d="m63.14,189.76s14.39-.12,17.85,4.73c3.46,4.86,11.06,30.98,7.09,39.67-3.96,8.69-11.38-3.6-15.49-8.92-4.11-5.32-9.45-35.49-9.45-35.49Z" style="fill: #aad037;"/>
    <path d="m63.29,187.56v1.49s.4,4.65-5.33,5.33c-5.73.68-9.97-.88-9.82-4.47.52-2.78.99-5.62,1.02-7.92.01-.85-.04-1.76-.2-2.79l11.1-.22,3.27.53-.04,8.05Z" style="fill: #fab17e;"/>
    <path d="m63.33,179.51l-.04,8.05c-1.18.55-2.51.88-4,.88-5.1,0-8.4-3.74-10.12-6.46.01-.85-.04-1.76-.2-2.79l11.1-.22,3.27.53Z" style="fill: #e3915a;"/>
    <path d="m48.11,177.41c1.29,6.93,10.23,6.7,14.1,6.27,1.09-.12,1.77-.26,1.77-.26,1.23-.33,1.91-2.26,2.23-4.79.63-5.01-.17-12.36-1.01-14.24-1.27-2.83-3.67-5.89-12.68-3.68-9.01,2.21-6.06,7.82-4.41,16.7Z" style="fill: #fab17e;"/>
    <path d="m77.86,209.22s5.56,12.29,5.4,15.97c0,0-2.76-.09-5.4.69-4.35,1.3,0-16.67,0-16.67Z" style="fill: #a5ce39;"/>
    <path d="m67.96,157.8s-3.96-.3-8.64-2.34c-3.79-1.65-8.58.17-10.14.99.04-.25.14-.59.38-.94,0,0-.7.49-.8,1.19-.07.05-.1.09-.09.1,0,0-.79-.14-1.3.08,0,0,.36-.05.48.18.01.02.03.04.06.06-5.92,2.86-6.47,12.22-4.56,14.38,2.29,2.6,5.04,8.47,5.04,8.47,0,0,1-1.39.59-3.68-.42-2.29,1.56-2.29,4.06-3.33,2.5-1.04.42-3.96,2.6-5.73,2.19-1.77,10.21-.73,10.11-2.08,2.98-1.08,2.21-7.05,2.21-7.35Z" style="fill: #243962;"/>
    <path d="m46.3,232.25c2.35,9.43,27.75,14.31,33.53,15.3-.24-4.09-.48-9.28-.65-15.83l-32.88.53Z" style="fill: #a5ce39;"/>
    <path d="m51.88,235.31c-.24,0-5.65-.81-6.62-1.29-.97-.48-5.4-6.78-2.5-8.39,2.9-1.61,10.68,4.84,10.68,4.84l-1.57,4.84Z" style="fill: #fab17e;"/>
    <path d="m84.76,237.18s-20.91,1.13-34.94-1.87c0,0-.35-4.05,4.06-5.85,0,0,21.87-4.64,27.12-3.34,5.25,1.29,3.76,11.07,3.76,11.07Z" style="fill: #aad037;"/>
    <path d="m36.74,220.77c4.34,5.23,10.01,9.5,16.26,10.5h0c.05-.08,1.89-2.88,1.55-6.98-.16-1.9-.79-4.08-2.28-6.41-.46-.72-.87-1.55-1.23-2.48-3.41-8.71-2.91-25.5-2.91-25.5,0,0-14.5,1.52-19.02,7.97-2.77,3.95.76,14.63,7.62,22.9Z" style="fill: #aad037;"/>
    <path d="m62.21,183.68c1.09-.12,1.77-.26,1.77-.26,1.23-.33,1.91-2.26,2.23-4.79-2.3.57-3.35,2.34-3.79,3.1-.2.34-.24,1.1-.21,1.95Z" style="fill: #e3915a;"/>
    <path d="m68.05,187.6s5.01-8.26,1.11-8.62c-3.89-.36-5.46,2.28-6.02,3.24-.56.97.15,5.34.15,5.34l4.76.04Z" style="fill: #fab17e;"/>
    <path d="m48.96,224.02c.15,1.05.47,2.01.85,2.87,1.22,2.72,3.19,4.39,3.19,4.39h0c13.01-5.87,15.64-26.03,16.08-37.11.18-4.45,0-7.44,0-7.44-5.87-1.94-7.52,1.43-7.52,1.43,0,0-6.93,16.47-10.52,27.24-1.37,4.12-2.26,7.41-2.08,8.61Z" style="fill: #aad037;"/>
    <path d="m36.74,220.77c4.34,5.23,10.01,9.5,16.26,10.5h0c13.01-5.87,15.64-26.03,16.08-37.11,0,0-6.15,22.32-14.53,30.12-1.51,1.41-3.1,2.35-4.74,2.59,0,0-10.56-2.99-12.78-5.8-.16-.2-.25-.3-.3-.31Z" style="fill: #a5ce39;"/>
  </g>
  <g>
    <g>
      <g>
        <path d="m451.97,292.7s8.26-9.69.47-15.82c0,0-5.69-3.42-10.32-3.13,0,0,6.6,10.99,4.47,12.09-2.12,1.1-6.47-12.78-6.47-12.78,0,0-12.93-1.22-17.09.79,0,0,11.08,9.02,8.75,9.56-2.33.54-14.29-8.3-14.29-8.3,0,0-12.03,2.08-11.37,9.42.66,7.34,4.82,9.6,6.64,9.4,1.82-.2,12.47-4.3,12.71-2.81.24,1.49-6.17,6.39-10.66,6.63,0,0,8.51,9.33,14.14,6.62,5.63-2.72,6.1-7,9.61-8.61,3.51-1.62,6.51-1.62,5.06.02-1.45,1.64-7.8,3.25-9.8,6.81-2,3.56-3.8,5.96,2.03,5.07,5.83-.89,15.3-5.19,15.71-10.08l.4-4.89Z" style="fill: #90a2d3;"/>
        <g>
          <path d="m412.04,284.73s32.68-1.35,39.93,7.98c0,0,1.61,4.78,6.53,9.12l.77,2.08s-5.68-5.96-7.71-6.31c0,0,3.14-11.59-39.53-12.87Z" style="fill: #c9dbf1;"/>
          <path d="m458.5,301.82s7.03,5.17,7.54,14.44l-1.27.12s-2.27-9.58-6.33-13.32c-4.06-3.74.06-1.24.06-1.24Z" style="fill: #c9dbf1;"/>
        </g>
      </g>
      <g>
        <path d="m495.81,267.14s-13.21-7.35-7.08-17.39c0,0,4.91-6.17,10.18-7.77,0,0-2.77,14.95.04,15.3,2.81.34,1.89-16.89,1.89-16.89,0,0,13.87-6.72,19.33-6.21,0,0-8.58,14.62-5.76,14.26s12.44-15.16,12.44-15.16c0,0,14.24-2.68,16.54,5.76,2.31,8.43-1.37,12.66-3.48,13.2-2.11.53-15.65.39-15.29,2.15.36,1.76,9.51,4.55,14.6,2.95,0,0-5.59,13.91-12.98,13.22-7.39-.68-9.69-5.25-14.26-5.59-4.57-.34-7.91.9-5.62,2.13,2.29,1.22,10.02.38,13.73,3.5,3.7,3.13,6.7,5.06-.16,6.48-6.85,1.43-19.17.58-21.64-4.69l-2.48-5.27Z" style="fill: #90a2d3;"/>
        <g>
          <path d="m536.88,241.71s-36.89,12.06-41.08,25.43c0,0,.19,5.98-3.48,12.85v2.64s3.85-8.98,5.96-10.21c0,0-8.3-11.58,38.6-30.7Z" style="fill: #90a2d3;"/>
          <path d="m492.33,279.99s-5.67,8.66-2.4,19.18l1.46-.4s-1.45-11.59,1.51-17.43c2.96-5.84-.58-1.35-.58-1.35Z" style="fill: #90a2d3;"/>
        </g>
      </g>
      <g>
        <path d="m474.8,257.01s17.36-9.78,9.21-22.97c0,0-6.51-8.09-13.47-10.16,0,0,3.76,19.69.06,20.17-3.71.47-2.61-22.24-2.61-22.24,0,0-18.34-8.76-25.52-8.04,0,0,11.41,19.21,7.7,18.75-3.71-.45-16.51-19.89-16.51-19.89,0,0-18.78-3.43-21.77,7.71-2.98,11.13,1.9,16.68,4.68,17.37,2.78.69,20.63.41,20.17,2.73-.46,2.32-12.5,6.06-19.23,3.99,0,0,7.47,18.29,17.2,17.34,9.73-.95,12.73-6.99,18.75-7.47,6.03-.48,10.43,1.13,7.42,2.76-3.01,1.63-13.21.57-18.07,4.72-4.86,4.15-8.79,6.71.26,8.54,9.05,1.83,25.27.63,28.49-6.34l3.23-6.96Z" style="fill: #90a2d3;"/>
        <g>
          <path d="m420.47,223.79s48.72,15.63,54.33,33.23c0,0-.21,7.88,4.68,16.91v3.48s-5.12-11.81-7.91-13.42c0,0,10.85-15.33-51.1-40.19Z" style="fill: #c9dbf1;"/>
          <path d="m479.48,273.92s7.54,11.38,3.3,25.27l-1.93-.51s1.83-15.29-2.12-22.96c-3.95-7.68.75-1.79.75-1.79Z" style="fill: #90a2d3;"/>
        </g>
      </g>
    </g>
    <g>
      <path d="m588.13,380.81l-142.73.35c-21.23-24.31-23.39-57.17,4.81-84.84,3.55-3.48,10.35-5.95,17.68-7.68,13.52-3.2,28.84-3.94,28.96-4,.04-.02,8.1-6.54,12.95-12.41,15.06-18.22,27.87-16.65,27.87-16.65,15.35-2.98,28.44-3.85,38.14,1.55t0,0c8.99,5.02,15.07,15.42,17.34,34.55.43,3.62.73,7.54.88,11.81.55,15.52,3.6,29.33,5.42,41.02,0,0,0,0,0,0,2.63,16.93,2.64,29.43-11.33,36.3Z" style="fill: #ee2f74;"/>
      <path d="m568.21,275.15c-9.31,5.07-10.35,21.78-24.93,26.09-14.58,4.31-39.32,3.91-53.36,19.12-13.55,14.68-28.46-22.69-22.03-33.2,13.52-3.2,28.84-3.94,28.96-4,.04-.02,8.1-6.54,12.95-12.41,15.06-18.22,27.87-16.65,27.87-16.65,15.35-2.98,28.44-3.85,38.14,1.55t0,0c4.92,5.37,1.7,14.42-7.62,19.49Z" style="fill: #ed2675;"/>
      <g>
        <path d="m511.04,279.93s-46.73-.61-52.96,3.37c-6.22,3.98,6.42,67.27,6.42,67.27,0,0,12.09.35,13.04-2.85,0,0-2.26-29.67-.37-34.8,1.89-5.13.7-12.23.7-12.23,0,0,23.65,3.54,31.15,1.75s2.02-22.51,2.02-22.51Z" style="fill: #243962;"/>
        <path d="m521.85,247.22s-6.58,15.33-9.78,16.96c-3.21,1.63-14.81,14.96-17.3,14.73-2.49-.23,2.91,2.02,2.91,2.02,0,0,20.28-9.35,21.46-9.93,1.18-.58,7.39-10.8,8.24-15.99.85-5.19-5.54-7.79-5.54-7.79Z" style="fill: #fab17e;"/>
        <path d="m479.03,355.3c-1.56,3.01-1.91,8.53-2.37,10.41-.46,1.87-8.63,8.24-9.33,7.93-1.79-.81-.08-3.92,1.01-6.19.04-.09.09-.18.13-.27,1.08-2.29.15-7.41.71-10.06.56-2.64-2.12-9.76-2.12-9.76l4.51-5.7s3.17,6.03,5.44,7.13c.4.2.77.43,1.11.71,1.54,1.27,2.2,3.34.92,5.81Z" style="fill: #fab17e;"/>
        <path d="m463.17,372.9c-3.13,1.29-6.96,5.29-8.52,6.42-1.56,1.13-11.91.73-12.24.03-.88-1.84,2.74-3.15,5.04-4.21.03-.01.07-.03.1-.05h0c2.28-1.15,4.82-5.54,6.92-7.18,2.13-1.66,4.67-8.82,4.67-8.82l7.12-1.44s-1.47,6.66-.44,8.96c.1.22.18.44.25.66.65,2.14-.07,4.46-2.9,5.63Z" style="fill: #fab17e;"/>
        <path d="m535.28,240.43c-.95-1.1,14.08-5.63,17.28,6.7,0,0,27.66-7.35,10.66-19.68-5.89-4.27-6.48-8.82-7.33-12.98-.85-4.17-6.72-16.14-16.92-10.2,0,0-4.66.02-7.6,2.57-6.7,5.81-14.03,42.71,3.92,33.58Z" style="fill: #183660;"/>
        <path d="m530.57,282.1s-48.46,4.92-52.72,9.87c-4.26,4.95-21,69.27-21,69.27,0,0,4.95,2.76,9.44.18,0,0,12.82-21.82,18.5-28.67,5.67-6.85,7.8-28,8.73-28.22s31.31,4.24,41.76-3.79c10.46-8.03-4.71-18.65-4.71-18.65Z" style="fill: #2b4f97;"/>
        <path d="m557.56,238.13s-11.56-5.17-26.22-2.8c-3,.48-5.69,1.47-7.84,5-3.03,4.98-4.44,7.66-4.44,7.66,0,0,.29,2.31,4.43,4.15-1.13,4.13,1.03,11.35-.96,14.15-1.99,2.8-14.3,9.74-14.91,13.61-1.12,7.1,21.04,19.96,27.66,18.59,19.02-3.95,31.94-54.91,22.29-60.35Z" style="fill: #f9ddbf;"/>
        <path d="m551.02,223.51s2.28-4.48,2.58-8.16c.22-2.63-2-12.08-11.49-9.79,0,0-2.77.54-5.23,2.56-1.96,1.61-4.68,4.94-.53,12.98l1.14,2.74,13.53-.32Z" style="fill: #183660;"/>
        <g>
          <path d="m538,238.63c-.96,1.01-.58,4.38,3.91,4.13,2.95-.17,9.27-3.81,8.68-6.33-.28-1.2-2.55-4.29-3.08-11.39l-.54.15-9,2.53s.43,2.86.65,5.57c.19,2.28-.23,4.93-.62,5.35Z" style="fill: #fab17e;"/>
          <path d="m537.97,227.71s.43,2.86.65,5.57c5.11-.55,7.44-5.43,8.35-8.1l-9,2.53Z" style="fill: #f4a36a;"/>
          <path d="m537.78,231.87s11.78-2.96,9.82-10.27c-1.96-7.31-1.76-12.61-9.36-11.03-7.6,1.58-8.31,4.76-8.25,7.36.06,2.6,4.67,14.52,7.79,13.94Z" style="fill: #fab17e;"/>
          <path d="m532.85,211.83s3.95,7.54,11.42,8.35c4.37.48,5.56,3.35,5.56,3.35,0,0-1.31-8.23-3.5-13.26,0,0-12.15-3.18-13.48,1.55Z" style="fill: #183660;"/>
          <path d="m534.2,212.83s-2.58,2.63-3.38,4.49c-1.18,2.75,1.12,8.54,2.07,9.79,0,0-5.48-9.3-3.65-13.33,1.94-4.27,4.96-.95,4.96-.95Z" style="fill: #183660;"/>
        </g>
        <path d="m498.27,280.66s-2.35,2.48-2.63,2.62c-1.55.73-3.51.3-4.46.54-.95.24-.78-.35-.09-.83.7-.48,2.42-.29,1.71-.47s-4.49-.88-5.92-.5c-2.26.6-4.04-.11-4.19-.34-.14-.23,5.16-2.82,6.68-2.74,1.52.09,5.87-.12,5.87-.12l3.02,1.83Z" style="fill: #fab17e;"/>
        <path d="m561.54,242.71s1.41,34.55-2.65,39.39c-4.03,4.81-28.75-.53-28.75-.53l-1.71-2.52s21.94-3.21,23.42-3.63c2.12-.6.64-24.39.64-24.39l9.06-8.32Z" style="fill: #fab17e;"/>
        <path d="m556.09,237.58c.35,0,4.72,1.44,7.85,7.65,3.08,6.1,4.2,9.06,4.2,9.06,0,0-13.67,10.59-19.1,6.69-5.44-3.9,2.03-23.53,7.05-23.4Z" style="fill: #f9ddbf;"/>
        <path d="m530.14,281.57s-1.97,1.99-2.72,3.01c-.75,1.02-5.98,2.86-6.09,2.32-.12-.54,2.34-2.2,2.56-2.82.22-.62,2.9-3.73,4.53-4.08,1.63-.35,1.71,1.58,1.71,1.58Z" style="fill: #fab17e;"/>
        <path d="m528.42,279.04s-8.06,1.86-9.43,2.42c-1.37.56-4.27,4.67-3.12,5.28.73.39,3.91-1.29,5.52-1.64,1.62-.35,6.19.44,8.28-3.69.24-.47-1.26-2.37-1.26-2.37Z" style="fill: #fab17e;"/>
        <path d="m463.17,372.9c-3.13,1.29-6.96,5.29-8.52,6.42-1.56,1.13-11.91.73-12.24.03-.88-1.84,2.74-3.15,5.04-4.21.03-.01.07-.03.1-.05h0s.32-.11.32-.11c0,0,4.46,1.59,8.18,0,2.9-1.24,7.19-5.85,10.02-7.72.65,2.14-.07,4.46-2.9,5.63Z" style="fill: #2e3652;"/>
        <path d="m479.03,355.3c-1.56,3.01-1.91,8.53-2.37,10.41-.46,1.87-8.63,8.24-9.33,7.93-1.79-.81-.08-3.92,1.01-6.19.64-.04,1.49-.26,2.49-.93,2.04-1.36,5.5-6.49,5.81-9.52.25-2.47.09-6.01,1.46-7.5,1.54,1.27,2.2,3.34.92,5.81Z" style="fill: #2e3652;"/>
        <g>
          <g>
            <polygon points="518.03 287.79 482.91 287.79 472.35 261.52 507.41 261.52 518.03 287.79" style="fill: #f89748;"/>
            <polygon points="482.5 286.77 528.87 286.77 528.87 287.79 482.91 287.79 482.5 286.77" style="fill: #ec7e2a;"/>
          </g>
          <path d="m491.78,274.66c-.26-.92.27-1.67,1.19-1.67s1.89.75,2.15,1.67c.26.92-.27,1.67-1.19,1.67s-1.89-.75-2.15-1.67Z" style="fill: #fff;"/>
        </g>
      </g>
      <path d="m558.23,287.63s-4.59,4.3-23.8,4.91c-19.21.61-44.27,21.83-44.5,27.82-.24,5.99,38.68,15.12,39.28,14.26.6-.86,24.69-21.53,24.69-21.53l4.34-25.46Z" style="fill: #ed2675;"/>
      <path d="m599.46,343.03c-10.34-18.62-33.96,7.06-39.84-1.63-5.87-8.69,8.3-19.72,21.08-29.22,12.52-9.31,12.47-21.48,12.46-21.97.43,3.62.73,7.54.88,11.81.55,15.52,3.6,29.33,5.42,41.02Z" style="fill: #ed2675;"/>
    </g>
  </g>
  <g>
    <path d="m432.49,82.97c.12,20.29-7,38.92-18.93,53.45-10.27,12.51-16.06,28.1-16.06,44.3v23.34c0,6.6-2.41,12.67-6.39,17.37-4.58,5.4-11.28,9.06-18.76,9.56-.6.04-1.17,0-1.78,0h-43.1c-.58,0-1.21.04-1.78,0-14.01-.9-25.15-12.7-25.15-26.93v-23.3c0-16.16-5.7-31.76-15.98-44.23-11.88-14.42-19.01-32.9-19.01-53.04,0-46.3,37.59-83.48,83.48-83.48s83.2,36.93,83.47,82.97Z" style="fill: #fed32f;"/>
    <path d="m372.34,230.98c-.22,1.67-3.85,29.57-3.89,29.84-.6,4.6-5.86,8.12-12.16,8.12h-14.18c-6.23,0-11.49-3.46-12.15-8.04-.69-4.81-3.33-23.26-4.28-29.92h46.66Z" style="fill: #ec7e2a;"/>
    <g>
      <path d="m366.71,230.98h-8.02c-12.93,3.74-25.76,7.44-31.71,9.11l.31,2.18v.05s.32,2.21.32,2.21c4.81-1.33,16.37-4.64,44.62-12.83l.09-.72h-5.63Z" style="fill: #f89748;"/>
      <path d="m329.14,255.11h0s0,.05,0,.05h0s.32,2.22.32,2.22c5.57-1.56,17.05-4.86,40.97-11.79l.32-2.41v-.02l.31-2.39c-15.12,4.38-33.41,9.66-42.24,12.17l.31,2.17Z" style="fill: #f89748;"/>
      <path d="m334.46,266.96l.08.04c.99.58,2.1,1.05,3.3,1.37h0c6.56-1.88,16.3-4.69,30.78-8.89l.31-2.41v-.02s.32-2.39.32-2.39c-12.93,3.74-27.77,8.03-36.94,10.65.62.61,1.34,1.16,2.15,1.64Z" style="fill: #f89748;"/>
    </g>
    <g>
      <polygon points="332.13 230.98 314.1 124.5 317.82 123.87 335.96 230.98 332.13 230.98" style="fill: #ffeac5;"/>
      <polygon points="364.22 230.98 360.37 230.98 379.68 125.53 383.4 126.21 364.22 230.98" style="fill: #ffeac5;"/>
      <path d="m358.98,143.56c-.48,0-1.02-.06-1.63-.2-1.01-.23-1.65-.93-1.85-2.02-.43-2.36,1.42-6.69,4.02-10.35-1.36-2.37-3.17-4.33-5.06-4.9-2.8-.85-7.1,1.74-10.1,5.04.55.78,1.04,1.59,1.47,2.4,1.53,2.9,2.64,6.6,1.13,8.32-.56.63-1.7,1.21-3.97.36-2.83-1.07-3.85-3.46-2.79-6.57.52-1.53,1.47-3.11,2.68-4.58-2.32-3.03-5.42-5.32-8.47-4.94-1.63.21-3.03.78-4.2,1.58,1.95,3.64,2.4,8.25,1.05,10.72-.92,1.69-2.54,2.22-4.54,1.51-1.44-.51-2.19-2.5-1.92-5.05.28-2.62,1.59-5.48,3.92-7.47-.61-.95-1.33-1.79-2.17-2.43-5.26-4.09-9.62.3-9.8.49l-.82-.8c.05-.05,5.26-5.3,11.32-.6.92.71,1.72,1.62,2.38,2.64,1.29-.88,2.84-1.5,4.64-1.73,3.42-.43,6.84,1.99,9.38,5.2,3.26-3.54,7.9-6.16,11.14-5.18,2.05.62,3.98,2.59,5.45,5.03,1.37-1.78,2.9-3.34,4.39-4.32,2.38-1.58,3.94-1.22,4.82-.64.91.6,1.68,1.4,2.32,2.32.72-.57,1.47-1.06,2.22-1.43,2.76-1.38,5.3-1.27,7.14.28l-.74.87c-1.99-1.68-4.55-.8-5.9-.13-.74.37-1.46.84-2.12,1.37,1.84,3.32,2.2,7.64,1.14,9.73-.66,1.32-1.85,1.78-3.23,1.27-2.5-.91-3.11-2.63-3.18-3.92-.14-2.45,1.56-5.24,3.78-7.3-.57-.86-1.26-1.59-2.06-2.12-1.08-.71-2.53-.05-3.56.63-1.49.98-3.04,2.6-4.42,4.44,1.71,3.26,2.6,7.06,1.95,9.51-.31,1.19-1.22,2.96-3.82,2.96Zm1.13-11.46c-2.26,3.3-3.85,7.03-3.49,9.03.12.64.43.99.98,1.11,2.24.51,3.61-.15,4.09-1.94.55-2.08-.17-5.32-1.58-8.2Zm-16.52-.08c-1.05,1.3-1.87,2.68-2.31,3.97-.87,2.55-.16,4.28,2.11,5.14.91.34,2.12.62,2.71-.04.9-1.02.37-3.91-1.28-7.03-.37-.69-.78-1.38-1.23-2.04Zm-14.29-3.62c-1.99,1.78-3.12,4.29-3.37,6.59-.21,1.95.27,3.53,1.16,3.85,1.45.52,2.52.19,3.16-.98,1.16-2.12.74-6.2-.96-9.46Zm42.17.73c-1.99,1.91-3.33,4.35-3.23,6.23.08,1.37.89,2.34,2.43,2.91.84.31,1.42.08,1.82-.71.88-1.75.51-5.51-1.02-8.43Z" style="fill: #ffeac5;"/>
    </g>
    <path d="m392.1,32.1c6.86,6.46,6,18.36-2.83,21.01-6.65,2-16.58-.67-21.48-9.16-4.9-8.49-2.64-15.48,3.37-18.95,6.02-3.47,13.8.38,20.94,7.1Z" style="fill: #ffeac5;"/>
  </g>
  <g>
    <path d="m134.63,209.17c-.8-1.55,17.49-7.12,17.78,8.15,0,0,34.27-.84,17.91-19.95-5.67-6.61-5.08-12.08-4.91-17.17.17-5.09-3.53-19.89-16.22-18.4,0,0-3.32-1.35-7.47.8-9.43,4.89-30.55,52.2-7.1,46.57Z" style="fill: #183660;"/>
    <path d="m190.67,226.23s2.23-3.4,4.03-3.46c1.8-.07,5.13-1,4.86-.33s-2.33.73-2.53,1.13c-.2.4,3.06,1,4,1.07.93.07,3.13,0,3.06.47-.07.47-3.96,2.4-6.71,2.13-2.75-.27-6.14.8-6.14.8l-.57-1.8Z" style="fill: #fab17e;"/>
    <path d="m158.4,227.33s1.21,2.4,3.41,5.16c2.65,3.32,6.74,7.16,11.87,7.91,2.45.36,4.85-.17,7.05-1.14,0,0,0,0,0,0,6.23-2.77,10.92-9.13,10.92-9.13,1.1-3-.7-5.03-.7-5.03,0,0-12.59,2.83-13.79,2.23-1.2-.6-8.19-20.74-9.86-23.28-1.67-2.53-7.34-3.85-7.34-3.85l-1.58,27.12Z" style="fill: #f9ddbf;"/>
    <path d="m161.81,232.49c2.65,3.32,6.74,7.16,11.87,7.91,2.45.36,4.85-.17,7.05-1.14-.24.03-6.47.8-8.95-3.64-2.53-4.53-5.27-11.72-9.03-9.32-1.62,1.03-1.55,3.61-.94,6.19Z" style="fill: #f2ccaa;"/>
    <path d="m111.44,363.19s-3.84,3.51-3.09,6c.75,2.49,4.22,4.15,4.68,7.19.47,3.04,2.34,4.7,4.03,4.7h8.04s1.24-2.14-1.76-2.79c-3-.65-4.13-4.22-3.94-7.54.19-3.32-.28-7.75-.28-7.75l-6.37-1.48-1.31,1.66Z" style="fill: #243962;"/>
    <path d="m143.95,364.68s-1.38,14.85.3,15.68l21.58-.04s0-2.49-3.47-3.04c-3.47-.55-9.55-2.58-10.59-7.1-1.03-4.52-7.83-5.49-7.83-5.49Z" style="fill: #243962;"/>
    <path d="m128.57,258.16c4.44-9.96,7.16-12.82,6.64-15.91-.39-2.3,1.18-42.89,1.18-42.89.53-.16,1.58-.31,2.16-.44,1.82-.4,3.33-1.68,3.96-3.44.76-2.12,1.36-5.24,1.34-9.16l.57.11,9.56,1.89s-.22,3.01-.22,5.85c0,.02,0,.05,0,.07-.01,2.46,1.6,4.64,3.97,5.32,1.21.35,2.26.65,2.26.65,0,0,3.51,10.03,4.18,20.33.67,10.3-6.39,14.78.05,35.36,6.57,21.02-38.1,7.77-35.65,2.26Z" style="fill: #fab17e;"/>
    <path d="m153.98,188.33s-.22,3.01-.22,5.85c-5.35-.15-8.18-5.03-9.34-7.74l9.56,1.89Z" style="fill: #e9955c;"/>
    <path d="m155.77,191.01s-12.66.21-12.67-7.68c0-7.89-1.65-13.17,6.44-13.64,8.08-.47,9.66,2.54,10.3,5.17.64,2.63-.77,15.89-4.07,16.15Z" style="fill: #fab17e;"/>
    <path d="m155.3,169.5s-3.47,9.25-8.79,10.62c-5.32,1.37-7.63-.06-7.63-.06,0,0,4.08-3.24,4.93-8.9,0,0,8.87-6.07,11.49-1.66Z" style="fill: #183660;"/>
    <path d="m154.44,170.25s2.57.96,3.63,2.84c1.03,1.83,1.92,4.26,1.71,7.24,0,0,2.61-6.29-.32-9.85-3.11-3.77-5.02-.23-5.02-.23Z" style="fill: #183660;"/>
    <path d="m153.01,186.12s.87,1.15,2.62,1.07c1.41-.07,1.95-1.29,1.95-1.29,0,0-2.59-.62-4.57.22Z" style="fill: #ecf3fb;"/>
    <path d="m127.35,217.31s-.32,4.53,0,9.97c.21,3.61,3.86,8.44,4.38,9.63,1.3,3,2.76,3.48,2.76,3.48l11.33,2.78,3.98.98,12.56-3.75s5.72-15.97,3.42-24.96c-2.3-8.99-5.81-15.23-5.81-15.23,0,0-10.25,10.04-23.6-.85l-9.04,17.96Z" style="fill: #f9ddbf;"/>
    <path d="m130.67,228.76c.21,3.61.55,6.96,1.06,8.16,1.3,3,2.76,3.48,2.76,3.48l11.33,2.78,4.92-1.45s-16.43-2.49-14.61-16.62l-5.47,3.65Z" style="fill: #f2ccaa;"/>
    <path d="m161.57,242.83s6.22,19.36,6.62,25.96c.4,6.59-11.89,93.66-12.39,96.7-.47,2.86-4.02,4.69-4.02,4.69,0,0-1.64.96-3.97.31-3.24-.91-4.26-2.01-4.26-2.01,0,0-4.84-62.09-1.85-84.28,3-22.18,3.03-41.36,3.03-41.36h16.83Z" style="fill: #ec7e2a;"/>
    <path d="m135.21,242.25s-9.49,12.73-10.37,21.34c-.88,8.61-1.39,38.84-3.27,47.23-1.88,8.39-8.81,24.54-8.81,50.71,0,0,.72,1.5,2.94,2.3.71.26,1.66.5,2.59.72,1.83.42,3.71-.48,4.55-2.16,4.68-9.43,19.6-39.83,20.36-46.14.54-4.47,5.25-34.02,15.52-51.37,2.47-4.16-1.51-20.72-1.51-20.72l-21.99-1.91Z" style="fill: #f89748;"/>
    <path d="m153.29,186.33s.22.93,2.53.79c0,0,1.94-.12,1.88-1.14,0,0-1.88-.73-4.41.36Z" style="fill: #fff;"/>
    <path d="m162.56,239.84s-2.5,1.98-7.46,2.08c-5.93.12-20.61-1.51-20.61-1.51,0,0-.65,1.82-.63,3.75,0,0,17.94,4.52,28.33.66,0,0,1.34-2.52.37-4.97Z" style="fill: #243962;"/>
    <path d="m153.82,243.96c0-1.69,1.21-3.06,2.7-3.06s2.7,1.37,2.7,3.06-1.21,3.06-2.7,3.06-2.7-1.37-2.7-3.06Zm.9,0c0,1.19.81,2.16,1.81,2.16s1.81-.97,1.81-2.16-.81-2.16-1.81-2.16-1.81.97-1.81,2.16Z" style="fill: #fff;"/>
    <rect x="123.14" y="222.09" width="24.36" height="33.35" transform="translate(80.59 507.7) rotate(-138.95)" style="fill: #b6473d;"/>
    <path d="m138.64,243.4s6.73.79,6.71,2.39c-.02,1.6-1.68,4.88-2.51,5.03-.83.15-5.48-4.44-5.48-4.44l1.28-2.97Z" style="fill: #fab17e;"/>
    <path d="m136.39,199.36s-8.99.63-12.43,9.01c-3.45,8.38-9.98,22.44-9.98,24.8s3.65,9.66,23.26,13.85c0,0,2.03-2.13,1.91-3.82,0,0-12.24-10.52-12.21-11.74.06-2.32,2.01-5.39,12.76-16.15,2.92-2.92-3.3-15.95-3.3-15.95Z" style="fill: #f9ddbf;"/>
  </g>
  <g>
    <g>
      <g>
        <path d="m214.11,380.63h-.09c-.5,0-.91-.41-.89-.92l1.36-58.8,4-.47-3.41,59.27c-.03.51-.45.91-.97.91Z" style="fill: #99bfe5;"/>
        <path d="m278.36,380.63h.09c.5,0,.91-.41.89-.92l-1.36-58.8-4-.47,3.41,59.27c.03.51.45.91.97.91Z" style="fill: #b5d3ef;"/>
        <path d="m211.46,317.27v-40.29c0-7.09,5.75-12.84,12.84-12.84h29.03c7.09,0,12.84,5.75,12.84,12.84v41.83l-54.7-1.54Z" style="fill: #b5d3ef;"/>
        <path d="m211.46,317.27h59.9v6.36h-56.05c-2.13,0-3.85-1.73-3.85-3.85v-2.51h0Z" style="fill: #99bfe5;"/>
        <rect x="232.82" y="317.27" width="48.1" height="6.36" rx="2.85" ry="2.85" style="fill: #b5d3ef;"/>
      </g>
      <g>
        <path d="m276.43,307.23c-4.16,7.24-9.39,10.03-9.39,10.03h-21.76s34.32-15.55,31.15-10.03Z" style="fill: #243962;"/>
        <g>
          <path d="m259.72,363.23c-.57.65-.64,1.38-.36,2.15,0,0,0,0,0,.01.52,1.43,2.23,3.04,4.23,4.64.25.21.48.39.68.57.05.05.1.09.15.14.04.04.08.07.12.11,1.86,1.71,1.16,2.1,4.49,5.58,3.8,3.96,6.42,4.03,7.17,3.67.63-.31-.65-2.41-2.07-4.77-.07-.11-.14-.23-.21-.34-.19-.31-.38-.63-.56-.95-1.66-2.84-1.24-4.17-.84-8.4.32-3.43,5.34-19.19,5.34-19.19l-7.29-1.26s-2.2,12.54-4.61,14.48c-1.29,1.03-2.74,1.04-3.98,1.81-.09.05-.17.11-.26.16-.71.47-1.43.95-1.99,1.6Z" style="fill: #fab17e;"/>
          <path d="m259.72,363.23c-.57.65-.64,1.38-.36,2.15,0,0,0,0,0,.01.64,1.43,2.31,3.03,4.23,4.62.25.21.47.4.67.58.05.05.1.09.15.14.04.04.08.07.12.11,1.86,1.71,1.16,2.1,4.49,5.58,3.8,3.96,6.42,4.03,7.17,3.67.63-.31-.65-2.41-2.07-4.77-.74-.27-4.18-1.67-6.78-5-2.29-2.92-3.82-6.68-5.38-8.85-.09.05-.17.11-.26.16-.71.47-1.43.95-1.99,1.6Z" style="fill: #243962;"/>
          <path d="m318.51,358.68c.45,2.25,3.66,1.88,7.24,1,3.58-.88,2.73.17,7.83-.4,5.1-.56,6.65-2.47,6.8-3.22.14-.67-2.38-.91-5.08-1.22-.34-.04-.68-.08-1.02-.12-3.05-.38-5.29-2.35-8.06-3.97-2.63-1.53-6.55-7.77-6.55-7.77l-7,.55s3.67,5.58,5.09,8c.84,1.43.79,3.31.69,4.77-.05.79-.11,1.6.05,2.39Z" style="fill: #fab17e;"/>
          <path d="m325.75,359.68c3.58-.88,2.73.17,7.83-.4,5.1-.56,6.65-2.47,6.8-3.22.14-.67-2.38-.91-5.08-1.22l-.03.05s-3.06,2.17-7.3,2.27c-3.46.08-7.13-.91-9.52-.87-.05.79-.11,1.6.05,2.39.45,2.25,3.66,1.88,7.24,1Z" style="fill: #243962;"/>
          <path d="m291.7,313.95l-6.54,17.6-8.54,22.98s-2.32.22-4.54-.41c-2.04-.59-4.39-2.14-4.39-2.14,0,0,2.37-24.67,6.79-38.83,1.13-3.64,2.4-6.58,3.8-8.23,6.86-8.1,13.4,9.04,13.4,9.04Z" style="fill: #243962;"/>
          <path d="m285.05,286c-4.28-1.38-16.5.39-28.78,2.8l-2.57-4.24-26.51-2.07s-8.75,19.4-3.96,31.76c.7,1.82,2.1,2.98,4.49,3.02,0,0,.39,0,.39,0,0,0,15.78,0,20.9,0,13.18,0,27.9-9.06,29.81-9.44,3.12-.62,4.36,5.61,7.48,12.15,3.12,6.54,29.3,28.98,29.3,28.98,0,0,4.02.04,5.69-.58,1.79-.67,2.44-1.54,2.44-1.54,0,0-29.01-57.71-38.67-60.83Z" style="fill: #2b488c;"/>
          <path d="m252.66,207.36c-3.4-1.78-8.56-2.02-9.4-2.14-10.05-1.35-16.09,13.25-16.45,17.67-.66,8.15-4.97,9.4-11.04,14.5-12.17,10.24-8.6,22.14-1.95,26.56,3.99,2.65,11.03,0,11.03,0,.1.07,19.25-10.71,28.69-15.9,14.15-2.01,7.77-36.14-.89-40.69Z" style="fill: #b6473d;"/>
          <path d="m245.63,243.62s-4.65,1.63-7.78.24c-2.95-1.3-5.18-6.15-5.14-6.16,1.34-.06,2.81-1.23,3.95-8.93l.57.2,9.6,3.46s-.7,3.08-1.15,6.01c-.38,2.46-.58,4.82-.06,5.17Z" style="fill: #fab17e;"/>
          <path d="m246.84,232.44s-.7,3.08-1.15,6.01c-5.52-.99-7.68-6.49-8.46-9.47l9.6,3.46Z" style="fill: #ee985e;"/>
          <path d="m248.27,235.5s-13.14-1.76-11.91-9.93c1.22-8.16.35-13.89,8.79-13.11,8.44.78,9.6,4.14,9.85,6.96.25,2.82-3.28,16.32-6.73,16.07Z" style="fill: #fab17e;"/>
          <path d="m254.52,214.95s-8.41,7.25-14.13,7.83c-5.72.58-7.89-1.25-7.89-1.25,0,0,3.37-2.8,5.4-7.32.6-1.33,1.86-2.25,3.32-2.37,4.08-.35,11.83-.51,13.3,3.11Z" style="fill: #b6473d;"/>
          <path d="m249.26,214.3s2.81,2.72,3.7,4.74c.86,1.95,1.11,6.6.43,8.45,0,0,4.38-8.52,1.9-12.66-2.63-4.39-6.03-.53-6.03-.53Z" style="fill: #b6473d;"/>
          <path d="m256.7,262.98c-.4,26.59-.11,21.04-3.02,23.56-.7.61-2.67.97-5.26,1.14-8.15.54-22.49-.8-23.03-2.31-1.88-5.21-.55-6.83-2.12-14.82-.16-.85-.37-1.77-.6-2.77-1.31-5.48-2.58-7.35,2.06-16.16,4.21-7.98,8.58-14.45,8.98-14.22,11.11,6.59,12,1.05,12,1.05,0,0,11.2,11.55,11,24.52Z" style="fill: #ee2f74;"/>
          <path d="m285.16,331.54l-8.54,22.98s-2.32.22-4.54-.41c-2.04-.59-4.39-2.14-4.39-2.14,0,0,2.37-24.67,6.79-38.83l10.67,18.4Z" style="fill: #2b488c;"/>
          <path d="m245.69,238.45s11.43,1.94,12.77,6.86c1.34,4.92,9.24,33.85,9.24,33.85,0,0-5.81,1.04-8.49-1.64s-9.34-24.9-9.34-24.9l-4.18-14.16Z" style="fill: #ee2f74;"/>
          <path d="m248.41,287.68c-8.15.54-22.49-.8-23.03-2.31-1.88-5.21-.55-6.83-2.12-14.82l3.93-11.07s-.65,12.33,2.99,15.58c3.63,3.24,14.89,6.26,16.66,8.97.85,1.3,1.41,2.61,1.58,3.65Z" style="fill: #ed2675;"/>
          <path d="m239.07,282.49s8.04-1.79,9.34-1.08c1.3.71,4.47,3.31,4.87,4.22.4.9-2.89-.69-3.96-.97-.69-.19-2.52.45-3.42.75-3.8,1.27-6.12.61-6.12.61l-.71-3.53Z" style="fill: #fab17e;"/>
          <path d="m233.68,237.4s-10.8.67-14.54,5.88c-5.26,7.34-15.71,38.63-9.72,42.8,6.74,4.7,30.67,1.23,30.67,1.23,0,0,.8-3.72-.31-5.52-1.11-1.8-19.12-4.71-19.95-5.54-.83-.83,10.39-16.21,10.39-18.7s3.46-20.15,3.46-20.15Z" style="fill: #ee2f74;"/>
          <path d="m248.8,283.65s1.69,2.17,2.24,2.43c.55.26.91.19.91.19l-1.14-2.04-2.01-.58Z" style="fill: #fab17e;"/>
          <path d="m248.41,281.41l4.9,2.38s-.21.34-.81.31c-.6-.03-2.13-.58-2.13-.58l-1.96-2.11Z" style="fill: #fab17e;"/>
        </g>
        <g>
          <g>
            <polygon points="251.04 289.41 289.81 289.41 301.47 260.42 262.76 260.42 251.04 289.41" style="fill: #f89748;"/>
            <polygon points="290.26 288.29 239.07 288.29 239.07 289.41 289.81 289.41 290.26 288.29" style="fill: #ec7e2a;"/>
          </g>
          <path d="m280.02,274.92c.29-1.02-.3-1.85-1.32-1.85s-2.08.83-2.37,1.85c-.29,1.02.3,1.85,1.32,1.85s2.08-.83,2.37-1.85Z" style="fill: #fff;"/>
        </g>
      </g>
    </g>
    <g>
      <path d="m373.87,381.44h.11c.66,0,1.2-.6,1.18-1.34l-1.79-85.79-5.28-.68,4.51,86.47c.04.75.6,1.33,1.28,1.33Z" style="fill: #243962;"/>
      <path d="m240.35,381.44h-.11c-.66,0-1.2-.6-1.18-1.34l1.79-85.79,5.28-.68-4.51,86.47c-.04.75-.6,1.33-1.28,1.33Z" style="fill: #243962;"/>
      <rect x="231.52" y="289.41" width="153.16" height="6.14" rx="2.14" ry="2.14" style="fill: #243962;"/>
    </g>
  </g>
  <g>
    <polygon points="490.02 53.4 519.08 58 499.95 44.53 498.91 48.73 491.8 49.91 490.02 53.4" style="fill: #a2c2e6;"/>
    <polygon points="519.08 58 495.03 45.13 471.29 43.57 519.08 58" style="fill: #fff;"/>
    <polygon points="499.95 44.53 519.08 58 504.43 37.18 499.95 44.53" style="fill: #fff;"/>
  </g>
  <g>
    <polygon points="211.26 81.96 173.42 92.83 196.61 71.81 198.7 77.23 208.32 77.62 211.26 81.96" style="fill: #a2c2e6;"/>
    <polygon points="173.42 92.83 203.25 71.8 234.52 65.84 173.42 92.83" style="fill: #ecf3fb;"/>
    <polygon points="196.61 71.81 173.42 92.83 189.46 62.78 196.61 71.81" style="fill: #ecf3fb;"/>
  </g>
</svg>