<?xml version="1.0" encoding="utf-8"?>
<!-- Generator: Adobe Illustrator 27.2.0, SVG Export Plug-In . SVG Version: 6.00 Build 0)  -->
<svg version="1.1" id="Camada_1" xmlns="http://www.w3.org/2000/svg" xmlns:xlink="http://www.w3.org/1999/xlink" x="0px" y="0px"
	 viewBox="0 0 32 32" style="enable-background:new 0 0 32 32;" xml:space="preserve">
<style type="text/css">
	.st0{fill:#FF0073;}
	.st1{fill:#FFFFFF;}
</style>
<path class="st0" d="M6,2h20c2.2,0,4,1.8,4,4v20c0,2.2-1.8,4-4,4H6c-2.2,0-4-1.8-4-4V6C2,3.8,3.8,2,6,2z"/>
<path class="st1" d="M26,24l-4.9,2L13,18l-5.1,4l-2-1V11l2-1l5.1,4l8-8l5,2V24z M15.7,16l5.3,4.1l0,0v-8.3L15.7,16L15.7,16z
	 M7.9,19.1L7.9,19.1L11,16l-3-3.1l0,0L7.9,19.1L7.9,19.1z"/>
</svg>
