<?xml version="1.0" encoding="utf-8"?>
<!-- Generator: Adobe Illustrator 27.3.1, SVG Export Plug-In . SVG Version: 6.00 Build 0)  -->
<svg version="1.1" id="Camada_1" xmlns="http://www.w3.org/2000/svg" xmlns:xlink="http://www.w3.org/1999/xlink" x="0px" y="0px"
	 viewBox="0 0 28 28" style="enable-background:new 0 0 28 28;" xml:space="preserve">
<style type="text/css">
	.st0{fill:#FF0073;}
	.st1{fill:#FFFFFF;}
</style>
<path class="st0" d="M4,0h20c2.2,0,4,1.8,4,4v20c0,2.2-1.8,4-4,4H4c-2.2,0-4-1.8-4-4V4C0,1.8,1.8,0,4,0z"/>
<path class="st1" d="M24,22l-4.9,2L11,16l-5.1,4l-2-1V9l2-1l5.1,4l8-8l5,2V22z M13.7,14l5.3,4.1l0,0V9.8L13.7,14L13.7,14z M5.9,17.1
	L5.9,17.1L9,14l-3-3.1l0,0L5.9,17.1L5.9,17.1z"/>
</svg>
