<?xml version="1.0" encoding="utf-8"?>
<!-- Generator: Adobe Illustrator 27.2.0, SVG Export Plug-In . SVG Version: 6.00 Build 0)  -->
<svg version="1.1" id="Layer_1" xmlns="http://www.w3.org/2000/svg" xmlns:xlink="http://www.w3.org/1999/xlink" x="0px" y="0px"
	 viewBox="0 0 29.4 29.6" style="enable-background:new 0 0 29.4 29.6;" xml:space="preserve">
<style type="text/css">
	.st0{fill:#FF0073;}
	.st1{fill:#FFFFFF;}
	.st2{fill:#F9F7F8;}
</style>
<g id="_x33__x2C__XD_x2C__Adobe">
	<path class="st0" d="M4.7,0.7h20c2.2,0,4,1.8,4,4v20c0,2.2-1.8,4-4,4h-20c-2.2,0-4-1.8-4-4v-20C0.7,2.5,2.5,0.7,4.7,0.7z"/>
	<path class="st1" d="M12.7,22.1l-2.8-5.9l-2.8,5.9H4.5l3.9-7.6L4.6,7h2.6l2.8,5.7L12.8,7h2.6l-3.8,7.4l4,7.7L12.7,22.1L12.7,22.1z
		 M24.9,21.3c0,0-1.2,0.9-3.7,0.9c-3.5,0-5.1-2.4-5.1-5.6c0-4.1,3-5.8,5.6-5.8c0.3,0,0.8,0,0.8,0V7h2.5V21.3L24.9,21.3z"/>
	<path class="st0" d="M18.7,16.5c0,3.1,2.1,3.4,2.8,3.4s1-0.1,1-0.1v-6.4c0,0-0.2-0.1-0.8-0.1C21.1,13.2,18.7,13.4,18.7,16.5z"/>
</g>
<g id="Layer_1_00000183960767544461697720000017353060932833541762_">
</g>
<g>
	<path class="st0" d="M1361.8,277h-275.9c-27.8,0-50.4-22.6-50.4-50.4V-49.6c0-27.8,22.6-50.4,50.4-50.4h275.9
		c27.8,0,50.4,22.6,50.4,50.4v276.1C1412.2,254.4,1389.6,277,1361.8,277z"/>
</g>
<g>
	<g>
		<g>
			<g>
				<rect x="1115.1" y="-28.4" class="st2" width="38.5" height="234"/>
				<path class="st2" d="M1299.7-28.4v59.9c0,0-6.9,0-11.5,0c-39.2,0-86.6,25.3-86.6,89.9c0,49.9,25.3,87.4,79.2,87.4
					c39.7,0,58.4-13.7,58.4-13.7V-28.4H1299.7z M1299.7,174.4c0,0-4.5,2-15.3,2c-10.7,0-43.6-4.7-43.6-56.8s37.8-56.3,46.9-56.3
					s12,2.5,12,2.5V174.4L1299.7,174.4z"/>
			</g>
		</g>
	</g>
</g>
</svg>
